<svg width="76" height="189" viewBox="0 0 76 189" fill="none" xmlns="http://www.w3.org/2000/svg">
<path d="M61.5764 15.1485C62.5751 10.8009 62.7192 6.74978 61.3948 2.42105C59.7968 -2.80352 56.9993 1.80471 54.7837 3.47419C50.2944 7.06474 44.6157 8.80814 39.1666 10.309C39.5287 8.2133 39.9958 2.86238 37.6621 1.92051C36.5016 2.00085 35.2758 3.55679 34.4511 4.37456C29.3566 9.42901 21.8694 10.7669 16.3236 15.0285C16.6545 13.6906 17.8825 9.91107 16.2958 9.22419C13.0758 9.75416 10.5158 16.4985 9.7999 19.2969C8.53097 18.4305 4.96056 16.7123 3.7873 18.2939C3.701 19.7265 5.31363 21.0237 6.27002 22.0972C4.64352 22.4559 0.341431 24.0937 0.00149536 25.9424C0.527153 27.0442 1.70792 26.65 2.71871 26.5003C3.87584 26.329 4.78084 26.3411 5.94171 26.3826C-7.92952 47.4027 6.10042 66.4833 25.1896 76.9671C18.7102 79.8191 10.2093 86.7592 5.80289 92.7853C5.42131 93.3073 6.24038 94.15 6.61183 94.5781C3.02977 99.5858 -0.72525 104.617 0.336945 111.183C1.11736 116.006 3.96252 120.538 7.89426 123.385C8.54636 123.849 9.23222 124.265 9.94549 124.628C9.62244 127.967 8.73696 129.818 12.7212 130.391C13.146 137.367 12.9869 143.571 12.1423 150.496C12.0718 151.073 12.1558 151.392 12.4627 151.85C14.0157 152.687 17.5118 153.22 19.3661 153.577L19.1259 172.628C16.599 175.32 16.3029 180.78 16.4174 184.286C16.453 185.374 16.5888 186.809 17.454 187.582C19.4914 189.406 43.3366 189.145 47.4158 188.585C48.3381 188.459 48.9395 187.659 49.8299 187.491C52.3813 187.011 58.2877 188.518 59.9397 186.046C60.6883 184.927 60.6732 183.528 60.405 182.255C59.8358 179.555 57.7658 177.661 55.5247 176.276C52.6349 174.489 49.4584 173.403 46.4501 171.874C47.1498 167.764 47.8541 157.8 48.0229 153.536C49.1542 153.392 52.4503 153.08 52.528 152.505C53.1793 147.688 53.6086 134.906 53.9628 130.778C55.7581 130.399 57.3152 130.123 59.0452 129.483C59.3428 119.454 56.9073 106.372 53.5898 96.9277C52.8608 94.8425 52.0237 92.8992 51.1679 90.8665C49.5646 87.586 48.095 84.5209 45.9702 81.5214C58.7192 80.8768 65.5032 74.1525 66.756 61.4948C68.0978 60.6654 69.1063 59.8955 69.4912 58.2309C69.7201 57.2234 69.5363 56.1661 68.9806 55.2967C68.1473 53.9659 67.1879 53.5804 65.8375 52.9584C65.1509 45.9418 65.0639 43.504 62.6675 36.4462C71.6843 32.2329 76.2704 21.3858 75.1609 11.7658C74.9868 10.2577 74.809 8.33325 73.4388 7.46343C72.6726 7.38271 72.0843 7.87232 71.4592 8.4317C68.0471 11.4847 65.8169 13.2708 61.5764 15.1485Z" fill="#151413"/>
<path d="M47.2948 86.3319C40.8856 90.4042 35.4279 86.1818 31.2939 81.2228C29.5522 79.1327 29.2765 78.559 26.6715 77.8103C19.6634 80.7622 12.1413 87.2519 7.17817 93.1015C8.11805 94.2572 8.87859 95.1365 9.89914 96.2179L11.0098 97.3624L12.6779 99.0088L13.9138 100.117C15.8273 101.978 18.6995 104.079 20.9031 105.592C23.9719 102.492 26.375 98.9194 29.3219 95.7445C29.4528 95.7204 29.5841 95.6959 29.7155 95.6717C30.2171 96.0716 30.079 95.82 30.1631 96.4393C29.2457 98.3374 22.8553 105.915 21.0438 107.181C20.1549 106.72 19.2169 106.119 18.354 105.595C17.5079 106.627 14.3693 110.65 13.9491 111.686C12.0903 116.271 11.4487 123.802 11.0491 128.64C24.1726 131.263 35.0317 132.646 48.2966 130.266C51.6078 129.672 54.3498 129.411 57.7461 128.505C57.3851 125.866 57.2947 121.779 57.0073 118.912C56.2509 111.46 54.5959 104.128 52.079 97.0772C52.763 97.0994 52.9154 97.1353 53.5877 96.9278C52.8587 94.8427 52.0216 92.8993 51.1658 90.8666L49.7509 91.2581C48.9543 89.5434 48.2475 87.9731 47.2948 86.3319Z" fill="#EF8B32"/>
<path d="M30.3359 82.633L28.8798 81.3985C27.4191 83.2456 25.4898 85.1561 23.8881 86.9059C20.2028 90.9318 16.2133 94.8577 12.68 99.0087L13.916 100.117C16.8984 97.2774 20.2434 93.4069 23.1508 90.3641C25.1525 88.2688 28.6888 84.7272 30.3359 82.633Z" fill="#E24240"/>
<path d="M11.013 97.3623C12.611 95.8807 26.2976 81.3295 26.7148 80.4631L26.4676 79.9934C25.8489 79.5929 26.1719 79.6649 25.4782 79.7185C22.0143 82.71 18.6739 86.7638 15.4119 90.0299C13.5708 91.8733 11.4895 94.1561 9.90239 96.2179L11.013 97.3623Z" fill="#E24240"/>
<path d="M51.1679 90.8665L49.753 91.258C50.5477 93.1828 51.3728 95.1205 52.0812 97.077C52.7652 97.0993 52.9175 97.1351 53.5898 96.9277C52.8608 94.8425 52.0237 92.8992 51.1679 90.8665Z" fill="#151413"/>
<path d="M59.1606 1.39883C58.453 1.89598 56.8505 3.74426 56.0288 4.41869C53.5675 6.43934 50.0995 8.36192 47.1204 9.40185C45.3731 10.0114 38.4405 12.4274 37.1216 11.8242C36.8639 10.9269 38.9087 6.31751 37.8717 4.26178C37.6495 3.82159 37.546 3.82536 37.1051 3.71144C35.8643 4.91885 34.2952 6.59738 32.9201 7.59356C28.2312 10.9891 22.5037 12.5043 17.7897 15.8263C17.022 16.3672 16.0202 17.2468 15.2571 17.6565L14.9719 17.5109C14.4969 16.2235 15.433 12.2908 15.7298 10.71C12.1996 15.0391 11.9632 16.5456 10.6991 21.806C9.55587 20.9437 7.30428 18.8737 5.90477 19.3007C6.13402 19.9977 7.81044 21.8977 8.39463 22.9621C6.43983 23.7399 5.04106 23.6253 2.93693 24.8451C5.60649 24.9224 8.80322 24.7436 6.47508 28.2576C-2.45286 41.733 2.08447 56.2657 13.3447 66.5851C14.2084 67.3768 14.8444 68.2437 15.8638 68.8619C16.5523 68.9128 16.2885 68.9513 16.9729 68.4198C18.4576 66.9589 19.1513 65.624 19.985 63.7557C13.1038 59.9234 12.141 50.8031 18.8598 46.1693C22.7855 43.4617 27.1724 46.6415 29.2904 50.0438C29.9811 51.1532 31.3765 54.8143 32.4406 55.1741C32.9632 54.9376 33.3257 54.5751 33.4191 53.9331C34.3399 47.6188 32.952 40.4294 35.1466 34.3384C36.5055 30.5672 42.6341 33.0586 45.2752 33.6319C49.5889 34.5685 58.587 36.3911 62.5581 34.7394C71.2197 31.1364 76.0962 17.4607 72.9658 8.83682C70.6925 11.1668 63.3625 17.4079 60.0994 16.9285C59.346 16.2801 59.9009 15.3363 60.2187 14.1168C61.3451 9.79074 61.2209 5.43825 59.1606 1.39883Z" fill="#57BF6B"/>
<path d="M61.2655 36.5959C53.0463 37.3631 46.4202 35.126 38.3282 33.687C33.6494 32.8545 36.0627 53.0852 34.5867 55.3717C33.7256 56.7059 32.1434 56.7168 31.05 56.3905C30.1533 55.5909 29.3928 53.6238 28.9159 52.3745C27.1708 47.8036 21.8966 44.3145 17.8935 48.6863C16.174 50.5643 15.4814 53.253 15.8101 55.7584C16.0423 57.9499 16.8985 59.7759 18.5299 61.0633C21.0025 63.0145 22.7671 62.8399 25.5965 62.9523C25.7304 63.0786 25.8643 63.205 25.9983 63.3314L26.0279 63.7018C25.3038 64.2702 23.5486 64.4079 22.6297 64.297C22.1735 64.24 21.7187 64.1718 21.2655 64.0922C20.1583 66.9114 19.4619 67.8623 17.3878 70.0787C25.7773 77.1828 36.4612 80.7481 47.3811 80.0092C56.1792 79.414 63.0435 74.1196 64.7755 65.3113C65.0066 64.1359 65.1998 61.2202 65.8103 60.359C68.4329 59.6409 69.3057 56.0111 66.0875 54.7237C65.5011 54.3748 64.5834 53.958 64.5316 53.2783C64.0829 47.3683 63.1696 42.2837 61.2655 36.5959Z" fill="#EFB088"/>
<path d="M65.8103 60.3591C68.4329 59.6409 69.3057 56.0111 66.0875 54.7238C64.8952 55.2262 63.8153 55.4563 63.2867 56.7833C62.7059 58.2419 64.1009 59.6006 65.2756 60.1222L65.5889 60.2641C65.6625 60.2957 65.7364 60.3274 65.8103 60.3591Z" fill="#E98E79"/>
<path d="M58.3079 44.4753C57.0806 44.4263 56.3624 44.3753 55.1427 44.5255C53.6606 46.1482 53.0415 47.5679 53.0963 49.824C53.1638 52.5941 54.8688 56.391 58.0899 56.314C60.5474 56.2556 62.04 52.1758 60.8108 50.2909C60.5219 48.0406 60.7482 45.6574 58.1758 45.1003L58.3079 44.4753Z" fill="#FEFEFD"/>
<path d="M58.1774 45.1004C55.8095 47.7562 56.4163 53.9989 59.715 53.5296C60.8223 52.7549 60.7952 51.5595 60.8125 50.291C60.5236 48.0406 60.7498 45.6575 58.1774 45.1004Z" fill="#151413"/>
<path d="M45.9347 54.5288C39.1537 53.8672 40.4207 60.7209 47.7402 62.5944C55.5207 63.2353 52.8969 55.6098 45.9347 54.5288Z" fill="#E98E79"/>
<path d="M54.0796 63.7584C53.8631 63.7317 53.6556 63.7947 53.423 63.8346C51.4397 65.7772 53.8905 73.4147 60.5155 70.2059C61.7803 69.1463 63.5932 66.7824 63.3103 65.0039C63.1051 64.7444 62.9832 64.5113 62.6008 64.4962C59.5347 64.3748 57.1127 64.4268 54.0796 63.7584Z" fill="#151413"/>
<path d="M54.0454 65.0919L53.8638 65.4008C53.8605 66.4487 53.8841 66.999 54.4799 67.8971C55.1275 68.8639 56.1406 69.5221 57.283 69.7194C58.6015 69.9491 59.4735 69.3893 60.4869 68.6549C61.3311 67.6998 61.6602 66.9364 62.0977 65.7897C58.8829 65.8851 57.1607 65.7935 54.0454 65.0919Z" fill="#E24240"/>
<path d="M58.3096 44.4754C59.6235 44.401 60.2734 44.4889 61.241 43.5776C62.594 39.9558 51.124 39.5808 48.9336 44.0887C48.9768 46.0226 53.9216 44.7092 55.1444 44.5255C56.3641 44.3754 57.0823 44.4263 58.3096 44.4754Z" fill="#151413"/>
<path d="M22.2225 50.143C20.9547 50.0815 19.8516 50.2599 18.9586 51.315L19.0153 51.6307C20.7367 52.9784 22.4758 48.595 25.9494 55.4407C26.2135 56.3132 26.3137 57.1378 27.0078 57.636L27.3744 57.541C28.4824 54.7229 24.7352 51.1007 22.2225 50.143Z" fill="#151413"/>
<path d="M20.4186 131.756C18.2826 131.394 16.1503 131.008 14.0222 130.599C14.7099 137.329 14.6529 144.186 13.4556 150.872C15.3159 151.377 16.8009 151.666 18.6799 152.012L20.3012 152.272C21.2039 152.468 21.7855 152.559 22.7036 152.661L24.2299 152.823C26.4635 153.505 38.7338 153.104 41.4172 152.845C42.1523 148.657 42.1568 142.889 43.4516 138.892C44.2845 138.135 45.7849 136.84 46.8682 136.638C47.342 136.892 47.1469 136.707 47.3507 137.324C46.9402 137.906 45.5234 138.901 44.7835 139.635L44.6087 139.811C43.9044 143.078 43.2737 148.852 42.8606 152.244C45.8011 152.203 48.366 152.237 51.2734 151.72C51.4892 145.371 51.9368 137.285 52.5938 131.03C42.9405 132.801 35.9719 133.48 26.2643 132.463L24.6877 132.281C24.4772 132.214 22.5141 132.037 22.1614 132.001C21.6527 131.962 20.9413 131.834 20.4186 131.756Z" fill="#845498"/>
<path d="M20.418 131.756C18.2819 131.394 16.1497 131.008 14.0215 130.599C14.7093 137.329 14.6522 144.186 13.4549 150.872C15.3152 151.377 16.8003 151.666 18.6793 152.012C18.8031 146.474 19.833 137.457 20.418 131.756Z" fill="#845498"/>
<path d="M22.1612 132.001C21.6525 131.962 20.9411 131.834 20.4184 131.756C19.8335 137.457 18.8036 146.474 18.6797 152.012L20.301 152.272C21.2037 152.468 21.7853 152.559 22.7034 152.661C23.3844 147.51 23.6088 138.08 24.42 132.559C24.5093 132.466 24.5986 132.373 24.6875 132.281C24.477 132.213 22.5139 132.037 22.1612 132.001Z" fill="#845498"/>
<path d="M22.1602 132.001C21.6514 131.962 20.94 131.834 20.4174 131.756C19.8324 137.457 18.8025 146.474 18.6787 152.012L20.2999 152.272C20.3802 152.198 20.4605 152.124 20.5408 152.05C21.119 146.917 21.8041 136.623 22.1602 132.001Z" fill="#FEFEFD"/>
<path d="M24.689 132.281C24.6001 132.373 24.5108 132.466 24.4215 132.559C23.6103 138.08 23.3859 147.51 22.705 152.661L24.2313 152.823L24.6477 152.603C24.943 151.335 25.1603 147.513 25.2788 145.983C25.639 141.478 25.9681 136.971 26.2656 132.463L24.689 132.281Z" fill="#FEFEFD"/>
<path d="M7.59828 95.7796C6.78259 96.5615 5.87721 98.0616 5.19134 98.9933C0.204521 105.766 0.403389 113.5 6.03706 119.82C6.67828 120.539 9.07694 122.843 9.98456 122.888L10.1474 122.515C11.4576 112.877 11.4805 112.394 17.1641 104.744C13.1903 101.595 11.0715 99.4505 7.59828 95.7796Z" fill="#EFB088"/>
<path d="M35.1973 173.808C34.0815 174.046 31.4787 176.394 28.6801 176.748C24.623 177.26 22.6802 176.24 19.4974 174.046C18.162 176.979 17.9598 180.049 17.7917 183.229C21.5948 184.01 31.1129 184.003 35.3519 184.027C39.8033 184.03 44.2543 183.958 48.7031 183.812C47.4064 180.375 45.3496 179.136 42.3213 177.426C40.9548 178.942 39.7797 180.524 38.4365 182.048C37.2339 181.285 34.6165 180.067 33.826 179.473C31.8805 178.013 35.9631 175.733 35.9053 174.294L35.1973 173.808Z" fill="#E24240"/>
<path d="M20.687 162.844L20.6401 165.098L20.6375 167.226L20.5854 172.99C25.287 176.941 29.9317 175.639 34.442 172.443C34.5902 170.888 34.7721 169.338 34.9875 167.791C35.0577 167.528 35.2201 166.089 35.2678 165.732C35.3758 164.992 35.4528 164.189 35.5391 163.441C31.3184 163.897 24.9182 163.576 20.687 162.844Z" fill="#FEFEFD"/>
<path d="M20.687 162.844L20.6401 165.098L20.6375 167.226C26.6528 168.176 29.0728 168.046 34.9875 167.791C35.0577 167.528 35.2201 166.089 35.2678 165.732C35.3758 164.992 35.4528 164.189 35.5391 163.441C31.3184 163.897 24.9182 163.576 20.687 162.844Z" fill="#FEFEFD"/>
<path d="M35.2656 165.732C29.8954 166.274 25.8949 165.836 20.638 165.098L20.6354 167.226C26.6506 168.176 29.0707 168.046 34.9853 167.791C35.0555 167.528 35.218 166.089 35.2656 165.732Z" fill="#E24240"/>
<path d="M21.4007 153.951L21.0552 153.917C20.5967 154.438 20.7197 160.341 20.6833 161.502C26.5526 162.156 29.6158 162.244 35.5421 162.106C35.9841 160.535 36.2771 156.349 36.4141 154.627C30.5526 154.711 27.2205 154.61 21.4007 153.951Z" fill="#EFB088"/>
<path d="M45.8906 163.094C42.9141 163.169 39.9358 163.168 36.9593 163.091L36.771 165.216C36.6888 165.943 36.6198 166.672 36.4854 167.391L35.8254 172.779C37.1176 173.542 38.7003 174.136 40.102 174.712C41.8141 173.838 43.5997 172.951 45.1631 171.829C45.3203 170.361 45.4055 168.873 45.5601 167.444L45.7379 165.111L45.8906 163.094Z" fill="#FEFEFD"/>
<path d="M45.8906 163.094C42.9141 163.169 39.9358 163.168 36.9593 163.091L36.771 165.216C36.6888 165.943 36.6198 166.672 36.4854 167.391C39.1895 167.433 43.0481 167.297 45.5601 167.444L45.7379 165.111L45.8906 163.094Z" fill="#E24240"/>
<path d="M45.8906 163.094C42.9141 163.169 39.9358 163.168 36.9593 163.091L36.771 165.216C40.0765 165.4 42.4639 165.323 45.7379 165.111L45.8906 163.094Z" fill="#FEFEFD"/>
<path d="M19.9752 184.721C19.3047 184.641 18.5735 184.452 18.0309 184.781C17.7645 185.37 18.017 186.074 18.16 186.744C21.7646 187.574 30.1267 187.464 33.9493 187.466C37.7519 187.467 43.4422 187.558 47.1234 187.247C48.3311 187.099 49.1682 186.411 48.5649 185.185C47.5789 184.983 46.499 185.12 45.489 185.125C37.0387 185.171 28.3888 185.521 19.9752 184.721Z" fill="#FEFEFD"/>
<path d="M46.7148 153.529C42.5707 153.512 41.7656 154.315 37.9119 154.627L37.0984 161.782C40.0032 161.787 43.132 161.839 46.0117 161.615C46.2207 158.917 46.5152 156.23 46.7148 153.529Z" fill="#EFB088"/>
<path d="M53.2267 176.634C52.0388 176.961 50.3951 180.374 49.421 180.623C48.9633 180.448 48.9884 180.43 48.5153 180.353C48.9644 181.281 49.4481 182.138 49.9482 183.036C50.9733 182.955 52.3052 182.958 53.3595 182.935C55.3005 182.927 57.2414 182.871 59.1797 182.766C57.8837 179.411 56.1593 178.402 53.2267 176.634Z" fill="#E24240"/>
<path d="M32.4442 79.7694L32.1144 79.7264L32.0322 79.9542C34.4988 84.3874 41.1616 88.2839 46.1368 85.5997C46.2892 85.4398 46.3391 85.3142 46.4531 85.1177C46.3424 84.3535 45.9211 83.8801 45.4799 83.2279C40.2825 87.1659 37.4532 81.0549 32.4442 79.7694Z" fill="#E24240"/>
<path d="M59.4258 183.989L50.1485 184.113L50.126 186.249C52.2283 186.209 57.0102 186.532 58.756 185.501C59.2359 185.217 59.3192 184.536 59.4258 183.989Z" fill="#FEFEFD"/>
<path d="M46.4223 172.981C45.5875 173.08 42.5194 174.908 41.6043 175.417L43.0447 176.279L44.2555 176.993C45.0036 175.768 46.4272 174.539 46.8125 173.593L46.4223 172.981Z" fill="#E24240"/>
<path d="M38.7566 81.1484L38.1687 81.1175L38.1905 81.3615C39.4395 82.4629 41.4262 83.1094 43.0647 83.2294C43.6913 82.885 44.1498 82.7198 44.1641 81.9522C43.4932 81.3291 39.9637 81.2714 38.7566 81.1484Z" fill="#EFB088"/>
<path d="M40.1952 176.254C39.1165 176.494 37.7001 178.464 37.3058 179.515C37.4232 180.167 37.4465 179.994 38.1406 180.539L41.1328 177.018C40.9418 176.605 40.6593 176.547 40.1952 176.254Z" fill="#FEFEFD"/>
<path d="M50.8437 175.281C50.0258 175.625 48.4488 177.642 48.0099 178.487C48.1689 179.001 48.5306 179.166 49.0101 179.591C49.7272 178.729 51.7442 176.731 51.6152 175.75L50.8437 175.281Z" fill="#FEFEFD"/>
<path d="M37.5284 175.132C36.6958 175.676 34.8498 177.328 34.9309 178.441C34.9538 178.757 35.4494 178.991 35.7263 179.19C36.6272 177.985 37.5959 176.866 38.5039 175.669L37.5284 175.132Z" fill="#FEFEFD"/>
<path d="M48.8439 174.345C47.662 174.505 45.7323 176.23 45.7346 177.467L46.3248 178.049L46.6966 177.969C47.3889 177.214 48.8552 175.66 49.1992 174.737L48.8439 174.345Z" fill="#FEFEFD"/>
</svg>
