<svg width="270" height="181" viewBox="0 0 270 181" fill="none" xmlns="http://www.w3.org/2000/svg">
<path d="M8.17392 153.693C4.76702 155.172 2.12233 157.936 0.843163 161.423C-0.437251 164.907 -0.247304 168.828 1.3497 172.279C2.94671 175.729 5.81377 178.412 9.29865 179.69C12.7848 180.971 16.6032 180.743 19.9355 179.103C24.5246 176.836 29.0032 174.566 33.5345 172.246C59.0807 159.033 84.3704 145.632 108.902 129.221C116.607 123.983 124.033 118.395 131.16 112.487C154.632 92.91 173.523 71.4883 196.674 54.676C200.713 51.6634 204.804 48.7024 208.936 45.7884C223.685 35.3973 238.831 25.4265 254.318 15.9779C258.544 13.4042 262.887 10.8145 267.096 8.40854C268.092 7.8456 268.834 6.88687 269.172 5.76886C269.51 4.64936 269.415 3.46222 268.896 2.443C268.378 1.42377 267.474 0.648575 266.37 0.262324C265.267 -0.122439 264.055 -0.0866766 263.014 0.38736C258.419 2.5086 253.868 4.70858 249.351 6.93141C232.858 15.0705 216.613 23.7189 200.757 33.2144C196.315 35.8774 191.9 38.5983 187.518 41.3885C161.873 57.2923 140.093 78.5019 117.579 95.1793C110.648 100.311 103.565 105.086 96.2075 109.575C72.7703 123.649 47.1425 135.944 21.635 147.672C17.1285 149.726 12.5436 151.789 8.17392 153.693Z" fill="#280059"/>
<path d="M9.9537 156.627C7.33304 157.785 5.30689 159.93 4.33783 162.627C3.36779 165.321 3.53426 168.345 4.78377 170.999C6.03327 173.652 8.25861 175.707 10.9534 176.676C13.6491 177.646 16.5935 177.451 19.1557 176.169C23.7021 173.888 28.1526 171.612 32.6087 169.315C55.0195 157.682 77.2788 145.942 99.0355 132.366C109.758 125.606 119.957 118.021 129.521 109.898C151.955 90.6931 171.082 69.8588 194.075 53.2756C198.513 50.0054 203.036 46.8065 207.606 43.6623C222.526 33.4159 237.831 23.6326 253.373 14.1661C257.643 11.571 261.945 8.99074 266.186 6.5146C266.718 6.20578 267.11 5.68817 267.282 5.08657C267.453 4.48433 267.39 3.84741 267.1 3.30499C266.81 2.76258 266.315 2.35595 265.72 2.16366C265.124 1.97199 264.476 2.01038 263.923 2.2813C259.458 4.48757 254.984 6.76144 250.512 9.0634C234.252 17.4525 218.178 26.1453 202.415 35.5867C197.585 38.4854 192.785 41.4523 188.034 44.5203C163.233 60.1934 141.915 80.7175 119.739 97.7458C110.236 105.004 100.396 111.588 90.0738 117.43C68.7293 129.381 46.0594 140.102 23.46 150.525C18.9743 152.579 14.42 154.645 9.9537 156.627Z" fill="#C1ADFF"/>
<path d="M12.2116 165.422C10.8869 166.033 9.86381 167.144 9.37014 168.517C8.8763 169.889 8.95237 171.411 9.57876 172.741C10.2051 174.071 11.3297 175.099 12.7022 175.593C14.0749 176.087 15.583 176.006 16.8978 175.374C21.4415 173.182 25.9349 170.973 30.4143 168.753C52.9174 157.523 75.329 146.162 97.0521 133.06C107.794 126.512 117.971 119.072 127.538 111.037C150.133 91.9192 169.373 70.2878 192.933 53.3958C197.156 50.3039 201.441 47.2786 205.767 44.3069C220.779 34.0119 236.14 24.1671 251.711 14.6249C255.978 12.015 260.293 9.40833 264.555 6.89795C260.154 9.15726 255.693 11.51 251.276 13.8656C235.157 22.4813 219.202 31.3914 203.588 40.9521C199.088 43.7127 194.611 46.5198 190.176 49.4001C165.294 65.2094 144.123 86.0961 121.835 104.075C112.363 111.67 102.477 118.613 92.0572 124.736C70.6929 137.153 48.1904 148.247 25.6974 159.066C21.2235 161.203 16.6966 163.345 12.2116 165.422Z" fill="#DDD2FF"/>
</svg>
