<svg width="80" height="36" viewBox="0 0 80 36" fill="none" xmlns="http://www.w3.org/2000/svg">
<path opacity="0.4" d="M12.3574 1.83276C1.08263 1.83276 0.617094 6.4001 0.00615984 10.7933V25.0482C0.00615984 30.8521 -0.745904 34.9533 14.3698 35.4341H66.5313C77.9796 35.4341 79.4275 31.3103 79.4275 26.1681V10.3858C79.4275 5.80383 77.5679 1.83276 68.6727 1.83276H12.3574Z" fill="#202628"/>
<path d="M12.3574 0C1.08263 0 0.617094 4.56733 0.00615984 8.96056V23.2155C0.00615984 29.0193 -0.745904 33.1205 14.3698 33.6013H66.5313C77.9796 33.6013 79.4275 29.4775 79.4275 24.3353V8.55307C79.4275 3.97107 77.5679 0 68.6727 0H12.3574Z" fill="#BB9F68"/>
<path d="M14.2688 1.22192C3.77846 1.22192 3.06061 5.00238 2.44968 8.80056V21.1249C2.44968 26.1431 2.0764 29.9358 16.1413 29.9358H64.6751C75.3267 29.9358 76.9836 26.539 76.9836 22.0932V8.44805C76.9836 4.48675 74.9437 1.22192 66.6673 1.22192H14.2688Z" fill="#FCF2D1"/>
<path d="M17.3863 11.0215C17.3863 11.1313 17.3383 11.1999 17.2423 11.2273C17.0777 11.241 16.92 11.2959 16.7691 11.3919C16.6319 11.4742 16.4879 11.5359 16.337 11.5771C16.1587 11.5633 15.9872 11.5702 15.8226 11.5976C15.658 11.6251 15.4797 11.6182 15.2877 11.5771C15.2603 11.6045 15.226 11.6319 15.1848 11.6594C15.1437 11.6868 15.1025 11.7142 15.0614 11.7417C15.0065 11.7417 14.9448 11.7485 14.8762 11.7622C14.8076 11.776 14.739 11.7828 14.6705 11.7828H14.1561C14.0464 11.7828 13.9366 11.7897 13.8269 11.8034C13.7172 11.8034 13.6074 11.7965 13.4977 11.7828C13.3743 11.7828 13.2645 11.8102 13.1685 11.8651C13.0725 11.9063 12.9696 11.9268 12.8599 11.9268C12.805 11.9268 12.757 11.9337 12.7159 11.9474C12.6747 11.9474 12.6336 11.9543 12.5924 11.968C12.4964 11.9406 12.4004 11.92 12.3044 11.9063C12.2221 11.8788 12.1329 11.9131 12.0369 12.0091C11.9683 12.2423 11.9066 12.4824 11.8517 12.7292C11.8106 12.9761 11.7763 13.2162 11.7489 13.4494C11.7077 13.6963 11.7077 13.9294 11.7489 14.1489C11.7626 14.1763 11.7694 14.2038 11.7694 14.2312C11.7831 14.2586 11.7969 14.2861 11.8106 14.3135H12.4278C12.5238 14.3546 12.6199 14.4027 12.7159 14.4575C12.8256 14.5124 12.9353 14.5741 13.0451 14.6427C13.0725 14.6564 13.1068 14.6701 13.1479 14.6838C13.2028 14.6838 13.2577 14.6907 13.3125 14.7044C13.3537 14.7181 13.4017 14.7318 13.4566 14.7456C13.5114 14.7593 13.5663 14.7799 13.6212 14.8073C13.7172 14.8073 13.8063 14.7799 13.8886 14.725C13.9709 14.6701 14.0601 14.6358 14.1561 14.6221H14.259C14.3275 14.6221 14.3893 14.629 14.4441 14.6427C14.5127 14.6564 14.5744 14.6564 14.6293 14.6427C14.8076 14.6015 14.9859 14.6015 15.1643 14.6427C15.3426 14.6701 15.514 14.6838 15.6786 14.6838C15.7884 14.6838 15.8912 14.7044 15.9872 14.7456C16.097 14.7867 16.1998 14.8347 16.2959 14.8896C16.3507 15.3559 16.3713 15.8292 16.3576 16.3092C16.3576 16.7756 16.3507 17.242 16.337 17.7083C16.337 17.7632 16.3164 17.7975 16.2753 17.8112C16.2341 17.8249 16.193 17.8249 16.1518 17.8112C16.1244 17.7975 16.0901 17.7838 16.049 17.77C16.0215 17.7563 15.9804 17.7426 15.9255 17.7289H14.7322C14.6087 17.7152 14.4921 17.7152 14.3824 17.7289C14.2864 17.7426 14.1835 17.7426 14.0738 17.7289C13.9641 17.7152 13.8543 17.7083 13.7446 17.7083C13.6349 17.6946 13.5183 17.6809 13.3948 17.6672C13.2988 17.6535 13.1959 17.6466 13.0862 17.6466C12.9765 17.6466 12.8599 17.6397 12.7364 17.626C12.6679 17.626 12.5924 17.6123 12.5101 17.5849C12.4415 17.5574 12.373 17.5369 12.3044 17.5231C12.2084 17.5369 12.1329 17.5712 12.0781 17.626C12.0369 17.6809 11.982 17.7357 11.9135 17.7906C11.8997 17.818 11.8792 17.8592 11.8517 17.9141C11.838 17.9552 11.8174 17.9964 11.79 18.0375C11.8037 18.0787 11.8106 18.1267 11.8106 18.1815C11.8792 18.2638 11.9203 18.3598 11.934 18.4696C11.9615 18.5656 11.9752 18.6685 11.9752 18.7782C11.9752 18.9428 11.982 19.1074 11.9958 19.272C12.0232 19.4366 12.0232 19.6012 11.9958 19.7658C11.9958 19.9029 11.9958 20.0401 11.9958 20.1773C12.0095 20.3144 12.0438 20.4447 12.0986 20.5682C12.1123 20.5956 12.1192 20.6436 12.1192 20.7122C12.0369 20.9042 11.9272 21.0894 11.79 21.2677C11.6528 21.3638 11.5157 21.4255 11.3785 21.4529C11.2551 21.4941 11.1179 21.5489 10.967 21.6175C10.9122 21.6038 10.8504 21.5969 10.7818 21.5969C10.727 21.5969 10.6653 21.5969 10.5967 21.5969C10.5418 21.6106 10.4527 21.6587 10.3292 21.741H9.62967C9.51993 21.741 9.40334 21.741 9.2799 21.741C9.17017 21.7547 9.04672 21.7615 8.90955 21.7615C8.77239 21.7615 8.67637 21.6998 8.62151 21.5764C8.60779 21.5215 8.60093 21.4598 8.60093 21.3912C8.60093 21.3226 8.59407 21.2472 8.58036 21.1649C8.53921 21.0963 8.50492 21.0346 8.47748 20.9797C8.45005 20.9111 8.42262 20.8494 8.39519 20.7945C8.38147 20.7122 8.36775 20.6299 8.35404 20.5476C8.35404 20.4653 8.34718 20.3899 8.33346 20.3213C8.37461 20.1979 8.4089 20.0813 8.43634 19.9715C8.47748 19.8618 8.51863 19.7452 8.55978 19.6218C8.50492 19.3063 8.47063 18.9839 8.45691 18.6548C8.44319 18.3118 8.46377 17.9689 8.51863 17.626C8.51863 17.5574 8.50492 17.482 8.47748 17.3997C8.46377 17.3174 8.47748 17.2282 8.51863 17.1322C8.60093 16.9813 8.60093 16.8373 8.51863 16.7002C8.50492 16.6041 8.4912 16.5081 8.47748 16.4121C8.47748 16.3161 8.4912 16.2201 8.51863 16.1241C8.54607 16.0829 8.55978 16.0349 8.55978 15.98C8.55978 15.9252 8.55978 15.8703 8.55978 15.8154C8.5735 15.7469 8.56664 15.6714 8.53921 15.5891C8.51178 15.5068 8.50492 15.4245 8.51863 15.3422C8.54607 15.2736 8.55978 15.2051 8.55978 15.1365C8.5735 15.0542 8.58036 14.9719 8.58036 14.8896C8.58036 14.7936 8.58722 14.6976 8.60093 14.6015C8.61465 14.5055 8.63522 14.4164 8.66266 14.3341C8.64894 14.2381 8.63522 14.1558 8.62151 14.0872C8.62151 14.0049 8.61465 13.9226 8.60093 13.8403C8.66951 13.6894 8.70381 13.5385 8.70381 13.3876C8.71752 13.223 8.72438 13.0584 8.72438 12.8938C8.72438 12.7841 8.72438 12.6744 8.72438 12.5646C8.72438 12.4549 8.73124 12.352 8.74496 12.256C8.75867 12.1463 8.76553 12.0434 8.76553 11.9474C8.77925 11.8377 8.7861 11.7348 8.7861 11.6388C8.7861 11.6114 8.77925 11.5839 8.76553 11.5565C8.76553 11.5153 8.77239 11.481 8.7861 11.4536C8.84097 11.3439 8.86155 11.241 8.84783 11.145C8.84783 11.0353 8.85469 10.9324 8.8684 10.8364C8.8684 10.7541 8.8684 10.6718 8.8684 10.5895C8.88212 10.4935 8.89584 10.4043 8.90955 10.322C8.89584 10.2534 8.87526 10.178 8.84783 10.0957C8.8204 10.0134 8.79982 9.94481 8.7861 9.88994C8.79982 9.82136 8.81354 9.75278 8.82725 9.68419C8.85469 9.61561 8.8684 9.54703 8.8684 9.47845C8.88212 9.31385 8.99185 9.20412 9.1976 9.14925C9.44449 9.06695 9.70511 9.00523 9.97944 8.96408C10.0755 8.96408 10.1509 8.93665 10.2058 8.88178C10.2606 8.85435 10.3223 8.84063 10.3909 8.84063C10.4732 8.85435 10.5555 8.85435 10.6378 8.84063C10.7338 8.82692 10.8299 8.8132 10.9259 8.79948C11.0356 8.7309 11.1591 8.69661 11.2962 8.69661C11.5568 8.68289 11.8174 8.6486 12.0781 8.59374C12.3387 8.53887 12.5993 8.50458 12.8599 8.49086C12.9971 8.47715 13.1274 8.47029 13.2508 8.47029C13.3743 8.45657 13.5046 8.47029 13.6417 8.51144C13.7515 8.52516 13.8612 8.53887 13.9709 8.55259C14.0807 8.55259 14.1904 8.55259 14.3001 8.55259C14.355 8.55259 14.4098 8.55259 14.4647 8.55259C14.5196 8.53887 14.5744 8.53201 14.6293 8.53201C14.8213 8.5183 14.9654 8.5183 15.0614 8.53201C15.1574 8.53201 15.2534 8.53887 15.3494 8.55259C15.4454 8.5663 15.5895 8.59374 15.7815 8.63489C15.8775 8.6486 15.9667 8.66232 16.049 8.67604C16.145 8.67604 16.2341 8.68975 16.3164 8.71719C16.4673 8.78577 16.6319 8.83378 16.8102 8.86121C16.8788 8.87492 16.9337 8.90236 16.9748 8.94351C17.016 8.97094 17.0503 8.99837 17.0777 9.02581C17.1326 9.24527 17.1326 9.45787 17.0777 9.66362C17.1188 9.78707 17.16 9.93109 17.2011 10.0957C17.2011 10.1094 17.1943 10.1437 17.1806 10.1986C17.1806 10.2397 17.1806 10.274 17.1806 10.3014C17.1806 10.37 17.1874 10.4112 17.2011 10.4249C17.2286 10.4797 17.256 10.5415 17.2834 10.6101C17.3109 10.6649 17.3315 10.7198 17.3452 10.7747C17.3726 10.8158 17.3863 10.857 17.3863 10.8981C17.3863 10.9392 17.3863 10.9804 17.3863 11.0215ZM25.9769 9.95167C26.018 10.0477 26.0386 10.1506 26.0386 10.2603C26.0523 10.37 26.0249 10.4797 25.9563 10.5895C25.9289 10.6443 25.9152 10.6992 25.9152 10.7541C25.9289 10.7952 25.9357 10.8501 25.9357 10.9187C25.9083 10.9598 25.874 11.001 25.8329 11.0421C25.7917 11.0696 25.7574 11.1107 25.73 11.1656C25.7026 11.193 25.6751 11.2273 25.6477 11.2684C25.634 11.3096 25.5997 11.3439 25.5448 11.3713C25.4762 11.3576 25.3939 11.3507 25.2979 11.3507C25.2019 11.3507 25.1127 11.3507 25.0305 11.3507C24.8247 11.3507 24.6395 11.4056 24.4749 11.5153C24.4201 11.5702 24.3652 11.6114 24.3103 11.6388C24.2555 11.6525 24.2006 11.6731 24.1457 11.7005C24.0634 11.7828 24.036 11.8651 24.0634 11.9474V12.3383C24.0772 12.4618 24.0909 12.5852 24.1046 12.7087C24.132 12.8184 24.1389 12.9419 24.1252 13.079C24.1114 13.1064 24.1114 13.1476 24.1252 13.2025C24.1389 13.2436 24.1526 13.2779 24.1663 13.3053C24.1526 13.3602 24.132 13.4082 24.1046 13.4494C24.0909 13.4768 24.0772 13.5179 24.0634 13.5728C24.0772 13.6277 24.0909 13.6825 24.1046 13.7374C24.1183 13.7786 24.132 13.8266 24.1457 13.8814C24.1457 13.95 24.1389 13.998 24.1252 14.0255C24.0977 14.1077 24.0703 14.19 24.0429 14.2723C24.0291 14.3546 24.0086 14.4369 23.9811 14.5192C23.94 14.6153 23.9331 14.7044 23.9606 14.7867C23.988 14.869 23.9811 14.9513 23.94 15.0336C23.94 15.3217 23.9263 15.6028 23.8988 15.8772C23.8714 16.1515 23.8508 16.4258 23.8371 16.7002C23.8371 17.0568 23.8988 17.4203 24.0223 17.7906C24.0772 17.9141 24.1663 17.9758 24.2898 17.9758C24.3172 17.9621 24.3446 17.9415 24.3721 17.9141C24.4132 17.8866 24.4544 17.8661 24.4955 17.8523C24.5367 17.8523 24.5709 17.8661 24.5984 17.8935C24.7081 18.0169 24.8316 18.0992 24.9687 18.1404C25.1882 18.1953 25.2499 18.305 25.1539 18.4696C25.1127 18.5656 25.0922 18.6685 25.0922 18.7782C25.1059 18.8879 25.1059 18.9977 25.0922 19.1074C25.0647 19.4092 25.051 19.7178 25.051 20.0333C25.051 20.335 25.0716 20.6436 25.1127 20.9591C25.1127 21.11 25.099 21.206 25.0716 21.2472C25.0579 21.302 24.9756 21.3843 24.8247 21.4941H24.763C24.6532 21.4803 24.5435 21.4666 24.4338 21.4529C24.3378 21.4392 24.2418 21.4255 24.1457 21.4118C23.8851 21.4529 23.6519 21.4735 23.4462 21.4735C23.3502 21.4872 23.2542 21.5078 23.1582 21.5352C23.0759 21.5764 22.9798 21.5901 22.8701 21.5764C22.7604 21.5489 22.6506 21.5489 22.5409 21.5764C22.4312 21.6038 22.3215 21.6175 22.2117 21.6175C22.1569 21.5901 22.102 21.5695 22.0471 21.5558C22.006 21.5421 21.9511 21.5215 21.8825 21.4941C21.5533 21.5489 21.2241 21.5832 20.8949 21.5969C20.5657 21.6106 20.2297 21.6244 19.8868 21.6381C19.8182 21.5421 19.7496 21.4529 19.681 21.3706C19.6125 21.302 19.5507 21.2266 19.4959 21.1443C19.4684 21.0483 19.4136 20.966 19.3313 20.8974C19.2627 20.8288 19.1941 20.7671 19.1255 20.7122C19.1118 20.5751 19.0844 20.4447 19.0432 20.3213C19.0158 20.2116 19.0158 20.1018 19.0432 19.9921C19.0844 19.9235 19.0981 19.8549 19.0844 19.7864C19.0569 19.6629 19.0501 19.5395 19.0638 19.416C19.0912 19.2789 19.1187 19.1485 19.1461 19.0251V18.7782C19.2558 18.7508 19.3656 18.7302 19.4753 18.7165C19.585 18.689 19.6948 18.689 19.8045 18.7165C19.8593 18.689 19.9074 18.6616 19.9485 18.6342C19.9897 18.593 20.0377 18.5519 20.0925 18.5107C20.1611 18.5382 20.2297 18.5656 20.2983 18.593C20.3669 18.6205 20.4423 18.6479 20.5246 18.6753C20.6618 18.593 20.8195 18.4833 20.9978 18.3461C21.0252 18.2638 21.039 18.2021 21.039 18.161C21.039 18.0101 21.039 17.8592 21.039 17.7083C21.039 17.5437 21.0458 17.386 21.0595 17.2351V17.1734C21.0047 17.0362 20.9841 16.9059 20.9978 16.7825C21.0115 16.659 21.0115 16.5287 20.9978 16.3915V16.1241C21.0252 15.8086 21.0321 15.5 21.0184 15.1982C21.0184 14.8827 21.0115 14.5673 20.9978 14.2518L21.1418 13.9843C21.1281 13.9157 21.1144 13.8471 21.1007 13.7786C21.087 13.71 21.0733 13.6414 21.0595 13.5728C21.0733 13.5042 21.087 13.4425 21.1007 13.3876C21.1281 13.3328 21.1487 13.271 21.1624 13.2025C21.1624 13.1476 21.1556 13.1064 21.1418 13.079C21.0733 12.9144 21.0458 12.7635 21.0595 12.6264V12.3178C21.0595 12.2629 21.0458 12.2217 21.0184 12.1943C20.991 12.1532 20.9772 12.1051 20.9772 12.0503C20.991 12.0228 20.9978 11.9611 20.9978 11.8651C20.9841 11.7828 20.9704 11.7005 20.9567 11.6182C20.9429 11.5359 20.9224 11.4536 20.8949 11.3713C20.8264 11.3027 20.7509 11.2822 20.6686 11.3096C20.5863 11.3233 20.5109 11.3233 20.4423 11.3096C20.3737 11.2822 20.2983 11.2684 20.216 11.2684C20.1337 11.2684 20.0445 11.2684 19.9485 11.2684C19.8525 11.2136 19.7428 11.193 19.6193 11.2067C19.5096 11.2067 19.3998 11.1861 19.2901 11.145C19.2353 11.0764 19.2078 10.9941 19.2078 10.8981C19.2215 10.8021 19.2078 10.7335 19.1667 10.6924C19.1392 10.6375 19.1392 10.5689 19.1667 10.4866C19.1941 10.3906 19.1941 10.3083 19.1667 10.2397C19.2215 10.1711 19.2284 10.1231 19.1872 10.0957C19.1461 10.0683 19.1461 10.0134 19.1872 9.93109C19.2284 9.86251 19.249 9.78707 19.249 9.70477C19.249 9.60875 19.2764 9.53331 19.3313 9.47845C19.3587 9.45102 19.3656 9.40987 19.3518 9.355C19.3518 9.28642 19.3587 9.22469 19.3724 9.16983C19.3998 9.14239 19.4616 9.12868 19.5576 9.12868C19.6536 9.11496 19.7085 9.09439 19.7222 9.06696C19.7771 8.99837 19.8388 8.95037 19.9074 8.92293C19.9897 8.8955 20.072 8.86121 20.1543 8.82006C20.1817 8.82006 20.216 8.82006 20.2571 8.82006C20.2983 8.80634 20.3463 8.79948 20.4011 8.79948C20.5109 8.79948 20.6275 8.79948 20.7509 8.79948C20.8744 8.79948 20.991 8.79263 21.1007 8.77891C21.2104 8.75148 21.3202 8.7309 21.4299 8.71719C21.5396 8.68975 21.6562 8.66918 21.7797 8.65546C21.9031 8.62803 22.0265 8.63489 22.15 8.67604C22.3283 8.7309 22.5478 8.72404 22.8084 8.65546C22.8633 8.64174 22.9113 8.62803 22.9524 8.61431C22.9936 8.6006 23.0278 8.58688 23.0553 8.57316C23.1513 8.58688 23.2336 8.6006 23.3022 8.61431C23.3845 8.62803 23.4531 8.63489 23.5079 8.63489C23.5491 8.63489 23.5902 8.62803 23.6314 8.61431C23.6862 8.6006 23.7274 8.59374 23.7548 8.59374C23.892 8.59374 24.0154 8.6006 24.1252 8.61431C24.2486 8.61431 24.3721 8.62803 24.4955 8.65546C24.7561 8.69661 24.9893 8.71033 25.195 8.69661C25.2636 8.68289 25.3185 8.68289 25.3596 8.69661C25.4145 8.69661 25.4488 8.69661 25.4625 8.69661C25.5585 8.71033 25.6271 8.74462 25.6683 8.79948C25.7231 8.84063 25.7643 8.87492 25.7917 8.90236C26.0112 9.12182 26.0592 9.34814 25.9357 9.58132C25.922 9.59504 25.9152 9.64305 25.9152 9.72534C25.9289 9.75278 25.9357 9.78707 25.9357 9.82822C25.9495 9.85565 25.9632 9.8968 25.9769 9.95167ZM39.6976 9.99281C39.6428 10.1437 39.6222 10.2946 39.6359 10.4455C39.6496 10.5963 39.6633 10.7472 39.677 10.8981V11.001C39.6633 11.0696 39.6428 11.145 39.6153 11.2273C39.5879 11.3096 39.5605 11.3919 39.533 11.4742C39.5742 11.7074 39.5947 11.9406 39.5947 12.1737C39.5947 12.3932 39.5947 12.6127 39.5947 12.8321C39.5947 12.9419 39.5879 13.0516 39.5742 13.1613C39.5742 13.2573 39.581 13.3533 39.5947 13.4494C39.5947 13.5454 39.6016 13.6414 39.6153 13.7374C39.629 13.8334 39.6428 13.9363 39.6565 14.046C39.629 14.1832 39.6016 14.3409 39.5742 14.5192C39.5605 14.6838 39.5193 14.8484 39.4507 15.013C39.4507 15.1776 39.4233 15.3422 39.3684 15.5068C39.3273 15.6714 39.3273 15.836 39.3684 16.0006C39.3547 16.1378 39.341 16.2749 39.3273 16.4121C39.3273 16.5493 39.3204 16.6933 39.3067 16.8442C39.293 16.9676 39.2793 17.0911 39.2656 17.2145C39.2656 17.338 39.2793 17.4614 39.3067 17.5849C39.3067 17.7083 39.2861 17.8455 39.245 17.9964C39.1764 18.161 39.1627 18.3118 39.2038 18.449C39.1901 18.7096 39.1695 18.9771 39.1421 19.2514C39.1284 19.5257 39.0735 19.7932 38.9775 20.0538C38.9638 20.1087 38.9569 20.1773 38.9569 20.2596C38.9569 20.3282 38.9638 20.3762 38.9775 20.4036L38.8335 20.5476C38.7238 20.5613 38.614 20.5751 38.5043 20.5888C38.4083 20.6025 38.3054 20.6162 38.1957 20.6299C38.1545 20.6436 38.1065 20.6711 38.0516 20.7122C38.0105 20.7397 37.9488 20.7808 37.8665 20.8357C37.6744 20.8905 37.4824 20.9385 37.2904 20.9797C37.0984 21.0071 36.9063 21.0414 36.7143 21.0826C36.6183 21.0551 36.5291 21.0414 36.4468 21.0414C36.3782 21.0414 36.3097 21.0346 36.2411 21.0208C36.1862 21.0071 36.1245 21.0003 36.0559 21.0003C36.001 20.9865 35.9393 20.9728 35.8707 20.9591C35.8433 20.9728 35.809 20.9865 35.7679 21.0003C35.7267 21.014 35.6924 21.0277 35.665 21.0414L35.4592 20.8562C35.4044 20.7465 35.3769 20.6436 35.3769 20.5476C35.3907 20.4516 35.3907 20.3556 35.3769 20.2596C35.3221 20.1773 35.2535 20.1224 35.1712 20.095C35.0889 20.0675 35.0135 20.0264 34.9449 19.9715C34.8489 19.8618 34.7734 19.7452 34.7185 19.6218C34.6637 19.4983 34.5814 19.3886 34.4717 19.2926C34.3756 19.2103 34.2933 19.1143 34.2248 19.0045C34.1699 18.8948 34.0945 18.7988 33.9984 18.7165C33.9299 18.5656 33.8544 18.4216 33.7721 18.2844C33.6898 18.1472 33.6144 18.0101 33.5458 17.8729C33.4772 17.7495 33.4018 17.6397 33.3195 17.5437C33.2372 17.4751 33.1549 17.3997 33.0726 17.3174C33.004 17.2214 32.9286 17.1322 32.8463 17.0499C32.8325 16.9539 32.7982 16.8716 32.7434 16.803C32.6885 16.7344 32.6336 16.659 32.5788 16.5767C32.4691 16.3847 32.3387 16.2064 32.1879 16.0418C32.037 15.8772 31.8998 15.6989 31.7764 15.5068C31.7489 15.5205 31.7215 15.5274 31.6941 15.5274C31.6666 15.5274 31.6461 15.5411 31.6323 15.5686C31.55 15.692 31.5089 15.8497 31.5089 16.0418C31.5089 16.0829 31.5158 16.1241 31.5295 16.1652C31.5432 16.2064 31.5363 16.2475 31.5089 16.2887C31.4815 16.3161 31.4472 16.3435 31.406 16.371C31.3649 16.3984 31.3237 16.4258 31.2826 16.4533C31.2277 16.5904 31.2071 16.7344 31.2209 16.8853C31.2346 17.0362 31.2277 17.1871 31.2003 17.338C31.1866 17.4751 31.1797 17.6192 31.1797 17.77C31.1797 17.9209 31.1797 18.0649 31.1797 18.2021L30.974 18.5725C30.9191 18.7645 30.9054 18.9565 30.9328 19.1485C30.9602 19.3406 31.0082 19.5326 31.0768 19.7246C31.0357 19.8206 31.0014 19.9304 30.974 20.0538C30.9602 20.1498 30.9465 20.2527 30.9328 20.3624C30.9191 20.4585 30.9191 20.5613 30.9328 20.6711C30.9465 20.9454 30.8094 21.1374 30.5213 21.2472C30.4939 21.2472 30.4527 21.254 30.3979 21.2677C30.2744 21.1992 30.1373 21.158 29.9864 21.1443C29.8355 21.1169 29.6846 21.0688 29.5337 21.0003C29.3966 20.9317 29.2594 20.8974 29.1222 20.8974C28.9851 20.8837 28.8548 20.8768 28.7313 20.8768C28.6627 20.8494 28.5873 20.8151 28.505 20.7739C28.4364 20.7191 28.3678 20.6848 28.2993 20.6711C28.2307 20.6436 28.1621 20.6231 28.0935 20.6093C28.0249 20.5956 27.9563 20.5751 27.8878 20.5476C27.874 20.5202 27.8603 20.4859 27.8466 20.4447C27.8466 20.4036 27.8397 20.3762 27.826 20.3624C27.8123 20.1293 27.8055 19.9098 27.8055 19.7041C27.8192 19.4846 27.8192 19.272 27.8055 19.0662C27.8055 18.9154 27.8055 18.7645 27.8055 18.6136C27.8192 18.4627 27.826 18.3118 27.826 18.161V17.9552C27.8123 17.8866 27.7849 17.818 27.7437 17.7495C27.7026 17.6672 27.6889 17.5849 27.7026 17.5026C27.7163 17.4203 27.7232 17.338 27.7232 17.2557C27.7232 17.1734 27.7232 17.0979 27.7232 17.0294C27.7506 16.9471 27.7506 16.8648 27.7232 16.7825C27.7094 16.7002 27.7026 16.6247 27.7026 16.5561C27.73 16.419 27.7643 16.2818 27.8055 16.1446C27.8466 16.0075 27.9015 15.884 27.9701 15.7743V13.6345C27.9701 13.5797 27.9632 13.5385 27.9495 13.5111C27.8809 13.3739 27.8535 13.2436 27.8672 13.1202C27.8809 13.0516 27.8878 12.983 27.8878 12.9144C27.9015 12.8321 27.9152 12.7567 27.9289 12.6881C27.9015 12.5921 27.874 12.4961 27.8466 12.4001C27.8192 12.304 27.7917 12.208 27.7643 12.112C27.7917 12.0297 27.7849 11.9406 27.7437 11.8445C27.7163 11.7485 27.7094 11.6525 27.7232 11.5565C27.7506 11.4742 27.7986 11.4056 27.8672 11.3507C27.9358 11.2822 27.9769 11.1999 27.9906 11.1038C27.9769 10.9941 27.9289 10.8912 27.8466 10.7952C27.7643 10.6855 27.7232 10.562 27.7232 10.4249C27.7917 10.3152 27.8603 10.2534 27.9289 10.2397C28.0798 10.2123 28.217 10.1711 28.3404 10.1163C28.4776 10.0477 28.6079 9.97224 28.7313 9.88994C28.745 9.87622 28.7999 9.85565 28.8959 9.82822C28.9508 9.84193 29.0056 9.85565 29.0605 9.86937C29.1291 9.88308 29.2045 9.8968 29.2868 9.91052C29.3966 9.86937 29.5063 9.84193 29.616 9.82822C29.7395 9.8145 29.8698 9.80764 30.0069 9.80764C30.1167 9.80764 30.2196 9.80078 30.3156 9.78707C30.4253 9.77335 30.5487 9.75964 30.6859 9.74592C30.7545 9.75964 30.8231 9.77335 30.8917 9.78707C30.974 9.80078 31.0563 9.8145 31.1386 9.82822C31.2483 9.88308 31.3443 9.95167 31.4266 10.034C31.5226 10.1025 31.5912 10.1917 31.6323 10.3014C31.7146 10.4935 31.8175 10.6718 31.941 10.8364C32.0644 11.001 32.1604 11.1724 32.229 11.3507C32.2976 11.4056 32.3662 11.4536 32.4348 11.4948C32.5171 11.5359 32.5788 11.5908 32.6199 11.6594C32.7297 11.7691 32.8531 11.8651 32.9903 11.9474C33.1274 12.0297 33.2646 12.1051 33.4018 12.1737C33.5252 12.3383 33.6349 12.5029 33.731 12.6675C33.8407 12.8321 33.971 12.9693 34.1219 13.079C34.1767 13.1887 34.2248 13.2985 34.2659 13.4082C34.3071 13.5179 34.3482 13.614 34.3894 13.6963C34.4442 13.7786 34.5059 13.8266 34.5745 13.8403C34.6568 13.8403 34.7254 13.8471 34.7803 13.8609C34.8077 13.8746 34.8283 13.8883 34.842 13.902C34.8694 13.902 34.89 13.9089 34.9037 13.9226C35.0135 14.0186 35.1026 14.1283 35.1712 14.2518C35.2398 14.3615 35.3084 14.485 35.3769 14.6221C35.4455 14.6633 35.5072 14.7113 35.5621 14.7661C35.617 14.8073 35.6787 14.8484 35.7473 14.8896C35.7747 14.9033 35.8021 14.9102 35.8296 14.9102C35.8707 14.8964 35.8982 14.8896 35.9119 14.8896C35.9805 14.7936 36.0353 14.7044 36.0765 14.6221C36.1313 14.5261 36.1519 14.4232 36.1382 14.3135C36.1245 14.2723 36.1245 14.2312 36.1382 14.19C36.1519 14.1489 36.1588 14.1009 36.1588 14.046C36.1862 13.8814 36.2205 13.7168 36.2616 13.5522C36.3028 13.3876 36.3302 13.2162 36.3439 13.0379C36.3577 12.9144 36.3714 12.791 36.3851 12.6675C36.3988 12.5304 36.392 12.4069 36.3645 12.2972C36.3782 12.0777 36.3782 11.872 36.3645 11.6799C36.3508 11.4742 36.3371 11.2684 36.3234 11.0627C36.3097 10.7609 36.3165 10.466 36.3439 10.178C36.3714 9.88994 36.4262 9.59504 36.5085 9.29328C36.5085 9.27956 36.5085 9.2727 36.5085 9.2727C36.5223 9.2727 36.5291 9.26584 36.5291 9.25213C36.584 9.18355 36.6389 9.1424 36.6937 9.12868C36.7623 9.10125 36.824 9.06695 36.8789 9.02581C36.9475 8.98466 37.0161 8.96408 37.0846 8.96408C37.1532 8.96408 37.2218 8.9778 37.2904 9.00523C37.3727 9.07381 37.4618 9.14239 37.5579 9.21098C37.5853 9.21098 37.6059 9.21784 37.6196 9.23155C37.647 9.24527 37.6744 9.25213 37.7019 9.25213H38.3808C38.4769 9.26584 38.5729 9.28642 38.6689 9.31385C38.7649 9.32757 38.8609 9.36872 38.9569 9.4373C38.9844 9.45102 39.0049 9.45787 39.0187 9.45787C39.0461 9.44416 39.0667 9.44416 39.0804 9.45787C39.149 9.43044 39.2107 9.40301 39.2656 9.37557C39.3341 9.33443 39.4027 9.30699 39.4713 9.29328C39.4987 9.30699 39.5193 9.32757 39.533 9.355C39.5605 9.36872 39.5879 9.39615 39.6153 9.4373C39.6702 9.5196 39.7045 9.60875 39.7182 9.70477C39.7456 9.80078 39.7388 9.8968 39.6976 9.99281ZM48.3398 9.95167C48.3809 10.0477 48.4015 10.1506 48.4015 10.2603C48.4152 10.37 48.3878 10.4797 48.3192 10.5895C48.2918 10.6443 48.2781 10.6992 48.2781 10.7541C48.2918 10.7952 48.2986 10.8501 48.2986 10.9187C48.2712 10.9598 48.2369 11.001 48.1958 11.0421C48.1546 11.0696 48.1203 11.1107 48.0929 11.1656C48.0655 11.193 48.038 11.2273 48.0106 11.2684C47.9969 11.3096 47.9626 11.3439 47.9077 11.3713C47.8391 11.3576 47.7568 11.3507 47.6608 11.3507C47.5648 11.3507 47.4756 11.3507 47.3933 11.3507C47.1876 11.3507 47.0024 11.4056 46.8378 11.5153C46.783 11.5702 46.7281 11.6114 46.6732 11.6388C46.6184 11.6525 46.5635 11.6731 46.5086 11.7005C46.4263 11.7828 46.3989 11.8651 46.4263 11.9474V12.3383C46.4401 12.4618 46.4538 12.5852 46.4675 12.7087C46.4949 12.8184 46.5018 12.9419 46.4881 13.079C46.4743 13.1064 46.4743 13.1476 46.4881 13.2025C46.5018 13.2436 46.5155 13.2779 46.5292 13.3053C46.5155 13.3602 46.4949 13.4082 46.4675 13.4494C46.4538 13.4768 46.4401 13.5179 46.4263 13.5728C46.4401 13.6277 46.4538 13.6825 46.4675 13.7374C46.4812 13.7786 46.4949 13.8266 46.5086 13.8814C46.5086 13.95 46.5018 13.998 46.4881 14.0255C46.4606 14.1077 46.4332 14.19 46.4058 14.2723C46.392 14.3546 46.3715 14.4369 46.344 14.5192C46.3029 14.6153 46.296 14.7044 46.3235 14.7867C46.3509 14.869 46.344 14.9513 46.3029 15.0336C46.3029 15.3217 46.2892 15.6028 46.2617 15.8772C46.2343 16.1515 46.2137 16.4258 46.2 16.7002C46.2 17.0568 46.2617 17.4203 46.3852 17.7906C46.4401 17.9141 46.5292 17.9758 46.6527 17.9758C46.6801 17.9621 46.7075 17.9415 46.735 17.9141C46.7761 17.8866 46.8173 17.8661 46.8584 17.8523C46.8996 17.8523 46.9338 17.8661 46.9613 17.8935C47.071 18.0169 47.1945 18.0992 47.3316 18.1404C47.5511 18.1953 47.6128 18.305 47.5168 18.4696C47.4756 18.5656 47.4551 18.6685 47.4551 18.7782C47.4688 18.8879 47.4688 18.9977 47.4551 19.1074C47.4276 19.4092 47.4139 19.7178 47.4139 20.0333C47.4139 20.335 47.4345 20.6436 47.4756 20.9591C47.4756 21.11 47.4619 21.206 47.4345 21.2472C47.4208 21.302 47.3385 21.3843 47.1876 21.4941H47.1259C47.0161 21.4803 46.9064 21.4666 46.7967 21.4529C46.7007 21.4392 46.6047 21.4255 46.5086 21.4118C46.248 21.4529 46.0148 21.4735 45.8091 21.4735C45.7131 21.4872 45.6171 21.5078 45.5211 21.5352C45.4388 21.5764 45.3427 21.5901 45.233 21.5764C45.1233 21.5489 45.0135 21.5489 44.9038 21.5764C44.7941 21.6038 44.6843 21.6175 44.5746 21.6175C44.5198 21.5901 44.4649 21.5695 44.41 21.5558C44.3689 21.5421 44.314 21.5215 44.2454 21.4941C43.9162 21.5489 43.587 21.5832 43.2578 21.5969C42.9286 21.6106 42.5926 21.6244 42.2497 21.6381C42.1811 21.5421 42.1125 21.4529 42.0439 21.3706C41.9754 21.302 41.9136 21.2266 41.8588 21.1443C41.8313 21.0483 41.7765 20.966 41.6942 20.8974C41.6256 20.8288 41.557 20.7671 41.4884 20.7122C41.4747 20.5751 41.4473 20.4447 41.4061 20.3213C41.3787 20.2116 41.3787 20.1018 41.4061 19.9921C41.4473 19.9235 41.461 19.8549 41.4473 19.7864C41.4198 19.6629 41.413 19.5395 41.4267 19.416C41.4541 19.2789 41.4816 19.1485 41.509 19.0251V18.7782C41.6187 18.7508 41.7285 18.7302 41.8382 18.7165C41.9479 18.689 42.0576 18.689 42.1674 18.7165C42.2222 18.689 42.2703 18.6616 42.3114 18.6342C42.3526 18.593 42.4006 18.5519 42.4554 18.5107C42.524 18.5382 42.5926 18.5656 42.6612 18.593C42.7298 18.6205 42.8052 18.6479 42.8875 18.6753C43.0247 18.593 43.1824 18.4833 43.3607 18.3461C43.3881 18.2638 43.4019 18.2021 43.4019 18.161C43.4019 18.0101 43.4019 17.8592 43.4019 17.7083C43.4019 17.5437 43.4087 17.386 43.4224 17.2351V17.1734C43.3676 17.0362 43.347 16.9059 43.3607 16.7825C43.3744 16.659 43.3744 16.5287 43.3607 16.3915V16.1241C43.3881 15.8086 43.395 15.5 43.3813 15.1982C43.3813 14.8827 43.3744 14.5673 43.3607 14.2518L43.5047 13.9843C43.491 13.9157 43.4773 13.8471 43.4636 13.7786C43.4499 13.71 43.4362 13.6414 43.4224 13.5728C43.4362 13.5042 43.4499 13.4425 43.4636 13.3876C43.491 13.3328 43.5116 13.271 43.5253 13.2025C43.5253 13.1476 43.5185 13.1064 43.5047 13.079C43.4362 12.9144 43.4087 12.7635 43.4224 12.6264V12.3178C43.4224 12.2629 43.4087 12.2217 43.3813 12.1943C43.3539 12.1532 43.3401 12.1051 43.3401 12.0503C43.3539 12.0228 43.3607 11.9611 43.3607 11.8651C43.347 11.7828 43.3333 11.7005 43.3196 11.6182C43.3058 11.5359 43.2853 11.4536 43.2578 11.3713C43.1893 11.3027 43.1138 11.2822 43.0315 11.3096C42.9492 11.3233 42.8738 11.3233 42.8052 11.3096C42.7366 11.2822 42.6612 11.2684 42.5789 11.2684C42.4966 11.2684 42.4074 11.2684 42.3114 11.2684C42.2154 11.2136 42.1057 11.193 41.9822 11.2067C41.8725 11.2067 41.7627 11.1861 41.653 11.145C41.5981 11.0764 41.5707 10.9941 41.5707 10.8981C41.5844 10.8021 41.5707 10.7335 41.5296 10.6924C41.5021 10.6375 41.5021 10.5689 41.5296 10.4866C41.557 10.3906 41.557 10.3083 41.5296 10.2397C41.5844 10.1711 41.5913 10.1231 41.5501 10.0957C41.509 10.0683 41.509 10.0134 41.5501 9.93109C41.5913 9.86251 41.6119 9.78707 41.6119 9.70477C41.6119 9.60875 41.6393 9.53331 41.6942 9.47845C41.7216 9.45102 41.7285 9.40987 41.7147 9.355C41.7147 9.28642 41.7216 9.22469 41.7353 9.16983C41.7627 9.14239 41.8245 9.12868 41.9205 9.12868C42.0165 9.11496 42.0714 9.09439 42.0851 9.06696C42.1399 8.99837 42.2017 8.95037 42.2703 8.92293C42.3526 8.8955 42.4349 8.86121 42.5172 8.82006C42.5446 8.82006 42.5789 8.82006 42.62 8.82006C42.6612 8.80634 42.7092 8.79948 42.764 8.79948C42.8738 8.79948 42.9904 8.79948 43.1138 8.79948C43.2373 8.79948 43.3539 8.79263 43.4636 8.77891C43.5733 8.75148 43.683 8.7309 43.7928 8.71719C43.9025 8.68975 44.0191 8.66918 44.1426 8.65546C44.266 8.62803 44.3894 8.63489 44.5129 8.67604C44.6912 8.7309 44.9107 8.72404 45.1713 8.65546C45.2261 8.64174 45.2742 8.62803 45.3153 8.61431C45.3565 8.6006 45.3907 8.58688 45.4182 8.57316C45.5142 8.58688 45.5965 8.6006 45.6651 8.61431C45.7474 8.62803 45.816 8.63489 45.8708 8.63489C45.912 8.63489 45.9531 8.62803 45.9943 8.61431C46.0491 8.6006 46.0903 8.59374 46.1177 8.59374C46.2549 8.59374 46.3783 8.6006 46.4881 8.61431C46.6115 8.61431 46.735 8.62803 46.8584 8.65546C47.119 8.69661 47.3522 8.71033 47.5579 8.69661C47.6265 8.68289 47.6814 8.68289 47.7225 8.69661C47.7774 8.69661 47.8117 8.69661 47.8254 8.69661C47.9214 8.71033 47.99 8.74462 48.0312 8.79948C48.086 8.84063 48.1272 8.87492 48.1546 8.90236C48.3741 9.12182 48.4221 9.34814 48.2986 9.58132C48.2849 9.59504 48.2781 9.64305 48.2781 9.72534C48.2918 9.75278 48.2986 9.78707 48.2986 9.82822C48.3124 9.85565 48.3261 9.8968 48.3398 9.95167ZM57.781 10.7952C57.6987 10.9735 57.589 11.1244 57.4518 11.2479C57.3146 11.3576 57.198 11.4879 57.102 11.6388C56.9923 11.6662 56.8826 11.7142 56.7728 11.7828C56.6768 11.8514 56.5877 11.92 56.5054 11.9886C56.3682 12.0709 56.2447 12.0709 56.135 11.9886C56.0801 11.9611 56.0321 11.9337 55.991 11.9063C55.9636 11.8651 55.9224 11.8308 55.8675 11.8034C55.7578 11.7074 55.6138 11.6731 55.4355 11.7005C55.4218 11.7142 55.4012 11.7074 55.3737 11.6799V11.4742C55.36 11.4605 55.3395 11.4399 55.312 11.4125C55.2983 11.385 55.2777 11.3713 55.2503 11.3713C54.976 11.2616 54.7154 11.2547 54.4685 11.3507C54.3862 11.3645 54.3039 11.385 54.2216 11.4125C54.1393 11.4399 54.057 11.4673 53.9747 11.4948C53.9198 11.5771 53.8649 11.6594 53.8101 11.7417C53.7689 11.824 53.7209 11.8994 53.6661 11.968C53.6798 12.0777 53.6866 12.1874 53.6866 12.2972C53.7003 12.4069 53.7141 12.5166 53.7278 12.6264C53.7964 12.7087 53.8581 12.7978 53.9129 12.8938C53.9815 12.9761 54.0433 13.0653 54.0981 13.1613C54.2216 13.2573 54.3519 13.3533 54.489 13.4494C54.6262 13.5317 54.7565 13.6277 54.88 13.7374C54.9623 13.7923 55.0446 13.8403 55.1269 13.8814C55.2229 13.9089 55.3052 13.9569 55.3737 14.0255C55.4423 14.094 55.5041 14.1558 55.5589 14.2106C55.6275 14.2518 55.6892 14.3066 55.7441 14.3752C55.7852 14.3889 55.8264 14.4095 55.8675 14.4369C55.9087 14.4644 55.9498 14.4918 55.991 14.5192C56.2242 14.6701 56.4025 14.8759 56.5259 15.1365C56.5945 15.2462 56.6631 15.3628 56.7317 15.4863C56.814 15.6097 56.8894 15.7263 56.958 15.836C57.054 15.9183 57.1157 16.0143 57.1432 16.1241C57.1843 16.2338 57.2255 16.3435 57.2666 16.4533C57.2803 16.467 57.2872 16.4944 57.2872 16.5356C57.3146 16.7002 57.3558 16.8579 57.4106 17.0088C57.4792 17.1597 57.5478 17.3105 57.6164 17.4614C57.6575 17.6397 57.6781 17.818 57.6781 17.9964C57.6918 18.161 57.685 18.3256 57.6575 18.4902C57.6575 18.6273 57.637 18.7645 57.5958 18.9016C57.5684 19.0251 57.5272 19.1417 57.4724 19.2514C57.4586 19.2651 57.4518 19.2789 57.4518 19.2926C57.4518 19.3063 57.4381 19.3269 57.4106 19.3543C57.2872 19.4777 57.1843 19.6149 57.102 19.7658C57.0334 19.9167 56.9511 20.0675 56.8551 20.2184C56.8414 20.2321 56.8346 20.2527 56.8346 20.2802C56.8346 20.2939 56.8208 20.3076 56.7934 20.3213C56.6562 20.4173 56.5396 20.5202 56.4436 20.6299C56.3613 20.7397 56.2653 20.8494 56.1556 20.9591C56.1007 21.014 56.0321 21.062 55.9498 21.1031C55.8675 21.1443 55.7921 21.1923 55.7235 21.2472L55.2914 21.4529C55.1543 21.4666 55.0103 21.4872 54.8594 21.5146C54.7222 21.5421 54.5782 21.5901 54.4273 21.6587C54.3313 21.7135 54.2216 21.7547 54.0981 21.7821C53.9884 21.8095 53.8787 21.837 53.7689 21.8644C53.7141 21.8781 53.6592 21.8918 53.6043 21.9055C53.5495 21.9193 53.4946 21.933 53.4397 21.9467C53.2614 21.8095 53.0625 21.741 52.8431 21.741C52.6922 21.741 52.5619 21.7135 52.4521 21.6587C52.2875 21.5901 52.1298 21.5146 51.9789 21.4323C51.828 21.3638 51.6909 21.2677 51.5674 21.1443C51.4851 21.0757 51.4028 21.014 51.3205 20.9591C51.2382 20.9042 51.1628 20.8494 51.0942 20.7945C51.0394 20.7397 50.9708 20.7054 50.8885 20.6916C50.8199 20.6642 50.7513 20.6368 50.6827 20.6093C50.5867 20.5408 50.5318 20.4653 50.5181 20.383C50.5318 20.2733 50.573 20.1704 50.6416 20.0744C50.7239 19.9784 50.7925 19.8755 50.8473 19.7658C50.8473 19.6835 50.8679 19.5806 50.909 19.4572C51.0325 19.2926 51.1628 19.128 51.3 18.9634C51.4371 18.7851 51.5743 18.6067 51.7115 18.4284C51.7663 18.3873 51.828 18.3461 51.8966 18.305C51.9652 18.2501 52.0407 18.1953 52.123 18.1404C52.3973 18.209 52.6579 18.2844 52.9048 18.3667C53.1517 18.449 53.4054 18.5244 53.6661 18.593C53.7209 18.5793 53.7621 18.5656 53.7895 18.5519C53.8169 18.5244 53.8375 18.5039 53.8512 18.4902C53.8924 18.4764 53.9267 18.4627 53.9541 18.449C53.9815 18.4353 54.0021 18.4216 54.0158 18.4079H54.3862C54.3999 18.3804 54.4136 18.3598 54.4273 18.3461C54.4547 18.3187 54.4753 18.2913 54.489 18.2638C54.5439 18.1267 54.5988 17.9964 54.6536 17.8729C54.7085 17.7495 54.7428 17.6123 54.7565 17.4614C54.7291 17.3517 54.6948 17.2351 54.6536 17.1117C54.6262 16.9882 54.5645 16.8648 54.4685 16.7413C54.4136 16.7002 54.3519 16.6522 54.2833 16.5973C54.2147 16.5424 54.1461 16.4876 54.0775 16.4327C53.8444 16.4053 53.6043 16.3435 53.3574 16.2475C53.1243 16.1515 52.8911 16.1035 52.6579 16.1035C52.5619 16.0761 52.4864 16.0349 52.4316 15.98C52.3767 15.9115 52.315 15.8497 52.2464 15.7949C52.1504 15.7674 52.0475 15.7469 51.9378 15.7331C51.828 15.7194 51.7389 15.6646 51.6703 15.5686C51.4508 15.4451 51.2657 15.3559 51.1148 15.3011C51.0462 15.2188 50.9776 15.1365 50.909 15.0542C50.8542 14.9719 50.7925 14.8964 50.7239 14.8279C50.669 14.7593 50.6141 14.677 50.5593 14.581C50.5181 14.4712 50.4633 14.3684 50.3947 14.2723C50.3398 14.2038 50.2918 14.1283 50.2507 14.046C50.2095 13.95 50.1684 13.854 50.1272 13.758C50.0861 13.5659 50.0449 13.3602 50.0038 13.1407C50.0312 12.9899 50.0518 12.839 50.0655 12.6881C50.0929 12.5235 50.1135 12.3589 50.1272 12.1943L50.0449 11.9886C50.0998 11.9611 50.1409 11.92 50.1684 11.8651C50.1958 11.8102 50.2232 11.7554 50.2507 11.7005C50.2781 11.6182 50.3124 11.5496 50.3535 11.4948C50.3947 11.4399 50.4084 11.3645 50.3947 11.2684C50.3947 11.0078 50.4633 10.7678 50.6004 10.5483C50.6279 10.4935 50.6484 10.4455 50.6621 10.4043C50.6896 10.3632 50.7102 10.322 50.7239 10.2809C50.7925 10.2397 50.8473 10.1986 50.8885 10.1574C50.9433 10.1025 50.9776 10.0683 50.9913 10.0545C51.0599 9.98596 51.0874 9.92423 51.0736 9.86937C51.0599 9.80078 51.0599 9.73906 51.0736 9.68419C51.1285 9.6019 51.1902 9.5196 51.2588 9.4373C51.3274 9.355 51.4028 9.26584 51.4851 9.16983C51.5812 9.10125 51.684 9.04638 51.7938 9.00523C51.9035 8.95036 52.0064 8.87492 52.1024 8.77891C52.1298 8.73776 52.1641 8.71033 52.2052 8.69661C52.2464 8.66918 52.2944 8.6486 52.3493 8.63489C52.4179 8.59374 52.4933 8.55945 52.5756 8.53201C52.6579 8.50458 52.7402 8.47029 52.8225 8.42914C52.9597 8.40171 53.0968 8.38113 53.234 8.36742C53.3849 8.3537 53.5289 8.33998 53.6661 8.32627C53.6798 8.32627 53.6935 8.32627 53.7072 8.32627C53.7346 8.31255 53.7621 8.31255 53.7895 8.32627C53.9404 8.38113 54.0913 8.38113 54.2421 8.32627C54.4067 8.2714 54.5713 8.25083 54.7359 8.26454C54.8868 8.26454 55.0308 8.28512 55.168 8.32627C55.3189 8.36742 55.4629 8.40171 55.6001 8.42914C55.751 8.53887 55.9018 8.64174 56.0527 8.73776C56.2036 8.82006 56.3682 8.88864 56.5465 8.94351C56.6014 8.99837 56.6494 9.0601 56.6905 9.12868C56.7454 9.18354 56.8003 9.24527 56.8551 9.31385C56.91 9.36872 56.9649 9.41672 57.0197 9.45787C57.0746 9.49902 57.1226 9.54703 57.1637 9.6019C57.2735 9.80764 57.3763 10.0134 57.4724 10.2191C57.5821 10.4112 57.685 10.6032 57.781 10.7952ZM71.1576 10.1368C71.1439 10.1917 71.137 10.2397 71.137 10.2809C71.137 10.322 71.137 10.3632 71.137 10.4043C71.137 10.4455 71.137 10.4935 71.137 10.5483C71.1507 10.5895 71.1507 10.6306 71.137 10.6718C71.1233 10.7541 71.1233 10.8295 71.137 10.8981C71.1507 10.9667 71.1439 11.0353 71.1164 11.1038C71.1027 11.1313 71.089 11.1587 71.0753 11.1861C71.0616 11.1999 71.0547 11.2204 71.0547 11.2479C71.0821 11.4948 71.0684 11.7348 71.0136 11.968C70.9587 12.2012 70.9107 12.4412 70.8695 12.6881L71.0136 13.1202C70.9998 13.2025 70.9724 13.2848 70.9313 13.3671C70.9038 13.4494 70.8764 13.5385 70.849 13.6345C70.8627 13.7168 70.8695 13.806 70.8695 13.902C70.8832 13.9843 70.897 14.0735 70.9107 14.1695C70.8832 14.2518 70.8627 14.3409 70.849 14.4369C70.8352 14.533 70.8421 14.629 70.8695 14.725C70.9244 14.8759 70.9381 15.0336 70.9107 15.1982C70.897 15.3491 70.897 15.5 70.9107 15.6508C70.9107 15.6646 70.9107 15.6851 70.9107 15.7126C70.9107 15.74 70.9038 15.7606 70.8901 15.7743C70.849 15.8703 70.8284 15.98 70.8284 16.1035C70.8284 16.2132 70.8352 16.323 70.849 16.4327C70.8764 16.5699 70.8901 16.7002 70.8901 16.8236C70.9038 16.9471 70.945 17.0705 71.0136 17.194C71.0273 17.3037 71.0341 17.4203 71.0341 17.5437C71.0341 17.6672 71.041 17.7838 71.0547 17.8935C71.0273 17.9484 70.993 18.0101 70.9518 18.0787C70.9107 18.1335 70.8764 18.1884 70.849 18.2433C70.8352 18.353 70.8284 18.4627 70.8284 18.5725C70.8284 18.6685 70.8558 18.7713 70.9107 18.8811C70.9244 18.8948 70.9313 18.9565 70.9313 19.0662C70.945 19.1623 70.9587 19.2651 70.9724 19.3749C70.9861 19.4709 70.993 19.5257 70.993 19.5395C71.1027 19.6766 71.1027 19.8206 70.993 19.9715C70.9793 19.999 70.9587 20.0264 70.9313 20.0538C70.9175 20.0813 70.9038 20.1156 70.8901 20.1567C70.9175 20.2527 70.945 20.3487 70.9724 20.4447C70.9998 20.527 71.0204 20.6162 71.0341 20.7122C71.0616 20.8357 71.0547 20.9248 71.0136 20.9797C70.9724 21.0346 70.9107 21.0963 70.8284 21.1649C70.8147 21.1786 70.7872 21.1854 70.7461 21.1854C70.7049 21.1992 70.6706 21.2197 70.6432 21.2472C70.5883 21.2472 70.5472 21.254 70.5198 21.2677C70.4649 21.2815 70.41 21.2883 70.3552 21.2883C70.314 21.302 70.2592 21.3157 70.1906 21.3295L69.9642 21.1854C69.9094 21.1717 69.8271 21.1854 69.7174 21.2266C69.6213 21.2815 69.5322 21.2746 69.4499 21.206C69.4362 21.1649 69.3744 21.1306 69.2647 21.1031C69.155 21.062 69.107 21.062 69.1207 21.1031V21.1237C69.1207 21.1237 69.059 21.1443 68.9355 21.1854C68.8121 21.2403 68.716 21.2883 68.6475 21.3295C68.5377 21.3157 68.4006 21.2609 68.236 21.1649C68.0851 21.0688 67.9754 21.0208 67.9068 21.0208C67.8519 20.9523 67.8176 20.8905 67.8039 20.8357C67.8039 20.7808 67.8039 20.7191 67.8039 20.6505C67.8176 20.5819 67.8313 20.5202 67.8451 20.4653C67.8588 20.3967 67.8725 20.3282 67.8862 20.2596C67.9548 20.1224 67.9548 19.9578 67.8862 19.7658C67.8588 19.6698 67.8245 19.5806 67.7833 19.4983C67.7559 19.4023 67.7353 19.3063 67.7216 19.2103C67.7079 19.1691 67.701 19.0937 67.701 18.9839C67.701 18.8742 67.6873 18.8056 67.6599 18.7782C67.6462 18.6822 67.6393 18.5862 67.6393 18.4902C67.653 18.3941 67.6324 18.2981 67.5776 18.2021C67.5364 18.0649 67.5433 17.9209 67.5982 17.77C67.6256 17.7152 67.6393 17.6672 67.6393 17.626C67.653 17.5712 67.6667 17.53 67.6805 17.5026C67.7079 17.338 67.6942 17.2145 67.6393 17.1322C67.5021 16.899 67.3581 16.7276 67.2072 16.6179C67.1112 16.6041 67.0084 16.5904 66.8986 16.5767C66.7889 16.563 66.6792 16.5561 66.5694 16.5561C66.5557 16.5561 66.5283 16.5561 66.4871 16.5561C66.446 16.5424 66.398 16.5287 66.3431 16.515C66.1374 16.4738 65.9385 16.4738 65.7464 16.515C65.5681 16.5561 65.3624 16.5836 65.1292 16.5973C64.9783 16.5973 64.8343 16.5424 64.6971 16.4327C64.6834 16.4464 64.656 16.467 64.6148 16.4944C64.5737 16.5081 64.5394 16.5287 64.512 16.5561C64.3748 16.4738 64.2171 16.4121 64.0387 16.371C63.9564 16.3435 63.8673 16.3298 63.7713 16.3298C63.689 16.3161 63.593 16.3024 63.4832 16.2887C63.3735 16.3161 63.3049 16.4121 63.2775 16.5767V16.7619C63.3049 16.9402 63.3118 17.1185 63.2981 17.2968C63.2843 17.4751 63.2432 17.6466 63.1746 17.8112C63.1746 17.8386 63.1746 17.8729 63.1746 17.9141C63.1746 17.9552 63.1677 17.9895 63.154 18.0169C63.1952 18.0718 63.2295 18.1335 63.2569 18.2021C63.2843 18.257 63.3118 18.3118 63.3392 18.3667C63.2981 18.5039 63.2363 18.6479 63.154 18.7988C63.1677 18.8948 63.1746 18.9908 63.1746 19.0868C63.1883 19.1828 63.202 19.2789 63.2158 19.3749C63.2295 19.4023 63.2432 19.4366 63.2569 19.4777C63.2706 19.5052 63.2843 19.5326 63.2981 19.56C63.4489 19.7932 63.4284 20.0127 63.2363 20.2184C63.2226 20.2321 63.2158 20.2459 63.2158 20.2596C63.2158 20.2733 63.202 20.2939 63.1746 20.3213C63.1746 20.3762 63.1746 20.4379 63.1746 20.5065C63.1746 20.5751 63.1677 20.6505 63.154 20.7328C63.154 20.7877 63.1335 20.8562 63.0923 20.9385C63.0923 20.9523 63.0786 20.966 63.0512 20.9797C63.0374 20.9934 63.0169 21.014 62.9894 21.0414C62.7974 21.11 62.6259 21.1649 62.4751 21.206C62.2556 21.2334 62.0704 21.2266 61.9195 21.1854C61.7824 21.158 61.6041 21.1031 61.3846 21.0208C61.2337 21.0483 61.076 21.0688 60.9114 21.0826C60.7605 21.0826 60.5959 21.0551 60.4176 21.0003C60.349 20.9728 60.2667 20.9317 60.1707 20.8768C60.0884 20.822 59.9992 20.7671 59.9032 20.7122C59.8072 20.6711 59.7112 20.6299 59.6152 20.5888C59.5329 20.5476 59.4506 20.5133 59.3683 20.4859C59.3271 20.3624 59.3203 20.2527 59.3477 20.1567C59.3751 20.0744 59.3957 19.9852 59.4094 19.8892C59.4369 19.7932 59.4643 19.7041 59.4917 19.6218C59.5603 19.4434 59.5946 19.272 59.5946 19.1074C59.5397 19.0388 59.5466 18.9497 59.6152 18.8399C59.6701 18.7302 59.6838 18.6136 59.6563 18.4902C59.6426 18.3667 59.6426 18.2501 59.6563 18.1404C59.6015 17.9484 59.5878 17.7563 59.6152 17.5643C59.6426 17.3585 59.6701 17.1665 59.6975 16.9882C59.7112 16.8785 59.7318 16.7825 59.7592 16.7002C59.7866 16.6179 59.7866 16.5356 59.7592 16.4533C59.7866 16.3435 59.8346 16.2612 59.9032 16.2064C59.9718 16.1378 60.0061 16.0623 60.0061 15.98C60.0198 15.8703 60.0061 15.7812 59.965 15.7126C59.9375 15.6303 59.9169 15.5411 59.9032 15.4451C59.9032 15.404 59.9032 15.3559 59.9032 15.3011C59.9169 15.2325 59.9238 15.1708 59.9238 15.1159C59.9238 15.0473 59.9238 14.9856 59.9238 14.9307C59.9238 14.8759 59.9307 14.8279 59.9444 14.7867C59.9718 14.677 59.965 14.5673 59.9238 14.4575C59.8964 14.3478 59.8895 14.2312 59.9032 14.1077C59.9032 14.0803 59.8964 14.0529 59.8827 14.0255C59.8689 13.998 59.8552 13.9637 59.8415 13.9226C59.8278 13.8128 59.8278 13.6963 59.8415 13.5728C59.8552 13.4494 59.8621 13.3328 59.8621 13.223C59.8621 13.0996 59.8552 12.983 59.8415 12.8733C59.8278 12.7635 59.8278 12.6607 59.8415 12.5646C59.8415 12.5372 59.8415 12.5235 59.8415 12.5235C59.8552 12.5098 59.8621 12.4961 59.8621 12.4824C59.8895 12.4686 59.9169 12.4686 59.9444 12.4824C59.9855 12.4961 60.013 12.4961 60.0267 12.4824C60.0953 12.3315 60.109 12.1874 60.0678 12.0503C60.0267 11.8994 59.9992 11.7554 59.9855 11.6182C60.0267 11.5496 60.0473 11.4673 60.0473 11.3713C60.0473 11.2616 60.0267 11.1999 59.9855 11.1861C59.9855 11.0901 59.9787 10.9941 59.965 10.8981C59.965 10.8021 59.9581 10.7061 59.9444 10.6101C59.9307 10.5003 59.9101 10.3975 59.8827 10.3014C59.8552 10.2054 59.8484 10.1025 59.8621 9.99281C59.8895 9.91052 59.9169 9.82822 59.9444 9.74592C59.9718 9.66362 60.013 9.58132 60.0678 9.49902C60.1227 9.48531 60.1844 9.47159 60.253 9.45787C60.3353 9.44416 60.4107 9.41672 60.4793 9.37557C60.5479 9.34814 60.6028 9.31385 60.6439 9.2727C60.6851 9.23155 60.7331 9.20412 60.7879 9.1904C60.8977 9.17669 60.9937 9.1904 61.076 9.23155C61.172 9.2727 61.2612 9.30013 61.3435 9.31385C61.5355 9.32757 61.6864 9.31385 61.7961 9.2727C61.9058 9.23155 62.043 9.14925 62.2076 9.02581C62.2762 9.06695 62.3448 9.1081 62.4133 9.14925C62.4956 9.1904 62.5642 9.23155 62.6191 9.2727C62.6877 9.30013 62.7425 9.32757 62.7837 9.355C62.8386 9.38243 62.8934 9.40987 62.9483 9.4373C63.058 9.50588 63.1129 9.60875 63.1129 9.74592C63.1266 9.84193 63.1335 9.93109 63.1335 10.0134C63.1335 10.0957 63.1403 10.178 63.154 10.2603C63.154 10.37 63.154 10.4797 63.154 10.5895C63.1677 10.6992 63.1952 10.8089 63.2363 10.9187C63.25 10.9735 63.2569 11.0284 63.2569 11.0833C63.2569 11.1381 63.2638 11.193 63.2775 11.2479C63.2912 11.4262 63.2912 11.6731 63.2775 11.9886C63.2775 12.2903 63.2432 12.5235 63.1746 12.6881C63.1609 12.7292 63.154 12.7773 63.154 12.8321C63.2226 12.9281 63.2981 12.9624 63.3804 12.935C63.4764 12.9076 63.5655 12.8938 63.6478 12.8938C63.7987 12.9624 63.9153 13.0379 63.9976 13.1202C64.0799 13.2025 64.1965 13.2848 64.3474 13.3671C64.4982 13.2985 64.6354 13.271 64.7589 13.2848C64.896 13.2848 65.0469 13.2573 65.2115 13.2025H66.1785C66.5351 13.2025 66.8849 13.1613 67.2278 13.079C67.2964 13.0516 67.3581 13.0379 67.413 13.0379C67.4816 13.0242 67.5433 13.0104 67.5982 12.9967C67.6256 12.983 67.653 12.9693 67.6805 12.9556C67.7079 12.9419 67.7285 12.9281 67.7422 12.9144C67.7696 12.8184 67.7628 12.6675 67.7216 12.4618C67.6805 12.2423 67.6599 12.0914 67.6599 12.0091C67.6462 11.9406 67.6256 11.8651 67.5982 11.7828C67.5844 11.7005 67.5776 11.6251 67.5776 11.5565C67.605 11.4056 67.605 11.2616 67.5776 11.1244C67.5639 10.9873 67.557 10.8501 67.557 10.7129C67.557 10.6443 67.5502 10.5689 67.5364 10.4866C67.5364 10.4043 67.5296 10.3289 67.5159 10.2603C67.4336 9.97224 67.4267 9.66362 67.4953 9.33443C67.7147 9.1424 67.9959 9.02581 68.3388 8.98466C68.4897 8.94351 68.6338 8.94351 68.7709 8.98466C68.9218 9.01209 69.0658 9.03952 69.203 9.06696C69.2716 9.03952 69.347 9.01209 69.4293 8.98466C69.5116 8.94351 69.6076 8.8955 69.7174 8.84063C69.8682 8.84063 69.9711 8.84063 70.026 8.84063C70.0946 8.84063 70.2111 8.83377 70.3757 8.82006C70.4855 8.82006 70.5678 8.8132 70.6226 8.79948C70.6775 8.77205 70.7667 8.75148 70.8901 8.73776C70.9038 8.75148 70.9313 8.80634 70.9724 8.90236C71.0273 8.99837 71.0547 9.07381 71.0547 9.12868C71.041 9.1424 71.0478 9.21784 71.0753 9.355C71.1164 9.47845 71.1301 9.58818 71.1164 9.68419C71.1164 9.76649 71.1233 9.84879 71.137 9.93109C71.1507 9.99967 71.1576 10.0683 71.1576 10.1368Z" fill="#971E4C"/>
</svg>
