<svg width="323" height="226" viewBox="0 0 323 226" fill="none" xmlns="http://www.w3.org/2000/svg">
<path d="M49.6191 175.163C54.601 179.249 65.3054 179.768 74.5407 176.619C83.8809 173.434 91.7148 166.501 90.6283 155.711C88.4676 134.246 87.733 124.054 110.414 119.504C133.1 114.961 122.26 100.04 122.26 100.04C118.254 96.5397 113.21 94.3112 107.808 93.3791C84.0908 89.2738 53.4219 110.183 72.6701 158.828C72.6701 158.828 73.7751 164.946 63.6695 165.254C53.57 165.563 55.2862 153.13 55.2553 146.519C55.2245 139.907 49.8352 139.327 47.1127 143.827C44.3843 148.327 39.6124 166.946 49.6191 175.163Z" fill="#C1ADFF"/>
<g opacity="0.3">
<path d="M74.5407 176.619C83.8809 173.434 91.7148 166.501 90.6283 155.711C88.4676 134.246 87.733 124.054 110.414 119.504C133.1 114.961 122.26 100.04 122.26 100.04C118.254 96.5398 113.21 94.3112 107.808 93.3792C109.358 95.6571 114.605 105.164 100.647 112.917C84.671 121.788 80.2016 128.949 83.3869 141.926C86.5662 154.908 88.2205 161.643 80.9362 164.705C77.01 166.36 74.6271 172.045 74.5407 176.619Z" fill="#5F2AFF"/>
</g>
<path d="M62.348 180.168C68.3098 180.168 74.8599 178.712 80.2376 175.83C88.7836 171.251 93.0193 164.05 92.1641 155.555C90.0763 134.813 89.1234 125.347 110.72 121.019C118.853 119.389 123.887 116.232 125.683 111.635C128.073 105.52 123.699 99.3893 123.512 99.1314C123.443 99.0375 123.365 98.9517 123.277 98.8753C112.066 89.0971 93.6842 88.739 80.5187 98.043C73.0263 103.337 68.0187 111.204 66.0375 120.792C63.7541 131.843 65.4788 144.766 71.1633 159.205C71.1824 159.529 71.1687 160.538 70.3766 161.484C69.2401 162.842 66.9059 163.612 63.6266 163.711C61.6584 163.778 60.1919 163.29 59.1371 162.241C56.4963 159.614 56.6462 153.6 56.7558 149.208C56.7795 148.249 56.8022 147.343 56.7984 146.513C56.7813 142.854 55.251 140.249 52.7047 139.544C50.2062 138.851 47.492 140.22 45.7921 143.027C42.7709 148.017 37.8874 167.526 48.6434 176.353C51.7507 178.904 56.7942 180.168 62.348 180.168ZM121.102 101.075C121.648 101.899 124.423 106.407 122.802 110.527C121.407 114.073 117.138 116.585 110.113 117.992C98.5602 120.308 92.4787 124.101 89.7786 130.677C87.1918 136.976 88.0307 145.311 89.0931 155.864C90.018 165.054 83.995 170.315 78.7797 173.11C69.5269 178.068 56.0956 178.477 50.6017 173.968C41.4355 166.445 45.8362 148.914 48.4325 144.626C49.5294 142.814 50.955 142.263 51.8817 142.519C53.0005 142.829 53.7015 144.365 53.7116 146.527C53.7154 147.321 53.6931 148.2 53.6698 149.132C53.5397 154.359 53.3774 160.866 56.9605 164.429C58.6259 166.086 60.9028 166.881 63.7197 166.797C68.0221 166.666 71.0806 165.518 72.8108 163.384C74.6008 161.176 74.2386 158.814 74.1916 158.552C74.1733 158.451 74.1451 158.353 74.1075 158.258C59.6203 121.648 75.0104 105.715 82.2997 100.564C94.0809 92.2378 111.081 92.4754 121.102 101.075Z" fill="#280059"/>
<path d="M216.361 153.988C228.609 148.482 247.895 166.353 251.321 179.274C254.747 192.195 275.075 197.701 275.075 197.701C284.64 202.979 293.043 202.51 299.47 200.312C308.398 197.258 315.23 190.076 318.487 181.22C320.231 176.476 320.817 171.976 320.542 168.113C320.295 164.507 319.295 161.458 317.788 159.285C314.924 155.143 308.368 158.359 309.856 163.174C314.097 176.891 303.874 192.608 290.243 185.793C284.459 178.471 280.594 168.106 279.971 152.562C278.675 138.901 271.964 127.702 263.562 121.165C263.562 121.165 263.562 121.165 263.556 121.165C255.179 114.646 245.117 112.775 237.061 117.739L219.547 118.967C217.769 120.381 202.953 138.685 198.978 144.315C194.996 149.951 204.12 159.501 216.361 153.988Z" fill="#C1ADFF"/>
<g opacity="0.3">
<path d="M216.361 153.988C228.609 148.482 247.895 166.353 251.321 179.274C254.747 192.195 275.075 197.701 275.075 197.701C284.64 202.979 293.043 202.51 299.47 200.312C308.398 197.258 315.23 190.076 318.487 181.22C320.231 176.476 320.817 171.976 320.542 168.113C319.844 167.933 319.43 167.853 319.43 167.853C319.43 167.853 316.035 195.868 292.249 195.775C268.464 195.682 261.303 168.316 258.087 150.778C256.11 139.997 249.522 134.523 244.737 131.906C241.572 130.174 241.388 125.693 244.394 123.698C251.808 118.777 263.243 121.097 263.556 121.165C255.179 114.646 245.117 112.775 237.06 117.739L219.547 118.967C217.769 120.381 202.953 138.685 198.978 144.315C194.996 149.951 204.12 159.501 216.361 153.988Z" fill="#5F2AFF"/>
</g>
<path d="M290.231 203.422C293.158 203.422 296.08 202.978 298.987 202.088C308.662 199.127 316.561 191.337 320.117 181.248C323.187 172.537 322.782 163.785 319.06 158.408C317.354 155.944 314.258 155.15 311.53 156.476C308.788 157.81 307.494 160.75 308.383 163.628C310.593 170.783 308.575 179.047 303.583 183.281C300.096 186.238 295.725 186.689 291.24 184.561C285.248 176.825 282.066 166.333 281.513 152.499C281.512 152.471 281.51 152.443 281.507 152.415C280.008 136.611 271.065 122.427 258.725 116.282C250.795 112.331 242.815 112.382 236.255 116.424C235.529 116.871 235.303 117.822 235.75 118.548C236.197 119.273 237.148 119.5 237.873 119.052C243.493 115.591 250.409 115.588 257.348 119.044C268.746 124.721 277.018 137.914 278.43 152.665C279.022 167.316 282.49 178.466 289.033 186.75C289.173 186.927 289.351 187.072 289.553 187.173C295.236 190.014 301.077 189.454 305.58 185.635C311.567 180.557 313.932 171.133 311.332 162.717C310.794 160.976 311.83 159.763 312.88 159.252C313.918 158.749 315.496 158.683 316.522 160.165C318.892 163.588 320.493 170.895 317.205 180.222C313.974 189.391 306.826 196.461 298.084 199.137C290.737 201.384 283.247 200.447 275.821 196.35C275.714 196.291 275.599 196.244 275.48 196.212C275.285 196.159 255.97 190.778 252.813 178.879C250.375 169.692 240.431 158.43 230.647 153.773C225.063 151.115 219.904 150.704 215.729 152.582C209.084 155.573 203.509 153.757 200.932 150.63C199.406 148.778 199.145 146.75 200.236 145.207C204.49 139.186 219.059 121.333 220.506 120.179C221.171 119.648 221.283 118.678 220.753 118.011C220.223 117.345 219.255 117.232 218.587 117.761C216.559 119.37 201.689 137.8 197.715 143.426C195.831 146.093 196.159 149.691 198.55 152.593C201.873 156.625 208.866 159.056 216.996 155.397C221.195 153.509 226.016 154.987 229.321 156.56C238.393 160.879 247.594 171.246 249.829 179.671C253.306 192.773 272.276 198.512 274.49 199.14C279.713 201.992 284.979 203.421 290.231 203.422Z" fill="#280059"/>
<path d="M6.24524 96.4903C6.25757 96.4657 6.27609 96.4471 6.29462 96.4224C7.17114 95.2434 8.14655 94.1754 9.21451 93.2864C32.5557 73.5566 56.6931 90.9899 40.8957 131.4C26.5923 171.594 67.7124 176.761 112.524 130.758C108.585 123.548 108.153 116.442 110.363 110.609C110.37 110.602 110.376 110.59 110.376 110.578C111.82 106.794 114.388 103.559 117.833 101.17C117.876 101.133 117.907 101.108 117.919 101.102C120.839 99.1016 124.377 97.7064 128.414 97.1137C116.87 38.0973 157.28 -14.4435 236.613 6.01482C241.014 6.57029 245.15 7.61988 248.996 9.08905C289.104 24.4296 297.531 85.6005 246.972 111.325C233.341 119.356 224.248 127.505 218.136 135.746C214.5 140.635 211.92 145.561 210.056 150.5C244.706 126.196 253.275 154.42 253.398 163.97C253.521 173.52 254.133 186.743 267.603 186.132C281.073 185.521 280.215 172.539 280.215 172.539C262.312 183.231 251.423 152.71 277.505 152.426C280.141 152.402 282.777 152.877 285.159 154.013C296.024 159.198 297.747 174.113 290.24 185.793C288.894 187.879 287.252 189.867 285.32 191.682C280.999 195.713 275.214 198.868 267.942 200.306C267.689 200.362 267.436 200.411 267.177 200.454C270.665 212.949 248.867 218.455 248.867 218.455C190.968 236.401 142.853 209.634 149.416 185.947C150.551 181.836 153.336 177.811 158.015 174.131L129.568 159.316C129.568 159.316 114.154 172.304 100.647 179.261C100.103 179.539 99.5663 179.811 99.0293 180.07C85.158 186.774 53.1125 195.226 33.9137 181.539C19.9868 171.613 20.209 157.396 23.6352 144.234C24.5797 140.598 25.765 137.042 26.9688 133.678C27.407 132.437 27.8516 131.227 28.2837 130.048C34.1606 114.072 30.7714 106.509 30.7714 106.509C25.8451 96.9286 12.1776 99.8053 10.591 111.152C10.3071 115.825 8.60944 117.807 5.54126 117.165C-0.619446 115.288 0.880737 103.756 6.24524 96.4903ZM207.235 194.584C213.963 197.368 222.112 197.923 231.181 197.047L236.175 191.732C236.02 191.787 233.786 192.528 233.002 187.614C232.996 187.608 232.996 187.602 232.996 187.595C232.983 187.497 232.965 187.398 232.952 187.293C232.829 186.435 232.545 185.509 232.088 184.601C232.082 184.589 232.082 184.583 232.076 184.57C231.218 182.86 229.792 181.224 227.841 180.237C227.835 180.231 227.829 180.224 227.822 180.224C225.952 179.28 223.6 178.928 220.822 179.687C220.797 179.693 220.779 179.693 220.754 179.7C219.371 180.089 217.877 180.749 216.285 181.749C215.087 182.502 213.834 183.441 212.525 184.601C212.525 184.601 211.97 185.651 211.223 186.972C210.192 188.799 208.778 191.145 207.932 191.984C206.469 193.435 207.235 194.584 207.235 194.584Z" fill="#C1ADFF"/>
<g opacity="0.3">
<path d="M33.9124 181.539C53.1112 195.226 85.1566 186.774 99.028 180.07C99.5651 179.811 100.102 179.539 100.645 179.261L98.7688 155.711C98.7688 155.711 86.9964 180.99 56.8708 180.256C26.7514 179.521 22.1585 155.136 23.9982 146.037C24.1525 145.284 24.0105 144.685 23.6339 144.234C20.2077 157.396 19.9855 171.613 33.9124 181.539Z" fill="#5F2AFF"/>
</g>
<path d="M279.653 42.4243C276.017 46.9678 267.555 41.2833 263.092 33.7625C259.21 27.2198 258.161 20.3035 263.284 18.1396C269.922 25.3464 275.484 33.5555 279.653 42.4243Z" fill="#8165D8"/>
<path d="M259.925 25.541C262.985 28.9637 264.342 33.1937 264.939 36.4877C269.596 42.5431 276.465 46.3871 279.642 42.4378C279.647 42.4319 279.647 42.4319 279.653 42.4261C279.642 42.3969 279.624 42.3676 279.612 42.3384C275.447 33.5038 269.9 25.3245 263.283 18.1399C260.358 19.3744 259.445 22.1594 259.925 25.541Z" fill="#6247B3"/>
<g opacity="0.3">
<path d="M248.867 218.455C248.867 218.455 270.665 212.949 267.177 200.454C267.436 200.411 267.689 200.362 267.942 200.306C265.541 196.374 260.016 192.701 249.311 189.904C254.682 191.503 265.405 196.331 252.664 207.436C236.434 221.585 154.651 215.258 149.416 185.947C142.854 209.634 190.968 236.401 248.867 218.455Z" fill="#5F2AFF"/>
</g>
<g opacity="0.3">
<path d="M260.525 25.0647C258.253 21.8184 256.467 18.9779 254.032 16.949C251.598 14.9201 249.509 13.2264 246.323 11.2681C243.002 9.22703 237.395 6.80444 237.395 6.80444C238.071 6.83858 243.58 6.91398 248.957 9.09524L248.998 9.08943C264.368 14.9694 275.086 27.5717 279.614 42.3389C279.626 42.374 279.638 42.4032 279.644 42.4383C286.881 66.1863 278.117 95.4805 246.973 111.324C233.341 119.357 224.249 127.507 218.141 135.745C208.359 146.422 206.013 164.138 206.013 164.138C206.013 164.138 207.791 171.99 216.971 167.034C226.157 162.067 233.686 165.683 237.051 176.337C240.426 186.991 256.832 190.109 256.832 190.109C281.2 201.805 296.751 172.54 289.403 157.972L293.346 165.098L294.142 174.652C294.142 174.652 291.708 181.591 290.245 185.791C289.695 187.359 289.286 188.553 289.186 188.857C289.063 189.237 287.431 190.355 285.325 191.683C281.141 194.298 275.074 197.703 275.074 197.703L268.094 199.54C268.094 199.54 263.683 194.579 257.253 191.806C250.817 189.027 240.848 188.149 237.361 190.419C234.974 191.97 233.786 189.922 233.002 187.617C232.996 187.605 232.996 187.599 232.996 187.593C232.639 186.546 232.364 185.44 232.089 184.604C232.083 184.592 232.083 184.58 232.078 184.568C231.574 183.024 230.223 181.239 227.842 180.239L227.841 180.239C227.836 180.233 227.83 180.227 227.824 180.227C226.069 179.49 223.764 179.18 220.827 179.689C220.798 179.695 220.78 179.695 220.757 179.701C219.124 179.999 217.65 180.736 216.287 181.748C214.391 183.141 212.729 185.054 211.226 186.973C209.196 189.571 207.446 192.192 205.814 193.608C202.099 196.826 183.423 187.57 183.423 187.57C183.423 187.57 199.22 188.43 194.809 175.16C190.403 161.897 160.003 171.96 160.003 171.96C160.003 171.96 159.137 173.434 153.123 157.017C147.119 140.652 131.905 138.541 123.332 137.351L123.261 137.342C114.707 136.154 112.525 130.76 112.525 130.76C107.247 122.721 108.02 115.764 110.366 110.61C110.372 110.604 110.378 110.593 110.378 110.575C113.046 104.754 117.72 101.249 117.919 101.103C97.1961 121.896 150.894 146.51 180.305 141.315C209.711 136.119 198.214 122.013 198.214 122.013C198.214 122.013 209.792 118.403 224.472 106.497C227.555 103.993 230.779 101.12 234.061 97.8382C241.497 90.3961 249.232 80.842 256.34 68.6726C262.454 58.194 265.023 49.3069 265.397 41.8706V41.8648C265.403 41.7537 265.397 41.6541 265.403 41.5488C265.409 40.8176 265.38 38.9044 264.941 36.4881C264.344 33.194 263.365 29.1225 260.525 25.0647Z" fill="#5F2AFF"/>
</g>
<path d="M151.837 116.344C147.287 106.901 135.05 111.906 141.098 122.013L151.837 116.344Z" fill="#FF67A0"/>
<path d="M152.146 114.11C148.069 119.143 140.829 122.621 134.484 120.095C132.45 119.29 130.647 117.897 129.131 116.207C128.793 115.815 128.196 115.777 127.811 116.123C127.446 116.451 127.404 117.006 127.703 117.386C128.479 118.371 129.351 119.299 130.335 120.118C137.678 126.37 148.765 122.765 154.095 115.626C155.047 114.333 153.168 112.863 152.146 114.11Z" fill="#280059"/>
<path d="M141.099 123.248C141.315 123.248 141.533 123.191 141.732 123.073C142.317 122.723 142.507 121.965 142.157 121.379C140.553 118.698 140.243 116.259 141.286 114.513C142.058 113.219 143.494 112.489 145.134 112.563C147.414 112.664 149.451 114.238 150.724 116.881C151.02 117.495 151.758 117.754 152.372 117.457C152.986 117.161 153.245 116.423 152.948 115.809C151.293 112.373 148.413 110.237 145.244 110.096C142.719 109.978 140.393 111.191 139.165 113.247C138.279 114.733 137.214 117.928 140.039 122.647C140.27 123.034 140.679 123.248 141.099 123.248Z" fill="#280059"/>
<path d="M148.551 119.112C148.194 118.309 145.653 114.417 144.723 115.665C144.563 115.895 144.58 116.194 144.744 116.403C145.338 117.146 145.73 118.078 146 118.999C146.086 119.299 146.174 119.641 146.211 119.9C146.309 120.586 146.945 121.062 147.631 120.964C148.489 120.858 148.978 119.857 148.551 119.112Z" fill="#280059"/>
<path d="M5.54254 117.165C8.61072 117.807 10.3084 115.825 10.5923 111.152C12.1788 99.8054 25.8464 96.9286 30.7727 106.509C30.7727 106.509 34.1618 114.072 28.2849 130.048C27.8527 131.227 27.4083 132.437 26.9701 133.678C26.9701 133.678 40.8355 119.779 35.6932 102.562C30.5508 85.3389 13.8519 86.6996 6.29575 96.4224C6.27724 96.4471 6.25872 96.4657 6.24638 96.4903C0.881752 103.756 -0.618382 115.288 5.54254 117.165Z" fill="#FFB297"/>
<path d="M5.07996 113.674C4.64037 113.674 4.28401 113.249 4.28401 112.725C4.28401 112.201 4.64037 111.776 5.07996 111.776C5.51955 111.776 5.87592 112.201 5.87592 112.725C5.87592 113.249 5.51955 113.674 5.07996 113.674Z" fill="#DDD2FF"/>
<path d="M5.87958 109.232C5.51268 109.232 5.21524 108.877 5.21524 108.44C5.21524 108.002 5.51268 107.648 5.87958 107.648C6.24647 107.648 6.54388 108.002 6.54388 108.44C6.54388 108.877 6.24647 109.232 5.87958 109.232Z" fill="#DDD2FF"/>
<path d="M9.30121 105.868C9.30121 106.306 9.59864 106.66 9.96551 106.66C10.3324 106.66 10.6298 106.306 10.6298 105.868C10.6298 105.431 10.3324 105.076 9.96551 105.076C9.59864 105.076 9.30121 105.431 9.30121 105.868Z" fill="#DDD2FF"/>
<path d="M11.1801 99.8992C11.1801 100.337 11.4775 100.691 11.8444 100.691C12.2113 100.691 12.5087 100.337 12.5087 99.8992C12.5087 99.4618 12.2113 99.1072 11.8444 99.1072C11.4775 99.1072 11.1801 99.4618 11.1801 99.8992Z" fill="#DDD2FF"/>
<path d="M18.2543 96.8687C18.2543 97.3062 18.5518 97.6607 18.9186 97.6607C19.2855 97.6607 19.5829 97.3061 19.5829 96.8687C19.5829 96.4313 19.2855 96.0767 18.9186 96.0767C18.5518 96.0765 18.2543 96.4312 18.2543 96.8687Z" fill="#DDD2FF"/>
<path d="M7.43814 102.677C7.07125 102.677 6.77383 102.322 6.77383 101.885C6.77383 101.448 7.07125 101.093 7.43814 101.093C7.80503 101.093 8.10248 101.448 8.10248 101.885C8.10248 102.322 7.80503 102.677 7.43814 102.677Z" fill="#DDD2FF"/>
<path d="M15.7507 95.8355C15.3838 95.8355 15.0863 95.4809 15.0863 95.0435C15.0863 94.6061 15.3838 94.2515 15.7507 94.2515C16.1176 94.2515 16.415 94.6061 16.415 95.0435C16.415 95.4809 16.1176 95.8355 15.7507 95.8355Z" fill="#DDD2FF"/>
<path d="M7.6918 112.725C7.6918 113.163 7.98923 113.517 8.35611 113.517C8.72299 113.517 9.02045 113.163 9.02045 112.725C9.02045 112.288 8.72299 111.933 8.35611 111.933C7.98923 111.933 7.6918 112.288 7.6918 112.725Z" fill="#DDD2FF"/>
<path d="M211.116 225.845C223.614 225.846 236.613 223.865 249.285 219.941C250.273 219.687 263.136 216.248 267.579 208.588C268.848 206.397 269.324 204.076 268.999 201.668C286.783 197.836 294.731 184.679 296.123 174.342C297.436 164.6 293.488 156.277 285.822 152.62C283.344 151.439 280.538 150.866 277.489 150.883C269.035 150.975 263.059 154.255 261.088 159.882C259.412 164.667 261.081 170.329 265.148 173.648C268.808 176.636 273.658 177.135 278.506 175.125C278.232 176.888 277.541 179.272 275.823 181.181C273.936 183.28 271.146 184.427 267.531 184.591C264.045 184.745 261.403 183.933 259.458 182.098C255.122 178.007 255.008 169.208 254.94 163.95C254.854 157.363 251.485 145.904 242.553 141.332C234.981 137.456 225.218 139.159 213.486 146.388C219.644 133.547 230.651 122.736 247.712 112.678C278.967 96.7575 286.294 69.2214 282.729 48.7532C278.574 24.8937 260.592 7.53158 236.902 4.49592C200.22 -4.94053 168.644 0.585149 147.982 20.0589C138.474 29.0202 131.534 40.8552 127.914 54.285C124.454 67.1165 124.008 81.4598 126.607 95.8616C119.005 97.3997 112.925 101.8 109.779 108.103C106.471 114.729 106.795 122.828 110.634 130.479C82.8392 158.668 57.0879 166.425 45.9005 159.456C38.9543 155.13 37.6597 145.092 42.3479 131.918C51.8974 107.491 46.6991 92.6166 38.6445 86.8559C30.5547 81.0685 18.895 83.0813 8.21655 92.1072C7.1076 93.0304 6.04056 94.1744 5.05423 95.5011C5.04523 95.5115 5.00784 95.5573 4.96155 95.6285C0.848511 101.233 -1.03763 109.109 0.572906 113.976C1.36481 116.369 2.92682 117.982 5.08997 118.641C5.134 118.655 5.17865 118.666 5.22351 118.675C6.91843 119.03 8.36493 118.763 9.52203 117.879C11.0677 116.7 11.9196 114.55 12.1256 111.309C12.9469 105.608 16.9904 102.948 20.2121 102.401C23.1844 101.9 27.144 102.886 29.3711 107.164C29.5534 107.631 32.2053 114.912 26.8336 129.515L26.7733 129.679C26.358 130.813 25.9323 131.974 25.5119 133.164C22.7408 140.919 19.9346 150.025 20.1485 158.718C20.3962 168.785 24.7255 176.886 33.0165 182.796C54.2025 197.899 88.3354 186.952 99.6994 181.46C112.02 175.502 126.243 164.06 129.764 161.159L155.256 174.436C147.093 181.794 145.071 190.952 149.748 199.856C155.076 210.001 168.498 218.6 185.653 222.859C193.69 224.854 202.278 225.845 211.116 225.845ZM277.705 153.969C280.208 153.969 282.492 154.452 284.494 155.406C290.907 158.465 294.191 165.563 293.064 173.93C291.771 183.535 284.143 195.847 266.903 198.936C266.475 199.012 266.099 199.266 265.868 199.634C265.637 200.002 265.572 200.451 265.688 200.87C266.3 203.06 266.045 205.076 264.911 207.035C261.044 213.708 248.612 216.928 248.487 216.959C248.46 216.966 248.434 216.974 248.408 216.981C227.295 223.527 205.272 224.55 186.396 219.863C170.084 215.813 157.405 207.798 152.48 198.421C148.173 190.22 150.477 182.024 158.967 175.345C159.379 175.021 159.598 174.51 159.55 173.988C159.501 173.466 159.191 173.005 158.726 172.763L130.28 157.947C129.724 157.659 129.05 157.733 128.572 158.136C128.407 158.275 111.883 172.14 98.3557 178.681C83.1964 186.007 52.5382 192.922 34.8078 180.283C18.7993 168.872 22.2771 151.389 28.4201 134.197C28.8383 133.014 29.2599 131.865 29.6711 130.743L29.731 130.58C35.7551 114.203 32.3268 106.211 32.1779 105.879C32.1666 105.853 32.1547 105.829 32.1423 105.804C29.6464 100.95 24.877 98.4785 19.6959 99.3583C14.0858 100.31 9.91132 104.855 9.06067 110.938C9.05521 110.978 9.05106 111.018 9.04883 111.058C8.91315 113.289 8.41617 114.841 7.64944 115.426C7.49869 115.541 7.04816 115.886 5.92438 115.668C4.76358 115.292 3.97131 114.421 3.50333 113.007C2.19556 109.055 3.94437 102.203 7.48505 97.4075C7.49774 97.39 7.51019 97.3727 7.52219 97.3548L7.53085 97.3437C8.3718 96.2125 9.26981 95.2469 10.2 94.4726C19.7556 86.3954 29.9634 84.4406 36.8491 89.3668C43.959 94.4518 48.3777 108.017 39.4565 130.838C34.222 145.545 35.9822 156.915 44.2685 162.076C56.2295 169.525 83.0363 163.24 113.628 131.835C114.1 131.35 114.201 130.613 113.877 130.019C109.974 122.868 109.499 115.574 112.541 109.481C115.444 103.664 121.311 99.7123 128.636 98.6407C129.053 98.5798 129.428 98.3497 129.672 98.0055C129.916 97.6613 130.008 97.2318 129.927 96.8174C124.187 67.4743 131.728 39.6191 150.098 22.3055C169.979 3.56834 200.565 -1.68673 236.226 7.50926C236.289 7.52552 236.353 7.53799 236.418 7.54606C258.781 10.3736 275.765 26.7564 279.688 49.2831C283.065 68.6739 276.06 94.7942 246.27 109.949C246.242 109.963 246.214 109.979 246.187 109.995C226.437 121.63 214.496 134.328 208.61 149.956C208.371 150.59 208.573 151.305 209.108 151.72C209.643 152.135 210.386 152.153 210.94 151.764C223.598 142.885 233.762 140.299 241.147 144.08C248.81 148.002 251.78 158.374 251.854 163.99C251.928 169.737 252.052 179.355 257.34 184.343C259.89 186.748 263.366 187.866 267.671 187.674C272.156 187.47 275.679 185.972 278.141 183.22C282.123 178.768 281.77 172.694 281.753 172.437C281.718 171.901 281.406 171.422 280.931 171.172C280.455 170.923 279.884 170.938 279.422 171.214C274.881 173.926 270.39 173.943 267.1 171.257C264.021 168.743 262.746 164.485 264.001 160.902C265.517 156.573 270.444 154.047 277.52 153.97C277.582 153.969 277.644 153.969 277.705 153.969Z" fill="#280059"/>
<path d="M281.755 172.623C281.646 168.536 280.665 163.841 276.899 161.544C275.606 160.79 274.115 160.543 272.739 160.594C272.228 160.613 271.829 161.042 271.848 161.553C271.866 162.046 272.267 162.433 272.75 162.446C273.868 162.502 274.921 162.789 275.758 163.379C278.455 165.369 278.837 169.346 278.671 172.478C278.544 174.596 281.681 174.749 281.755 172.623Z" fill="#280059"/>
<path d="M267.177 202C267.428 202 267.681 201.939 267.916 201.811C268.664 201.403 268.939 200.465 268.53 199.717C263.471 190.456 250.556 186.441 241.493 188.032C235.779 189.036 232.11 192.163 231.427 196.611C231.298 197.454 231.876 198.241 232.719 198.37C233.558 198.5 234.349 197.922 234.478 197.079C235.121 192.893 239.483 191.519 242.027 191.072C250.073 189.659 261.556 193.39 265.822 201.197C266.102 201.71 266.631 202 267.177 202Z" fill="#280059"/>
<path d="M249.839 193.948C232.452 196.706 214.342 196.114 197.328 191.46C194.884 190.88 192.428 189.934 190.016 189.234C188.926 188.907 188.315 190.501 189.382 190.97C203.584 197.323 219.503 199.467 234.96 198.285C240.128 197.883 245.231 197.11 250.285 195.745C250.779 195.612 251.071 195.104 250.937 194.611C250.807 194.127 250.318 193.842 249.839 193.948Z" fill="#280059"/>
<path d="M206.863 171.452C210.417 176.608 213.059 183.805 208.638 189.256C207.337 190.952 205.636 192.429 203.779 193.78C203.36 194.081 203.265 194.667 203.569 195.084C203.832 195.445 204.306 195.562 204.698 195.388C209.309 193.425 213.58 189.164 214.002 183.882C214.424 178.607 211.886 173.759 208.228 170.199C207.39 169.45 206.19 170.559 206.863 171.452Z" fill="#280059"/>
<path d="M235.711 193.348C236.255 193.348 236.65 193.204 236.768 193.155C237.556 192.83 237.932 191.928 237.607 191.14C237.298 190.39 236.467 190.015 235.708 190.259C235.555 190.233 234.84 189.635 234.481 187.08C234.045 183.976 231.653 179.929 227.43 178.375C224.137 177.16 218.701 177.058 211.501 183.446C210.864 184.012 210.805 184.987 211.371 185.625C211.937 186.262 212.912 186.321 213.55 185.755C218.345 181.5 222.776 179.95 226.364 181.271C229.396 182.387 231.113 185.287 231.425 187.509C231.821 190.334 232.703 192.102 234.121 192.914C234.705 193.249 235.259 193.348 235.711 193.348Z" fill="#280059"/>
<path d="M158.943 175.364C162.102 173.021 166.106 171.955 170.007 171.751C171.187 171.707 171.202 169.963 170.022 169.899C165.865 169.693 161.597 170.437 157.896 172.413C157.629 172.559 157.398 172.689 157.08 172.903C156.371 173.379 156.182 174.339 156.658 175.048C157.163 175.812 158.25 175.961 158.943 175.364Z" fill="#280059"/>
<path d="M97.9689 212.9C102.08 213.214 106.408 212.64 110.692 211.109C123.008 206.708 126.928 197.769 128.138 191.775C128.391 190.54 128.527 189.435 128.594 188.515C128.718 186.904 128.638 185.873 128.632 185.768C128.934 186.286 129.243 186.78 129.564 187.25C137.422 198.923 149.75 195.96 149.75 195.96C148.312 192.274 148.133 188.688 149.3 185.212C150.664 181.126 153.893 177.199 159.134 173.434C156.325 162.661 152.423 153.852 146.719 147.623C141.756 142.203 135.435 138.727 127.286 137.616C120.909 136.746 114.347 137.894 108.945 141.401C92.2464 152.247 97.7962 176.823 100.673 187.966C100.796 188.447 100.957 188.916 101.124 189.385C103.55 196.435 98.8456 203.152 92.234 199.355C89.5054 197.225 87.7214 193.892 88.2215 187.663C89.3388 174.545 81.5234 170.896 76.9367 175.816C75.8255 177.008 75.1094 178.508 74.7699 180.107C74.7699 180.113 74.7637 180.113 74.7637 180.119C74.702 180.416 74.6526 180.712 74.6156 181.014C72.214 200.207 83.7641 211.832 97.9689 212.9Z" fill="#C1ADFF"/>
<g opacity="0.3">
<path d="M79.6212 203.174C79.6212 203.174 90.8149 208.918 97.9697 212.9C102.081 213.214 106.409 212.64 110.693 211.109C123.009 206.708 126.929 197.769 128.139 191.775C127.947 187.595 128.206 182.576 129.558 177.854C132.423 167.822 133.731 165.754 139.454 162.291L145.177 158.828C145.177 158.828 132.67 149.333 125.076 163.477C117.49 177.619 123.669 185.336 115.224 197.399C106.773 209.455 87.523 210.033 79.6212 203.174Z" fill="#5F2AFF"/>
</g>
<path d="M129.564 187.25C137.423 198.923 149.751 195.96 149.751 195.96C148.312 192.275 148.134 188.688 149.3 185.213C137.583 180.57 136.898 164.137 136.898 164.137C136.898 164.137 129.274 175.613 129.564 187.25Z" fill="#FFB297"/>
<g opacity="0.3">
<path d="M131.755 171.174C131.755 171.174 129.039 178.286 128.632 185.768C128.934 186.287 129.243 186.78 129.564 187.25C137.422 198.923 149.75 195.96 149.75 195.96C148.312 192.275 148.133 188.688 149.3 185.212C150.664 181.126 153.893 177.199 159.134 173.434C156.325 162.661 152.423 153.852 146.719 147.623C149.318 154.389 153.516 169.094 145.176 177.743C134.076 189.256 131.755 171.174 131.755 171.174Z" fill="#5F2AFF"/>
</g>
<path d="M106.954 211.11C98.0242 214.449 86.7012 208.906 82.674 196.547C82.674 196.547 81.2171 192.343 82.0647 183.435C82.6851 176.99 76.9073 174.7 74.7192 180.108C74.7192 180.114 74.7136 180.114 74.7136 180.12C74.6582 180.416 74.6139 180.713 74.5807 181.015C71.8053 205.764 89.8367 217.925 106.954 211.11Z" fill="#FFB297"/>
<path d="M100.108 214.535C103.756 214.535 107.511 213.885 111.211 212.563C125.402 207.492 129.032 196.551 129.92 190.286C138.278 200.157 149.983 197.49 150.113 197.459C150.546 197.355 150.913 197.068 151.119 196.674C151.326 196.279 151.351 195.814 151.19 195.399C148.251 187.848 151.144 181.074 160.034 174.689C160.552 174.317 160.788 173.663 160.627 173.046C154.646 150.104 144.119 138.36 127.497 136.09C120.461 135.127 113.576 136.555 108.107 140.106C89.7869 152.005 96.8563 179.36 99.1791 188.349C99.3152 188.877 99.4854 189.37 99.6497 189.847C100.774 193.11 100.203 196.473 98.2747 198.067C96.9258 199.183 95.0896 199.183 93.0959 198.071C91.257 196.607 89.2569 194.096 89.7615 187.785C90.404 180.256 88.2634 174.635 84.0352 172.756C81.2655 171.526 78.1128 172.295 75.8094 174.763C74.3217 176.356 73.3791 178.452 73.0829 180.822C71.6161 192.57 75.0633 202.452 82.7901 208.648C87.6326 212.531 93.7033 214.535 100.108 214.535ZM128.63 184.22C128.475 184.22 128.319 184.243 128.165 184.292C127.476 184.51 127.03 185.177 127.092 185.897C127.15 186.597 128.302 203.178 110.172 209.656C100.993 212.938 91.4787 211.66 84.7209 206.24C77.8622 200.74 74.817 191.848 76.1455 181.204C76.3606 179.483 77.0245 177.984 78.0653 176.869C79.4854 175.348 81.2041 174.875 82.782 175.578C85.075 176.596 87.3044 180.271 86.6849 187.531C86.1995 193.603 87.6609 197.745 91.2834 200.572C91.3407 200.617 91.4016 200.658 91.4647 200.694C94.6439 202.519 97.8424 202.429 100.241 200.446C103.186 198.012 104.126 193.365 102.582 188.883C102.416 188.402 102.273 187.986 102.167 187.577C99.9817 179.12 93.3308 153.384 109.788 142.694C114.636 139.546 120.778 138.287 127.079 139.147C142.273 141.223 151.644 151.621 157.372 172.815C148.646 179.386 145.399 186.738 147.698 194.705C144.086 195.02 135.544 194.61 129.965 184.989C129.683 184.504 129.169 184.22 128.63 184.22Z" fill="#280059"/>
<g opacity="0.45">
<path d="M144.264 38.0052C137.846 48.1422 136.308 58.6799 140.828 61.5422C145.349 64.4044 148.118 56.0226 154.537 45.8857C160.955 35.7489 168.592 27.6955 164.071 24.8334C159.55 21.9711 150.683 27.8683 144.264 38.0052Z" fill="white"/>
</g>
<path d="M140.468 160.781C134.787 162.366 131.229 167.799 129.216 173.007C127.765 177.068 127.148 181.416 127.086 185.713C127.064 187.667 129.905 187.874 130.159 185.931C130.344 184.248 130.431 182.377 130.751 180.702C131.591 174.702 133.966 168.629 138.529 164.505C139.324 163.747 140.299 163.022 141.194 162.45C142.058 161.894 141.461 160.527 140.468 160.781Z" fill="#280059"/>
<path d="M79.7735 184.111C79.4862 184.111 79.2532 183.789 79.2532 183.391C79.2532 182.994 79.4862 182.672 79.7735 182.672C80.0609 182.672 80.2939 182.994 80.2939 183.391C80.2939 183.789 80.0609 184.111 79.7735 184.111Z" fill="#DDD2FF"/>
<path d="M76.9556 186.605C76.9556 187.138 77.1817 187.57 77.4607 187.57C77.7397 187.57 77.9658 187.138 77.9658 186.605C77.9658 186.073 77.7397 185.641 77.4607 185.641C77.1818 185.641 76.9556 186.073 76.9556 186.605Z" fill="#DDD2FF"/>
<path d="M78.5507 188.963C78.5507 189.394 78.7906 189.743 79.0864 189.743C79.3821 189.743 79.622 189.394 79.622 188.963C79.622 188.531 79.3821 188.182 79.0864 188.182C78.7906 188.182 78.5507 188.531 78.5507 188.963Z" fill="#DDD2FF"/>
<g opacity="0.2">
<path d="M128.593 188.515C128.716 186.904 128.636 185.873 128.63 185.768C128.574 186.682 128.562 187.601 128.593 188.515Z" fill="#280059"/>
</g>
<g opacity="0.45">
<path d="M102.986 161.196C101.735 170.109 103.944 177.787 107.919 178.344C111.893 178.902 108.4 171.119 109.65 162.206C110.901 153.293 116.422 146.625 112.448 146.068C108.473 145.51 104.237 152.283 102.986 161.196Z" fill="white"/>
</g>
<g opacity="0.3">
<path d="M246.727 189.269C247.622 189.478 248.486 189.688 249.313 189.904C247.943 189.503 246.918 189.305 246.727 189.269Z" fill="#5F2AFF"/>
</g>
<g opacity="0.45">
<path d="M221.506 151.54C221.506 154.752 226.632 152.826 232.955 152.826C239.278 152.826 244.403 154.752 244.403 151.54C244.403 148.328 239.278 145.724 232.955 145.724C226.632 145.724 221.506 148.328 221.506 151.54Z" fill="white"/>
</g>
<g opacity="0.45">
<path d="M178.364 204.291C189.794 209.374 200.563 210.114 202.418 205.943C204.273 201.772 193.152 200.11 181.722 195.027C170.292 189.943 162.881 183.364 161.026 187.535C159.171 191.705 166.933 199.207 178.364 204.291Z" fill="white"/>
</g>
<g opacity="0.45">
<path d="M73.6524 116.582C70.0758 126.165 70.9204 136.275 74.2783 137.528C77.6361 138.781 77.6675 131.062 81.244 121.48C84.8205 111.898 90.5879 104.08 87.2301 102.827C83.8723 101.574 77.229 107 73.6524 116.582Z" fill="white"/>
</g>
<path d="M182.81 76.1913C188.413 77.5363 191.333 85.2106 189.331 93.3322C187.328 101.454 181.162 106.947 175.558 105.603C169.954 104.257 167.034 96.5834 169.037 88.4615C171.039 80.3401 177.206 74.8464 182.81 76.1913Z" fill="#280059"/>
<path d="M182.036 79.6163C183.508 80.9404 183.313 83.8753 181.6 86.1714C179.888 88.4676 177.306 89.2555 175.835 87.9313C174.363 86.6073 174.558 83.6724 176.271 81.3763C177.983 79.0801 180.565 78.292 182.036 79.6163Z" fill="white"/>
<path d="M181.919 98.5436C182.524 99.4338 182.106 100.943 180.986 101.915C179.867 102.887 178.469 102.953 177.865 102.062C177.261 101.172 177.678 99.6629 178.798 98.6913C179.917 97.7196 181.315 97.6536 181.919 98.5436Z" fill="#B199C5"/>
<path d="M142.619 71.3189C146.947 71.4613 149.758 77.6761 148.897 85.1999C148.036 92.7236 143.829 98.7073 139.501 98.5649C135.174 98.4225 132.363 92.2078 133.224 84.6839C134.085 77.1602 138.291 71.1764 142.619 71.3189Z" fill="#280059"/>
<path d="M142.308 74.4785C143.522 75.3708 143.609 77.9914 142.502 80.3316C141.395 82.672 139.513 83.8456 138.299 82.9533C137.085 82.0611 136.998 79.4405 138.105 77.1003C139.212 74.76 141.094 73.5862 142.308 74.4785Z" fill="white"/>
<path d="M143.728 91.167C144.255 91.8386 144.06 93.2453 143.295 94.309C142.529 95.3729 141.482 95.6908 140.955 95.0193C140.429 94.3478 140.624 92.941 141.389 91.8774C142.155 90.8137 143.202 90.4957 143.728 91.167Z" fill="#B199C5"/>
<path d="M272.514 52.6627C278.895 56.1455 280.205 70.4929 271.377 78.1203C262.924 85.4243 258.978 73.3736 261.067 63.2587C262.668 55.5074 266.874 49.5844 272.514 52.6627Z" fill="#6247B3"/>
<path d="M246.706 27.6179C251.226 28.0067 255.494 36.8833 252.444 42.4478C249.094 48.5609 244.169 42.8468 242.825 36.5437C241.795 31.7134 242.712 27.2741 246.706 27.6179Z" fill="#8165D8"/>
<path d="M247.196 59.8543C252.042 63.3063 247.612 74.1538 240.437 74.8118C236.175 75.2027 233.717 69.1776 237.526 63.4943C240.445 59.1392 244.847 58.1805 247.196 59.8543Z" fill="#8165D8"/>
<path d="M256.428 86.6881C258.237 91.3183 255.295 99.6575 246.696 101.489C239.101 103.106 240.979 94.2448 245.823 88.9464C249.535 84.8862 254.801 82.5284 256.428 86.6881Z" fill="#6247B3"/>
<path d="M235.264 100.13C234.989 103.619 230.566 108 224.556 106.521C219.247 105.215 223.156 100.177 227.852 98.3065C231.45 96.8733 235.51 96.9955 235.264 100.13Z" fill="#8165D8"/>
<path d="M224.469 106.497C224.499 106.503 224.528 106.514 224.557 106.52C230.566 108 234.989 103.618 235.264 100.131C235.352 98.9963 234.878 98.2533 234.059 97.8379C230.776 101.12 227.553 103.993 224.469 106.497Z" fill="#6247B3"/>
</svg>
