<svg width="323" height="226" viewBox="0 0 323 226" fill="none" xmlns="http://www.w3.org/2000/svg">
<path d="M272.546 175.163C267.564 179.249 256.86 179.768 247.624 176.619C238.284 173.434 230.45 166.501 231.537 155.711C233.697 134.246 234.432 124.054 211.751 119.504C189.065 114.961 199.905 100.04 199.905 100.04C203.911 96.5397 208.955 94.3112 214.357 93.3791C238.074 89.2738 268.743 110.183 249.495 158.828C249.495 158.828 248.39 164.946 258.495 165.254C268.595 165.563 266.879 153.13 266.91 146.519C266.94 139.907 272.33 139.327 275.052 143.827C277.781 148.327 282.553 166.946 272.546 175.163Z" fill="#F76D54"/>
<g opacity="0.3">
<path d="M247.624 176.619C238.284 173.434 230.45 166.501 231.537 155.711C233.697 134.246 234.432 124.054 211.751 119.504C189.065 114.961 199.905 100.04 199.905 100.04C203.911 96.5398 208.955 94.3112 214.357 93.3792C212.807 95.6571 207.56 105.164 221.518 112.917C237.494 121.788 241.963 128.949 238.778 141.926C235.599 154.908 233.944 161.643 241.229 164.705C245.155 166.36 247.538 172.045 247.624 176.619Z" fill="#CD1111"/>
</g>
<path d="M259.817 180.168C253.855 180.168 247.305 178.712 241.927 175.83C233.381 171.251 229.146 164.05 230.001 155.555C232.089 134.813 233.042 125.347 211.445 121.019C203.312 119.389 198.278 116.232 196.482 111.635C194.092 105.52 198.466 99.3893 198.653 99.1314C198.722 99.0375 198.8 98.9517 198.888 98.8753C210.099 89.0971 228.481 88.739 241.646 98.043C249.139 103.337 254.146 111.204 256.128 120.792C258.411 131.843 256.686 144.766 251.002 159.205C250.983 159.529 250.996 160.538 251.788 161.484C252.925 162.842 255.259 163.612 258.538 163.711C260.507 163.778 261.973 163.29 263.028 162.241C265.669 159.614 265.519 153.6 265.409 149.208C265.385 148.249 265.363 147.343 265.367 146.513C265.384 142.854 266.914 140.249 269.46 139.544C271.959 138.851 274.673 140.22 276.373 143.027C279.394 148.017 284.278 167.526 273.522 176.353C270.414 178.904 265.371 180.168 259.817 180.168ZM201.063 101.075C200.517 101.899 197.742 106.407 199.363 110.527C200.758 114.073 205.027 116.585 212.052 117.992C223.605 120.308 229.686 124.101 232.386 130.677C234.973 136.976 234.134 145.311 233.072 155.864C232.147 165.054 238.17 170.315 243.385 173.11C252.638 178.068 266.069 178.477 271.563 173.968C280.729 166.445 276.329 148.914 273.732 144.626C272.636 142.814 271.21 142.263 270.283 142.519C269.164 142.829 268.463 144.365 268.453 146.527C268.45 147.321 268.472 148.2 268.495 149.132C268.625 154.359 268.788 160.866 265.204 164.429C263.539 166.086 261.262 166.881 258.445 166.797C254.143 166.666 251.084 165.518 249.354 163.384C247.564 161.176 247.926 158.814 247.973 158.552C247.992 158.451 248.02 158.353 248.057 158.258C262.545 121.648 247.155 105.715 239.865 100.564C228.084 92.2378 211.084 92.4754 201.063 101.075Z" fill="#4C1200"/>
<path d="M105.804 153.988C93.5557 148.482 74.2705 166.353 70.8443 179.274C67.4182 192.195 47.0896 197.701 47.0896 197.701C37.5249 202.979 29.1219 202.51 22.6952 200.312C13.767 197.258 6.93449 190.076 3.67795 181.22C1.93366 176.476 1.34827 171.976 1.6234 168.113C1.87039 164.507 2.87037 161.458 4.37668 159.285C7.24106 155.143 13.7971 158.359 12.3093 163.174C8.06822 176.891 18.2913 192.608 31.9218 185.793C37.7061 178.471 41.5706 168.106 42.1941 152.562C43.4904 138.901 50.2008 127.702 58.6026 121.165C58.6026 121.165 58.6026 121.165 58.6088 121.165C66.9859 114.646 77.0483 112.775 85.1044 117.739L102.618 118.967C104.396 120.381 119.212 138.685 123.187 144.315C127.169 149.951 118.045 159.501 105.804 153.988Z" fill="#F76D54"/>
<g opacity="0.3">
<path d="M105.804 153.988C93.5557 148.482 74.2705 166.353 70.8443 179.274C67.4182 192.195 47.0896 197.701 47.0896 197.701C37.5249 202.979 29.1219 202.51 22.6952 200.312C13.767 197.258 6.93449 190.076 3.67795 181.22C1.93366 176.476 1.34827 171.976 1.6234 168.113C2.32095 167.933 2.73459 167.853 2.73459 167.853C2.73459 167.853 6.12987 195.868 29.9155 195.775C53.7011 195.682 60.8621 168.316 64.0784 150.778C66.0549 139.997 72.6427 134.523 77.4279 131.906C80.5932 130.174 80.7769 125.693 77.7709 123.698C70.357 118.777 58.9223 121.097 58.6089 121.165C66.986 114.646 77.0485 112.775 85.1045 117.739L102.618 118.967C104.396 120.381 119.212 138.685 123.187 144.315C127.169 149.951 118.045 159.501 105.804 153.988Z" fill="#CD1111"/>
</g>
<path d="M31.934 203.422C29.0067 203.422 26.0852 202.978 23.1779 202.088C13.5029 199.127 5.60394 191.337 2.04842 181.248C-1.02202 172.537 -0.617162 163.785 3.10465 158.408C4.8106 155.944 7.90679 155.15 10.635 156.476C13.3768 157.81 14.671 160.75 13.7823 163.628C11.5719 170.783 13.5901 179.047 18.5816 183.281C22.069 186.238 26.4402 186.689 30.9251 184.561C36.9174 176.825 40.0994 166.333 40.652 152.499C40.6532 152.471 40.6552 152.443 40.6578 152.415C42.1574 136.611 51.1002 122.427 63.4404 116.282C71.3701 112.331 79.3502 112.382 85.9104 116.424C86.6363 116.871 86.8621 117.822 86.4152 118.548C85.9675 119.273 85.0168 119.5 84.2917 119.052C78.6724 115.591 71.7563 115.588 64.8166 119.044C53.4188 124.721 45.147 137.914 43.7346 152.665C43.1435 167.316 39.6751 178.466 33.1323 186.75C32.992 186.927 32.8141 187.072 32.6116 187.173C26.9291 190.014 21.0882 189.454 16.585 185.635C10.5982 180.557 8.23284 171.133 10.833 162.717C11.3708 160.976 10.3352 159.763 9.2854 159.252C8.24649 158.749 6.66872 158.683 5.64263 160.165C3.27319 163.588 1.6724 170.895 4.95968 180.222C8.19094 189.391 15.3394 196.461 24.0814 199.137C31.4278 201.384 38.918 200.447 46.3435 196.35C46.451 196.291 46.5661 196.244 46.6849 196.212C46.8797 196.159 66.1946 190.778 69.3522 178.879C71.7904 169.692 81.7337 158.43 91.5177 153.773C97.1016 151.115 102.261 150.704 106.436 152.582C113.081 155.573 118.656 153.757 121.233 150.63C122.759 148.778 123.02 146.75 121.929 145.207C117.675 139.186 103.106 121.333 101.659 120.179C100.994 119.648 100.882 118.678 101.412 118.011C101.942 117.345 102.91 117.232 103.578 117.761C105.606 119.37 120.476 137.8 124.45 143.426C126.334 146.093 126.006 149.691 123.615 152.593C120.292 156.625 113.299 159.056 105.169 155.397C100.97 153.509 96.1495 154.987 92.844 156.56C83.7715 160.879 74.5715 171.246 72.3356 179.671C68.8586 192.773 49.8891 198.512 47.6751 199.14C42.4524 201.992 37.1855 203.421 31.934 203.422Z" fill="#4C1200"/>
<path d="M315.92 96.4903C315.907 96.4657 315.889 96.4471 315.87 96.4224C314.994 95.2434 314.018 94.1754 312.95 93.2864C289.609 73.5566 265.472 90.9899 281.269 131.4C295.573 171.594 254.453 176.761 209.641 130.758C213.579 123.548 214.012 116.442 211.802 110.609C211.795 110.602 211.789 110.59 211.789 110.578C210.345 106.794 207.777 103.559 204.332 101.17C204.289 101.133 204.258 101.108 204.246 101.102C201.326 99.1016 197.788 97.7064 193.751 97.1137C205.295 38.0973 164.885 -14.4435 85.5522 6.01482C81.1506 6.57029 77.0146 7.61988 73.1686 9.08905C33.0609 24.4296 24.6345 85.6005 75.1934 111.325C88.8239 119.356 97.9171 127.505 104.029 135.746C107.665 140.635 110.245 145.561 112.109 150.5C77.4589 126.196 68.8904 154.42 68.767 163.97C68.6435 173.52 68.0324 186.743 54.5623 186.132C41.0922 185.521 41.9504 172.539 41.9504 172.539C59.8529 183.231 70.7425 152.71 44.6605 152.426C42.0244 152.402 39.3884 152.877 37.0056 154.013C26.1407 159.198 24.4183 174.113 31.925 185.793C33.2707 187.879 34.9128 189.867 36.8451 191.682C41.1664 195.713 46.9507 198.868 54.2229 200.306C54.4759 200.362 54.7291 200.411 54.9883 200.454C51.5004 212.949 73.2981 218.455 73.2981 218.455C131.197 236.401 179.312 209.634 172.749 185.947C171.614 181.836 168.829 177.811 164.15 174.131L192.596 159.316C192.596 159.316 208.011 172.304 221.518 179.261C222.062 179.539 222.599 179.811 223.136 180.07C237.007 186.774 269.052 195.226 288.251 181.539C302.178 171.613 301.956 157.396 298.53 144.234C297.585 140.598 296.4 137.042 295.196 133.678C294.758 132.437 294.313 131.227 293.881 130.048C288.004 114.072 291.394 106.509 291.394 106.509C296.32 96.9286 309.987 99.8053 311.574 111.152C311.858 115.825 313.556 117.807 316.624 117.165C322.784 115.288 321.284 103.756 315.92 96.4903ZM114.93 194.584C108.202 197.368 100.053 197.923 90.9844 197.047L85.9902 191.732C86.1445 191.787 88.3792 192.528 89.1633 187.614C89.1695 187.608 89.1695 187.602 89.1695 187.595C89.1818 187.497 89.2003 187.398 89.2127 187.293C89.3361 186.435 89.62 185.509 90.0768 184.601C90.083 184.589 90.083 184.583 90.0892 184.57C90.9473 182.86 92.3733 181.224 94.324 180.237C94.3302 180.231 94.3363 180.224 94.3425 180.224C96.213 179.28 98.565 178.928 101.343 179.687C101.368 179.693 101.386 179.693 101.411 179.7C102.794 180.089 104.288 180.749 105.88 181.749C107.078 182.502 108.331 183.441 109.64 184.601C109.64 184.601 110.195 185.651 110.942 186.972C111.973 188.799 113.387 191.145 114.233 191.984C115.696 193.435 114.93 194.584 114.93 194.584Z" fill="#F76D54"/>
<g opacity="0.3">
<path d="M288.253 181.539C269.054 195.226 237.008 186.774 223.137 180.07C222.6 179.811 222.063 179.539 221.52 179.261L223.396 155.711C223.396 155.711 235.169 180.99 265.294 180.256C295.414 179.521 300.006 155.136 298.167 146.037C298.012 145.284 298.154 144.685 298.531 144.234C301.957 157.396 302.179 171.613 288.253 181.539Z" fill="#CD1111"/>
</g>
<path d="M42.5117 42.4243C46.1478 46.9678 54.6102 41.2833 59.0725 33.7625C62.9548 27.2198 64.0036 20.3035 58.8813 18.1396C52.2426 25.3464 46.6815 33.5555 42.5117 42.4243Z" fill="#D84613"/>
<path d="M62.2402 25.541C59.1803 28.9637 57.8229 33.1937 57.2262 36.4877C52.5691 42.5431 45.7004 46.3871 42.5235 42.4378C42.5177 42.4319 42.5177 42.4319 42.5117 42.4261C42.5235 42.3969 42.5409 42.3676 42.5527 42.3384C46.7184 33.5038 52.2648 25.3245 58.8819 18.1399C61.8073 19.3744 62.7199 22.1594 62.2402 25.541Z" fill="#B53008"/>
<g opacity="0.3">
<path d="M73.2979 218.455C73.2979 218.455 51.5001 212.949 54.9881 200.454C54.7289 200.411 54.4757 200.362 54.2227 200.306C56.624 196.374 62.1491 192.701 72.8536 189.904C67.4828 191.503 56.7598 196.331 69.5015 207.436C85.731 221.585 167.514 215.258 172.749 185.947C179.311 209.634 131.197 236.401 73.2979 218.455Z" fill="#CD1111"/>
</g>
<g opacity="0.3">
<path d="M61.64 25.0647C63.9124 21.8184 65.6979 18.9779 68.1326 16.949C70.5673 14.9201 72.6562 13.2264 75.8425 11.2681C79.1632 9.22703 84.7697 6.80444 84.7697 6.80444C84.0941 6.83858 78.5854 6.91398 73.2081 9.09524L73.1672 9.08943C57.7975 14.9694 47.079 27.5717 42.5506 42.3389C42.5389 42.374 42.5272 42.4032 42.5214 42.4383C35.2842 66.1863 44.0485 95.4805 75.1916 111.324C88.8237 119.357 97.9157 127.507 104.024 135.745C113.806 146.422 116.152 164.138 116.152 164.138C116.152 164.138 114.374 171.99 105.194 167.034C96.0083 162.067 88.4785 165.683 85.1143 176.337C81.7385 186.991 65.3332 190.109 65.3332 190.109C40.9651 201.805 25.414 172.54 32.7624 157.972L28.8191 165.098L28.0234 174.652C28.0234 174.652 30.4573 181.591 31.92 185.791C32.4699 187.359 32.8795 188.553 32.9789 188.857C33.1018 189.237 34.7341 190.355 36.8403 191.683C41.0236 194.298 47.0908 197.703 47.0908 197.703L54.0707 199.54C54.0707 199.54 58.4821 194.579 64.912 191.806C71.3478 189.027 81.3173 188.149 84.8043 190.419C87.1913 191.97 88.3791 189.922 89.163 187.617C89.1688 187.605 89.1688 187.599 89.1688 187.593C89.5256 186.546 89.8006 185.44 90.0756 184.604C90.0816 184.592 90.0816 184.58 90.0874 184.568C90.5905 183.024 91.9421 181.239 94.3232 180.239L94.3235 180.239C94.3293 180.233 94.3351 180.227 94.3408 180.227C96.096 179.49 98.4013 179.18 101.338 179.689C101.367 179.695 101.385 179.695 101.408 179.701C103.041 179.999 104.515 180.736 105.878 181.748C107.774 183.141 109.436 185.054 110.939 186.973C112.969 189.571 114.719 192.192 116.351 193.608C120.066 196.826 138.742 187.57 138.742 187.57C138.742 187.57 122.945 188.43 127.356 175.16C131.762 161.897 162.162 171.96 162.162 171.96C162.162 171.96 163.028 173.434 169.042 157.017C175.046 140.652 190.26 138.541 198.833 137.351L198.904 137.342C207.458 136.154 209.64 130.76 209.64 130.76C214.918 122.721 214.145 115.764 211.799 110.61C211.793 110.604 211.787 110.593 211.787 110.575C209.119 104.754 204.445 101.249 204.246 101.103C224.969 121.896 171.271 146.51 141.86 141.315C112.454 136.119 123.951 122.013 123.951 122.013C123.951 122.013 112.373 118.403 97.6933 106.497C94.6099 103.993 91.3861 101.12 88.1039 97.8382C80.6678 90.3961 72.9331 80.842 65.8246 68.6726C59.7105 58.194 57.1422 49.3069 56.7677 41.8706V41.8648C56.7619 41.7537 56.7677 41.6541 56.7619 41.5488C56.7561 40.8176 56.7853 38.9044 57.2241 36.4881C57.8208 33.194 58.7996 29.1225 61.64 25.0647Z" fill="#CD1111"/>
</g>
<path d="M170.328 116.344C174.878 106.901 187.115 111.906 181.067 122.013L170.328 116.344Z" fill="#FF67A0"/>
<path d="M170.019 114.11C174.096 119.143 181.336 122.621 187.681 120.095C189.715 119.29 191.518 117.897 193.034 116.207C193.372 115.815 193.969 115.777 194.354 116.123C194.719 116.451 194.761 117.006 194.462 117.386C193.685 118.371 192.814 119.299 191.83 120.118C184.487 126.37 173.4 122.765 168.07 115.626C167.118 114.333 168.997 112.863 170.019 114.11Z" fill="#4C1200"/>
<path d="M181.066 123.248C180.85 123.248 180.632 123.191 180.433 123.073C179.848 122.723 179.658 121.965 180.008 121.379C181.612 118.698 181.922 116.259 180.879 114.513C180.107 113.219 178.671 112.489 177.031 112.563C174.751 112.664 172.714 114.238 171.441 116.881C171.145 117.495 170.407 117.754 169.793 117.457C169.179 117.161 168.92 116.423 169.216 115.809C170.872 112.373 173.752 110.237 176.921 110.096C179.446 109.978 181.772 111.191 183 113.247C183.886 114.733 184.951 117.928 182.126 122.647C181.895 123.034 181.486 123.248 181.066 123.248Z" fill="#4C1200"/>
<path d="M173.614 119.112C173.971 118.309 176.511 114.417 177.442 115.665C177.602 115.895 177.585 116.194 177.421 116.403C176.827 117.146 176.435 118.078 176.165 118.999C176.079 119.299 175.991 119.641 175.954 119.9C175.856 120.586 175.22 121.062 174.534 120.964C173.676 120.858 173.187 119.857 173.614 119.112Z" fill="#4C1200"/>
<path d="M316.622 117.165C313.554 117.807 311.857 115.825 311.573 111.152C309.986 99.8054 296.319 96.9286 291.392 106.509C291.392 106.509 288.003 114.072 293.88 130.048C294.312 131.227 294.757 132.437 295.195 133.678C295.195 133.678 281.33 119.779 286.472 102.562C291.614 85.3389 308.313 86.6996 315.869 96.4224C315.888 96.4471 315.906 96.4657 315.919 96.4903C321.283 103.756 322.783 115.288 316.622 117.165Z" fill="#FFB297"/>
<path d="M317.085 113.674C317.525 113.674 317.881 113.249 317.881 112.725C317.881 112.201 317.525 111.776 317.085 111.776C316.645 111.776 316.289 112.201 316.289 112.725C316.289 113.249 316.645 113.674 317.085 113.674Z" fill="#EE6597"/>
<path d="M316.285 109.232C316.652 109.232 316.95 108.877 316.95 108.44C316.95 108.002 316.652 107.648 316.285 107.648C315.919 107.648 315.621 108.002 315.621 108.44C315.621 108.877 315.919 109.232 316.285 109.232Z" fill="#EE6597"/>
<path d="M312.864 105.868C312.864 106.306 312.566 106.66 312.199 106.66C311.833 106.66 311.535 106.306 311.535 105.868C311.535 105.431 311.833 105.076 312.199 105.076C312.566 105.076 312.864 105.431 312.864 105.868Z" fill="#EE6597"/>
<path d="M310.985 99.8992C310.985 100.337 310.687 100.691 310.321 100.691C309.954 100.691 309.656 100.337 309.656 99.8992C309.656 99.4618 309.954 99.1072 310.321 99.1072C310.687 99.1072 310.985 99.4618 310.985 99.8992Z" fill="#EE6597"/>
<path d="M303.911 96.8687C303.911 97.3062 303.613 97.6607 303.246 97.6607C302.879 97.6607 302.582 97.3061 302.582 96.8687C302.582 96.4313 302.879 96.0767 303.246 96.0767C303.613 96.0765 303.911 96.4312 303.911 96.8687Z" fill="#EE6597"/>
<path d="M314.727 102.677C315.094 102.677 315.391 102.322 315.391 101.885C315.391 101.448 315.094 101.093 314.727 101.093C314.36 101.093 314.062 101.448 314.062 101.885C314.062 102.322 314.36 102.677 314.727 102.677Z" fill="#EE6597"/>
<path d="M306.414 95.8355C306.781 95.8355 307.079 95.4809 307.079 95.0435C307.079 94.6061 306.781 94.2515 306.414 94.2515C306.047 94.2515 305.75 94.6061 305.75 95.0435C305.75 95.4809 306.047 95.8355 306.414 95.8355Z" fill="#EE6597"/>
<path d="M314.473 112.725C314.473 113.163 314.176 113.517 313.809 113.517C313.442 113.517 313.145 113.163 313.145 112.725C313.145 112.288 313.442 111.933 313.809 111.933C314.176 111.933 314.473 112.288 314.473 112.725Z" fill="#EE6597"/>
<path d="M111.049 225.845C98.5506 225.846 85.552 223.865 72.8798 219.941C71.8919 219.687 59.0294 216.248 54.5863 208.588C53.3165 206.397 52.8409 204.076 53.1656 201.668C35.3821 197.836 27.4339 184.679 26.0416 174.342C24.7294 164.6 28.6768 156.277 36.3427 152.62C38.8211 151.439 41.6273 150.866 44.6763 150.883C53.1296 150.975 59.1064 154.255 61.0772 159.882C62.7532 164.667 61.0836 170.329 57.0166 173.648C53.3568 176.636 48.5072 177.135 43.6594 175.125C43.9333 176.888 44.6244 179.272 46.3425 181.181C48.2294 183.28 51.0194 184.427 54.6338 184.591C58.1195 184.745 60.7616 183.933 62.7074 182.098C67.0433 178.007 67.1572 169.208 67.2253 163.95C67.3105 157.363 70.6797 145.904 79.6119 141.332C87.1843 137.456 96.9468 139.159 108.679 146.388C102.521 133.547 91.5139 122.736 74.4525 112.678C43.1983 96.7575 35.8714 69.2214 39.4359 48.7532C43.5909 24.8937 61.5726 7.53158 85.2626 4.49592C121.945 -4.94053 153.521 0.585149 174.183 20.0589C183.691 29.0202 190.631 40.8552 194.251 54.285C197.711 67.1165 198.157 81.4598 195.558 95.8616C203.16 97.3997 209.24 101.8 212.386 108.103C215.694 114.729 215.37 122.828 211.531 130.479C239.326 158.668 265.077 166.425 276.264 159.456C283.211 155.13 284.505 145.092 279.817 131.918C270.268 107.491 275.466 92.6166 283.52 86.8559C291.61 81.0685 303.27 83.0813 313.948 92.1072C315.057 93.0304 316.124 94.1744 317.111 95.5011C317.12 95.5115 317.157 95.5573 317.203 95.6285C321.316 101.233 323.203 109.109 321.592 113.976C320.8 116.369 319.238 117.982 317.075 118.641C317.031 118.655 316.986 118.666 316.941 118.675C315.247 119.03 313.8 118.763 312.643 117.879C311.097 116.7 310.245 114.55 310.039 111.309C309.218 105.608 305.175 102.948 301.953 102.401C298.981 101.9 295.021 102.886 292.794 107.164C292.612 107.631 289.96 114.912 295.331 129.515L295.392 129.679C295.807 130.813 296.233 131.974 296.653 133.164C299.424 140.919 302.23 150.025 302.017 158.718C301.769 168.785 297.44 176.886 289.148 182.796C267.962 197.899 233.83 186.952 222.466 181.46C210.145 175.502 195.922 164.06 192.401 161.159L166.909 174.436C175.072 181.794 177.094 190.952 172.417 199.856C167.089 210.001 153.667 218.6 136.512 222.859C128.475 224.854 119.887 225.845 111.049 225.845ZM44.4599 153.969C41.9566 153.969 39.673 154.452 37.6713 155.406C31.2581 158.465 27.9737 165.563 29.1007 173.93C30.3942 183.535 38.0221 195.847 55.2621 198.936C55.6901 199.012 56.0659 199.266 56.2972 199.634C56.5282 200.002 56.5934 200.451 56.4766 200.87C55.8652 203.06 56.1196 205.076 57.2544 207.035C61.1205 213.708 73.5533 216.928 73.6784 216.959C73.7045 216.966 73.7309 216.974 73.7566 216.981C94.8702 223.527 116.893 224.55 135.769 219.863C152.081 215.813 164.76 207.798 169.685 198.421C173.992 190.22 171.688 182.024 163.198 175.345C162.786 175.021 162.567 174.51 162.615 173.988C162.664 173.466 162.974 173.005 163.439 172.763L191.885 157.947C192.441 157.659 193.115 157.733 193.593 158.136C193.758 158.275 210.282 172.14 223.809 178.681C238.969 186.007 269.627 192.922 287.357 180.283C303.366 168.872 299.888 151.389 293.745 134.197C293.327 133.014 292.905 131.865 292.494 130.743L292.434 130.58C286.41 114.203 289.838 106.211 289.987 105.879C289.998 105.853 290.01 105.829 290.023 105.804C292.519 100.95 297.288 98.4785 302.469 99.3583C308.079 100.31 312.254 104.855 313.104 110.938C313.11 110.978 313.114 111.018 313.116 111.058C313.252 113.289 313.749 114.841 314.516 115.426C314.666 115.541 315.117 115.886 316.241 115.668C317.401 115.292 318.194 114.421 318.662 113.007C319.969 109.055 318.221 102.203 314.68 97.4075C314.667 97.39 314.655 97.3727 314.643 97.3548L314.634 97.3437C313.793 96.2125 312.895 95.2469 311.965 94.4726C302.409 86.3954 292.202 84.4406 285.316 89.3668C278.206 94.4518 273.787 108.017 282.708 130.838C287.943 145.545 286.183 156.915 277.896 162.076C265.935 169.525 239.129 163.24 208.537 131.835C208.065 131.35 207.963 130.613 208.288 130.019C212.191 122.868 212.666 115.574 209.624 109.481C206.721 103.664 200.854 99.7123 193.529 98.6407C193.112 98.5798 192.737 98.3497 192.493 98.0055C192.249 97.6613 192.157 97.2318 192.238 96.8174C197.978 67.4743 190.437 39.6191 172.067 22.3055C152.186 3.56834 121.6 -1.68673 85.9392 7.50926C85.876 7.52552 85.8119 7.53799 85.7473 7.54606C63.3844 10.3736 46.3999 26.7564 42.4769 49.2831C39.0999 68.6739 46.1054 94.7942 75.8949 109.949C75.9232 109.963 75.9511 109.979 75.9783 109.995C95.7285 121.63 107.669 134.328 113.555 149.956C113.794 150.59 113.592 151.305 113.057 151.72C112.522 152.135 111.779 152.153 111.225 151.764C98.5665 142.885 88.4032 140.299 81.0183 144.08C73.3555 148.002 70.3845 158.374 70.3114 163.99C70.2372 169.737 70.1129 179.355 64.8253 184.343C62.2754 186.748 58.7993 187.866 54.4937 187.674C50.0086 187.47 46.4861 185.972 44.0244 183.22C40.0423 178.768 40.3947 172.694 40.4118 172.437C40.4472 171.901 40.759 171.422 41.2344 171.172C41.7099 170.923 42.2811 170.938 42.743 171.214C47.284 173.926 51.7753 173.943 55.0645 171.257C58.1442 168.743 59.4187 164.485 58.1639 160.902C56.6479 156.573 51.7205 154.047 44.6448 153.97C44.5833 153.969 44.5213 153.969 44.4599 153.969Z" fill="#4C1200"/>
<path d="M40.4102 172.623C40.5191 168.536 41.5002 163.841 45.2658 161.544C46.5591 160.79 48.0497 160.543 49.4255 160.594C49.9367 160.613 50.3359 161.042 50.3169 161.553C50.2993 162.046 49.8985 162.433 49.4154 162.446C48.2965 162.502 47.2437 162.789 46.4072 163.379C43.71 165.369 43.3281 169.346 43.4942 172.478C43.6209 174.596 40.484 174.749 40.4102 172.623Z" fill="#4C1200"/>
<path d="M54.9875 202C54.7374 202 54.4839 201.939 54.2491 201.811C53.5009 201.403 53.2259 200.465 53.6346 199.717C58.6943 190.456 71.6092 186.441 80.6719 188.032C86.3863 189.036 90.0551 192.163 90.7375 196.611C90.8668 197.454 90.2887 198.241 89.4463 198.37C88.6068 198.5 87.8161 197.922 87.6868 197.079C87.0443 192.893 82.6816 191.519 80.1379 191.072C72.0921 189.659 60.6085 193.39 56.3433 201.197C56.0631 201.71 55.5338 202 54.9875 202Z" fill="#4C1200"/>
<path d="M72.3256 193.948C89.7132 196.706 107.823 196.114 124.837 191.46C127.281 190.88 129.737 189.934 132.149 189.234C133.239 188.907 133.85 190.501 132.783 190.97C118.581 197.323 102.662 199.467 87.205 198.285C82.0366 197.883 76.9341 197.11 71.8797 195.745C71.3861 195.612 71.0943 195.104 71.2276 194.611C71.3577 194.127 71.8473 193.842 72.3256 193.948Z" fill="#4C1200"/>
<path d="M115.302 171.452C111.748 176.608 109.106 183.805 113.527 189.256C114.828 190.952 116.529 192.429 118.386 193.78C118.805 194.081 118.9 194.667 118.596 195.084C118.333 195.445 117.859 195.562 117.467 195.388C112.856 193.425 108.585 189.164 108.163 183.882C107.741 178.607 110.279 173.759 113.937 170.199C114.775 169.45 115.975 170.559 115.302 171.452Z" fill="#4C1200"/>
<path d="M86.4543 193.348C85.9101 193.348 85.5151 193.204 85.3968 193.155C84.609 192.83 84.2334 191.928 84.5583 191.14C84.8672 190.39 85.698 190.015 86.4572 190.259C86.61 190.233 87.3249 189.635 87.6838 187.08C88.1196 183.976 90.512 179.929 94.7349 178.375C98.0279 177.16 103.464 177.058 110.664 183.446C111.301 184.012 111.36 184.987 110.794 185.625C110.228 186.262 109.253 186.321 108.615 185.755C103.82 181.5 99.3893 179.95 95.8012 181.271C92.7694 182.387 91.0524 185.287 90.7403 187.509C90.3437 190.334 89.4616 192.102 88.0437 192.914C87.4601 193.249 86.9057 193.348 86.4543 193.348Z" fill="#4C1200"/>
<path d="M163.222 175.364C160.063 173.021 156.059 171.955 152.158 171.751C150.978 171.707 150.963 169.963 152.143 169.899C156.3 169.693 160.568 170.437 164.269 172.413C164.536 172.559 164.767 172.689 165.085 172.903C165.794 173.379 165.983 174.339 165.507 175.048C165.002 175.812 163.915 175.961 163.222 175.364Z" fill="#4C1200"/>
<path d="M224.196 212.9C220.085 213.214 215.757 212.64 211.473 211.109C199.157 206.708 195.237 197.769 194.027 191.775C193.774 190.54 193.638 189.435 193.57 188.515C193.447 186.904 193.527 185.873 193.533 185.768C193.231 186.286 192.922 186.78 192.601 187.25C184.743 198.923 172.415 195.96 172.415 195.96C173.853 192.274 174.032 188.688 172.865 185.212C171.501 181.126 168.272 177.199 163.031 173.434C165.84 162.661 169.742 153.852 175.446 147.623C180.409 142.203 186.73 138.727 194.879 137.616C201.256 136.746 207.818 137.894 213.22 141.401C229.919 152.247 224.369 176.823 221.492 187.966C221.369 188.447 221.208 188.916 221.041 189.385C218.615 196.435 223.319 203.152 229.931 199.355C232.66 197.225 234.444 193.892 233.944 187.663C232.826 174.545 240.642 170.896 245.228 175.816C246.339 177.008 247.056 178.508 247.395 180.107C247.395 180.113 247.401 180.113 247.401 180.119C247.463 180.416 247.512 180.712 247.549 181.014C249.951 200.207 238.401 211.832 224.196 212.9Z" fill="#F76D54"/>
<g opacity="0.3">
<path d="M242.544 203.174C242.544 203.174 231.35 208.918 224.195 212.9C220.084 213.214 215.756 212.64 211.472 211.109C199.156 206.708 195.236 197.769 194.026 191.775C194.218 187.595 193.959 182.576 192.607 177.854C189.742 167.822 188.434 165.754 182.711 162.291L176.988 158.828C176.988 158.828 189.495 149.333 197.088 163.477C204.675 177.619 198.496 185.336 206.941 197.399C215.392 209.455 234.642 210.033 242.544 203.174Z" fill="#CD1111"/>
</g>
<path d="M192.601 187.25C184.742 198.923 172.414 195.96 172.414 195.96C173.852 192.275 174.031 188.688 172.865 185.213C184.582 180.57 185.267 164.137 185.267 164.137C185.267 164.137 192.891 175.613 192.601 187.25Z" fill="#FFB297"/>
<g opacity="0.3">
<path d="M190.41 171.174C190.41 171.174 193.126 178.286 193.533 185.768C193.231 186.287 192.922 186.78 192.601 187.25C184.743 198.923 172.415 195.96 172.415 195.96C173.853 192.275 174.032 188.688 172.865 185.212C171.501 181.126 168.272 177.199 163.031 173.434C165.84 162.661 169.742 153.852 175.446 147.623C172.847 154.389 168.649 169.094 176.989 177.743C188.089 189.256 190.41 171.174 190.41 171.174Z" fill="#CD1111"/>
</g>
<path d="M215.211 211.109C224.141 214.449 235.464 208.906 239.491 196.547C239.491 196.547 240.948 192.343 240.1 183.435C239.48 176.99 245.258 174.7 247.446 180.107C247.446 180.114 247.451 180.114 247.451 180.12C247.507 180.416 247.551 180.712 247.584 181.015C250.36 205.763 232.328 217.925 215.211 211.109Z" fill="#FFB297"/>
<path d="M222.057 214.535C218.409 214.535 214.654 213.885 210.954 212.563C196.763 207.492 193.133 196.551 192.245 190.286C183.887 200.157 172.182 197.49 172.052 197.459C171.619 197.355 171.252 197.068 171.046 196.674C170.839 196.279 170.814 195.814 170.975 195.399C173.914 187.848 171.021 181.074 162.131 174.689C161.613 174.317 161.377 173.663 161.538 173.046C167.519 150.104 178.046 138.36 194.668 136.09C201.704 135.127 208.589 136.555 214.058 140.106C232.378 152.005 225.309 179.36 222.986 188.349C222.85 188.877 222.68 189.37 222.515 189.847C221.391 193.11 221.962 196.473 223.89 198.067C225.239 199.183 227.075 199.183 229.069 198.071C230.908 196.607 232.908 194.096 232.403 187.785C231.761 180.256 233.902 174.635 238.13 172.756C240.899 171.526 244.052 172.295 246.356 174.763C247.843 176.356 248.786 178.452 249.082 180.822C250.549 192.57 247.102 202.452 239.375 208.648C234.532 212.531 228.462 214.535 222.057 214.535ZM193.535 184.22C193.69 184.22 193.846 184.243 194 184.292C194.689 184.51 195.135 185.177 195.073 185.897C195.015 186.597 193.863 203.178 211.993 209.656C221.172 212.938 230.686 211.66 237.444 206.24C244.303 200.74 247.348 191.848 246.019 181.204C245.804 179.483 245.141 177.984 244.1 176.869C242.68 175.348 240.961 174.875 239.383 175.578C237.09 176.596 234.861 180.271 235.48 187.531C235.965 193.603 234.504 197.745 230.882 200.572C230.824 200.617 230.763 200.658 230.7 200.694C227.521 202.519 224.323 202.429 221.924 200.446C218.979 198.012 218.039 193.365 219.583 188.883C219.749 188.402 219.892 187.986 219.997 187.577C222.183 179.12 228.834 153.384 212.377 142.694C207.529 139.546 201.387 138.287 195.086 139.147C179.892 141.223 170.521 151.621 164.793 172.815C173.519 179.386 176.766 186.738 174.467 194.705C178.079 195.02 186.621 194.61 192.2 184.989C192.482 184.504 192.996 184.22 193.535 184.22Z" fill="#4C1200"/>
<g opacity="0.45">
<path d="M177.901 38.0049C184.319 48.1419 185.857 58.6797 181.337 61.5419C176.816 64.4042 174.047 56.0223 167.628 45.8855C161.21 35.7486 153.573 27.6953 158.094 24.8331C162.615 21.9709 171.482 27.8681 177.901 38.0049Z" fill="white"/>
</g>
<path d="M181.697 160.781C187.378 162.366 190.936 167.799 192.949 173.007C194.4 177.068 195.017 181.416 195.079 185.713C195.101 187.667 192.26 187.874 192.006 185.931C191.821 184.248 191.734 182.377 191.414 180.702C190.574 174.702 188.199 168.629 183.636 164.505C182.841 163.747 181.866 163.022 180.971 162.45C180.107 161.894 180.704 160.527 181.697 160.781Z" fill="#4C1200"/>
<path d="M242.391 184.111C242.679 184.111 242.912 183.789 242.912 183.391C242.912 182.994 242.679 182.672 242.391 182.672C242.104 182.672 241.871 182.994 241.871 183.391C241.871 183.789 242.104 184.111 242.391 184.111Z" fill="#EE6597"/>
<path d="M245.209 186.605C245.209 187.138 244.983 187.57 244.704 187.57C244.425 187.57 244.199 187.138 244.199 186.605C244.199 186.073 244.425 185.641 244.704 185.641C244.983 185.641 245.209 186.073 245.209 186.605Z" fill="#EE6597"/>
<path d="M243.614 188.963C243.614 189.394 243.374 189.743 243.079 189.743C242.783 189.743 242.543 189.394 242.543 188.963C242.543 188.531 242.783 188.182 243.079 188.182C243.374 188.182 243.614 188.531 243.614 188.963Z" fill="#EE6597"/>
<g opacity="0.2">
<path d="M193.572 188.515C193.449 186.904 193.529 185.873 193.535 185.768C193.591 186.682 193.603 187.601 193.572 188.515Z" fill="#4C1200"/>
</g>
<g opacity="0.45">
<path d="M219.179 161.196C220.429 170.109 218.221 177.787 214.246 178.344C210.272 178.902 213.765 171.119 212.515 162.206C211.264 153.293 205.743 146.625 209.717 146.068C213.692 145.51 217.928 152.283 219.179 161.196Z" fill="white"/>
</g>
<g opacity="0.3">
<path d="M75.4382 189.269C74.543 189.478 73.6788 189.688 72.8516 189.904C74.2221 189.503 75.2469 189.305 75.4382 189.269Z" fill="#CD1111"/>
</g>
<g opacity="0.45">
<path d="M100.659 151.54C100.659 154.752 95.5333 152.826 89.2104 152.826C82.8874 152.826 77.7617 154.752 77.7617 151.54C77.7617 148.328 82.8874 145.724 89.2104 145.724C95.5333 145.724 100.659 148.328 100.659 151.54Z" fill="white"/>
</g>
<g opacity="0.45">
<path d="M143.801 204.291C132.371 209.374 121.602 210.114 119.747 205.943C117.892 201.772 129.013 200.11 140.443 195.027C151.873 189.943 159.284 183.364 161.139 187.535C162.994 191.705 155.232 199.207 143.801 204.291Z" fill="white"/>
</g>
<g opacity="0.45">
<path d="M248.513 116.582C252.089 126.165 251.245 136.275 247.887 137.528C244.529 138.781 244.498 131.062 240.921 121.48C237.344 111.898 231.577 104.08 234.935 102.827C238.293 101.574 244.936 107 248.513 116.582Z" fill="white"/>
</g>
<path d="M139.355 76.1913C133.752 77.5363 130.832 85.2106 132.834 93.3322C134.837 101.454 141.003 106.947 146.607 105.603C152.211 104.257 155.131 96.5834 153.128 88.4615C151.126 80.3401 144.959 74.8464 139.355 76.1913Z" fill="#4C1200"/>
<path d="M140.128 79.6163C138.657 80.9404 138.852 83.8753 140.565 86.1714C142.277 88.4676 144.859 89.2555 146.33 87.9313C147.802 86.6073 147.607 83.6724 145.894 81.3763C144.182 79.0801 141.6 78.292 140.128 79.6163Z" fill="white"/>
<path d="M140.246 98.5436C139.641 99.4338 140.059 100.943 141.178 101.915C142.298 102.887 143.696 102.953 144.3 102.062C144.904 101.172 144.487 99.6629 143.367 98.6913C142.248 97.7196 140.85 97.6536 140.246 98.5436Z" fill="#B199C5"/>
<path d="M179.546 71.3189C175.218 71.4613 172.407 77.6761 173.268 85.1999C174.129 92.7236 178.336 98.7073 182.664 98.5649C186.991 98.4225 189.802 92.2078 188.941 84.6839C188.08 77.1602 183.874 71.1764 179.546 71.3189Z" fill="#4C1200"/>
<path d="M179.857 74.4785C178.643 75.3708 178.556 77.9914 179.663 80.3316C180.77 82.672 182.652 83.8456 183.866 82.9533C185.08 82.0611 185.167 79.4405 184.06 77.1003C182.953 74.76 181.071 73.5862 179.857 74.4785Z" fill="white"/>
<path d="M178.437 91.167C177.91 91.8386 178.105 93.2453 178.87 94.309C179.636 95.3729 180.683 95.6908 181.209 95.0193C181.736 94.3478 181.541 92.941 180.776 91.8774C180.01 90.8137 178.963 90.4957 178.437 91.167Z" fill="#B199C5"/>
<path d="M49.6508 52.6627C43.2695 56.1455 41.9598 70.4929 50.7877 78.1203C59.2411 85.4243 63.1871 73.3736 61.0978 63.2587C59.4966 55.5074 55.2907 49.5844 49.6508 52.6627Z" fill="#B53008"/>
<path d="M75.4586 27.6176C70.9389 28.0064 66.671 36.883 69.7209 42.4475C73.0715 48.5606 77.996 42.8466 79.34 36.5435C80.37 31.7132 79.4531 27.2739 75.4586 27.6176Z" fill="#D84613"/>
<path d="M74.9686 59.8543C70.1226 63.3063 74.5526 74.1538 81.7276 74.8118C85.9904 75.2027 88.4483 69.1776 84.6389 63.4943C81.7198 59.1392 77.3184 58.1805 74.9686 59.8543Z" fill="#D84613"/>
<path d="M65.7374 86.6878C63.9275 91.3181 66.8702 99.6572 75.4685 101.488C83.0636 103.106 81.1863 94.2446 76.3419 88.9462C72.6296 84.886 67.3635 82.5282 65.7374 86.6878Z" fill="#B53008"/>
<path d="M86.9013 100.13C87.1755 103.619 91.5992 108 97.6089 106.521C102.918 105.215 99.0087 100.177 94.3132 98.3065C90.7151 96.8733 86.655 96.9955 86.9013 100.13Z" fill="#D84613"/>
<path d="M97.6955 106.497C97.6662 106.503 97.637 106.514 97.6077 106.52C91.5991 108 87.1759 103.618 86.901 100.131C86.8132 98.9963 87.2871 98.2533 88.1062 97.8379C91.3885 101.12 94.6122 103.993 97.6955 106.497Z" fill="#B53008"/>
</svg>
