<svg width="750" height="118" viewBox="0 0 750 118" fill="none" xmlns="http://www.w3.org/2000/svg">
<path d="M12.4275 89.8494C8.73395 90.2308 5.35776 92.0651 3.04401 94.9697C0.730121 97.873 -0.331788 101.609 0.0895485 105.334C0.510885 109.059 2.38028 112.464 5.28415 114.777C8.18815 117.091 11.8887 118.125 15.5742 117.672C27.5464 116.195 40.0815 114.638 52.1311 113.13C125.98 103.848 199.7 94.5337 273.368 83.8671C290.895 81.3026 308.19 78.6515 325.647 75.8343C395.293 64.6084 463.934 50.7715 533.315 40.1639C547.398 37.9573 561.495 35.7904 575.599 33.6564C619.908 26.9566 664.291 20.3849 708.696 14.0652C720.763 12.3481 733.148 10.609 745.144 8.95925C746.306 8.8002 747.365 8.17858 748.089 7.24305C748.813 6.30683 749.142 5.13337 749.004 3.9689C748.865 2.80443 748.27 1.74091 747.347 1.0004C746.424 0.260588 745.249 -0.095592 744.082 0.0221306C732.003 1.24854 719.564 2.54797 707.429 3.82265C662.785 8.52657 618.144 13.4243 573.579 18.793C559.394 20.5035 545.211 22.247 531.035 24.0341C461.072 32.5944 391.67 44.4903 322.382 54.0779C304.975 56.4927 287.733 58.7597 270.253 60.9553C196.758 70.0664 122.895 78.1116 48.9951 86.0076C36.9385 87.2862 24.3763 88.6131 12.4275 89.8494Z" fill="#4C1200"/>
<path d="M14.2414 92.9489C11.3924 93.2458 8.78926 94.6634 7.00658 96.9058C5.22379 99.1473 4.40745 102.03 4.73532 104.904C5.06319 107.777 6.50789 110.402 8.74978 112.184C10.9918 113.967 13.8473 114.762 16.69 114.41C28.7716 112.909 40.9297 111.388 53.2216 109.846C118.664 101.599 184.249 93.2992 249.641 84.2047C275.188 80.6267 300.629 76.789 326.016 72.6394C394.274 61.4445 461.741 48.199 529.904 37.909C545.082 35.5682 560.34 33.2763 575.571 31.0238C619.83 24.4856 664.194 18.1166 708.485 11.9162C720.666 10.2136 732.847 8.52267 744.907 6.87282C745.528 6.78794 746.094 6.45627 746.48 5.95588C746.866 5.45521 747.041 4.82682 746.965 4.20384C746.889 3.58087 746.568 3.01288 746.073 2.61972C745.578 2.22685 744.949 2.041 744.325 2.10816C732.213 3.41772 719.988 4.75994 707.759 6.11183C663.291 11.0322 618.742 16.0876 574.287 21.5101C558.988 23.3786 543.658 25.2886 528.397 27.252C459.817 35.8591 391.751 47.5178 323.663 57.2179C298.309 60.8162 272.927 64.1233 247.426 67.1881C182.063 74.9756 116.343 82.0846 50.8137 89.0868C38.5065 90.3974 26.3212 91.6865 14.2414 92.9489Z" fill="#F76D54"/>
<path d="M14.9231 99.6582C13.4733 99.8189 12.1486 100.549 11.2407 101.691C10.3328 102.833 9.91614 104.292 10.082 105.746C10.2479 107.2 10.9827 108.529 12.1244 109.436C13.2662 110.344 14.7213 110.757 16.1701 110.587C28.2271 109.169 40.3776 107.729 52.6467 106.27C118.155 98.447 183.808 90.5856 249.235 81.9061C274.586 78.5177 299.821 74.8497 325.014 70.8493C393.924 59.8676 462.092 46.1817 531.011 35.8614C545.356 33.6637 559.749 31.5128 574.138 29.4031C618.341 22.9283 662.624 16.6241 706.821 10.48C719.037 8.78487 731.168 7.11134 743.205 5.474C731.133 6.82673 718.964 8.20971 706.711 9.6122C662.377 14.6885 617.947 19.8971 573.599 25.4395C559.164 27.2457 544.719 29.0738 530.316 30.9415C461.088 39.685 392.408 51.6463 323.644 61.9541C298.485 65.7116 273.301 69.1705 247.994 72.3739C182.617 80.5825 116.929 88.1336 51.4053 95.5671C39.1337 96.9539 26.9745 98.3199 14.9231 99.6582Z" fill="#FBAFA1"/>
</svg>
