<svg width="193" height="242" viewBox="0 0 193 242" fill="none" xmlns="http://www.w3.org/2000/svg">
<path d="M3.29927 182.996C-0.977951 177.343 0.128182 172.571 0.129456 165.842L0.131994 145.946L0.103989 82.6407L0.0946501 44.463L0.0263084 31.968C0.0267328 19.1589 1.79374 19.6051 12.6415 12.9041C18.6747 9.17682 24.848 5.24622 31.1036 1.78959C34.3464 -0.00223276 37.956 -0.339794 41.5834 0.297402C45.254 0.942271 47.4612 2.8692 49.7155 5.70739C67.0234 7.01162 93.3638 11.2103 108.198 21.4378C109.858 22.5827 111.755 24.7091 113.089 26.2686C136.154 53.2423 150.012 89.0868 161.29 122.473C168.369 143.708 174.85 165.14 180.724 186.742C182.635 193.662 184.437 200.552 186.144 207.525C187.095 211.41 188.852 213.399 188.521 217.706C188.506 217.89 188.491 218.075 188.474 218.26L188.646 218.656C189.924 219.405 191.724 220.607 192.5 221.881C193.068 222.814 193.08 223.872 192.83 224.908C192.296 227.123 190.527 228.71 188.67 229.875C171.549 240.619 110.423 242.195 89.1273 241.375C76.76 240.899 60.8132 239.526 48.7507 236.7C43.9959 235.585 37.8503 234.147 33.9202 231.205C30.399 228.569 26.106 221.122 23.4265 217.234L10.2832 198.102C7.83245 194.567 5.19531 191.184 2.78101 187.639C1.57684 185.871 1.19313 184.11 3.29927 182.996Z" fill="#020201"/>
<path d="M3.3018 182.996C9.94493 188.074 21.6115 186.055 29.9308 186.218L29.8289 204.416C29.8141 211.903 29.0594 219.504 34.8498 225.296C38.4682 228.916 43.8367 230.35 48.8279 230.266C59.7101 230.113 70.6007 230.037 81.482 229.925L139.53 229.274C147.523 229.137 155.517 229.048 163.512 229.007C168.548 228.971 174.169 229.168 179.117 228.507C184.036 227.85 187.7 222.944 188.477 218.26L188.648 218.656C189.926 219.405 191.726 220.607 192.503 221.881C193.071 222.814 193.082 223.872 192.832 224.908C192.298 227.123 190.529 228.71 188.672 229.875C171.551 240.619 110.426 242.195 89.1298 241.375C76.7625 240.899 60.8158 239.526 48.7532 236.7C43.9985 235.585 37.8528 234.147 33.9228 231.205C30.4015 228.569 26.1086 221.122 23.429 217.234L10.2858 198.103C7.83497 194.567 5.19783 191.184 2.78353 187.639C1.57936 185.871 1.19565 184.11 3.3018 182.996Z" fill="#00834E"/>
<path d="M73.3361 22.8879L76.5132 23.5869C76.5068 30.6549 76.6711 38.4832 77.107 45.59C77.1299 45.9655 77.5119 46.3516 77.8587 46.4974C80.9737 47.6844 85.1449 47.3686 88.5634 47.5024C91.5045 47.6179 97.5508 48.279 100.199 47.5156C101.368 46.3291 100.489 37.5191 100.496 34.8859C101.511 35.9779 102.822 37.2046 103.899 38.2676C103.705 47.6529 102.238 48.4329 111.935 48.5893C112.851 49.6062 113.466 50.6198 114.211 51.7646C112.15 51.7152 106.181 51.0162 104.952 52.372C104.119 55.604 105.096 69.4446 105.179 73.5193C105.197 74.3849 105.602 75.5003 106.054 76.2875C107.247 77.1677 124.665 77.3028 127.925 77.5594C128.343 78.4613 128.728 79.4667 129.106 80.3937C125.698 80.557 108.239 79.5149 107.186 80.063C106.67 80.3311 106.097 80.7978 105.919 81.3728C105.386 83.0977 105.629 102.955 106.338 104.259C106.506 104.568 106.844 104.604 107.157 104.698C109.205 105.313 125.369 105.658 128.029 105.506C128.839 105.459 129.574 105.378 130.304 105.004C130.778 103.785 130.451 85.8758 130.248 83.1744C130.954 84.5702 132.99 88.3649 133.364 90.2551C133.999 93.465 132.379 102.563 134.312 105.296C134.907 106.138 138.167 105.888 139.382 105.849C139.858 106.824 140.274 108.043 140.66 109.073C138.236 108.903 134.226 107.872 134.46 111.546C134.724 115.703 133.663 130.845 135.924 133.446C138.024 134.224 146.774 133.868 149.36 133.838C149.735 134.852 150.098 135.969 150.452 136.999C147.732 136.933 137.906 136.224 136.336 137.551C135.101 140.303 136.399 155.002 136.213 159.077C136.119 161.139 136.629 161.5 137.959 162.741C144.236 162.957 152.299 162.929 158.539 162.796C158.869 163.703 159.195 165.02 159.463 165.977C156.33 166.009 139.593 165.284 138.027 166.004C137.533 166.639 137.322 167.627 137.373 168.421C137.779 174.737 137.691 181.112 138.135 187.419C138.296 189.711 139.125 190.411 141.373 190.61C143.714 190.817 146.346 190.706 148.695 190.698L166.247 190.486C166.52 191.399 166.725 192.48 166.927 193.423C161.252 193.613 155.574 193.701 149.895 193.686C147.369 193.694 144.725 193.507 142.212 193.691C141.661 193.731 140.294 193.858 139.973 194.336C138.755 196.152 140.889 208.461 141.221 211.176L138.092 211.069C137.713 207.825 137.223 196.207 135.35 194.247C134.79 193.661 134.008 193.382 133.221 193.272C131.509 193.034 129.585 193.258 127.846 193.259L116.256 193.249C114.56 193.201 111.739 192.918 110.356 193.683C109.078 195.582 110.784 208.568 111.178 211.611L107.974 211.642C107.674 208.917 106.87 195.327 106.284 194.027C105.303 193.332 103.166 192.962 102.022 193.057C98.645 193.334 82.7111 192.109 80.4712 193.817C79.3765 196.197 80.8023 208.872 81.2314 212.039L78.0017 212.125C77.2848 206.855 77.5314 201.469 76.8566 196.209C76.7589 195.447 76.6889 194.573 76.0182 194.096C73.4796 192.29 56.6627 194.568 52.7051 195.071L52.6508 191.792C55.6691 191.37 74.8451 190.329 75.7644 189.537C76.0217 188.779 76.2267 187.879 76.2126 187.07C76.098 180.463 75.8438 173.839 75.8578 167.23C75.8637 164.417 72.7516 164.683 70.8357 164.857C69.8042 164.95 68.6064 164.982 67.5169 165.047C62.5147 165.32 57.5205 165.731 52.5408 166.281L52.5404 163.221C56.4581 162.763 60.5571 162.521 64.4476 162.174C66.527 161.988 73.0916 161.889 74.4741 161.357C75.8892 159.415 75.9036 138.446 74.6791 136.511C72.6956 135.497 55.8558 137.22 52.537 137.506L52.5315 134.291C57.212 133.778 62.7863 133.786 67.558 133.327C69.4664 133.143 72.5178 133.293 74.2402 132.831C75.3816 131.884 75.3332 127.291 75.185 125.894C74.8956 123.172 76.1197 110.464 74.8204 108.895C72.7635 107.684 68.1858 108.315 65.7838 108.448C61.3296 108.656 56.88 108.958 52.4381 109.353L52.4165 106.373C57.5447 105.791 62.9833 105.585 68.1451 105.149C69.9405 104.998 72.4677 105.15 74.1218 104.81C74.3323 104.591 74.4567 104.402 74.5573 104.113C75.2317 102.171 75.4385 85.6959 75.2092 82.7354C75.1303 81.715 74.98 80.805 74.5259 79.8793C72.744 78.4838 55.2493 80.0984 52.4152 80.3775L52.338 77.2874C56.6967 76.5245 62.8844 76.6579 67.4095 76.2773C69.3051 76.1175 72.0008 76.2577 73.7657 75.7343C74.4087 75.095 74.6829 73.1791 74.6091 72.3655C74.2546 68.449 75.4686 52.7735 73.1052 50.3347C71.1464 49.6774 55.459 50.3517 52.3065 50.4732L52.2734 47.5357C55.9021 47.34 59.5341 47.2105 63.1679 47.1474C65.3933 47.1176 71.2423 47.3763 73.4605 46.4467C73.7911 46.3082 73.9821 44.6114 73.9787 44.1272C73.9291 37.0456 73.3115 29.9682 73.3361 22.8879Z" fill="#FEFEFE"/>
<path d="M80.858 164.563C83.9289 164.453 103.091 164.135 104.556 165.34C106.001 169.525 104.922 180.289 105.674 185.143C105.998 187.231 106.181 189.318 103.942 190.084C99.4308 190.06 94.9206 189.895 90.4086 189.872C88.4044 189.862 82.4743 190.329 80.8945 189.836C80.2812 189.645 79.8351 189.106 79.5918 188.522C78.9857 187.064 78.5392 167.174 79.195 165.819C79.5791 165.025 80.0808 164.817 80.858 164.563Z" fill="#020201"/>
<path d="M80.592 175.679C88.323 175.697 96.054 175.662 103.785 175.572C103.913 178.004 103.872 180.981 103.903 183.456C96.1856 183.452 88.4677 183.487 80.7499 183.561C80.7159 180.931 80.4812 178.311 80.592 175.679Z" fill="#E3E3E3"/>
<path d="M86.0234 165.984C91.9395 165.961 97.5338 166.076 103.446 166.191C103.742 168.515 103.71 171.03 103.745 173.386C98.0563 173.424 92.3678 173.5 86.6797 173.614C86.3053 171.087 86.0863 168.538 86.0234 165.984Z" fill="#00834E"/>
<path d="M102.639 185.691C103.578 185.673 103.224 185.527 103.906 185.898C104.286 186.608 104.135 187.715 104.109 188.567C96.8407 188.302 89.566 188.265 82.2955 188.457C81.4483 188.491 81.8052 188.604 81.1507 188.247C80.767 187.551 80.8472 186.598 80.8281 185.771C88.0986 185.799 95.3691 185.772 102.639 185.691Z" fill="#00834E"/>
<path d="M82.2383 165.998C83.184 165.964 83.6402 165.888 84.5401 166.124C84.7791 166.847 85.3945 172.375 85.5982 173.669L82.9641 173.723L82.2383 165.998Z" fill="#FEFEFE"/>
<path d="M80.5167 166.04C81.5452 166.751 81.6534 172.255 81.8147 173.742C81.2676 173.715 81.2052 173.696 80.6713 173.557C80.361 172.31 80.4934 167.64 80.5167 166.04Z" fill="#00834E"/>
<path d="M109.205 164.713C116.168 164.279 124.078 164.981 131.084 165.19C132.879 165.244 134.226 166.157 134.274 168.085C134.428 174.326 134.733 180.569 135.191 186.798C135.301 188.276 135.253 189.111 134.218 190.219C132.306 190.396 129.825 190.295 127.877 190.286C122.459 190.262 116.964 190.28 111.556 190.118C109.402 190.054 108.596 188.071 108.639 186.219C108.451 180.979 108.436 175.741 108.231 170.5C108.151 168.462 107.782 166.276 109.205 164.713Z" fill="#020201"/>
<path d="M109.824 166.199L112.828 166.192C113.317 167.906 114.416 174.015 115.141 175.067C118.371 179.755 128.569 182.855 133.328 186.52C133.99 187.03 133.894 187.924 133.954 188.796L121.915 188.757C117.956 186.231 114.824 183.752 110.106 183.348C109.935 177.633 109.84 171.916 109.824 166.199Z" fill="#E3E3E3"/>
<path d="M118.352 166.317C121.118 166.433 121.668 166.717 124.217 167.812C124.814 171.961 125.721 175.946 126.424 180.059C125.123 179.586 121.652 177.566 120.308 176.809C119.793 173.43 119.001 169.707 118.352 166.317Z" fill="#F3D454"/>
<path d="M123.652 166.451C125.487 166.365 131.339 166.415 132.645 167.376C132.98 168.226 132.842 169.087 132.8 170.025C131.478 169.698 128.448 168.274 127.409 168.801C127.188 169.654 128.272 173.985 128.532 175.195C128.976 177.409 129.374 179.632 129.728 181.862L127.361 180.688C126.523 176.546 125.907 171.627 124.713 167.549C124.597 167.154 123.992 166.703 123.652 166.451Z" fill="#F3D454"/>
<path d="M128.207 169.643C129.671 169.987 131.469 170.563 132.94 170.991C133.054 175.258 133.213 179.525 133.418 183.789L130.626 182.422C129.908 178.146 129.102 173.886 128.207 169.643Z" fill="#F3D454"/>
<path d="M115.332 166.256C116.377 166.263 116.583 166.126 117.325 166.608C118.022 168.712 118.871 173.788 119.248 176.148C118.444 175.814 118.021 175.509 117.283 175.033L115.332 166.256Z" fill="#F3D454"/>
<path d="M110.265 185.538C112.996 185.555 115.118 187.162 117.407 188.585C115.371 188.636 111.934 189.376 110.514 187.993C110.12 187.236 110.245 186.41 110.265 185.538Z" fill="#00834E"/>
<path d="M81.5021 135.819C84.5403 135.715 101.096 135.651 103.167 136.404C104.974 138.922 104.011 156.195 104.297 160.017C104.397 161.37 102.446 161.599 101.398 161.605C97.2845 161.424 93.2688 161.489 89.0467 161.44C86.5671 161.302 80.9906 162.048 79.0428 160.597C77.8068 159.676 78.401 150.837 78.398 149.145C78.3917 145.691 78.2461 142.475 78.3692 139.071C78.4494 136.852 79.46 136.028 81.5021 135.819Z" fill="#020201"/>
<path d="M84.8175 142.844C89.8044 142.795 95.3457 143.093 100.532 143.082C101.257 145.858 102.414 149.825 102.724 152.555C102.922 154.29 102.829 157.957 102.823 159.818C97.0651 159.261 90.7565 159.522 85.014 158.686C84.6694 155.839 84.5603 145.632 84.8175 142.844Z" fill="#00834E"/>
<path d="M81.2483 137.288C81.8213 137.268 82.1192 137.281 82.6922 137.323C83.3391 137.681 83.4932 138.357 83.8026 139.082C88.1248 139.531 94.9369 139.472 99.4883 139.55L100.147 141.884C97.4395 141.912 85.5505 141.369 84.2211 141.831C83.1719 142.982 83.4465 144.255 83.4771 145.863C83.4715 148.417 83.2215 157.46 83.9983 159.577L83.8786 159.804C83.0721 159.879 80.8352 160.083 80.1803 159.698C80.7584 159.46 80.8238 159.476 81.2843 159.072C81.6184 157.651 80.9167 144.787 80.8701 142.279C80.862 141.83 80.4274 140.834 80.2206 140.404C79.8734 139.68 79.9405 138.446 80.2554 137.73C80.3671 137.476 80.9095 137.394 81.2483 137.288Z" fill="#FEFEFE"/>
<path d="M84.1172 137.312C86.7819 136.915 95.3398 137.403 98.3772 137.469C98.9531 137.482 98.9777 137.749 99.2672 138.187C97.1967 138.477 94.0473 138.286 91.9127 138.268C90.1852 138.254 85.2259 138.317 84.1172 137.312Z" fill="#00834E"/>
<path d="M101.195 137.465C101.541 137.553 101.749 137.643 102.082 137.769C102.913 139.029 102.626 141.061 102.574 142.61C102.154 141.545 101.493 138.7 101.195 137.465Z" fill="#FEFEFE"/>
<path d="M79.783 152.777C80.249 154.568 80.1582 156.767 80.0775 158.607C79.3178 157.995 79.7218 153.914 79.783 152.777Z" fill="#636165"/>
<path d="M108.55 136.177C109.117 136.139 109.685 136.116 110.253 136.109C112.424 136.087 131.063 135.851 131.919 136.928C132.493 137.651 132.62 139.113 132.707 140.034C132.931 142.4 133.42 159.401 133.12 160.854C132.993 161.468 132.594 161.668 132.11 161.989C130.851 162.062 129.58 162.044 128.319 162.047C126.082 162.051 109.205 162.165 108.308 161.084C107.702 160.354 107.516 159.181 107.411 158.266C107.035 154.997 107.235 151.463 107.211 148.165C107.187 144.865 106.924 141.267 107.275 138.001C107.376 137.058 107.865 136.745 108.55 136.177Z" fill="#020201"/>
<path d="M108.836 137.545C109.208 137.528 109.942 137.463 110.187 137.663C111.306 138.578 112.178 143.711 112.54 145.167C115.023 145.74 117.651 146.483 120.13 147.13C119.795 144.899 117.988 139.201 118.365 137.847C119.1 137.675 118.763 137.635 119.414 137.897C120.493 139.284 121.756 145.607 122.379 147.871C124.903 148.817 128.748 149.709 131.466 150.404L131.554 153.236C129.686 152.651 125.289 151.189 123.594 151.018L123.401 151.233C123.306 152.299 123.675 153.405 123.937 154.47C124.212 155.585 125.266 159.583 125.076 160.425C124.462 160.613 124.29 160.543 123.651 160.479C122.637 159.154 121.385 152.244 120.936 150.158C119.637 149.59 115.044 147.868 113.793 148.264C113.115 149.985 116.558 158.56 115.912 160.085C115.119 160.493 115.499 160.463 114.757 160.392C114.463 160.193 114.168 159.89 114.092 159.531C112.52 152.153 110.449 144.923 108.836 137.545Z" fill="#F3D454"/>
<path d="M120.863 137.845C123.147 137.764 125.68 137.842 127.982 137.865C128.435 140.708 129.983 145.892 130.667 149.056C128.506 148.879 125.199 147.712 123.056 147.009C122.328 144.887 121.302 140.118 120.863 137.845Z" fill="#F3D454"/>
<path d="M114.605 149.248C116.435 149.474 118.618 150.26 120.412 150.829C121.054 154.184 121.511 157.167 122.395 160.477C120.63 160.465 118.868 160.331 117.106 160.218L114.605 149.248Z" fill="#F3D454"/>
<path d="M124.379 152.102C126.794 152.792 129.205 153.496 131.611 154.216C131.696 156.299 131.702 158.505 131.743 160.6L126.301 160.446C125.61 157.882 124.977 154.731 124.379 152.102Z" fill="#F3D454"/>
<path d="M111.469 137.574C113.476 137.599 115.199 137.625 117.21 137.793C117.674 140.524 118.366 143.192 118.832 145.915C117.133 145.322 115.073 144.802 113.318 144.312C112.719 142.579 112.01 139.464 111.469 137.574Z" fill="#F3D454"/>
<path d="M108.63 146.987C109.489 148.508 111.434 157.951 111.957 160.383L109.007 160.238C108.74 158.233 108.596 149.303 108.63 146.987Z" fill="#FEFEFE"/>
<path d="M128.715 137.847C129.551 137.826 130.134 137.71 130.843 138.122C131.487 139.161 131.352 145.839 131.395 147.599C130.61 146.55 129.102 139.545 128.715 137.847Z" fill="#F3D454"/>
<path d="M80.2298 79.1103C82.3911 79.0293 102.002 78.7451 102.324 80.6792C103.509 87.7945 103.131 96.8666 102.743 104.159C102.715 104.687 101.615 105.018 101.176 105.103C95.5615 105.056 89.9485 104.673 84.3241 104.794C82.6997 104.828 80.3669 104.886 78.8223 104.498C77.3202 102.478 78.2395 83.8806 78.4212 80.314C78.4501 79.7484 79.6929 79.265 80.2298 79.1103Z" fill="#020201"/>
<path d="M80.875 80.7147C82.4934 80.6938 84.1577 80.7206 85.7804 80.7262C89.2452 88.6871 92.244 95.2069 95.32 103.455L90.4609 103.33C87.5334 95.0582 84.8088 88.5115 80.875 80.7147Z" fill="#E3E3E3"/>
<path d="M89.4844 80.8186C89.8829 80.7931 91.0969 80.6895 91.2259 80.8574C92.6406 82.6995 95.709 90.9345 96.4857 92.9041C97.6004 92.8862 103.459 91.8138 101.293 94.9094C100.354 95.4235 98.7447 95.296 97.5974 95.3143C98.3953 97.1978 99.1543 99.0979 99.8733 101.013C100.28 102.032 100.702 102.628 100.431 103.589C99.7901 103.932 100.125 103.886 99.3873 103.678C98.1483 102.519 97.0723 98.1329 96.3049 96.4506C95.9008 95.565 95.5447 95.4682 94.6495 95.1051L94.4709 95.0343C93.1139 93.0588 94.6156 93.1402 93.9556 91.2665C92.7272 87.7814 90.742 84.2629 89.4844 80.8186Z" fill="#F3D454"/>
<path d="M92.543 80.8988L97.7773 80.9439C99.119 84.1517 101.361 88.563 101.494 91.8475C99.9972 91.8496 98.5044 91.9391 97.0095 92.0124C95.7544 88.4978 93.9505 84.4249 92.543 80.8988Z" fill="#F3D454"/>
<path d="M79.7474 83.2425C82.5802 85.9852 82.1001 90.5134 81.9444 94.0276C81.7911 97.4714 83.5106 97.644 86.2517 97.5728C86.6214 98.4521 86.9771 99.4017 87.3298 100.294C86.219 100.188 85.0136 100.121 83.8935 100.039C81.6324 100.631 83.7037 102.934 81.8018 103.424C81.3213 103.547 80.8395 103.5 80.4371 103.209C80.3951 102.934 80.2988 102.376 80.3365 102.112C80.511 100.903 79.7457 99.7478 79.7673 98.635C79.8671 93.525 79.6324 88.3414 79.7474 83.2425Z" fill="#FEFEFE"/>
<path d="M98.8359 96.0649C99.7277 96.1135 100.664 96.2047 101.559 96.2767L101.524 102.324C101.036 101.818 99.2205 96.9953 98.8359 96.0649Z" fill="#F3D454"/>
<path d="M83.9841 101.244C86.502 101.23 87.4286 100.719 88.3344 103.317C86.8861 103.294 85.3704 103.677 84.2243 103.097C83.7659 102.351 83.9476 102.314 83.9841 101.244Z" fill="#00834E"/>
<path d="M98.8281 81.1847C101.011 81.0398 101.459 81.6208 101.487 83.8414C101.499 84.7974 101.439 85.7832 101.402 86.7401C100.84 86.4946 99.1944 82.076 98.8281 81.1847Z" fill="#F3D454"/>
<path d="M83.2908 91.319C83.8952 92.2865 85.2098 95.368 85.4131 96.4366L85.2004 96.4455C82.1707 96.5542 83.1376 93.5575 83.2908 91.319Z" fill="#00834E"/>
<path d="M88.0625 80.6448L88.6364 80.9184C89.3728 81.8868 92.852 90.4018 93.0418 91.6318C92.254 90.6873 88.5145 82.0543 88.0625 80.6448Z" fill="#DDB132"/>
<path d="M96.5241 100.991C95.8891 99.3592 95.2949 97.9531 94.918 96.2316C95.6794 96.9928 96.6043 99.8851 96.9681 100.957L96.5241 100.991Z" fill="#DDB132"/>
<path d="M96.5273 100.991L96.9713 100.957C97.229 101.586 97.6259 102.332 97.5511 102.968C97.0427 102.572 96.7807 101.642 96.5273 100.991Z" fill="#917632"/>
<path d="M78.525 50.3061C84.9843 50.1527 91.5884 50.7694 98.0554 50.9071C102.622 51.0038 101.801 54.2593 101.791 57.8745C101.774 63.6838 102.339 69.4608 102.154 75.2463C102.137 75.7573 101.263 76.2837 100.87 76.5475C97.035 76.4273 93.2001 76.3438 89.3643 76.2969C87.4436 76.2743 80.2593 76.3562 78.7423 75.8673C78.1808 75.2442 77.7453 74.1722 77.7126 73.3385C77.4719 67.1622 77.1188 60.916 77.21 54.7341C77.2355 53.0254 77.2453 51.4752 78.525 50.3061Z" fill="#020201"/>
<path d="M78.9172 51.8034C80.5212 51.7561 85.3808 51.6973 86.6906 52.1324C86.7246 52.5327 86.7148 52.7603 86.6766 53.1524C88.9661 56.5191 93.3359 65.0669 95.2816 68.8867C97.0312 68.636 98.9302 68.2716 100.686 67.972L100.746 70.5702C99.4188 70.9598 98.0541 71.1985 96.6963 71.4687C97.0027 72.4801 97.6169 73.9676 98.0079 74.9867C95.347 74.9198 95.5418 74.0904 94.5587 71.7398C92.512 71.7986 90.4114 72.1984 88.416 72.6319C88.526 73.4481 88.8863 74.6504 88.113 75.1014C86.9156 74.4292 86.7276 73.0061 85.5438 72.7252C84.3931 72.4516 83.9181 72.3612 83.4635 71.2714C83.6825 70.1815 83.4491 70.6504 84.2089 69.8201C82.9567 65.9487 79.9155 62.8655 78.8773 59.0568C78.7971 58.7627 78.8607 56.7965 78.8756 56.3733C81.5322 60.2672 84.0654 65.7659 86.6227 69.9352C88.1295 69.7868 91.7854 69.6232 92.8062 68.7268C92.5706 67.2099 85.2704 54.4447 84.1541 52.7492C82.7177 53.0718 80.0314 54.1352 78.8731 53.4921C78.6006 52.6882 78.7364 52.7709 78.9172 51.8034Z" fill="#F3D454"/>
<path d="M88.5429 52.1862C90.6482 52.144 92.8027 52.0719 94.8749 52.4261C96.7425 55.3035 101.479 62.9712 100.483 66.7854C100.416 67.0403 99.9183 67.097 99.6399 67.1839C98.4314 67.4499 97.1156 67.6289 95.8864 67.8233C93.9089 64.2 89.95 57.129 87.8693 53.1345C87.7785 52.9602 88.3349 52.4265 88.5429 52.1862Z" fill="#F3D454"/>
<path d="M83.795 53.7078C83.9189 53.7606 84.0433 53.8139 84.1676 53.8668C86.1723 57.7884 90.0671 64.8427 91.8914 68.3654C90.422 68.5794 88.7331 68.7034 87.2377 68.8466C86.2878 67.6835 85.0713 65.3862 84.3251 64.0517C82.5339 60.8474 81.0152 57.9081 78.918 54.8965C80.446 54.6067 82.2614 54.0973 83.795 53.7078Z" fill="#F3D454"/>
<path d="M95.8633 52.4303C97.1269 52.3464 97.8739 52.1755 98.8362 53.172C100.701 55.1023 100.466 58.2836 100.436 60.7505C99.7432 60.0494 96.6256 53.8066 95.8633 52.4303Z" fill="#F3D454"/>
<path d="M79.1641 67.2811C80.0142 68.177 82.7549 73.3551 83.2516 74.6973C81.9599 74.7416 80.642 74.6934 79.3474 74.6674C79.2689 72.2056 79.2078 69.7433 79.1641 67.2811Z" fill="#FEFEFE"/>
<path d="M92.5895 72.7286C93.2529 72.6344 93.3246 72.5769 93.9813 72.7584C94.5687 73.2703 94.7253 74.069 94.9762 74.8349L92.696 74.7962C91.5895 74.8239 89.9171 75.083 89.6289 73.6965C90.2898 72.6276 91.4316 72.8015 92.5895 72.7286Z" fill="#F3D454"/>
<path d="M100.225 71.6046L100.384 71.5573L100.677 71.7189C101.007 72.9106 101.192 73.4536 100.737 74.5771C100.105 75.155 100.25 74.9649 99.1415 75.0114C98.7523 74.2531 98.2739 73.0039 97.9297 72.1843L100.225 71.6046Z" fill="#F3D454"/>
<path d="M78.8281 61.9133C79.711 62.4461 82.9852 68.4476 83.2938 69.6688C81.7772 68.9225 79.1545 63.6923 78.8281 61.9133Z" fill="#F3D454"/>
<path d="M108.028 108.037C114.418 107.857 121.402 108.574 127.834 108.602C130.311 108.613 131.378 109.362 131.409 112.03C131.485 118.63 131.863 125.31 131.822 131.909C131.818 132.683 130.859 133.205 130.296 133.562C125.31 133.006 119.994 133.165 114.97 133.185C112.962 133.193 110.829 133.377 108.835 133.163C108.094 133.082 107.496 132.721 107.071 132.102C106.614 131.436 106.558 130.481 106.501 129.7C106.364 127.81 106.243 110.735 106.513 109.764C106.758 108.886 107.296 108.486 108.028 108.037Z" fill="#020201"/>
<path d="M110.08 109.497C110.494 109.529 110.787 109.574 111.196 109.635C112.066 110.254 111.814 111.169 112.299 111.693C113.473 112.964 119.864 113.128 121.499 113.173C121.299 112.039 120.732 110.963 121.117 109.995C121.85 109.886 121.835 109.862 122.599 110.021C122.909 110.359 123.725 112.76 124.084 113.549C125.634 113.845 128.247 114.033 129.949 114.242L129.911 117.045C128.275 116.845 126.637 116.656 124.998 116.476C125.792 120.332 128.874 128.128 129.23 131.536L128.977 131.813C128.157 131.878 127.604 131.999 127.034 131.36C126.852 129.732 123.249 118.333 122.57 116.171C120.173 115.696 116.238 115.161 113.902 115.176L113.603 115.529C114.945 120.106 116.233 124.699 117.468 129.306C120.565 130.223 123.77 130.835 126.797 131.831C123.097 131.867 118.979 131.738 115.267 131.453C113.482 131.316 110.306 130.222 109.178 130.16C108.779 130.632 108.943 130.855 108.953 131.675L108.707 131.783C107.865 130.83 108.101 128.732 108.103 127.363C110.493 128.14 112.949 128.7 115.44 129.036C114.195 124.171 112.884 119.261 111.114 114.561C110.11 114.499 109.106 114.427 108.102 114.344C107.709 113.831 107.781 112.426 108.252 111.916C109.136 111.97 109.406 112.059 110.188 111.721C110.136 110.98 110.1 110.239 110.08 109.497Z" fill="#F3D454"/>
<path d="M114.754 116.124C117.167 116.371 119.574 116.678 121.971 117.045C123.465 121.461 124.696 125.98 125.979 130.466C123.463 129.805 120.924 129.17 118.444 128.388C117.58 126.311 115.369 118.52 114.754 116.124Z" fill="#F3D454"/>
<path d="M107.925 115.359L110.61 115.309C111.539 117.726 113.623 125.376 114.178 127.908C111.892 127.482 110.289 127.099 108.155 126.194C108.053 122.801 107.81 118.679 107.925 115.359Z" fill="#F3D454"/>
<path d="M126.309 117.442C127.54 117.562 128.77 117.704 129.996 117.869C129.985 122.05 130.185 126.52 130.287 130.725C129.733 130.134 126.603 118.908 126.309 117.442Z" fill="#F3D454"/>
<path d="M124.16 110.039C126.107 110.052 128.055 110.116 129.999 110.232L129.997 113.247C128.312 113.156 126.463 112.833 124.779 112.579C124.434 111.672 124.099 110.992 124.16 110.039Z" fill="#F3D454"/>
<path d="M112.656 109.707C114.985 109.706 117.314 109.746 119.642 109.825L120.439 112.335C118.189 111.982 115.267 112.173 113.273 111.361C112.776 111.159 112.758 110.29 112.656 109.707Z" fill="#F3D454"/>
<path d="M84.8358 107.916C88.2475 107.835 99.9319 107.547 102.545 108.746C103.035 109.348 103.423 111.006 103.384 111.678C103.217 114.506 103.999 131.217 103.016 132.407C101.596 133.259 98.7167 132.828 96.9281 132.748C92.2166 132.706 87.503 132.747 82.8005 132.761C81.7581 132.585 79.0258 133.213 78.6005 131.941C78.0933 130.375 77.9651 127.694 78.174 126.043C78.7092 121.812 77.4499 112.403 78.7856 108.863C80.278 107.53 82.7759 107.898 84.8358 107.916Z" fill="#020201"/>
<path d="M84.3829 121.849C87.7705 121.958 91.1568 122.099 94.5414 122.272C95.0482 123.882 96.9548 129.768 97.01 131.196C93.0078 131.012 88.3244 131.191 84.3205 131.306C84.2522 128.153 84.273 125 84.3829 121.849Z" fill="#00834E"/>
<path d="M92.8203 109.697L97.4553 109.736C98.9384 113.492 101.102 119.57 101.904 123.513C102.169 124.815 102.066 129.907 102.053 131.438C101.229 131.488 100.46 131.615 99.6944 131.33C98.9787 129.668 97.8603 125.476 97.2682 123.547C95.8106 118.922 94.328 114.305 92.8203 109.697Z" fill="#E3E3E3"/>
<path d="M80.1102 109.508C80.873 109.443 81.0826 109.423 81.8356 109.5C84.0492 110.854 81.5376 115.928 82.9846 117.5C84.075 118.684 91.3956 118.518 93.5166 118.68L94.1537 121.067C91.6643 120.904 86.0178 120.45 83.7053 120.561C82.1149 123.499 84.0059 128.561 82.6659 130.928C81.8853 131.401 82.1794 131.265 81.1629 131.263C80.2588 130.365 81.1162 125.265 80.755 123.582C79.7549 118.92 80.1981 114.253 80.1102 109.508Z" fill="#FEFEFE"/>
<path d="M83.8625 109.519C86.1554 109.51 88.2182 109.489 90.5098 109.654L93.0124 117.623C90.3804 117.287 86.5497 117.129 83.8387 116.934C83.7496 114.463 83.7576 111.99 83.8625 109.519Z" fill="#00834E"/>
<path d="M100.309 109.753C102.734 110.155 102.043 112.357 101.873 114.287L101.717 114.237C101.09 113.395 100.537 110.854 100.309 109.753Z" fill="#F3D454"/>
<path d="M3.89253 179.905C2.94558 178.532 2.43793 177.133 2.43241 175.459C2.40779 168.416 2.43623 161.371 2.4409 154.328L2.4218 113.091L2.29786 54.0611L2.28172 36.3483C2.27196 33.0408 2.2223 29.7543 2.32926 26.4464C2.48631 21.5811 5.56106 20.091 9.27886 17.8576C16.9946 13.2225 24.5932 8.36832 32.5372 4.13427C36.1901 2.18773 39.5552 2.45752 43.3171 3.743C48.0939 6.57437 49.4984 10.2974 49.5082 15.6192C49.5137 18.7161 49.5239 21.8462 49.5197 24.9452L49.5477 44.8488L49.7179 151.21L49.8121 189L49.8609 201.308C49.9445 210.266 49.4874 215.556 60.4752 215.147C61.6408 217.585 64.1735 220.456 66.969 220.655C71.1562 220.952 75.5484 220.831 79.7476 220.814C88.8092 220.768 97.8705 220.649 106.93 220.458L149.518 219.992C154.809 219.935 160.384 220.047 165.648 219.856C174.749 219.526 178.941 219.014 185.072 212.484C186.946 218.172 185.091 222.533 179.934 225.363C178.649 226.069 176.913 225.975 175.472 226.105C168.093 226.235 160.682 226.242 153.303 226.313L108.506 226.809C95.2393 227.05 81.9709 227.215 68.702 227.306C64.5097 227.362 60.2261 227.338 56.0422 227.427C46.7335 227.626 36.5874 228.174 33.252 217.328C32.508 212.226 32.7898 203.584 32.7873 198.045L32.7906 165.146L32.7469 53.4912C32.7601 47.3635 33.2834 21.6975 32.137 18.4855C31.7108 17.2908 30.9201 16.7141 29.8173 16.1783C29.3819 16.9954 29.7859 18.9564 29.9162 20.0399C25.5023 22.1654 21.1199 24.357 16.7705 26.6135C15.4933 27.2656 10.32 29.5902 9.89602 30.6468C10.1337 31.4758 9.91171 31.1561 10.5221 31.6795C11.5391 31.7485 12.4843 31.2315 13.4818 30.8641C13.3719 41.985 13.349 53.1072 13.4139 64.2285L13.436 127.604L13.4678 156.482C13.472 159.249 13.7161 163.49 13.4873 166.132C12.3901 178.822 19.8312 176.132 29.8679 176.212L29.8725 183.92L18.029 183.987C12.927 184.013 7.13664 184.829 3.89253 179.905Z" fill="#FEFEFE"/>
<path d="M43.3229 3.74292C48.0997 6.57429 49.5042 10.2973 49.514 15.6191C49.5195 18.716 49.5297 21.8461 49.5254 24.9452L49.5535 44.8487L49.7237 151.209L49.8179 189L49.8667 201.308C49.9503 210.266 49.4932 215.556 60.481 215.147C61.6466 217.585 64.1793 220.456 66.9747 220.654C71.162 220.952 75.5542 220.831 79.7533 220.814C88.815 220.767 97.8763 220.649 106.936 220.458L149.523 219.992C154.815 219.935 160.389 220.047 165.654 219.856C174.755 219.525 178.947 219.014 185.077 212.484C186.952 218.172 185.097 222.533 179.94 225.363C178.655 226.069 176.919 225.975 175.478 226.105C168.099 226.235 160.688 226.242 153.308 226.313L108.512 226.809C95.2451 227.05 81.9767 227.215 68.7078 227.306C64.5155 227.362 60.2319 227.338 56.048 227.427C46.7393 227.626 36.5932 228.173 33.2578 217.327C33.4603 217.317 33.7867 217.278 33.9526 217.397C37.0265 219.599 40.7252 221.146 44.5534 221.076C45.7898 221.053 46.4545 220.705 47.2966 219.809C47.4392 218.774 45.2219 216.14 44.6158 215.008C43.471 212.872 42.8522 209.79 42.8093 207.395C42.7176 202.257 42.7049 197.081 42.6845 191.951L42.7316 158.541L42.7783 69.751L42.707 27.0716L42.7023 16.177C42.6743 11.9118 42.2842 7.82311 43.3229 3.74292Z" fill="#E3E3E3"/>
<path d="M3.89453 179.905C11.8513 178.774 8.50367 175.995 8.55928 170.171C8.70317 156.914 8.74138 143.657 8.67389 130.399L8.62846 70.1001C8.62931 59.3675 8.62677 48.6349 8.59026 37.9031C8.58432 36.0934 7.6777 34.8067 6.76936 33.3273C5.07537 30.6378 4.66322 28.3409 7.82795 26.5627C14.1858 22.9902 20.5531 19.0758 27.1512 15.9716C27.6941 15.7163 29.2018 16.059 29.8193 16.1783C29.3839 16.9954 29.7879 18.9565 29.9182 20.0399C25.5043 22.1655 21.1219 24.3571 16.7725 26.6135C15.4953 27.2656 10.322 29.5902 9.89802 30.6468C10.1357 31.4758 9.91371 31.1561 10.5241 31.6795C11.5411 31.7485 12.4863 31.2315 13.4838 30.8641C13.3739 41.985 13.3509 53.1072 13.4159 64.2285L13.438 127.604L13.4698 156.482C13.474 159.249 13.7181 163.49 13.4893 166.132C12.3921 178.822 19.8332 176.132 29.8698 176.212L29.8745 183.92L18.031 183.987C12.929 184.013 7.13863 184.829 3.89453 179.905Z" fill="#E3E3E3"/>
<path d="M51.2383 8.65601C54.2044 8.73017 57.9744 9.28937 61.3038 9.80851C76.3583 12.1561 94.3836 15.1166 107.141 24.0497C109.894 25.978 116.664 34.9639 118.735 37.8882C137.159 63.9029 149.074 94.7658 159.108 124.852C164.651 141.449 169.804 158.174 174.562 175.015C176.615 182.037 178.557 189.091 180.388 196.176C181.628 200.969 183.071 208.253 185.075 212.484C178.945 219.015 174.752 219.526 165.651 219.856C160.387 220.047 154.813 219.935 149.521 219.992L106.933 220.458C97.8739 220.649 88.8127 220.768 79.751 220.814C75.5519 220.831 71.1596 220.952 66.9724 220.655C64.1769 220.456 61.6442 217.585 60.4787 215.147L137.835 213.783C147.537 213.574 157.198 213.819 166.934 213.33C176.207 212.864 172.684 205.124 171.354 199.179C170.358 194.724 169.055 190.184 167.869 185.772C161.686 162.587 154.555 139.667 146.497 117.07C139.813 98.1785 132.521 79.4859 123.066 61.7744C117.21 50.8035 109.462 37.745 99.1065 30.4336C85.701 20.9695 68.1906 19.1917 52.4335 16.7439C52.3894 13.37 52.2183 11.8488 51.2383 8.65601Z" fill="#FEFEFE"/>
<path d="M81.477 194.549C89.3676 194.51 97.2586 194.517 105.149 194.567C105.322 195.62 105.363 196.783 105.406 197.853C105.585 202.353 105.946 206.812 106.488 211.283C106.409 211.4 106.33 211.516 106.251 211.632C98.4199 211.705 90.5892 211.833 82.7597 212.018C82.2788 207.435 81.3259 199.049 81.477 194.549Z" fill="#00834E"/>
<path d="M70.1644 195.092C71.7637 194.923 73.6058 194.904 75.2332 194.85C75.605 200.844 75.8886 206.106 76.4671 212.123C70.9785 212.068 64.3867 212.12 58.9261 212.379C54.1085 212.491 52.819 210.31 52.8538 205.678C52.8768 202.648 52.8534 199.534 52.8398 196.499C57.7665 195.762 64.9266 195.574 70.1644 195.092Z" fill="#00834E"/>
<path d="M111.305 194.739C115.584 194.579 123.825 194.715 128.153 195.133C129.075 195.223 134.127 198.545 135.252 199.26C135.6 203.257 136.118 207.199 136.508 211.183C129.172 211.203 119.885 211.105 112.73 211.564C112.165 208.226 111.386 198.285 111.305 194.739Z" fill="#00834E"/>
<path d="M15.6167 32.6704C19.8973 33.3362 24.5544 34.0906 28.762 35.0509C28.827 40.232 29.2815 45.9714 29.5893 51.173C24.9232 51.1867 20.2572 51.2727 15.5938 51.4313L15.6167 32.6704Z" fill="#00834E"/>
<path d="M26.8413 140.73L29.8689 140.611C29.939 145.953 29.8536 151.487 29.8426 156.844C26.9109 157.206 21.9045 157.338 18.8064 157.547L15.6501 157.757C15.6845 152.272 15.6777 146.786 15.6289 141.301C19.3459 141.069 23.118 140.914 26.8413 140.73Z" fill="#00834E"/>
<path d="M27.2832 77.2171L29.914 77.2179L29.8949 93.4714C26.11 93.5183 22.3269 93.6657 18.5501 93.9138C17.5547 93.933 16.5976 94.0293 15.6069 94.1141L15.5938 77.8539C19.4843 77.5423 23.3821 77.3296 27.2832 77.2171Z" fill="#00834E"/>
<path d="M29.3473 119.413L29.6967 119.416C29.7841 119.519 29.872 119.623 29.9594 119.726C29.8906 123.816 29.8826 132.002 29.8775 135.641C25.0031 135.722 21.3256 135.896 16.4838 136.339C15.9541 136.348 16.2109 136.404 15.7168 136.155C15.5233 134.89 15.6239 132.155 15.623 130.766L15.6031 120.168C18.7632 119.746 25.8358 119.603 29.3473 119.413Z" fill="#00834E"/>
<path d="M23.1532 56.1116C25.2627 55.956 27.691 56.0472 29.798 56.1866L29.8524 72.215C27.2352 72.2158 24.8226 72.2043 22.2096 72.3821C20.0071 72.507 17.8034 72.605 15.5988 72.6762L15.5898 56.4696C18.075 56.3938 20.6616 56.2318 23.1532 56.1116Z" fill="#00834E"/>
<path d="M27.4221 98.5203L29.9425 98.4257C30.0754 103.444 29.9035 109.323 29.8933 114.407C26.1742 114.519 22.4568 114.676 18.7416 114.877C17.742 114.99 16.6257 115.052 15.6138 115.131C15.6384 109.787 15.6265 104.442 15.5781 99.0983C19.3142 99.051 23.6487 98.7177 27.4221 98.5203Z" fill="#00834E"/>
<path d="M140.988 195.221C142.256 195.26 148.225 195.139 148.938 195.435C152.495 196.909 156.985 199.917 160.451 201.822C163.461 203.516 166.53 205.108 169.534 206.814C170.914 207.599 170.349 208.846 169.615 209.863C167.229 211.075 161.586 210.73 158.649 210.716C153.084 207.248 147.156 203.723 141.521 200.356C141.232 198.658 141.054 196.943 140.988 195.221Z" fill="#E3E3E3"/>
<path d="M61.6914 141.188C65.6244 141.233 70.0154 141.544 73.9569 141.763C73.7136 147.134 73.6746 152.514 73.8393 157.888C72.1342 158.17 63.9219 157.644 62.0131 157.456C61.6778 152.613 61.7589 146.158 61.6914 141.188Z" fill="#00834E"/>
<path d="M68.559 80.8468C70.1261 80.7513 71.8994 80.4858 73.329 81.0927C73.8477 82.053 73.5951 93.6623 73.5934 95.6702C71.239 95.4345 68.8773 95.2777 66.5127 95.2001L61.019 94.7543C60.704 90.7491 60.8288 85.2918 60.8093 81.189C63.3603 81.1285 66.0016 80.9695 68.559 80.8468Z" fill="#00834E"/>
<path d="M63.7247 175.892C67.296 175.836 70.8678 175.802 74.4396 175.791C74.3717 178.365 74.3776 180.94 74.4574 183.513C70.979 183.486 67.3729 183.601 63.8851 183.668L52.7016 183.737C52.736 181.145 52.7326 178.553 52.6914 175.962L63.7247 175.892Z" fill="#E3E3E3"/>
<path d="M26.087 162.023C26.9516 161.912 28.981 161.9 29.9347 161.867L29.8821 174.074L19.5852 174.068C14.1709 173.618 15.662 167.124 15.6573 162.91C18.991 162.475 22.7084 162.267 26.087 162.023Z" fill="#00834E"/>
<path d="M59.9336 58.1506C61.9986 58.3684 63.7376 58.4805 65.8051 58.579C68.7215 62.3907 70.6413 65.4185 73.118 69.526L73.1087 74.65C69.2826 74.0072 64.5113 74.055 60.4175 73.4212C59.9769 69.0392 60.0728 62.7436 59.9336 58.1506Z" fill="#00834E"/>
<path d="M52.1094 19.4116C53.876 19.438 67.2306 21.5951 68.4835 22.2391C68.3825 22.4254 68.2824 22.6121 68.1835 22.7996C69.2556 23.7901 70.8121 23.9295 71.9577 25.0296C72.1415 25.7503 72.0961 25.7772 71.9891 26.4902C71.0557 26.6888 66.8167 24.444 65.4211 23.8771C63.1426 24.9269 60.4508 26.2089 58.3484 27.5592C63.5077 30.6795 67.2539 31.873 72.4148 35.6765C72.4518 36.5891 72.4204 37.3742 72.3868 38.279C70.3117 38.7372 69.0281 39.3416 67.1643 40.3031C68.1694 41.3299 71.1334 43.9256 71.1241 45.2046C70.852 45.3636 70.1262 45.5316 69.9212 45.3525C68.1962 43.842 66.6312 42.2335 64.8956 40.7059C63.7356 41.1556 62.7301 41.7459 61.6112 41.3717C61.0573 40.9484 60.4325 40.3867 59.8926 39.9272L62.6027 38.8881C60.399 37.407 51.853 33.9985 52.2694 31.9356L52.6119 31.8329C57.0572 34.1387 60.1108 35.7541 64.5255 38.3255L70.0014 35.9583C67.6189 34.1733 59.3166 29.9686 56.5178 28.5706C54.7754 29.2491 53.8475 29.6545 52.21 30.5389C52.3127 28.7709 52.3212 27.2105 52.3165 25.4366C53.3785 25.6625 54.0237 25.8688 55.0453 26.2042C56.8217 25.2921 59.7721 23.8213 61.3162 22.6952C58.9686 21.5222 53.4417 20.4277 52.1094 19.4116Z" fill="#F3D454"/>
<path d="M61.6336 120.305C65.4855 120.396 69.7886 120.729 73.6787 120.946C73.6983 124.369 73.6159 128.104 73.5302 131.524C69.9872 131.542 65.1285 131.851 61.6094 132.144L61.6336 120.305Z" fill="#00834E"/>
<path d="M110.337 81.5577C111.194 81.5236 111.443 81.5172 112.285 81.6306C113.577 82.5977 116.006 90.5462 116.892 92.6373L117 92.8875C120.242 92.6479 123.466 92.6339 126.79 92.3773C125.986 88.5652 124.222 85.6882 123.26 82.2563C123.96 81.8586 124.839 81.9059 125.5 82.3522C128.668 88.2012 129.12 91.1063 128.918 97.4446C128.401 96.4434 128.194 95.6293 127.075 95.3548C124.621 95.38 120.271 95.2027 118.097 95.5321C118.694 98.0916 120.02 100.943 120.725 103.93L118.794 103.863C117.821 101.21 116.751 98.0468 115.947 95.3463C113.335 95.2981 110.288 95.4153 107.743 95.1187C107.446 95.0842 107.537 95.0462 107.314 94.7172C107.277 93.8541 107.138 93.8124 107.475 93.1581C108.7 92.382 112.71 92.6488 114.48 92.6334C113.884 89.9777 111.465 84.3375 110.337 81.5577Z" fill="#F3D454"/>
<path d="M63.6305 138.188C67.4455 137.934 70.1705 138.101 73.9672 138.326C73.9706 138.528 73.9783 140.345 73.8263 140.41C71.3076 141.496 62.7774 138.971 60.897 140.484C60.4348 141.967 60.2752 157.676 61.2294 158.29C62.8631 159.341 71.8645 158.543 73.6447 159.676L73.4935 159.954C72.4681 160.29 71.1234 160.238 70.0126 160.267C64.7702 160.875 57.9437 161.464 52.8286 160.495C52.4011 159.958 52.4393 159.126 52.7186 158.53C54.0523 158.074 56.7145 158.292 58.2068 158.333C58.2786 156.293 58.1292 140.793 57.7586 140.195C56.1907 139.322 53.4096 139.543 51.3281 139.305C54.4835 138.583 60.2748 138.369 63.6305 138.188Z" fill="#FEFEFE"/>
<path d="M149.476 173.985C149.301 172.119 148.591 168.882 148.582 167.577C149.085 167.184 149.115 167.323 149.905 167.3C151.389 168.032 152.048 173.706 152.427 175.46C155.559 176.616 158.647 177.886 161.687 179.267C163.222 179.953 163.035 178.802 163.397 179.726C163.716 180.544 163.988 182.387 164.15 183.299C161.554 181.982 155.937 179.545 153.13 178.516C153.331 180.832 154.976 187.931 154.561 189.085C153.823 189.26 153.858 189.244 153.097 189.163C152.11 187.803 150.916 179.544 150.49 177.219C147.587 176.141 141.987 173.592 139.503 173.003L139.108 172.852L138.895 170.074C142.091 171.168 146.64 173.179 149.476 173.985Z" fill="#F3D454"/>
<path d="M140.445 174.343C143.541 175.451 146.71 176.772 149.772 178.001C150.105 180.041 151.568 187.724 151.562 189.111C148.842 189.07 145.923 189.149 143.189 189.177C142.377 184.14 141.359 179.339 140.445 174.343Z" fill="#F3D454"/>
<path d="M109.589 53.2764C110.412 53.2346 111.442 53.2917 112.281 53.3147C114.213 57.2308 116.101 61.1678 117.947 65.1253C119.138 65.0029 120.281 64.7561 121.456 64.5285L122.833 67.3782C121.696 67.5364 120.724 67.8288 119.62 68.1271L122.788 75.8127L120.298 75.8455C119.35 73.5963 118.557 71.1315 117.41 69.0171C117.045 68.3458 116.768 68.4165 116.159 68.3121C114.475 68.6117 109.368 69.1172 108.25 69.9245C107.818 71.1648 109.414 73.5546 109.685 75.2825C106.187 77.5704 106.544 68.8675 106.477 67.3297C109.463 66.5791 112.436 66.2061 115.356 65.4564C113.82 61.8067 110.711 56.4018 109.589 53.2764Z" fill="#F3D454"/>
<path d="M57.1919 81.4789L59.6715 81.2675C59.6762 83.7971 59.3617 93.7118 60.2552 95.2879C62.7522 97.3841 71.861 95.4588 73.4294 97.321C73.4812 97.9369 73.5818 98.413 73.3878 98.993C72.4459 99.5667 64.4679 98.6968 62.6402 98.5979C61.4984 98.4935 61.4666 98.3827 60.61 98.8737C59.6682 100.218 60.0357 102.428 60.1083 104.174C59.3328 104.319 58.3812 104.372 57.5832 104.44C57.5994 98.817 58.7505 97.9339 52.4299 97.838L52.4219 95.2278C54.048 95.3864 55.5446 95.4405 57.1779 95.5006C57.4402 91.2764 57.087 85.9239 57.1919 81.4789Z" fill="#FEFEFE"/>
<path d="M145.336 139.681C147.635 140.3 149.395 140.744 151.752 141.184C153.351 146.623 155.336 152 156.955 157.46C154.586 156.944 151.376 155.854 148.981 155.105C148.397 150.984 146.505 143.778 145.336 139.681Z" fill="#F3D454"/>
<path d="M57.4595 110.389L60.0605 110.326C60.0703 111.866 59.8742 114.913 60.6654 116.062C62.3381 116.978 71.1825 117.138 73.7008 117.271L73.7152 119.856C71.3018 119.669 62.9005 118.725 60.9001 119.434C60.1178 120.259 60.3419 122.919 60.3513 124.173C60.3148 125.399 60.3631 131.419 60.0737 131.996C59.3907 132.444 59.2884 132.279 58.3071 132.297C56.9043 131.449 58.6725 121.67 57.5452 119.273C56.5363 118.41 53.8932 118.53 52.4564 118.48L52.3906 115.961C54.15 116.108 55.6152 116.198 57.3775 116.23C57.6157 114.327 57.5053 112.315 57.4595 110.389Z" fill="#FEFEFE"/>
<path d="M141.855 138.553C142.554 138.54 142.896 138.551 143.592 138.609C144.669 139.447 147.728 153.593 148.327 155.936C151.33 156.937 154.343 157.91 157.364 158.855C157.634 159.697 157.904 160.835 158.141 161.712C154.719 161.294 152.885 160.022 149.692 159.262C149.239 159.762 149.396 159.691 149.389 160.599L149.469 160.948L149.265 161.244C148.378 161.505 148.822 161.477 147.878 161.273C146.725 160.268 146.808 159.47 146.6 157.96C143.745 156.815 140.612 156.008 137.579 154.798C137.539 154.027 137.537 153.182 137.52 152.403C140.251 153.112 142.829 154.107 145.692 154.831C144.55 149.45 142.99 144.009 141.855 138.553Z" fill="#F3D454"/>
<path d="M82.6029 30.7832C84.7468 29.9039 86.8848 29.0084 89.016 28.0976C90.1251 28.462 91.8938 29.4205 92.9936 29.9768C90.915 30.4984 87.4387 31.8713 85.4676 32.7207C89.8696 37.5025 91.592 39.3796 94.8484 45.2793C95.5055 46.0784 97.8918 44.1417 99.2755 44.6625C99.548 45.1638 99.4754 45.1983 99.4024 45.7873C98.4962 46.6457 94.2198 46.2651 92.674 46.2238C90.7567 42.2582 86.4723 36.451 83.0754 33.6508C81.6972 34.0365 79.6967 34.8497 78.3087 35.3663C78.1648 34.536 77.8809 33.4534 78.2289 32.7446C78.6479 32.4816 78.9293 32.2971 79.3236 32L79.3495 31.6454L78.1513 30.778C77.7782 30.0275 77.9212 28.9466 77.9458 28.0681L82.6029 30.7832Z" fill="#F3D454"/>
<path d="M56.1577 51.7701C56.8369 51.7369 57.2927 51.6218 57.8407 51.99C59.2652 54.6168 59.6531 54.37 62.4834 54.4382C63.2809 55.3512 63.9083 56.3029 64.5938 57.2986C63.2135 57.1375 60.0916 56.5263 59.1192 57.2189C58.409 59.1313 59.0861 71.5858 59.4299 74.0396C60.1633 74.5089 60.9668 74.84 61.761 75.2027C60.9889 75.2782 59.9133 75.2944 59.1136 75.3323C57.6556 75.363 53.4035 75.8932 52.5104 75.3472C52.5427 74.4675 52.3907 74.8285 52.9047 74.1964C53.7277 73.8648 55.583 74.0123 56.7541 73.948C56.9315 69.5323 56.336 62.3113 56.1981 57.6702C56.1514 56.1 53.5121 56.4811 52.423 55.7659C52.2647 55.202 52.3372 54.7016 52.3661 54.1126C53.3576 53.0121 55.0788 55.0175 56.1577 51.7701Z" fill="#FEFEFE"/>
<path d="M82.539 34.8761L83.0798 34.9524C85.8048 36.8537 90.1202 43.0582 91.3116 46.1338L87.8184 45.9957L82.6774 45.8316C81.2202 43.4571 80.1544 42.0434 78.4023 39.9127C78.3017 38.8527 78.2962 37.6921 78.2656 36.621L82.539 34.8761Z" fill="#F3D454"/>
<path d="M92.6027 30.8846C94.1643 30.885 98.4572 37.1031 99.0103 38.7193C99.2556 39.4375 99.2556 42.5711 99.2692 43.5309C98.1941 43.7457 96.4326 44.2704 95.4521 44.2043L95.1108 43.7913C92.9062 39.8629 90.205 36.237 87.0742 33.0042C88.8968 32.2463 90.7407 31.5393 92.6027 30.8846Z" fill="#F3D454"/>
<path d="M113.637 81.6041C116.001 81.5466 119.571 81.8057 121.973 81.9677C122.632 83.3384 125.593 90.5343 125.506 91.6292C122.878 91.6309 120.251 91.6851 117.627 91.7912C116.193 88.5225 114.907 84.9597 113.637 81.6041Z" fill="#F3D454"/>
<path d="M72.1064 166.291L74.2104 166.245C74.2822 168.677 74.2839 171.196 74.3153 173.636L65.5703 173.662C64.8792 173.683 64.4713 173.758 63.8347 173.484C63.3754 171.89 63.1802 168.583 63.0469 166.838C66.063 166.6 69.0835 166.417 72.1064 166.291Z" fill="#00834E"/>
<path d="M151.82 167.335C154.376 167.287 157.34 167.41 159.924 167.456C160.608 169.865 161.954 176 162.134 178.4C159.092 176.932 156.439 175.751 153.227 174.67C152.738 172.229 152.27 169.784 151.82 167.335Z" fill="#F3D454"/>
<path d="M73.9766 185.904L74.4711 185.991C74.8985 186.787 74.8162 187.675 74.845 188.611C67.3628 188.976 60.8958 189.406 53.4339 190.18L53.1499 190.206L52.8375 189.937C52.6499 188.766 52.7777 187.201 52.8227 185.983C59.8741 186 66.9256 185.974 73.9766 185.904Z" fill="#00834E"/>
<path d="M137.309 138.442L141.066 138.486L144.443 153.683C142.252 153.038 139.749 152.077 137.515 151.354L137.309 138.442Z" fill="#F3D454"/>
<path d="M69.6214 109.812C71.1512 109.7 73.6317 109.232 73.7794 111.183C73.8817 112.528 73.7433 114.753 73.7246 116.135C71.2577 116.045 68.5077 115.806 66.0246 115.643C64.7338 115.475 62.6791 115.419 61.3255 115.343L61.2656 110.302C64.0522 110.158 66.8374 109.995 69.6214 109.812Z" fill="#00834E"/>
<path d="M52.5625 140.666C54.2484 140.663 55.3355 140.694 57.0061 140.865C56.9518 146.335 56.976 151.806 57.0783 157.275C55.5753 157.096 54.0918 157.062 52.5803 157.003L52.5625 140.666Z" fill="#00834E"/>
<path d="M106.274 53.117C108.749 53.0441 108.528 53.2589 109.602 55.4292C111.101 58.4575 112.651 61.4999 114.045 64.575L113.863 64.9139L112.965 65.0933C110.849 65.3482 108.56 65.8141 106.449 66.1994C106.415 64.4894 105.85 53.8757 106.274 53.117Z" fill="#F3D454"/>
<path d="M139.879 119.067L144.364 119.359C145.896 123.732 147.399 128.116 148.871 132.51L143.477 132.318C142.471 128.001 141.081 123.362 139.879 119.067Z" fill="#F3D454"/>
<path d="M119.594 96.4089C121.942 96.2371 125.128 96.2695 127.538 96.2269C129.365 99.2722 128.998 100.696 128.927 104.215C126.557 103.939 124.113 103.965 121.723 103.934C121.323 102.566 119.674 97.4395 119.594 96.4089Z" fill="#F3D454"/>
<path d="M154.246 180.081C156.096 180.648 161.173 182.917 163.363 183.77L164.655 189.001L155.749 189.175C155.509 185.905 154.955 183.241 154.246 180.081Z" fill="#F3D454"/>
<path d="M135.88 110.477C136.496 111.083 137.235 114.066 137.615 115.197C139.378 115.31 141.144 115.386 142.91 115.422C143.347 116.459 143.66 117.473 144.01 118.54C142.154 118.346 140.478 118.195 138.616 118.093C139.192 120.821 140.483 124.861 141.279 127.637C141.624 128.83 142.588 131.43 142.129 132.385C141.457 132.395 140.967 132.479 140.381 132.173C139.891 131.195 139.49 129.701 139.234 128.611C137.911 122.975 134.837 116.348 135.88 110.477Z" fill="#F3D454"/>
<path d="M68.8629 51.7574C70.2123 53.4196 71.3821 54.8231 72.8384 56.4091L72.9691 65.2885C72.3498 64.6066 70.5221 61.768 69.9139 60.9015C67.7012 57.7479 65.6413 54.7179 63.1328 51.7761C65.0093 51.8072 66.9788 51.7667 68.8629 51.7574Z" fill="#E3E3E3"/>
<path d="M52.5156 119.72C53.9855 119.719 55.3085 119.776 56.778 119.854C56.9711 123.08 56.7305 129.117 56.6986 132.555L52.5678 132.731L52.5156 119.72Z" fill="#00834E"/>
<path d="M65.6714 24.9C67.7198 26.0056 69.9163 26.9569 72.0399 27.9197L72.1248 34.5462C71.2096 33.8357 69.9537 33.0075 68.9796 32.329C66.3212 30.6169 63.0032 28.9342 60.1836 27.3827C62.0083 26.5452 63.8377 25.7179 65.6714 24.9Z" fill="#F3D454"/>
<path d="M108.258 96.2622C110.625 96.3014 112.992 96.3628 115.359 96.4464C116.264 98.8558 117.02 101.319 117.621 103.823C115.365 103.794 113.11 103.706 110.859 103.559C110.165 101.066 109.189 98.6768 108.258 96.2622Z" fill="#F3D454"/>
<path d="M20.2633 27.4178C21.8096 27.4523 27.8598 28.8788 29.8755 29.3144L29.8747 33.1568L26.055 32.3495C22.4624 31.711 18.8864 31.1582 15.293 30.4754C16.6372 29.5071 18.7943 28.2987 20.2633 27.4178Z" fill="#E3E3E3"/>
<path d="M115.917 69.3052L116.303 69.2604C117.087 69.777 118.698 74.4935 119.148 75.6746L113.076 75.4909C112.689 75.4952 111.559 75.5335 111.285 75.3664C110.064 74.6214 109.368 71.9294 108.922 70.6542C111.288 70.0643 113.52 69.7041 115.917 69.3052Z" fill="#F3D454"/>
<path d="M141.832 203.322C142.849 203.717 152.962 210.092 154.024 210.915C150.2 211.005 146.376 211.073 142.551 211.119C142.417 208.577 142.091 205.868 141.832 203.322Z" fill="#00834E"/>
<path d="M61.4219 99.6788C65.4291 99.8821 69.4648 100.235 73.5048 100.438C73.5006 101.32 73.5872 102.756 73.2756 103.514C69.4878 103.633 65.1825 103.779 61.435 104.2L61.4219 99.6788Z" fill="#00834E"/>
<path d="M55.1449 81.6886C55.6645 81.6421 55.4819 81.6272 55.9722 81.7691C56.1101 82.1463 56.1844 93.1794 56.2162 94.3652L53.8147 94.0971C53.088 93.9905 53.1249 94.1082 52.6012 93.7122C52.3159 90.851 52.5074 84.9342 52.518 81.8522L55.1449 81.6886Z" fill="#00834E"/>
<path d="M163.661 195.064L165.766 195.029C166.12 197.699 166.595 200.208 167.087 202.854L162.941 200.5C161.353 199.587 157.417 197.612 156.625 196.233L156.762 195.841C157.92 194.913 161.986 195.084 163.661 195.064Z" fill="#F3D454"/>
<path d="M52.1829 37.1704C54.1439 38.2189 62.7314 43.8497 63.0612 45.607C61.1151 45.5934 59.0552 45.6633 57.1002 45.6965C55.7606 44.527 53.6668 43.1401 52.1719 42.0864L52.1829 37.1704Z" fill="#E3E3E3"/>
<path d="M52.5195 57.256C53.264 57.2662 54.2615 57.2074 54.8659 57.709C55.4156 58.1651 55.568 71.1767 55.663 72.9626L52.5382 72.8176L52.5195 57.256Z" fill="#00834E"/>
<path d="M107.309 81.3156C108.271 81.3949 109.36 81.3574 109.736 82.3185C110.926 85.3587 112.434 88.6798 113.422 91.7682C111.485 91.8428 109.284 91.7916 107.326 91.7912L107.309 81.3156Z" fill="#F3D454"/>
<path d="M55.5207 29.796C57.2694 29.4755 65.9826 34.7346 68.1223 35.9255C66.8778 36.3705 66.1885 36.7067 65.0115 37.2911C64.9487 37.3132 64.4962 37.3303 64.4478 37.2988C60.5649 34.7726 56.7482 32.846 52.5508 30.9183L55.5207 29.796Z" fill="#F3D454"/>
<path d="M28.7103 158.194C29.3572 158.09 29.117 158.056 29.7167 158.25C30.1238 158.882 29.9629 159.85 29.9324 160.649C25.9039 160.787 21.5154 161.219 17.4704 161.542C16.5294 161.659 16.585 161.795 15.818 161.493C15.4334 160.832 15.6079 159.841 15.652 159.031C20.0001 158.681 24.3533 158.402 28.7103 158.194Z" fill="#FEFEFE"/>
<path d="M55.6653 167.352C56.0991 167.282 57.4645 167.263 57.9718 167.242C58.2897 169.591 58.4718 171.341 58.6165 173.716L56.2659 173.705L52.7085 173.706L52.6211 167.658C53.5927 167.527 54.6801 167.447 55.6653 167.352Z" fill="#00834E"/>
<path d="M28.7337 73.3786L29.6145 73.3129L29.8645 73.5955C29.9146 74.5792 29.9719 74.7911 29.7168 75.7155C29.0984 75.8707 25.3606 75.9678 24.4879 76.0109C21.8241 76.1609 19.1619 76.3412 16.5018 76.5513C15.9887 76.6681 16.2514 76.6703 15.7132 76.5206C15.3859 75.7483 15.5502 74.8541 15.6105 73.9927C19.9836 73.7583 24.358 73.5537 28.7337 73.3786Z" fill="#FEFEFE"/>
<path d="M28.0843 136.895C28.7443 136.813 28.825 136.764 29.4884 136.904C30.0542 137.608 30.131 137.964 29.8063 138.814C28.8322 139.46 19.5069 139.854 17.4721 140.033C16.7891 140.123 16.5069 140.139 15.8159 140.148L15.624 139.884C15.6159 138.933 15.5799 138.7 15.8142 137.799C16.8426 137.25 26.2663 136.97 28.0843 136.895Z" fill="#FEFEFE"/>
<path d="M26.4731 115.812C27.9935 115.67 29.1374 115.252 30.0606 116.673C30.0937 117.289 30.0966 117.245 29.7762 117.773C28.8903 118.33 20.7816 118.484 18.7344 118.692L15.5294 119.099C15.5115 118.126 15.4368 117.587 15.7318 116.664C16.6839 116.09 24.6424 115.924 26.4731 115.812Z" fill="#FEFEFE"/>
<path d="M27.7385 52.2799C28.463 52.2313 28.9545 52.1115 29.5887 52.4397C30.0144 53.0612 29.859 54.1054 29.8391 54.9144C25.7614 54.688 22.4027 54.8091 18.3283 54.9975C17.2591 55.1074 16.7935 55.165 15.7349 55.1078L15.5273 54.7341C15.5711 54.0517 15.5197 53.3506 15.8856 52.8161C17.3232 52.4713 25.6675 52.3434 27.7385 52.2799Z" fill="#FEFEFE"/>
<path d="M24.5895 94.912C25.8947 94.8242 28.8607 94.4159 29.8005 95.1294C29.8998 95.9652 29.8786 96.0099 29.7754 96.8611C28.9588 97.4599 22.499 97.3589 20.7397 97.517C18.9281 97.6381 17.3147 97.8248 15.5104 98.0485C15.4972 97.2131 15.538 96.2776 15.555 95.4332C18.4892 95.2099 21.6247 95.0974 24.5895 94.912Z" fill="#FEFEFE"/>
<path d="M137.777 156.05C140.49 156.904 143.184 157.723 145.847 158.725C146.163 159.648 146.277 160.345 146.463 161.294C139.707 161.265 137.793 163.517 137.777 156.05Z" fill="#F3D454"/>
<path d="M139.074 167.257L147.516 167.331C147.69 168.873 148.186 171.171 148.478 172.751C145.627 171.343 142.226 170.504 139.617 168.794C139.075 168.439 139.131 167.844 139.074 167.257Z" fill="#F3D454"/>
<path d="M77.8368 24.0843C80.465 24.7001 84.808 26.466 87.6464 27.4135L86.1871 28.1282C84.977 28.6721 83.7499 29.1396 82.5156 29.6251C80.9994 28.9039 79.2515 27.8316 77.7748 26.9779C77.7655 26.0061 77.8046 25.0548 77.8368 24.0843Z" fill="#F3D454"/>
<path d="M113.496 53.4814C114.38 53.4929 114.693 53.3467 115.347 53.7252C116.075 54.9092 120.69 62.8087 120.767 63.6876C120.03 63.827 119.28 64.0056 118.546 64.1714C116.809 60.6342 115.125 57.0701 113.496 53.4814Z" fill="#F3D454"/>
<path d="M52.4727 99.0536L56.5245 99.1111C56.5618 100.811 56.4905 102.787 56.4714 104.508C55.1518 104.579 53.833 104.666 52.5155 104.767L52.4727 99.0536Z" fill="#00834E"/>
<path d="M122.829 68.4242L123.132 68.4442C123.934 69.1569 126.403 74.4791 126.814 75.7436C126.463 76.0897 126.044 75.9435 125.367 75.9448C124.796 75.9265 124.652 75.8984 124.087 75.7858C123.054 74.8371 121.516 70.4368 120.863 68.9305C121.334 68.7554 122.3 68.5512 122.829 68.4242Z" fill="#F3D454"/>
<path d="M136.089 120.91C136.766 121.78 139.052 130.751 139.49 132.33L139.237 132.328C138.222 132.314 137.458 132.431 136.566 132.011C135.9 131.121 136.094 122.456 136.089 120.91Z" fill="#F3D454"/>
<path d="M134.902 96.3172C136.305 96.5056 136.438 97.7604 136.932 98.9909C137.669 100.827 138.353 102.67 139.107 104.503C138.054 104.512 136.112 104.666 135.352 104.069C134.861 102.477 134.924 98.1815 134.902 96.3172Z" fill="#F3D454"/>
<path d="M139.683 175.192C140.563 179.812 141.691 184.402 142.275 189.063L139.976 187.756C139.475 183.816 139.534 179.914 139.23 175.962L139.683 175.192Z" fill="#F3D454"/>
<path d="M52.3078 20.7154C54.6164 21.5956 57.2625 22.1096 59.6874 22.6509L58.0163 23.5877C57.0074 24.1128 55.8804 24.6379 54.8507 25.1413C53.9899 24.9597 53.1308 24.7692 52.2734 24.5701L52.3078 20.7154Z" fill="#F3D454"/>
<path d="M59.5441 166.931C60.3068 166.872 61.025 166.73 61.6176 167.064C61.6536 167.216 61.6872 167.369 61.7182 167.523C61.9508 168.664 62.5726 172.924 62.031 173.758C61.2835 173.781 60.7075 173.89 60.0645 173.545C59.786 172.4 59.0814 167.871 59.5441 166.931Z" fill="#FEFEFE"/>
<path d="M136.809 110.547C138.188 110.512 139.813 110.596 141.212 110.635C141.686 111.851 142.088 113.254 142.48 114.515C140.896 114.452 139.657 114.373 138.086 114.189L136.809 110.547Z" fill="#F3D454"/>
<path d="M54.5748 110.657C55.3231 110.522 55.6894 110.455 56.234 110.926C56.7769 112.557 56.641 112.924 56.3074 114.616C55.8511 115.001 55.5247 114.85 54.7497 114.86L52.4614 114.604C52.4687 113.498 52.2148 112.106 52.6512 111.201C53.3978 110.588 53.4122 110.781 54.5748 110.657Z" fill="#00834E"/>
<path d="M105.434 40.772C106.249 41.2234 108.764 43.8246 109.266 44.7094C108.443 45.7468 108.522 45.3756 108.722 46.572L109.064 46.751C108.447 47.0025 108.27 46.9424 107.606 46.9432C104.502 46.947 105.314 42.8494 105.434 40.772Z" fill="#F3D454"/>
<path d="M166.645 194.779L167.251 194.987C168.058 195.902 169.414 202.46 169.79 204.069C169.476 203.991 168.58 203.781 168.422 203.58C167.265 202.103 166.724 196.488 166.645 194.779Z" fill="#F3D454"/>
<path d="M71.9027 39.1741L72.2193 39.2154C72.7864 39.8846 72.5258 43.8885 72.4969 45.0082L71.1217 43.1409C70.3492 42.2463 69.3848 41.3563 68.5312 40.5248C69.8258 39.9016 70.5423 39.6361 71.9027 39.1741Z" fill="#F3D454"/>
<path d="M63.9215 41.604C65.3413 41.6841 67.9648 44.14 68.3681 45.3585L68.0205 45.5721C66.1932 45.6198 63.5238 44.1212 63.3086 42.2105L63.9215 41.604Z" fill="#F3D454"/>
<path d="M107.463 97.0597C108.302 98.0622 109.519 102.265 109.961 103.728L107.763 103.621C107.432 101.606 107.43 99.0991 107.463 97.0597Z" fill="#F3D454"/>
<path d="M52.0039 34.4806C53.1274 34.6596 59.4369 37.8017 59.8945 38.6652L59.1182 38.912C57.8147 38.6579 52.8859 35.6045 52.0039 34.4806Z" fill="#DDB132"/>
<path d="M126.57 82.1535C127.277 82.1241 127.838 82.0171 128.46 82.3202C129.477 83.54 129.011 86.1003 128.954 87.864C128.2 86.3654 127.233 83.7762 126.57 82.1535Z" fill="#F3D454"/>
<path d="M78.4648 41.6393C79.3401 42.2058 81.0493 44.8125 81.751 45.8073C80.6741 45.8069 79.7798 45.6778 78.7161 45.5516C78.4784 44.1016 78.4869 43.1068 78.4648 41.6393Z" fill="#F3D454"/>
<path d="M94.1641 30.8215C95.3873 31.1233 97.8068 32.9338 98.9625 33.7356L98.8152 35.9988C98.6238 35.931 94.7634 31.4318 94.1641 30.8215Z" fill="#F3D454"/>
<path d="M29.7861 22.9966C30.0679 23.6521 29.9368 25.0173 29.9156 25.7968L26.8039 25.2065L26.295 25.0497L26.1914 24.8135C26.9665 24.1427 28.7793 23.4398 29.7861 22.9966Z" fill="#F3D454"/>
<path d="M150.281 138.378L150.717 138.387C151.18 138.929 151.175 138.882 151.364 139.562L151.122 139.907C150.149 140.107 149.196 139.71 148.202 139.427C146.902 139.191 145.604 138.942 144.309 138.683C146.13 138.486 148.438 138.447 150.281 138.378Z" fill="#F3D454"/>
<path d="M24.4257 25.5722C25.483 25.7227 29.012 26.1195 29.7403 26.7622L29.5701 27.1347C28.5026 26.9634 25.0501 26.483 24.25 25.9025L24.4257 25.5722Z" fill="#DDB132"/>
<path d="M52.4186 51.8264C53.2153 51.8043 54.0562 51.67 54.6937 52.0856L54.7654 52.6043C53.9182 52.6277 52.877 52.785 52.293 52.2906L52.4186 51.8264Z" fill="#00834E"/>
<path d="M164.605 184.673C165.208 185.926 165.527 187.61 165.807 188.975L165.362 188.787C164.829 187.565 164.726 186.012 164.605 184.673Z" fill="#917632"/>
<path d="M139.109 172.852L139.505 173.003L139.684 175.192L139.232 175.962C139.087 175.156 139.118 173.718 139.109 172.852Z" fill="#DDB132"/>
</svg>
