<svg width="245" height="142" viewBox="0 0 245 142" fill="none" xmlns="http://www.w3.org/2000/svg">
<g filter="url(#filter0_d_6864_6534)">
<path d="M11.4906 80.353H51.6729C54.2719 80.353 56.3788 82.4599 56.3788 85.0589V133.294C56.3788 135.893 54.2719 138 51.6729 138H11.4906C7.27994 138 5.18865 132.894 8.1897 129.94L25.8796 112.531C27.753 110.687 27.753 107.666 25.8796 105.823L8.1897 88.4129C5.18865 85.4594 7.27995 80.353 11.4906 80.353Z" fill="#AC6700"/>
<path d="M11.4906 78.0005H51.6729C54.2719 78.0005 56.3788 80.1074 56.3788 82.7064V130.942C56.3788 133.541 54.2719 135.648 51.6729 135.648H11.4906C7.27994 135.648 5.18865 130.541 8.1897 127.588L25.8796 110.178C27.753 108.334 27.753 105.314 25.8796 103.47L8.1897 86.0604C5.18865 83.1069 7.27995 78.0005 11.4906 78.0005Z" fill="url(#paint0_linear_6864_6534)"/>
<path d="M232.815 80.353H192.633C190.034 80.353 187.927 82.4599 187.927 85.0589V133.294C187.927 135.893 190.034 138 192.633 138H232.815C237.026 138 239.117 132.894 236.116 129.94L218.426 112.531C216.553 110.687 216.553 107.666 218.426 105.823L236.116 88.4129C239.117 85.4594 237.026 80.353 232.815 80.353Z" fill="#AC6700"/>
<path d="M232.815 78.0005H192.633C190.034 78.0005 187.927 80.1074 187.927 82.7064V130.942C187.927 133.541 190.034 135.648 192.633 135.648H232.815C237.026 135.648 239.117 130.541 236.116 127.588L218.426 110.178C216.553 108.334 216.553 105.314 218.426 103.47L236.116 86.0604C239.117 83.1069 237.026 78.0005 232.815 78.0005Z" fill="url(#paint1_linear_6864_6534)"/>
<path d="M56.3759 131.53V120.354V116.824H42.2812V117.412L56.3759 131.53Z" fill="#FF9900"/>
<path d="M187.926 131.53V120.353V116.824L202.021 115.059C202.021 115.059 202.608 113.294 202.608 115.059L187.926 131.53Z" fill="#FF9900"/>
<rect x="37.5879" y="60.353" width="167.962" height="60" rx="14.1176" fill="#F78A3B"/>
<rect x="37.5879" y="58" width="167.962" height="60" rx="14.1176" fill="url(#paint2_linear_6864_6534)"/>
</g>
<mask id="path-9-outside-1_6864_6534" maskUnits="userSpaceOnUse" x="100.23" y="2.7793" width="46" height="46" fill="black">
<rect fill="white" x="100.23" y="2.7793" width="46" height="46"/>
<path d="M119.457 6.91211C120.864 4.06826 124.92 4.06835 126.327 6.91211L129.748 13.8252C130.307 14.955 131.386 15.7381 132.634 15.9189L140.267 17.0254C142.763 17.3873 144.066 19.8952 143.361 22.0234C143.785 23.3252 143.529 24.848 142.389 25.957L136.878 31.3145C136.404 31.7749 136.066 32.3419 135.881 32.9561L137.075 39.8965C137.183 40.5256 137.135 41.1241 136.969 41.668L137.075 42.2871C137.613 45.4165 134.33 47.8057 131.518 46.3311L124.672 42.7412C123.557 42.1568 122.227 42.1567 121.112 42.7412L114.267 46.3311C111.454 47.8054 108.172 45.4165 108.71 42.2871L108.815 41.6689C108.649 41.1248 108.602 40.5259 108.71 39.8965L109.902 32.9541C109.717 32.3408 109.379 31.7743 108.906 31.3145L103.396 25.957C102.256 24.8478 101.999 23.3244 102.423 22.0225C101.719 19.8943 103.023 17.3871 105.519 17.0254L113.151 15.9189C114.399 15.738 115.477 14.9549 116.036 13.8252L119.457 6.91211Z"/>
</mask>
<path d="M119.457 6.91211C120.864 4.06826 124.92 4.06835 126.327 6.91211L129.748 13.8252C130.307 14.955 131.386 15.7381 132.634 15.9189L140.267 17.0254C142.763 17.3873 144.066 19.8952 143.361 22.0234C143.785 23.3252 143.529 24.848 142.389 25.957L136.878 31.3145C136.404 31.7749 136.066 32.3419 135.881 32.9561L137.075 39.8965C137.183 40.5256 137.135 41.1241 136.969 41.668L137.075 42.2871C137.613 45.4165 134.33 47.8057 131.518 46.3311L124.672 42.7412C123.557 42.1568 122.227 42.1567 121.112 42.7412L114.267 46.3311C111.454 47.8054 108.172 45.4165 108.71 42.2871L108.815 41.6689C108.649 41.1248 108.602 40.5259 108.71 39.8965L109.902 32.9541C109.717 32.3408 109.379 31.7743 108.906 31.3145L103.396 25.957C102.256 24.8478 101.999 23.3244 102.423 22.0225C101.719 19.8943 103.023 17.3871 105.519 17.0254L113.151 15.9189C114.399 15.738 115.477 14.9549 116.036 13.8252L119.457 6.91211Z" fill="url(#paint3_linear_6864_6534)"/>
<path d="M119.457 6.91211L121.175 7.76203L121.175 7.76198L119.457 6.91211ZM126.327 6.91211L128.045 6.06219L128.045 6.06218L126.327 6.91211ZM129.748 13.8252L131.466 12.9753L131.466 12.9753L129.748 13.8252ZM132.634 15.9189L132.909 14.0224L132.909 14.0224L132.634 15.9189ZM140.267 17.0254L140.542 15.1289L140.542 15.1289L140.267 17.0254ZM143.361 22.0234L141.542 21.4212L141.344 22.0181L141.539 22.6161L143.361 22.0234ZM142.389 25.957L143.724 27.3311L143.725 27.331L142.389 25.957ZM136.878 31.3145L135.542 29.9404L135.542 29.9405L136.878 31.3145ZM135.881 32.9561L134.046 32.4028L133.916 32.8356L133.992 33.281L135.881 32.9561ZM137.075 39.8965L138.964 39.5719L138.964 39.5715L137.075 39.8965ZM136.969 41.668L135.136 41.1091L135.003 41.5443L135.08 41.9927L136.969 41.668ZM137.075 42.2871L138.964 41.9625L138.964 41.9624L137.075 42.2871ZM131.518 46.3311L130.628 48.0282L130.628 48.0282L131.518 46.3311ZM124.672 42.7412L125.562 41.0441L125.562 41.044L124.672 42.7412ZM121.112 42.7412L120.222 41.0441L120.222 41.0441L121.112 42.7412ZM114.267 46.3311L115.156 48.0283L115.157 48.0282L114.267 46.3311ZM108.71 42.2871L110.599 42.6118L110.599 42.6094L108.71 42.2871ZM108.815 41.6689L110.704 41.9912L110.781 41.5438L110.648 41.1097L108.815 41.6689ZM108.71 39.8965L110.599 40.2211L110.599 40.2209L108.71 39.8965ZM109.902 32.9541L111.791 33.2785L111.868 32.8327L111.737 32.3998L109.902 32.9541ZM108.906 31.3145L107.57 32.6884L107.57 32.6884L108.906 31.3145ZM103.396 25.957L104.732 24.5831L104.732 24.583L103.396 25.957ZM102.423 22.0225L104.245 22.6155L104.44 22.0176L104.242 21.4207L102.423 22.0225ZM105.519 17.0254L105.793 18.9219L105.793 18.9219L105.519 17.0254ZM113.151 15.9189L113.426 17.8155L113.426 17.8154L113.151 15.9189ZM116.036 13.8252L114.319 12.9753L114.319 12.9753L116.036 13.8252ZM119.457 6.91211L121.175 7.76198C121.878 6.34018 123.906 6.34004 124.61 7.76204L126.327 6.91211L128.045 6.06218C125.934 1.79666 119.85 1.79633 117.739 6.06224L119.457 6.91211ZM126.327 6.91211L124.61 7.76203L128.031 14.6751L129.748 13.8252L131.466 12.9753L128.045 6.06219L126.327 6.91211ZM129.748 13.8252L128.03 14.6751C128.869 16.3696 130.487 17.5442 132.359 17.8155L132.634 15.9189L132.909 14.0224C132.285 13.9321 131.745 13.5404 131.466 12.9753L129.748 13.8252ZM132.634 15.9189L132.359 17.8155L139.992 18.9219L140.267 17.0254L140.542 15.1289L132.909 14.0224L132.634 15.9189ZM140.267 17.0254L139.992 18.9219C141.216 19.0994 141.902 20.3352 141.542 21.4212L143.361 22.0234L145.181 22.6257C146.23 19.4552 144.309 15.6752 140.542 15.1289L140.267 17.0254ZM143.361 22.0234L141.539 22.6161C141.756 23.2847 141.625 24.0269 141.053 24.5831L142.389 25.957L143.725 27.331C145.434 25.6692 145.813 23.3657 145.184 21.4308L143.361 22.0234ZM142.389 25.957L141.053 24.583L135.542 29.9404L136.878 31.3145L138.214 32.6885L143.724 27.3311L142.389 25.957ZM136.878 31.3145L135.542 29.9405C134.831 30.632 134.323 31.4831 134.046 32.4028L135.881 32.9561L137.716 33.5093C137.809 33.2007 137.978 32.9177 138.214 32.6884L136.878 31.3145ZM135.881 32.9561L133.992 33.281L135.187 40.2215L137.075 39.8965L138.964 39.5715L137.769 32.6311L135.881 32.9561ZM137.075 39.8965L135.187 40.2211C135.243 40.5489 135.216 40.845 135.136 41.1091L136.969 41.668L138.802 42.2268C139.053 41.4032 139.124 40.5023 138.964 39.5719L137.075 39.8965ZM136.969 41.668L135.08 41.9927L135.187 42.6118L137.075 42.2871L138.964 41.9624L138.857 41.3433L136.969 41.668ZM137.075 42.2871L135.187 42.6117C135.455 44.1765 133.814 45.3712 132.408 44.6339L131.518 46.3311L130.628 48.0282C134.846 50.2402 139.771 46.6565 138.964 41.9625L137.075 42.2871ZM131.518 46.3311L132.408 44.6339L125.562 41.0441L124.672 42.7412L123.782 44.4383L130.628 48.0282L131.518 46.3311ZM124.672 42.7412L125.562 41.044C123.89 40.1674 121.894 40.1673 120.222 41.0441L121.112 42.7412L122.002 44.4384C122.559 44.1462 123.225 44.1461 123.782 44.4384L124.672 42.7412ZM121.112 42.7412L120.222 41.0441L113.377 44.6339L114.267 46.3311L115.157 48.0282L122.002 44.4383L121.112 42.7412ZM114.267 46.3311L113.377 44.6338C111.971 45.3709 110.33 44.1768 110.599 42.6118L108.71 42.2871L106.821 41.9625C106.015 46.6562 110.938 50.24 115.156 48.0283L114.267 46.3311ZM108.71 42.2871L110.599 42.6094L110.704 41.9912L108.815 41.6689L106.926 41.3466L106.821 41.9648L108.71 42.2871ZM108.815 41.6689L110.648 41.1097C110.568 40.848 110.542 40.5517 110.599 40.2211L108.71 39.8965L106.821 39.5718C106.662 40.5001 106.73 41.4017 106.983 42.2282L108.815 41.6689ZM108.71 39.8965L110.599 40.2209L111.791 33.2785L109.902 32.9541L108.014 32.6297L106.821 39.5721L108.71 39.8965ZM109.902 32.9541L111.737 32.3998C111.459 31.4821 110.953 30.6317 110.242 29.9405L108.906 31.3145L107.57 32.6884C107.805 32.9169 107.975 33.1994 108.068 33.5084L109.902 32.9541ZM108.906 31.3145L110.242 29.9405L104.732 24.5831L103.396 25.957L102.061 27.3309L107.57 32.6884L108.906 31.3145ZM103.396 25.957L104.732 24.583C104.159 24.026 104.028 23.283 104.245 22.6155L102.423 22.0225L100.601 21.4294C99.9704 23.3658 100.352 25.6697 102.061 27.331L103.396 25.957ZM102.423 22.0225L104.242 21.4207C103.883 20.3351 104.569 19.0994 105.793 18.9219L105.519 17.0254L105.244 15.1289C101.477 15.6748 99.5547 19.4536 100.603 22.6242L102.423 22.0225ZM105.519 17.0254L105.793 18.9219L113.426 17.8155L113.151 15.9189L112.876 14.0224L105.244 15.1289L105.519 17.0254ZM113.151 15.9189L113.426 17.8154C115.298 17.5439 116.916 16.369 117.754 14.6751L116.036 13.8252L114.319 12.9753C114.039 13.5407 113.499 13.9321 112.876 14.0225L113.151 15.9189ZM116.036 13.8252L117.754 14.6751L121.175 7.76203L119.457 6.91211L117.739 6.06219L114.319 12.9753L116.036 13.8252Z" fill="white" mask="url(#path-9-outside-1_6864_6534)"/>
<g filter="url(#filter1_d_6864_6534)">
<path d="M119.621 6.94238C121.028 4.09848 125.084 4.09848 126.491 6.94238L129.912 13.8558C130.471 14.9856 131.55 15.7683 132.797 15.9491L140.43 17.0553C143.577 17.5114 144.832 21.3799 142.552 23.5963L137.041 28.9539C136.135 29.8349 135.722 31.1059 135.936 32.3514L137.238 39.9264C137.776 43.056 134.494 45.4449 131.681 43.9702L124.836 40.3805C123.721 39.7961 122.39 39.7961 121.276 40.3805L114.43 43.9702C111.618 45.4449 108.335 43.056 108.873 39.9264L110.176 32.3514C110.39 31.1059 109.976 29.8349 109.07 28.9539L103.56 23.5963C101.28 21.3799 102.535 17.5114 105.682 17.0553L113.314 15.9491C114.562 15.7683 115.641 14.9856 116.2 13.8558L119.621 6.94238Z" fill="url(#paint4_linear_6864_6534)"/>
</g>
<mask id="path-12-outside-2_6864_6534" maskUnits="userSpaceOnUse" x="66.3271" y="18.9556" width="37" height="38" fill="black">
<rect fill="white" x="66.3271" y="18.9556" width="37" height="38"/>
<path d="M81.374 23.0884C82.7812 20.2445 86.837 20.2445 88.2441 23.0884L90.373 27.3911C90.9321 28.5209 92.0113 29.304 93.2588 29.4849L98.0039 30.1724C100.424 30.5231 101.722 32.8915 101.157 34.9751C101.492 36.2298 101.208 37.6537 100.126 38.7056L96.7051 42.0308C96.1939 42.5278 95.8384 43.1491 95.665 43.8198L96.4082 48.1431C96.5068 48.7164 96.4762 49.2646 96.3447 49.769L96.4082 50.1353C96.9461 53.2647 93.6638 55.6529 90.8516 54.1782L86.5889 51.9438C85.4743 51.3594 84.1439 51.3594 83.0293 51.9438L78.7666 54.1782C75.9544 55.6529 72.6712 53.2646 73.209 50.1353L73.2715 49.7661C73.1407 49.2626 73.1106 48.7152 73.209 48.1431L73.9521 43.8218C73.7789 43.1504 73.4247 42.5282 72.9131 42.0308L69.4922 38.7056C68.4106 37.654 68.1257 36.2305 68.46 34.9761C67.8945 32.8922 69.194 30.5231 71.6143 30.1724L76.3594 29.4849C77.6068 29.304 78.6851 28.5208 79.2441 27.3911L81.374 23.0884Z"/>
</mask>
<path d="M81.374 23.0884C82.7812 20.2445 86.837 20.2445 88.2441 23.0884L90.373 27.3911C90.9321 28.5209 92.0113 29.304 93.2588 29.4849L98.0039 30.1724C100.424 30.5231 101.722 32.8915 101.157 34.9751C101.492 36.2298 101.208 37.6537 100.126 38.7056L96.7051 42.0308C96.1939 42.5278 95.8384 43.1491 95.665 43.8198L96.4082 48.1431C96.5068 48.7164 96.4762 49.2646 96.3447 49.769L96.4082 50.1353C96.9461 53.2647 93.6638 55.6529 90.8516 54.1782L86.5889 51.9438C85.4743 51.3594 84.1439 51.3594 83.0293 51.9438L78.7666 54.1782C75.9544 55.6529 72.6712 53.2646 73.209 50.1353L73.2715 49.7661C73.1407 49.2626 73.1106 48.7152 73.209 48.1431L73.9521 43.8218C73.7789 43.1504 73.4247 42.5282 72.9131 42.0308L69.4922 38.7056C68.4106 37.654 68.1257 36.2305 68.46 34.9761C67.8945 32.8922 69.194 30.5231 71.6143 30.1724L76.3594 29.4849C77.6068 29.304 78.6851 28.5208 79.2441 27.3911L81.374 23.0884Z" fill="url(#paint5_linear_6864_6534)"/>
<path d="M81.374 23.0884L83.0915 23.9385L83.0916 23.9382L81.374 23.0884ZM88.2441 23.0884L89.9617 22.2386L89.9617 22.2385L88.2441 23.0884ZM90.373 27.3911L88.6555 28.2409L88.6555 28.241L90.373 27.3911ZM93.2588 29.4849L92.9839 31.3814L92.984 31.3814L93.2588 29.4849ZM98.0039 30.1724L98.2788 28.2759L98.2787 28.2758L98.0039 30.1724ZM101.157 34.9751L99.3077 34.4736L99.1728 34.971L99.3056 35.469L101.157 34.9751ZM100.126 38.7056L101.462 40.0797L101.462 40.0796L100.126 38.7056ZM96.7051 42.0308L95.3694 40.6566L95.3692 40.6568L96.7051 42.0308ZM95.665 43.8198L93.8097 43.3402L93.7067 43.7388L93.7764 44.1445L95.665 43.8198ZM96.4082 48.1431L94.5196 48.4677L94.5196 48.4678L96.4082 48.1431ZM96.3447 49.769L94.4904 49.2856L94.3857 49.6873L94.4566 50.0963L96.3447 49.769ZM96.4082 50.1353L98.2968 49.8106L98.2964 49.808L96.4082 50.1353ZM90.8516 54.1782L91.7415 52.4811L91.7412 52.4809L90.8516 54.1782ZM86.5889 51.9438L85.6989 53.641L85.6992 53.6411L86.5889 51.9438ZM83.0293 51.9438L83.919 53.6411L83.9192 53.641L83.0293 51.9438ZM78.7666 54.1782L77.8769 52.4809L77.8767 52.4811L78.7666 54.1782ZM73.209 50.1353L75.0976 50.4598L75.0984 50.4552L73.209 50.1353ZM73.2715 49.7661L75.1609 50.086L75.2294 49.6814L75.1263 49.2843L73.2715 49.7661ZM73.209 48.1431L71.3204 47.8183L71.3204 47.8183L73.209 48.1431ZM73.9521 43.8218L75.8408 44.1466L75.9105 43.7412L75.8077 43.343L73.9521 43.8218ZM72.9131 42.0308L74.2489 40.6568L74.2488 40.6566L72.9131 42.0308ZM69.4922 38.7056L68.1563 40.0796L68.1565 40.0797L69.4922 38.7056ZM68.46 34.9761L70.3117 35.4694L70.4444 34.9715L70.3094 34.4742L68.46 34.9761ZM71.6143 30.1724L71.3395 28.2758L71.3394 28.2758L71.6143 30.1724ZM76.3594 29.4849L76.6342 31.3814L76.6344 31.3814L76.3594 29.4849ZM79.2441 27.3911L77.5267 26.541L77.5266 26.5412L79.2441 27.3911ZM81.374 23.0884L83.0916 23.9382C83.7952 22.5163 85.823 22.5163 86.5266 23.9382L88.2441 23.0884L89.9617 22.2385C87.8509 17.9727 81.7672 17.9727 79.6565 22.2385L81.374 23.0884ZM88.2441 23.0884L86.5266 23.9382L88.6555 28.2409L90.373 27.3911L92.0906 26.5413L89.9617 22.2386L88.2441 23.0884ZM90.373 27.3911L88.6555 28.241C89.4939 29.9355 91.1125 31.1101 92.9839 31.3814L93.2588 29.4849L93.5337 27.5884C92.9101 27.498 92.3702 27.1063 92.0906 26.5412L90.373 27.3911ZM93.2588 29.4849L92.984 31.3814L97.7291 32.0689L98.0039 30.1724L98.2787 28.2758L93.5336 27.5883L93.2588 29.4849ZM98.0039 30.1724L97.729 32.0689C98.9148 32.2408 99.5977 33.4041 99.3077 34.4736L101.157 34.9751L103.007 35.4766C103.847 32.3789 101.933 28.8055 98.2788 28.2759L98.0039 30.1724ZM101.157 34.9751L99.3056 35.469C99.4767 36.1105 99.334 36.8029 98.7901 37.3316L100.126 38.7056L101.462 40.0796C103.082 38.5046 103.507 36.3491 103.009 34.4812L101.157 34.9751ZM100.126 38.7056L98.7903 37.3314L95.3694 40.6566L96.7051 42.0308L98.0408 43.4049L101.462 40.0797L100.126 38.7056ZM96.7051 42.0308L95.3692 40.6568C94.6034 41.4013 94.07 42.3331 93.8097 43.3402L95.665 43.8198L97.5204 44.2994C97.6068 43.9652 97.7843 43.6543 98.0409 43.4047L96.7051 42.0308ZM95.665 43.8198L93.7764 44.1445L94.5196 48.4677L96.4082 48.1431L98.2968 47.8184L97.5537 43.4952L95.665 43.8198ZM96.4082 48.1431L94.5196 48.4678C94.5716 48.7702 94.5537 49.0429 94.4904 49.2856L96.3447 49.769L98.1991 50.2525C98.3988 49.4863 98.442 48.6626 98.2968 47.8183L96.4082 48.1431ZM96.3447 49.769L94.4566 50.0963L94.52 50.4625L96.4082 50.1353L98.2964 49.808L98.2329 49.4418L96.3447 49.769ZM96.4082 50.1353L94.5196 50.4599C94.7885 52.0244 93.1478 53.2185 91.7415 52.4811L90.8516 54.1782L89.9616 55.8754C94.1798 58.0873 99.1037 54.505 98.2968 49.8106L96.4082 50.1353ZM90.8516 54.1782L91.7412 52.4809L87.4785 50.2466L86.5889 51.9438L85.6992 53.6411L89.9619 55.8755L90.8516 54.1782ZM86.5889 51.9438L87.4788 50.2467C85.8069 49.37 83.8113 49.37 82.1394 50.2467L83.0293 51.9438L83.9192 53.641C84.4765 53.3488 85.1416 53.3488 85.6989 53.641L86.5889 51.9438ZM83.0293 51.9438L82.1396 50.2466L77.8769 52.4809L78.7666 54.1782L79.6563 55.8755L83.919 53.6411L83.0293 51.9438ZM78.7666 54.1782L77.8767 52.4811C76.47 53.2187 74.8288 52.0239 75.0976 50.4598L73.209 50.1353L71.3203 49.8107C70.5135 54.5054 75.4388 58.087 79.6565 55.8754L78.7666 54.1782ZM73.209 50.1353L75.0984 50.4552L75.1609 50.086L73.2715 49.7661L71.382 49.4462L71.3195 49.8153L73.209 50.1353ZM73.2715 49.7661L75.1263 49.2843C75.0634 49.0424 75.0456 48.77 75.0976 48.4678L73.209 48.1431L71.3204 47.8183C71.1756 48.6604 71.2179 49.4827 71.4167 50.2479L73.2715 49.7661ZM73.209 48.1431L75.0976 48.4679L75.8408 44.1466L73.9521 43.8218L72.0635 43.497L71.3204 47.8183L73.209 48.1431ZM73.9521 43.8218L75.8077 43.343C75.5482 42.3374 75.0172 41.4037 74.2489 40.6568L72.9131 42.0308L71.5772 43.4047C71.8323 43.6527 72.0096 43.9634 72.0966 44.3006L73.9521 43.8218ZM72.9131 42.0308L74.2488 40.6566L70.8279 37.3314L69.4922 38.7056L68.1565 40.0797L71.5774 43.4049L72.9131 42.0308ZM69.4922 38.7056L70.828 37.3316C70.2839 36.8025 70.141 36.1101 70.3117 35.4694L68.46 34.9761L66.6082 34.4827C66.1105 36.3509 66.5373 38.5055 68.1563 40.0796L69.4922 38.7056ZM68.46 34.9761L70.3094 34.4742C70.0193 33.4053 70.7024 32.2409 71.8891 32.0689L71.6143 30.1724L71.3394 28.2758C67.6856 28.8054 65.7696 32.3792 66.6105 35.478L68.46 34.9761ZM71.6143 30.1724L71.889 32.0689L76.6342 31.3814L76.3594 29.4849L76.0846 27.5883L71.3395 28.2758L71.6143 30.1724ZM76.3594 29.4849L76.6344 31.3814C78.5062 31.1099 80.1235 29.9349 80.9617 28.241L79.2441 27.3911L77.5266 26.5412C77.2468 27.1067 76.7074 27.498 76.0844 27.5884L76.3594 29.4849ZM79.2441 27.3911L80.9616 28.2413L83.0915 23.9385L81.374 23.0884L79.6566 22.2382L77.5267 26.541L79.2441 27.3911Z" fill="white" mask="url(#path-12-outside-2_6864_6534)"/>
<g filter="url(#filter2_d_6864_6534)">
<path d="M81.5133 23.1123C82.9205 20.2684 86.9764 20.2684 88.3836 23.1123L90.5129 27.4157C91.0719 28.5455 92.1508 29.3282 93.3983 29.509L98.1433 30.1967C101.29 30.6527 102.545 34.5212 100.265 36.7377L96.8444 40.0636C95.9383 40.9445 95.5247 42.2156 95.7388 43.4611L96.5481 48.1673C97.0863 51.2969 93.8033 53.6859 90.991 52.2112L86.7283 49.9759C85.6137 49.3914 84.2831 49.3914 83.1685 49.9759L78.9058 52.2112C76.0935 53.6859 72.8106 51.2969 73.3487 48.1674L74.158 43.4611C74.3722 42.2156 73.9586 40.9445 73.0525 40.0636L69.6316 36.7377C67.3519 34.5212 68.6069 30.6527 71.7536 30.1967L76.4985 29.509C77.746 29.3282 78.8249 28.5455 79.3839 27.4157L81.5133 23.1123Z" fill="url(#paint6_linear_6864_6534)"/>
</g>
<mask id="path-15-outside-3_6864_6534" maskUnits="userSpaceOnUse" x="141.665" y="18.9546" width="37" height="38" fill="black">
<rect fill="white" x="141.665" y="18.9546" width="37" height="38"/>
<path d="M156.712 23.0874C158.119 20.2435 162.175 20.2435 163.582 23.0874L165.711 27.3901C166.27 28.5199 167.349 29.3031 168.597 29.4839L173.342 30.1714C175.762 30.5222 177.06 32.8905 176.495 34.9741C176.83 36.2288 176.546 37.6526 175.464 38.7046L172.043 42.0308C171.532 42.5279 171.176 43.1489 171.003 43.8198L171.746 48.1421C171.845 48.7154 171.814 49.2637 171.683 49.7681L171.746 50.1343C172.284 53.2638 169.002 55.6528 166.189 54.1782L161.927 51.9429C160.812 51.3584 159.482 51.3586 158.367 51.9429L154.104 54.1782C151.292 55.6529 148.009 53.2639 148.547 50.1343L148.609 49.7651C148.479 49.2616 148.448 48.7142 148.547 48.1421L149.289 43.8218C149.116 43.1504 148.763 42.5282 148.251 42.0308L144.83 38.7046C143.748 37.6529 143.463 36.2297 143.798 34.9751C143.232 32.8913 144.532 30.5222 146.952 30.1714L151.697 29.4839C152.945 29.303 154.023 28.5198 154.582 27.3901L156.712 23.0874Z"/>
</mask>
<path d="M156.712 23.0874C158.119 20.2435 162.175 20.2435 163.582 23.0874L165.711 27.3901C166.27 28.5199 167.349 29.3031 168.597 29.4839L173.342 30.1714C175.762 30.5222 177.06 32.8905 176.495 34.9741C176.83 36.2288 176.546 37.6526 175.464 38.7046L172.043 42.0308C171.532 42.5279 171.176 43.1489 171.003 43.8198L171.746 48.1421C171.845 48.7154 171.814 49.2637 171.683 49.7681L171.746 50.1343C172.284 53.2638 169.002 55.6528 166.189 54.1782L161.927 51.9429C160.812 51.3584 159.482 51.3586 158.367 51.9429L154.104 54.1782C151.292 55.6529 148.009 53.2639 148.547 50.1343L148.609 49.7651C148.479 49.2616 148.448 48.7142 148.547 48.1421L149.289 43.8218C149.116 43.1504 148.763 42.5282 148.251 42.0308L144.83 38.7046C143.748 37.6529 143.463 36.2297 143.798 34.9751C143.232 32.8913 144.532 30.5222 146.952 30.1714L151.697 29.4839C152.945 29.303 154.023 28.5198 154.582 27.3901L156.712 23.0874Z" fill="url(#paint7_linear_6864_6534)"/>
<path d="M156.712 23.0874L158.429 23.9375L158.429 23.9373L156.712 23.0874ZM163.582 23.0874L165.3 22.2376L165.3 22.2375L163.582 23.0874ZM165.711 27.3901L163.993 28.24L163.993 28.24L165.711 27.3901ZM168.597 29.4839L168.322 31.3804L168.322 31.3804L168.597 29.4839ZM173.342 30.1714L173.617 28.2749L173.617 28.2749L173.342 30.1714ZM176.495 34.9741L174.646 34.4726L174.511 34.9702L174.644 35.4682L176.495 34.9741ZM175.464 38.7046L176.8 40.0785L176.8 40.0785L175.464 38.7046ZM172.043 42.0308L173.379 43.4047L173.379 43.4047L172.043 42.0308ZM171.003 43.8198L169.148 43.3404L169.045 43.7389L169.114 44.1446L171.003 43.8198ZM171.746 48.1421L169.857 48.4668L169.857 48.4669L171.746 48.1421ZM171.683 49.7681L169.828 49.2846L169.724 49.6863L169.794 50.0954L171.683 49.7681ZM171.746 50.1343L173.635 49.8095L173.634 49.807L171.746 50.1343ZM166.189 54.1782L165.299 55.8754L165.3 55.8754L166.189 54.1782ZM161.927 51.9429L162.817 50.2457L162.817 50.2457L161.927 51.9429ZM158.367 51.9429L157.477 50.2456L157.477 50.2457L158.367 51.9429ZM154.104 54.1782L154.994 55.8754L154.994 55.8754L154.104 54.1782ZM148.547 50.1343L150.435 50.459L150.436 50.4542L148.547 50.1343ZM148.609 49.7651L150.499 50.085L150.567 49.6805L150.464 49.2833L148.609 49.7651ZM148.547 48.1421L150.435 48.4669L150.436 48.4665L148.547 48.1421ZM149.289 43.8218L151.178 44.1462L151.247 43.7411L151.145 43.3431L149.289 43.8218ZM148.251 42.0308L149.587 40.6569L149.587 40.6568L148.251 42.0308ZM144.83 38.7046L146.166 37.3307L146.166 37.3306L144.83 38.7046ZM143.798 34.9751L145.65 35.4687L145.782 34.9706L145.647 34.4732L143.798 34.9751ZM146.952 30.1714L146.677 28.2749L146.677 28.2749L146.952 30.1714ZM151.697 29.4839L151.972 31.3804L151.972 31.3804L151.697 29.4839ZM154.582 27.3901L152.865 26.54L152.864 26.5403L154.582 27.3901ZM156.712 23.0874L158.429 23.9373C159.133 22.5153 161.161 22.5153 161.864 23.9373L163.582 23.0874L165.3 22.2375C163.189 17.9717 157.105 17.9717 154.994 22.2375L156.712 23.0874ZM163.582 23.0874L161.864 23.9372L163.993 28.24L165.711 27.3901L167.429 26.5403L165.3 22.2376L163.582 23.0874ZM165.711 27.3901L163.993 28.24C164.832 29.9345 166.45 31.1092 168.322 31.3804L168.597 29.4839L168.872 27.5874C168.248 27.497 167.708 27.1054 167.429 26.5403L165.711 27.3901ZM168.597 29.4839L168.322 31.3804L173.067 32.0679L173.342 30.1714L173.617 28.2749L168.871 27.5874L168.597 29.4839ZM173.342 30.1714L173.067 32.0679C174.253 32.2398 174.936 33.4032 174.646 34.4726L176.495 34.9741L178.345 35.4756C179.185 32.3779 177.271 28.8046 173.617 28.2749L173.342 30.1714ZM176.495 34.9741L174.644 35.4682C174.815 36.1093 174.672 36.8017 174.128 37.3307L175.464 38.7046L176.8 40.0785C178.419 38.5036 178.845 36.3484 178.347 34.48L176.495 34.9741ZM175.464 38.7046L174.128 37.3307L170.707 40.6568L172.043 42.0308L173.379 43.4047L176.8 40.0785L175.464 38.7046ZM172.043 42.0308L170.707 40.6568C169.941 41.4013 169.408 42.3328 169.148 43.3404L171.003 43.8198L172.858 44.2992C172.945 43.9651 173.122 43.6545 173.379 43.4047L172.043 42.0308ZM171.003 43.8198L169.114 44.1446L169.857 48.4668L171.746 48.1421L173.635 47.8174L172.892 43.4951L171.003 43.8198ZM171.746 48.1421L169.857 48.4669C169.909 48.7692 169.892 49.0419 169.828 49.2846L171.683 49.7681L173.537 50.2515C173.737 49.4854 173.78 48.6616 173.635 47.8173L171.746 48.1421ZM171.683 49.7681L169.794 50.0954L169.858 50.4616L171.746 50.1343L173.634 49.807L173.571 49.4408L171.683 49.7681ZM171.746 50.1343L169.857 50.459C170.127 52.0241 168.485 53.2182 167.079 52.481L166.189 54.1782L165.3 55.8754C169.518 58.0874 174.442 54.5036 173.635 49.8095L171.746 50.1343ZM166.189 54.1782L167.079 52.4811L162.817 50.2457L161.927 51.9429L161.037 53.64L165.299 55.8754L166.189 54.1782ZM161.927 51.9429L162.817 50.2457C161.145 49.369 159.149 49.3693 157.477 50.2456L158.367 51.9429L159.257 53.6401C159.814 53.3479 160.48 53.3479 161.037 53.64L161.927 51.9429ZM158.367 51.9429L157.477 50.2457L153.215 52.4811L154.104 54.1782L154.994 55.8754L159.257 53.64L158.367 51.9429ZM154.104 54.1782L153.215 52.4811C151.808 53.2185 150.166 52.0236 150.435 50.459L148.547 50.1343L146.658 49.8095C145.851 54.5041 150.776 58.0873 154.994 55.8754L154.104 54.1782ZM148.547 50.1343L150.436 50.4542L150.499 50.085L148.609 49.7651L146.72 49.4452L146.657 49.8144L148.547 50.1343ZM148.609 49.7651L150.464 49.2833C150.401 49.0414 150.384 48.769 150.435 48.4669L148.547 48.1421L146.658 47.8173C146.513 48.6595 146.556 49.4818 146.755 50.247L148.609 49.7651ZM148.547 48.1421L150.436 48.4665L151.178 44.1462L149.289 43.8218L147.4 43.4973L146.658 47.8176L148.547 48.1421ZM149.289 43.8218L151.145 43.3431C150.886 42.3388 150.356 41.4048 149.587 40.6569L148.251 42.0308L146.915 43.4047C147.169 43.6517 147.346 43.962 147.433 44.3004L149.289 43.8218ZM148.251 42.0308L149.587 40.6568L146.166 37.3307L144.83 38.7046L143.494 40.0785L146.915 43.4047L148.251 42.0308ZM144.83 38.7046L146.166 37.3306C145.621 36.8013 145.479 36.1091 145.65 35.4687L143.798 34.9751L141.946 34.4815C141.448 36.3502 141.875 38.5045 143.494 40.0786L144.83 38.7046ZM143.798 34.9751L145.647 34.4732C145.357 33.4044 146.04 32.2399 147.227 32.0679L146.952 30.1714L146.677 28.2749C143.024 28.8044 141.107 32.3782 141.948 35.477L143.798 34.9751ZM146.952 30.1714L147.227 32.0679L151.972 31.3804L151.697 29.4839L151.422 27.5874L146.677 28.2749L146.952 30.1714ZM151.697 29.4839L151.972 31.3804C153.844 31.1089 155.461 29.934 156.3 28.24L154.582 27.3901L152.864 26.5403C152.585 27.1057 152.045 27.497 151.422 27.5874L151.697 29.4839ZM154.582 27.3901L156.299 28.2403L158.429 23.9375L156.712 23.0874L154.994 22.2373L152.865 26.54L154.582 27.3901Z" fill="white" mask="url(#path-15-outside-3_6864_6534)"/>
<g filter="url(#filter3_d_6864_6534)">
<path d="M156.851 23.1123C158.258 20.2684 162.314 20.2684 163.721 23.1123L165.851 27.4157C166.41 28.5455 167.489 29.3282 168.736 29.509L173.481 30.1967C176.628 30.6527 177.883 34.5212 175.603 36.7377L172.182 40.0636C171.276 40.9445 170.863 42.2156 171.077 43.4611L171.886 48.1673C172.424 51.2969 169.141 53.6859 166.329 52.2112L162.066 49.9759C160.952 49.3914 159.621 49.3914 158.506 49.9759L154.244 52.2112C151.431 53.6859 148.148 51.2969 148.687 48.1674L149.496 43.4611C149.71 42.2156 149.296 40.9445 148.39 40.0636L144.969 36.7377C142.69 34.5212 143.945 30.6527 147.091 30.1967L151.836 29.509C153.084 29.3282 154.163 28.5455 154.722 27.4157L156.851 23.1123Z" fill="url(#paint8_linear_6864_6534)"/>
</g>
<defs>
<filter id="filter0_d_6864_6534" x="6.77539" y="58" width="230.755" height="83.5294" filterUnits="userSpaceOnUse" color-interpolation-filters="sRGB">
<feFlood flood-opacity="0" result="BackgroundImageFix"/>
<feColorMatrix in="SourceAlpha" type="matrix" values="0 0 0 0 0 0 0 0 0 0 0 0 0 0 0 0 0 0 127 0" result="hardAlpha"/>
<feOffset dy="3.52941"/>
<feComposite in2="hardAlpha" operator="out"/>
<feColorMatrix type="matrix" values="0 0 0 0 0.827451 0 0 0 0 0.847059 0 0 0 0 1 0 0 0 1 0"/>
<feBlend mode="normal" in2="BackgroundImageFix" result="effect1_dropShadow_6864_6534"/>
<feBlend mode="normal" in="SourceGraphic" in2="effect1_dropShadow_6864_6534" result="shape"/>
</filter>
<filter id="filter1_d_6864_6534" x="102.395" y="4.80957" width="41.3223" height="42.4819" filterUnits="userSpaceOnUse" color-interpolation-filters="sRGB">
<feFlood flood-opacity="0" result="BackgroundImageFix"/>
<feColorMatrix in="SourceAlpha" type="matrix" values="0 0 0 0 0 0 0 0 0 0 0 0 0 0 0 0 0 0 127 0" result="hardAlpha"/>
<feOffset dy="2.87449"/>
<feComposite in2="hardAlpha" operator="out"/>
<feColorMatrix type="matrix" values="0 0 0 0 1 0 0 0 0 0.392 0 0 0 0 0.2 0 0 0 1 0"/>
<feBlend mode="normal" in2="BackgroundImageFix" result="effect1_dropShadow_6864_6534"/>
<feBlend mode="normal" in="SourceGraphic" in2="effect1_dropShadow_6864_6534" result="shape"/>
</filter>
<filter id="filter2_d_6864_6534" x="68.4668" y="20.9795" width="32.9639" height="34.5532" filterUnits="userSpaceOnUse" color-interpolation-filters="sRGB">
<feFlood flood-opacity="0" result="BackgroundImageFix"/>
<feColorMatrix in="SourceAlpha" type="matrix" values="0 0 0 0 0 0 0 0 0 0 0 0 0 0 0 0 0 0 127 0" result="hardAlpha"/>
<feOffset dy="2.87449"/>
<feComposite in2="hardAlpha" operator="out"/>
<feColorMatrix type="matrix" values="0 0 0 0 1 0 0 0 0 0.392 0 0 0 0 0.2 0 0 0 1 0"/>
<feBlend mode="normal" in2="BackgroundImageFix" result="effect1_dropShadow_6864_6534"/>
<feBlend mode="normal" in="SourceGraphic" in2="effect1_dropShadow_6864_6534" result="shape"/>
</filter>
<filter id="filter3_d_6864_6534" x="143.805" y="20.9795" width="32.9639" height="34.5532" filterUnits="userSpaceOnUse" color-interpolation-filters="sRGB">
<feFlood flood-opacity="0" result="BackgroundImageFix"/>
<feColorMatrix in="SourceAlpha" type="matrix" values="0 0 0 0 0 0 0 0 0 0 0 0 0 0 0 0 0 0 127 0" result="hardAlpha"/>
<feOffset dy="2.87449"/>
<feComposite in2="hardAlpha" operator="out"/>
<feColorMatrix type="matrix" values="0 0 0 0 1 0 0 0 0 0.392 0 0 0 0 0.2 0 0 0 1 0"/>
<feBlend mode="normal" in2="BackgroundImageFix" result="effect1_dropShadow_6864_6534"/>
<feBlend mode="normal" in="SourceGraphic" in2="effect1_dropShadow_6864_6534" result="shape"/>
</filter>
<linearGradient id="paint0_linear_6864_6534" x1="28.1894" y1="78.0005" x2="28.1894" y2="135.648" gradientUnits="userSpaceOnUse">
<stop stop-color="#F83E00"/>
<stop offset="1" stop-color="#F78A3B"/>
</linearGradient>
<linearGradient id="paint1_linear_6864_6534" x1="216.116" y1="78.0005" x2="216.116" y2="135.648" gradientUnits="userSpaceOnUse">
<stop stop-color="#F83E00"/>
<stop offset="1" stop-color="#F78A3B"/>
</linearGradient>
<linearGradient id="paint2_linear_6864_6534" x1="121.569" y1="58" x2="121.569" y2="118" gradientUnits="userSpaceOnUse">
<stop stop-color="#FF9900"/>
<stop offset="1" stop-color="#FD7901"/>
</linearGradient>
<linearGradient id="paint3_linear_6864_6534" x1="122.892" y1="0.886501" x2="122.892" y2="51.8817" gradientUnits="userSpaceOnUse">
<stop offset="0.25" stop-color="#FFEE37"/>
<stop offset="1" stop-color="#F78A3B"/>
</linearGradient>
<linearGradient id="paint4_linear_6864_6534" x1="123.056" y1="0" x2="123.056" y2="52.5963" gradientUnits="userSpaceOnUse">
<stop offset="0.25" stop-color="#FFEE37"/>
<stop offset="1" stop-color="#F78A3B"/>
</linearGradient>
<linearGradient id="paint5_linear_6864_6534" x1="84.808" y1="17.8348" x2="84.808" y2="58.7169" gradientUnits="userSpaceOnUse">
<stop offset="0.25" stop-color="#FFEE37"/>
<stop offset="1" stop-color="#F78A3B"/>
</linearGradient>
<linearGradient id="paint6_linear_6864_6534" x1="84.9484" y1="16.1699" x2="84.9484" y2="60.0002" gradientUnits="userSpaceOnUse">
<stop offset="0.25" stop-color="#FFEE37"/>
<stop offset="1" stop-color="#F78A3B"/>
</linearGradient>
<linearGradient id="paint7_linear_6864_6534" x1="160.146" y1="17.8337" x2="160.146" y2="58.7169" gradientUnits="userSpaceOnUse">
<stop offset="0.25" stop-color="#FFEE37"/>
<stop offset="1" stop-color="#F78A3B"/>
</linearGradient>
<linearGradient id="paint8_linear_6864_6534" x1="160.286" y1="16.1699" x2="160.286" y2="60.0002" gradientUnits="userSpaceOnUse">
<stop offset="0.25" stop-color="#FFEE37"/>
<stop offset="1" stop-color="#F78A3B"/>
</linearGradient>
</defs>
</svg>
