<svg width="179" height="80" viewBox="0 0 179 80" fill="none" xmlns="http://www.w3.org/2000/svg">
<path opacity="0.4" d="M27.7431 4.11377C2.43056 4.11377 1.38541 14.3677 0.0138292 24.2307V56.2338C0.0138292 69.2638 -1.6746 78.4712 32.261 79.5507H149.367C175.069 79.5507 178.319 70.2925 178.319 58.7479V23.3159C178.319 13.029 174.144 4.11377 154.174 4.11377H27.7431Z" fill="#202628"/>
<path d="M27.7431 0C2.43056 0 1.38541 10.2539 0.0138292 20.1169V52.12C0.0138292 65.15 -1.6746 74.3575 32.261 75.4369H149.367C175.069 75.4369 178.319 66.1787 178.319 54.6341V19.2021C178.319 8.91527 174.144 0 154.174 0H27.7431Z" fill="#BB9F68"/>
<path d="M32.0343 2.74316C8.48288 2.74316 6.87127 11.2305 5.49969 19.7576V47.4265C5.49969 58.6927 4.66166 67.2074 36.2382 67.2074H145.199C169.113 67.2074 172.832 59.5814 172.832 49.6004V18.9662C172.832 10.0729 168.253 2.74316 149.672 2.74316H32.0343Z" fill="#FCF2D1"/>
<path d="M38.569 24.8037C38.569 25.05 38.4612 25.204 38.2456 25.2656C37.8761 25.2964 37.522 25.4196 37.1832 25.6351C36.8753 25.8199 36.552 25.9585 36.2132 26.0508C35.8129 26.02 35.428 26.0354 35.0584 26.097C34.6889 26.1586 34.2886 26.1432 33.8575 26.0508C33.7959 26.1124 33.7189 26.174 33.6265 26.2356C33.5341 26.2972 33.4417 26.3588 33.3494 26.4204C33.2262 26.4204 33.0876 26.4358 32.9336 26.4666C32.7797 26.4974 32.6257 26.5128 32.4717 26.5128H31.3169C31.0706 26.5128 30.8242 26.5281 30.5779 26.5589C30.3315 26.5589 30.0852 26.5435 29.8388 26.5128C29.5617 26.5128 29.3153 26.5743 29.0998 26.6975C28.8842 26.7899 28.6532 26.8361 28.4069 26.8361C28.2837 26.8361 28.1759 26.8515 28.0836 26.8823C27.9912 26.8823 27.8988 26.8977 27.8064 26.9285C27.5908 26.8669 27.3753 26.8207 27.1597 26.7899C26.975 26.7283 26.7748 26.8053 26.5592 27.0209C26.4053 27.5444 26.2667 28.0833 26.1435 28.6376C26.0511 29.1918 25.9741 29.7307 25.9126 30.2542C25.8202 30.8085 25.8202 31.332 25.9126 31.8247C25.9434 31.8863 25.9588 31.9479 25.9588 32.0095C25.9895 32.0711 26.0203 32.1327 26.0511 32.1943H27.4369C27.6524 32.2867 27.868 32.3944 28.0836 32.5176C28.3299 32.6408 28.5763 32.7794 28.8226 32.9333C28.8842 32.9641 28.9612 32.9949 29.0536 33.0257C29.1767 33.0257 29.2999 33.0411 29.4231 33.0719C29.5155 33.1027 29.6233 33.1335 29.7464 33.1643C29.8696 33.1951 29.9928 33.2413 30.116 33.3029C30.3315 33.3029 30.5317 33.2413 30.7165 33.1181C30.9012 32.9949 31.1014 32.9179 31.3169 32.8871H31.5479C31.7019 32.8871 31.8404 32.9025 31.9636 32.9333C32.1176 32.9641 32.2562 32.9641 32.3793 32.9333C32.7797 32.841 33.18 32.841 33.5803 32.9333C33.9806 32.9949 34.3656 33.0257 34.7351 33.0257C34.9814 33.0257 35.2124 33.0719 35.428 33.1643C35.6743 33.2567 35.9053 33.3645 36.1208 33.4876C36.244 34.5346 36.2902 35.597 36.2594 36.6748C36.2594 37.7218 36.244 38.7688 36.2132 39.8158C36.2132 39.939 36.167 40.016 36.0746 40.0468C35.9823 40.0776 35.8899 40.0776 35.7975 40.0468C35.7359 40.016 35.6589 39.9852 35.5665 39.9544C35.5049 39.9236 35.4126 39.8928 35.2894 39.862H32.6103C32.3331 39.8312 32.0714 39.8312 31.825 39.862C31.6095 39.8928 31.3785 39.8928 31.1322 39.862C30.8858 39.8312 30.6395 39.8158 30.3931 39.8158C30.1468 39.785 29.885 39.7543 29.6079 39.7235C29.3923 39.6927 29.1613 39.6773 28.915 39.6773C28.6686 39.6773 28.4069 39.6619 28.1297 39.6311C27.9758 39.6311 27.8064 39.6003 27.6216 39.5387C27.4677 39.4771 27.3137 39.4309 27.1597 39.4001C26.9442 39.4309 26.7748 39.5079 26.6516 39.6311C26.5592 39.7543 26.4361 39.8774 26.2821 40.0006C26.2513 40.0622 26.2051 40.1546 26.1435 40.2778C26.1127 40.3701 26.0665 40.4625 26.0049 40.5549C26.0357 40.6473 26.0511 40.7551 26.0511 40.8782C26.2051 41.063 26.2975 41.2786 26.3283 41.5249C26.3899 41.7405 26.4207 41.9714 26.4207 42.2178C26.4207 42.5873 26.4361 42.9568 26.4669 43.3264C26.5284 43.6959 26.5284 44.0654 26.4669 44.435C26.4669 44.7429 26.4669 45.0509 26.4669 45.3588C26.4976 45.6667 26.5746 45.9593 26.6978 46.2364C26.7286 46.298 26.744 46.4058 26.744 46.5598C26.5592 46.9909 26.3129 47.4066 26.0049 47.8069C25.697 48.0225 25.3891 48.1611 25.0811 48.2227C24.804 48.315 24.496 48.4382 24.1573 48.5922C24.0341 48.5614 23.8955 48.546 23.7416 48.546C23.6184 48.546 23.4798 48.546 23.3258 48.546C23.2027 48.5768 23.0025 48.6846 22.7254 48.8693H21.1549C20.9085 48.8693 20.6468 48.8693 20.3696 48.8693C20.1233 48.9001 19.8461 48.9155 19.5382 48.9155C19.2302 48.9155 19.0147 48.7769 18.8915 48.4998C18.8607 48.3766 18.8453 48.2381 18.8453 48.0841C18.8453 47.9301 18.8299 47.7607 18.7991 47.576C18.7067 47.422 18.6297 47.2834 18.5681 47.1603C18.5066 47.0063 18.445 46.8677 18.3834 46.7445C18.3526 46.5598 18.3218 46.375 18.291 46.1902C18.291 46.0055 18.2756 45.8361 18.2448 45.6821C18.3372 45.405 18.4142 45.1432 18.4758 44.8969C18.5681 44.6505 18.6605 44.3888 18.7529 44.1116C18.6297 43.4034 18.5527 42.6797 18.522 41.9406C18.4912 41.1708 18.5374 40.4009 18.6605 39.6311C18.6605 39.4771 18.6297 39.3077 18.5681 39.123C18.5374 38.9382 18.5681 38.738 18.6605 38.5225C18.8453 38.1837 18.8453 37.8604 18.6605 37.5525C18.6297 37.3369 18.5989 37.1213 18.5681 36.9058C18.5681 36.6902 18.5989 36.4747 18.6605 36.2591C18.7221 36.1667 18.7529 36.0589 18.7529 35.9358C18.7529 35.8126 18.7529 35.6894 18.7529 35.5662C18.7837 35.4123 18.7683 35.2429 18.7067 35.0581C18.6451 34.8734 18.6297 34.6886 18.6605 34.5038C18.7221 34.3499 18.7529 34.1959 18.7529 34.0419C18.7837 33.8572 18.7991 33.6724 18.7991 33.4876C18.7991 33.2721 18.8145 33.0565 18.8453 32.841C18.8761 32.6254 18.9223 32.4252 18.9839 32.2405C18.9531 32.0249 18.9223 31.8401 18.8915 31.6862C18.8915 31.5014 18.8761 31.3166 18.8453 31.1319C18.9993 30.7931 19.0763 30.4544 19.0763 30.1157C19.107 29.7461 19.1224 29.3766 19.1224 29.0071C19.1224 28.7607 19.1224 28.5144 19.1224 28.268C19.1224 28.0217 19.1378 27.7907 19.1686 27.5752C19.1994 27.3288 19.2148 27.0978 19.2148 26.8823C19.2456 26.6359 19.261 26.405 19.261 26.1894C19.261 26.1278 19.2456 26.0662 19.2148 26.0046C19.2148 25.9123 19.2302 25.8353 19.261 25.7737C19.3842 25.5273 19.4304 25.2964 19.3996 25.0808C19.3996 24.8345 19.415 24.6035 19.4458 24.388C19.4458 24.2032 19.4458 24.0184 19.4458 23.8337C19.4766 23.6181 19.5074 23.4179 19.5382 23.2332C19.5074 23.0792 19.4612 22.9098 19.3996 22.7251C19.338 22.5403 19.2918 22.3863 19.261 22.2632C19.2918 22.1092 19.3226 21.9552 19.3534 21.8012C19.415 21.6473 19.4458 21.4933 19.4458 21.3393C19.4766 20.9698 19.7229 20.7234 20.1848 20.6003C20.7391 20.4155 21.3242 20.2769 21.9401 20.1845C22.1557 20.1845 22.325 20.123 22.4482 19.9998C22.5714 19.9382 22.71 19.9074 22.8639 19.9074C23.0487 19.9382 23.2335 19.9382 23.4182 19.9074C23.6338 19.8766 23.8493 19.8458 24.0649 19.815C24.3113 19.661 24.5884 19.5841 24.8964 19.5841C25.4814 19.5533 26.0665 19.4763 26.6516 19.3531C27.2367 19.2299 27.8218 19.1529 28.4069 19.1221C28.7148 19.0914 29.0074 19.076 29.2845 19.076C29.5617 19.0452 29.8542 19.076 30.1622 19.1683C30.4085 19.1991 30.6549 19.2299 30.9012 19.2607C31.1476 19.2607 31.3939 19.2607 31.6403 19.2607C31.7635 19.2607 31.8866 19.2607 32.0098 19.2607C32.133 19.2299 32.2562 19.2145 32.3793 19.2145C32.8105 19.1837 33.1338 19.1837 33.3494 19.2145C33.5649 19.2145 33.7805 19.2299 33.996 19.2607C34.2116 19.2915 34.5349 19.3531 34.9661 19.4455C35.1816 19.4763 35.3818 19.5071 35.5665 19.5379C35.7821 19.5379 35.9823 19.5687 36.167 19.6303C36.5058 19.7842 36.8753 19.892 37.2756 19.9536C37.4296 19.9844 37.5528 20.046 37.6451 20.1384C37.7375 20.1999 37.8145 20.2615 37.8761 20.3231C37.9993 20.8158 37.9993 21.2931 37.8761 21.755C37.9685 22.0322 38.0609 22.3555 38.1532 22.7251C38.1532 22.7559 38.1379 22.8328 38.1071 22.956C38.1071 23.0484 38.1071 23.1254 38.1071 23.187C38.1071 23.341 38.1225 23.4333 38.1532 23.4641C38.2148 23.5873 38.2764 23.7259 38.338 23.8798C38.3996 24.003 38.4458 24.1262 38.4766 24.2494C38.5382 24.3418 38.569 24.4341 38.569 24.5265C38.569 24.6189 38.569 24.7113 38.569 24.8037ZM57.8553 22.4017C57.9477 22.6173 57.9938 22.8482 57.9938 23.0946C58.0246 23.3409 57.9631 23.5873 57.8091 23.8337C57.7475 23.9568 57.7167 24.08 57.7167 24.2032C57.7475 24.2956 57.7629 24.4187 57.7629 24.5727C57.7013 24.6651 57.6243 24.7575 57.5319 24.8499C57.4396 24.9115 57.3626 25.0038 57.301 25.127C57.2394 25.1886 57.1778 25.2656 57.1162 25.358C57.0854 25.4504 57.0084 25.5273 56.8853 25.5889C56.7313 25.5581 56.5465 25.5427 56.331 25.5427C56.1154 25.5427 55.9152 25.5427 55.7305 25.5427C55.2686 25.5427 54.8528 25.6659 54.4833 25.9123C54.3601 26.0354 54.237 26.1278 54.1138 26.1894C53.9906 26.2202 53.8674 26.2664 53.7443 26.328C53.5595 26.5128 53.4979 26.6975 53.5595 26.8823V27.7599C53.5903 28.0371 53.6211 28.3142 53.6519 28.5914C53.7135 28.8377 53.7289 29.1149 53.6981 29.4228C53.6673 29.4844 53.6673 29.5768 53.6981 29.7C53.7289 29.7923 53.7596 29.8693 53.7904 29.9309C53.7596 30.0541 53.7135 30.1619 53.6519 30.2542C53.6211 30.3158 53.5903 30.4082 53.5595 30.5314C53.5903 30.6546 53.6211 30.7777 53.6519 30.9009C53.6827 30.9933 53.7135 31.1011 53.7443 31.2243C53.7443 31.3782 53.7289 31.486 53.6981 31.5476C53.6365 31.7324 53.5749 31.9171 53.5133 32.1019C53.4825 32.2867 53.4363 32.4714 53.3747 32.6562C53.2823 32.8718 53.2669 33.0719 53.3285 33.2567C53.3901 33.4414 53.3747 33.6262 53.2823 33.811C53.2823 34.4577 53.2515 35.0889 53.19 35.7048C53.1284 36.3207 53.0822 36.9366 53.0514 37.5525C53.0514 38.3531 53.19 39.1692 53.4671 40.0006C53.5903 40.2778 53.7904 40.4163 54.0676 40.4163C54.1292 40.3855 54.1908 40.3393 54.2524 40.2778C54.3447 40.2162 54.4371 40.17 54.5295 40.1392C54.6219 40.1392 54.6989 40.17 54.7605 40.2316C55.0068 40.5087 55.284 40.6935 55.5919 40.7859C56.0846 40.909 56.2232 41.1554 56.0076 41.5249C55.9152 41.7405 55.869 41.9714 55.869 42.2178C55.8998 42.4641 55.8998 42.7105 55.869 42.9568C55.8075 43.6343 55.7767 44.3272 55.7767 45.0355C55.7767 45.7129 55.8229 46.4058 55.9152 47.1141C55.9152 47.4528 55.8844 47.6684 55.8229 47.7607C55.7921 47.8839 55.6073 48.0687 55.2686 48.315H55.13C54.8836 48.2842 54.6373 48.2534 54.3909 48.2227C54.1754 48.1919 53.9598 48.1611 53.7443 48.1303C53.1592 48.2227 52.6357 48.2688 52.1737 48.2688C51.9582 48.2996 51.7426 48.3458 51.5271 48.4074C51.3423 48.4998 51.1267 48.5306 50.8804 48.4998C50.634 48.4382 50.3877 48.4382 50.1413 48.4998C49.895 48.5614 49.6486 48.5922 49.4023 48.5922C49.2791 48.5306 49.1559 48.4844 49.0327 48.4536C48.9404 48.4228 48.8172 48.3766 48.6632 48.315C47.9241 48.4382 47.1851 48.5152 46.446 48.546C45.707 48.5768 44.9525 48.6076 44.1827 48.6384C44.0287 48.4228 43.8747 48.2227 43.7207 48.0379C43.5668 47.8839 43.4282 47.7146 43.305 47.5298C43.2434 47.3142 43.1203 47.1295 42.9355 46.9755C42.7815 46.8215 42.6275 46.6829 42.4736 46.5598C42.4428 46.2518 42.3812 45.9593 42.2888 45.6821C42.2272 45.4358 42.2272 45.1894 42.2888 44.9431C42.3812 44.7891 42.412 44.6351 42.3812 44.4812C42.3196 44.204 42.3042 43.9269 42.335 43.6497C42.3966 43.3418 42.4582 43.0492 42.5198 42.7721V42.2178C42.7661 42.1562 43.0125 42.11 43.2588 42.0792C43.5052 42.0176 43.7515 42.0176 43.9979 42.0792C44.1211 42.0176 44.2288 41.956 44.3212 41.8944C44.4136 41.8021 44.5214 41.7097 44.6446 41.6173C44.7985 41.6789 44.9525 41.7405 45.1065 41.8021C45.2605 41.8637 45.4298 41.9252 45.6146 41.9868C45.9225 41.8021 46.2767 41.5557 46.677 41.2478C46.7386 41.063 46.7694 40.9244 46.7694 40.832C46.7694 40.4933 46.7694 40.1546 46.7694 39.8158C46.7694 39.4463 46.7848 39.0922 46.8156 38.7534V38.6149C46.6924 38.3069 46.6462 38.0144 46.677 37.7372C46.7078 37.4601 46.7078 37.1675 46.677 36.8596V36.2591C46.7386 35.5508 46.754 34.858 46.7232 34.1805C46.7232 33.4722 46.7078 32.764 46.677 32.0557L47.0003 31.4552C46.9695 31.3012 46.9387 31.1473 46.9079 30.9933C46.8771 30.8393 46.8464 30.6854 46.8156 30.5314C46.8464 30.3774 46.8771 30.2388 46.9079 30.1157C46.9695 29.9925 47.0157 29.8539 47.0465 29.7C47.0465 29.5768 47.0311 29.4844 47.0003 29.4228C46.8464 29.0533 46.7848 28.7145 46.8156 28.4066V27.7137C46.8156 27.5905 46.7848 27.4982 46.7232 27.4366C46.6616 27.3442 46.6308 27.2364 46.6308 27.1132C46.6616 27.0516 46.677 26.9131 46.677 26.6975C46.6462 26.5128 46.6154 26.328 46.5846 26.1432C46.5538 25.9585 46.5076 25.7737 46.446 25.5889C46.2921 25.435 46.1227 25.3888 45.9379 25.4504C45.7532 25.4811 45.5838 25.4811 45.4298 25.4504C45.2758 25.3888 45.1065 25.358 44.9217 25.358C44.737 25.358 44.5368 25.358 44.3212 25.358C44.1057 25.2348 43.8593 25.1886 43.5822 25.2194C43.3358 25.2194 43.0895 25.1732 42.8431 25.0808C42.7199 24.9269 42.6583 24.7421 42.6583 24.5265C42.6891 24.311 42.6583 24.157 42.566 24.0646C42.5044 23.9414 42.5044 23.7875 42.566 23.6027C42.6275 23.3871 42.6275 23.2024 42.566 23.0484C42.6891 22.8944 42.7045 22.7867 42.6122 22.7251C42.5198 22.6635 42.5198 22.5403 42.6122 22.3555C42.7045 22.2016 42.7507 22.0322 42.7507 21.8474C42.7507 21.6319 42.8123 21.4625 42.9355 21.3393C42.9971 21.2777 43.0125 21.1854 42.9817 21.0622C42.9817 20.9082 42.9971 20.7696 43.0279 20.6465C43.0895 20.5849 43.228 20.5541 43.4436 20.5541C43.6592 20.5233 43.7823 20.4771 43.8131 20.4155C43.9363 20.2615 44.0749 20.1538 44.2288 20.0922C44.4136 20.0306 44.5984 19.9536 44.7831 19.8612C44.8447 19.8612 44.9217 19.8612 45.0141 19.8612C45.1065 19.8304 45.2143 19.815 45.3374 19.815C45.5838 19.815 45.8455 19.815 46.1227 19.815C46.3998 19.815 46.6616 19.7996 46.9079 19.7688C47.1543 19.7072 47.4006 19.661 47.647 19.6303C47.8934 19.5687 48.1551 19.5225 48.4323 19.4917C48.7094 19.4301 48.9865 19.4455 49.2637 19.5379C49.664 19.661 50.1567 19.6456 50.7418 19.4917C50.865 19.4609 50.9728 19.4301 51.0652 19.3993C51.1575 19.3685 51.2345 19.3377 51.2961 19.3069C51.5117 19.3377 51.6964 19.3685 51.8504 19.3993C52.0352 19.4301 52.1891 19.4455 52.3123 19.4455C52.4047 19.4455 52.4971 19.4301 52.5895 19.3993C52.7126 19.3685 52.805 19.3531 52.8666 19.3531C53.1746 19.3531 53.4517 19.3685 53.6981 19.3993C53.9752 19.3993 54.2524 19.4301 54.5295 19.4917C55.1146 19.5841 55.6381 19.6149 56.1 19.5841C56.254 19.5533 56.3772 19.5533 56.4695 19.5841C56.5927 19.5841 56.6697 19.5841 56.7005 19.5841C56.9161 19.6149 57.07 19.6918 57.1624 19.815C57.2856 19.9074 57.378 19.9844 57.4396 20.046C57.9323 20.5387 58.04 21.0468 57.7629 21.5703C57.7321 21.6011 57.7167 21.7089 57.7167 21.8936C57.7475 21.9552 57.7629 22.0322 57.7629 22.1246C57.7937 22.1862 57.8245 22.2786 57.8553 22.4017ZM88.6591 22.4941C88.5359 22.8328 88.4897 23.1716 88.5205 23.5103C88.5513 23.8491 88.5821 24.1878 88.6129 24.5265V24.7575C88.5821 24.9115 88.5359 25.0808 88.4743 25.2656C88.4127 25.4504 88.3511 25.6351 88.2896 25.8199C88.3819 26.3434 88.4281 26.8669 88.4281 27.3904C88.4281 27.8831 88.4281 28.3758 88.4281 28.8685C88.4281 29.1149 88.4127 29.3612 88.3819 29.6076C88.3819 29.8231 88.3973 30.0387 88.4281 30.2542C88.4281 30.4698 88.4435 30.6854 88.4743 30.9009C88.5051 31.1165 88.5359 31.3474 88.5667 31.5938C88.5051 31.9017 88.4435 32.2559 88.3819 32.6562C88.3511 33.0257 88.2588 33.3953 88.1048 33.7648C88.1048 34.1343 88.0432 34.5038 87.92 34.8734C87.8276 35.2429 87.8276 35.6124 87.92 35.982C87.8892 36.2899 87.8584 36.5978 87.8276 36.9058C87.8276 37.2137 87.8122 37.5371 87.7815 37.8758C87.7507 38.153 87.7199 38.4301 87.6891 38.7072C87.6891 38.9844 87.7199 39.2615 87.7815 39.5387C87.7815 39.8158 87.7353 40.1238 87.6429 40.4625C87.4889 40.832 87.4581 41.1708 87.5505 41.4787C87.5197 42.0638 87.4735 42.6643 87.4119 43.2802C87.3811 43.8961 87.2579 44.4966 87.0424 45.0816C87.0116 45.2048 86.9962 45.3588 86.9962 45.5436C86.9962 45.6975 87.0116 45.8053 87.0424 45.8669L86.7191 46.1902C86.4727 46.221 86.2263 46.2518 85.98 46.2826C85.7644 46.3134 85.5335 46.3442 85.2871 46.375C85.1947 46.4058 85.087 46.4674 84.9638 46.5598C84.8714 46.6214 84.7328 46.7137 84.5481 46.8369C84.1169 46.9601 83.6858 47.0679 83.2547 47.1603C82.8236 47.2218 82.3925 47.2988 81.9613 47.3912C81.7458 47.3296 81.5456 47.2988 81.3609 47.2988C81.2069 47.2988 81.0529 47.2834 80.8989 47.2526C80.7758 47.2218 80.6372 47.2064 80.4832 47.2064C80.3601 47.1757 80.2215 47.1449 80.0675 47.1141C80.0059 47.1449 79.9289 47.1757 79.8365 47.2064C79.7442 47.2372 79.6672 47.268 79.6056 47.2988L79.1437 46.8831C79.0205 46.6368 78.9589 46.4058 78.9589 46.1902C78.9897 45.9747 78.9897 45.7591 78.9589 45.5436C78.8357 45.3588 78.6818 45.2356 78.497 45.174C78.3122 45.1124 78.1429 45.0201 77.9889 44.8969C77.7733 44.6505 77.604 44.3888 77.4808 44.1116C77.3576 43.8345 77.1729 43.5881 76.9265 43.3726C76.7109 43.1878 76.5262 42.9722 76.3722 42.7259C76.249 42.4795 76.0797 42.264 75.8641 42.0792C75.7101 41.7405 75.5408 41.4171 75.356 41.1092C75.1712 40.8013 75.0019 40.4933 74.8479 40.1854C74.6939 39.9082 74.5246 39.6619 74.3398 39.4463C74.155 39.2923 73.9703 39.123 73.7855 38.9382C73.6315 38.7226 73.4622 38.5225 73.2774 38.3377C73.2466 38.1222 73.1696 37.9374 73.0464 37.7834C72.9233 37.6295 72.8001 37.4601 72.6769 37.2753C72.4305 36.8442 72.138 36.4439 71.7993 36.0743C71.4605 35.7048 71.1526 35.3045 70.8754 34.8734C70.8139 34.9042 70.7523 34.9196 70.6907 34.9196C70.6291 34.9196 70.5829 34.9504 70.5521 35.0119C70.3673 35.2891 70.275 35.6432 70.275 36.0743C70.275 36.1667 70.2904 36.2591 70.3211 36.3515C70.3519 36.4439 70.3365 36.5363 70.275 36.6286C70.2134 36.6902 70.1364 36.7518 70.044 36.8134C69.9516 36.875 69.8592 36.9366 69.7669 36.9982C69.6437 37.3061 69.5975 37.6295 69.6283 37.9682C69.6591 38.3069 69.6437 38.6457 69.5821 38.9844C69.5513 39.2923 69.5359 39.6157 69.5359 39.9544C69.5359 40.2932 69.5359 40.6165 69.5359 40.9244L69.074 41.7559C68.9508 42.187 68.92 42.6181 68.9816 43.0492C69.0432 43.4803 69.151 43.9115 69.3049 44.3426C69.2126 44.5581 69.1356 44.8045 69.074 45.0816C69.0432 45.2972 69.0124 45.5282 68.9816 45.7745C68.9508 45.9901 68.9508 46.221 68.9816 46.4674C69.0124 47.0833 68.7045 47.5144 68.0578 47.7607C67.9962 47.7607 67.9038 47.7761 67.7806 47.8069C67.5035 47.653 67.1955 47.5606 66.8568 47.5298C66.5181 47.4682 66.1793 47.3604 65.8406 47.2064C65.5326 47.0525 65.2247 46.9755 64.9168 46.9755C64.6088 46.9447 64.3163 46.9293 64.0391 46.9293C63.8852 46.8677 63.7158 46.7907 63.531 46.6983C63.3771 46.5752 63.2231 46.4982 63.0691 46.4674C62.9151 46.4058 62.7612 46.3596 62.6072 46.3288C62.4532 46.298 62.2993 46.2518 62.1453 46.1902C62.1145 46.1286 62.0837 46.0517 62.0529 45.9593C62.0529 45.8669 62.0375 45.8053 62.0067 45.7745C61.9759 45.251 61.9605 44.7583 61.9605 44.2964C61.9913 43.8037 61.9913 43.3264 61.9605 42.8645C61.9605 42.5257 61.9605 42.187 61.9605 41.8483C61.9913 41.5095 62.0067 41.1708 62.0067 40.832V40.3701C61.9759 40.2162 61.9143 40.0622 61.8219 39.9082C61.7296 39.7235 61.6988 39.5387 61.7296 39.3539C61.7604 39.1692 61.7758 38.9844 61.7758 38.7996C61.7758 38.6149 61.7758 38.4455 61.7758 38.2915C61.8373 38.1068 61.8373 37.922 61.7758 37.7372C61.745 37.5525 61.7296 37.3831 61.7296 37.2291C61.7912 36.9212 61.8681 36.6132 61.9605 36.3053C62.0529 35.9974 62.1761 35.7202 62.3301 35.4739V30.67C62.3301 30.5468 62.3147 30.4544 62.2839 30.3928C62.1299 30.0849 62.0683 29.7923 62.0991 29.5152C62.1299 29.3612 62.1453 29.2072 62.1453 29.0533C62.1761 28.8685 62.2069 28.6991 62.2377 28.5452C62.1761 28.3296 62.1145 28.114 62.0529 27.8985C61.9913 27.6829 61.9297 27.4674 61.8681 27.2518C61.9297 27.067 61.9143 26.8669 61.8219 26.6513C61.7604 26.4358 61.745 26.2202 61.7758 26.0046C61.8373 25.8199 61.9451 25.6659 62.0991 25.5427C62.2531 25.3888 62.3455 25.204 62.3762 24.9884C62.3455 24.7421 62.2377 24.5111 62.0529 24.2956C61.8681 24.0492 61.7758 23.7721 61.7758 23.4641C61.9297 23.2178 62.0837 23.0792 62.2377 23.0484C62.5764 22.9868 62.8843 22.8944 63.1615 22.7713C63.4694 22.6173 63.762 22.4479 64.0391 22.2632C64.0699 22.2324 64.1931 22.1862 64.4087 22.1246C64.5318 22.1554 64.655 22.1862 64.7782 22.217C64.9322 22.2478 65.1015 22.2786 65.2863 22.3093C65.5326 22.217 65.779 22.1554 66.0254 22.1246C66.3025 22.0938 66.595 22.0784 66.903 22.0784C67.1493 22.0784 67.3803 22.063 67.5959 22.0322C67.8422 22.0014 68.1194 21.9706 68.4273 21.9398C68.5813 21.9706 68.7352 22.0014 68.8892 22.0322C69.074 22.063 69.2587 22.0938 69.4435 22.1246C69.6899 22.2478 69.9054 22.4017 70.0902 22.5865C70.3057 22.7405 70.4597 22.9406 70.5521 23.187C70.7369 23.6181 70.9678 24.0184 71.245 24.388C71.5221 24.7575 71.7377 25.1424 71.8916 25.5427C72.0456 25.6659 72.1996 25.7737 72.3536 25.8661C72.5383 25.9585 72.6769 26.0816 72.7693 26.2356C73.0156 26.482 73.2928 26.6975 73.6007 26.8823C73.9087 27.067 74.2166 27.2364 74.5246 27.3904C74.8017 27.7599 75.0481 28.1294 75.2636 28.499C75.51 28.8685 75.8025 29.1764 76.1412 29.4228C76.2644 29.6692 76.3722 29.9155 76.4646 30.1619C76.557 30.4082 76.6494 30.6238 76.7417 30.8085C76.8649 30.9933 77.0035 31.1011 77.1575 31.1319C77.3422 31.1319 77.4962 31.1473 77.6194 31.1781C77.681 31.2089 77.7271 31.2397 77.7579 31.2705C77.8195 31.2705 77.8657 31.2859 77.8965 31.3166C78.1429 31.5322 78.343 31.7786 78.497 32.0557C78.651 32.3021 78.8049 32.5792 78.9589 32.8871C79.1129 32.9795 79.2515 33.0873 79.3746 33.2105C79.4978 33.3029 79.6364 33.3953 79.7904 33.4876C79.8519 33.5184 79.9135 33.5338 79.9751 33.5338C80.0675 33.503 80.1291 33.4876 80.1599 33.4876C80.3139 33.2721 80.437 33.0719 80.5294 32.8871C80.6526 32.6716 80.6988 32.4406 80.668 32.1943C80.6372 32.1019 80.6372 32.0095 80.668 31.9171C80.6988 31.8247 80.7142 31.717 80.7142 31.5938C80.7758 31.2243 80.8528 30.8547 80.9451 30.4852C81.0375 30.1157 81.0991 29.7307 81.1299 29.3304C81.1607 29.0533 81.1915 28.7761 81.2223 28.499C81.2531 28.191 81.2377 27.9139 81.1761 27.6675C81.2069 27.1748 81.2069 26.7129 81.1761 26.2818C81.1453 25.8199 81.1145 25.358 81.0837 24.8961C81.0529 24.2186 81.0683 23.5565 81.1299 22.9098C81.1915 22.2632 81.3147 21.6011 81.4994 20.9236C81.4994 20.8928 81.4994 20.8774 81.4994 20.8774C81.5302 20.8774 81.5456 20.862 81.5456 20.8312C81.6688 20.6773 81.792 20.5849 81.9152 20.5541C82.0691 20.4925 82.2077 20.4155 82.3309 20.3231C82.4849 20.2307 82.6388 20.1845 82.7928 20.1845C82.9468 20.1845 83.1007 20.2153 83.2547 20.2769C83.4395 20.4309 83.6396 20.5849 83.8552 20.7388C83.9168 20.7388 83.963 20.7542 83.9938 20.785C84.0554 20.8158 84.1169 20.8312 84.1785 20.8312H85.7028C85.9184 20.862 86.134 20.9082 86.3495 20.9698C86.5651 21.0006 86.7806 21.093 86.9962 21.2469C87.0578 21.2777 87.104 21.2931 87.1348 21.2931C87.1964 21.2623 87.2426 21.2623 87.2733 21.2931C87.4273 21.2315 87.5659 21.17 87.6891 21.1084C87.843 21.016 87.997 20.9544 88.151 20.9236C88.2126 20.9544 88.2588 21.0006 88.2896 21.0622C88.3511 21.093 88.4127 21.1546 88.4743 21.2469C88.5975 21.4317 88.6745 21.6319 88.7053 21.8474C88.7669 22.063 88.7515 22.2786 88.6591 22.4941ZM108.061 22.4017C108.154 22.6173 108.2 22.8482 108.2 23.0946C108.231 23.3409 108.169 23.5873 108.015 23.8337C107.953 23.9568 107.923 24.08 107.923 24.2032C107.953 24.2956 107.969 24.4187 107.969 24.5727C107.907 24.6651 107.83 24.7575 107.738 24.8499C107.646 24.9115 107.569 25.0038 107.507 25.127C107.445 25.1886 107.384 25.2656 107.322 25.358C107.291 25.4504 107.214 25.5273 107.091 25.5889C106.937 25.5581 106.752 25.5427 106.537 25.5427C106.321 25.5427 106.121 25.5427 105.936 25.5427C105.475 25.5427 105.059 25.6659 104.689 25.9123C104.566 26.0354 104.443 26.1278 104.32 26.1894C104.197 26.2202 104.073 26.2664 103.95 26.328C103.765 26.5128 103.704 26.6975 103.765 26.8823V27.7599C103.796 28.0371 103.827 28.3142 103.858 28.5914C103.919 28.8377 103.935 29.1149 103.904 29.4228C103.873 29.4844 103.873 29.5768 103.904 29.7C103.935 29.7923 103.966 29.8693 103.996 29.9309C103.966 30.0541 103.919 30.1619 103.858 30.2542C103.827 30.3158 103.796 30.4082 103.765 30.5314C103.796 30.6546 103.827 30.7777 103.858 30.9009C103.889 30.9933 103.919 31.1011 103.95 31.2243C103.95 31.3782 103.935 31.486 103.904 31.5476C103.842 31.7324 103.781 31.9171 103.719 32.1019C103.688 32.2867 103.642 32.4714 103.581 32.6562C103.488 32.8718 103.473 33.0719 103.534 33.2567C103.596 33.4414 103.581 33.6262 103.488 33.811C103.488 34.4577 103.457 35.0889 103.396 35.7048C103.334 36.3207 103.288 36.9366 103.257 37.5525C103.257 38.3531 103.396 39.1692 103.673 40.0006C103.796 40.2778 103.996 40.4163 104.274 40.4163C104.335 40.3855 104.397 40.3393 104.458 40.2778C104.551 40.2162 104.643 40.17 104.735 40.1392C104.828 40.1392 104.905 40.17 104.966 40.2316C105.213 40.5087 105.49 40.6935 105.798 40.7859C106.291 40.909 106.429 41.1554 106.214 41.5249C106.121 41.7405 106.075 41.9714 106.075 42.2178C106.106 42.4641 106.106 42.7105 106.075 42.9568C106.013 43.6343 105.983 44.3272 105.983 45.0355C105.983 45.7129 106.029 46.4058 106.121 47.1141C106.121 47.4528 106.09 47.6684 106.029 47.7607C105.998 47.8839 105.813 48.0687 105.475 48.315H105.336C105.09 48.2842 104.843 48.2534 104.597 48.2227C104.381 48.1919 104.166 48.1611 103.95 48.1303C103.365 48.2227 102.842 48.2688 102.38 48.2688C102.164 48.2996 101.949 48.3458 101.733 48.4074C101.548 48.4998 101.333 48.5306 101.086 48.4998C100.84 48.4382 100.594 48.4382 100.347 48.4998C100.101 48.5614 99.8546 48.5922 99.6082 48.5922C99.485 48.5306 99.3619 48.4844 99.2387 48.4536C99.1463 48.4228 99.0231 48.3766 98.8692 48.315C98.1301 48.4382 97.391 48.5152 96.652 48.546C95.9129 48.5768 95.1585 48.6076 94.3886 48.6384C94.2346 48.4228 94.0807 48.2227 93.9267 48.0379C93.7727 47.8839 93.6341 47.7146 93.511 47.5298C93.4494 47.3142 93.3262 47.1295 93.1414 46.9755C92.9875 46.8215 92.8335 46.6829 92.6795 46.5598C92.6487 46.2518 92.5871 45.9593 92.4948 45.6821C92.4332 45.4358 92.4332 45.1894 92.4948 44.9431C92.5871 44.7891 92.6179 44.6351 92.5871 44.4812C92.5256 44.204 92.5102 43.9269 92.541 43.6497C92.6025 43.3418 92.6641 43.0492 92.7257 42.7721V42.2178C92.9721 42.1562 93.2184 42.11 93.4648 42.0792C93.7111 42.0176 93.9575 42.0176 94.2038 42.0792C94.327 42.0176 94.4348 41.956 94.5272 41.8944C94.6196 41.8021 94.7273 41.7097 94.8505 41.6173C95.0045 41.6789 95.1585 41.7405 95.3124 41.8021C95.4664 41.8637 95.6358 41.9252 95.8205 41.9868C96.1285 41.8021 96.4826 41.5557 96.8829 41.2478C96.9445 41.063 96.9753 40.9244 96.9753 40.832C96.9753 40.4933 96.9753 40.1546 96.9753 39.8158C96.9753 39.4463 96.9907 39.0922 97.0215 38.7534V38.6149C96.8983 38.3069 96.8521 38.0144 96.8829 37.7372C96.9137 37.4601 96.9137 37.1675 96.8829 36.8596V36.2591C96.9445 35.5508 96.9599 34.858 96.9291 34.1805C96.9291 33.4722 96.9137 32.764 96.8829 32.0557L97.2063 31.4552C97.1755 31.3012 97.1447 31.1473 97.1139 30.9933C97.0831 30.8393 97.0523 30.6854 97.0215 30.5314C97.0523 30.3774 97.0831 30.2388 97.1139 30.1157C97.1755 29.9925 97.2217 29.8539 97.2525 29.7C97.2525 29.5768 97.2371 29.4844 97.2063 29.4228C97.0523 29.0533 96.9907 28.7145 97.0215 28.4066V27.7137C97.0215 27.5905 96.9907 27.4982 96.9291 27.4366C96.8675 27.3442 96.8367 27.2364 96.8367 27.1132C96.8675 27.0516 96.8829 26.9131 96.8829 26.6975C96.8521 26.5128 96.8213 26.328 96.7906 26.1432C96.7598 25.9585 96.7136 25.7737 96.652 25.5889C96.498 25.435 96.3286 25.3888 96.1439 25.4504C95.9591 25.4811 95.7897 25.4811 95.6358 25.4504C95.4818 25.3888 95.3124 25.358 95.1277 25.358C94.9429 25.358 94.7427 25.358 94.5272 25.358C94.3116 25.2348 94.0653 25.1886 93.7881 25.2194C93.5418 25.2194 93.2954 25.1732 93.0491 25.0808C92.9259 24.9269 92.8643 24.7421 92.8643 24.5265C92.8951 24.311 92.8643 24.157 92.7719 24.0646C92.7103 23.9414 92.7103 23.7875 92.7719 23.6027C92.8335 23.3871 92.8335 23.2024 92.7719 23.0484C92.8951 22.8944 92.9105 22.7867 92.8181 22.7251C92.7257 22.6635 92.7257 22.5403 92.8181 22.3555C92.9105 22.2016 92.9567 22.0322 92.9567 21.8474C92.9567 21.6319 93.0183 21.4625 93.1414 21.3393C93.203 21.2777 93.2184 21.1854 93.1876 21.0622C93.1876 20.9082 93.203 20.7696 93.2338 20.6465C93.2954 20.5849 93.434 20.5541 93.6495 20.5541C93.8651 20.5233 93.9883 20.4771 94.0191 20.4155C94.1423 20.2615 94.2808 20.1538 94.4348 20.0922C94.6196 20.0306 94.8043 19.9536 94.9891 19.8612C95.0507 19.8612 95.1277 19.8612 95.22 19.8612C95.3124 19.8304 95.4202 19.815 95.5434 19.815C95.7897 19.815 96.0515 19.815 96.3286 19.815C96.6058 19.815 96.8675 19.7996 97.1139 19.7688C97.3602 19.7072 97.6066 19.661 97.853 19.6303C98.0993 19.5687 98.3611 19.5225 98.6382 19.4917C98.9154 19.4301 99.1925 19.4455 99.4696 19.5379C99.87 19.661 100.363 19.6456 100.948 19.4917C101.071 19.4609 101.179 19.4301 101.271 19.3993C101.363 19.3685 101.44 19.3377 101.502 19.3069C101.718 19.3377 101.902 19.3685 102.056 19.3993C102.241 19.4301 102.395 19.4455 102.518 19.4455C102.611 19.4455 102.703 19.4301 102.795 19.3993C102.919 19.3685 103.011 19.3531 103.073 19.3531C103.381 19.3531 103.658 19.3685 103.904 19.3993C104.181 19.3993 104.458 19.4301 104.735 19.4917C105.321 19.5841 105.844 19.6149 106.306 19.5841C106.46 19.5533 106.583 19.5533 106.675 19.5841C106.799 19.5841 106.876 19.5841 106.906 19.5841C107.122 19.6149 107.276 19.6918 107.368 19.815C107.492 19.9074 107.584 19.9844 107.646 20.046C108.138 20.5387 108.246 21.0468 107.969 21.5703C107.938 21.6011 107.923 21.7089 107.923 21.8936C107.953 21.9552 107.969 22.0322 107.969 22.1246C108 22.1862 108.03 22.2786 108.061 22.4017ZM129.257 24.2956C129.072 24.6959 128.826 25.0346 128.518 25.3118C128.21 25.5581 127.948 25.8507 127.733 26.1894C127.487 26.251 127.24 26.3588 126.994 26.5128C126.778 26.6667 126.578 26.8207 126.393 26.9747C126.085 27.1594 125.808 27.1594 125.562 26.9747C125.439 26.9131 125.331 26.8515 125.239 26.7899C125.177 26.6975 125.085 26.6205 124.961 26.5589C124.715 26.3434 124.392 26.2664 123.991 26.328C123.961 26.3588 123.914 26.3434 123.853 26.2818V25.8199C123.822 25.7891 123.776 25.7429 123.714 25.6813C123.684 25.6197 123.637 25.5889 123.576 25.5889C122.96 25.3426 122.375 25.3272 121.82 25.5427C121.636 25.5735 121.451 25.6197 121.266 25.6813C121.081 25.7429 120.897 25.8045 120.712 25.8661C120.589 26.0508 120.466 26.2356 120.342 26.4204C120.25 26.6051 120.142 26.7745 120.019 26.9285C120.05 27.1748 120.065 27.4212 120.065 27.6675C120.096 27.9139 120.127 28.1602 120.158 28.4066C120.312 28.5914 120.45 28.7915 120.573 29.0071C120.727 29.1918 120.866 29.392 120.989 29.6076C121.266 29.8231 121.559 30.0387 121.867 30.2542C122.175 30.439 122.467 30.6546 122.744 30.9009C122.929 31.0241 123.114 31.1319 123.299 31.2243C123.514 31.2859 123.699 31.3936 123.853 31.5476C124.007 31.7016 124.145 31.8401 124.269 31.9633C124.423 32.0557 124.561 32.1789 124.684 32.3329C124.777 32.3636 124.869 32.4098 124.961 32.4714C125.054 32.533 125.146 32.5946 125.239 32.6562C125.762 32.9949 126.162 33.4568 126.44 34.0419C126.594 34.2883 126.748 34.55 126.901 34.8272C127.086 35.1043 127.256 35.3661 127.41 35.6124C127.625 35.7972 127.764 36.0128 127.825 36.2591C127.918 36.5055 128.01 36.7518 128.102 36.9982C128.133 37.029 128.149 37.0906 128.149 37.1829C128.21 37.5525 128.303 37.9066 128.426 38.2453C128.58 38.5841 128.734 38.9228 128.888 39.2615C128.98 39.6619 129.026 40.0622 129.026 40.4625C129.057 40.832 129.042 41.2016 128.98 41.5711C128.98 41.8791 128.934 42.187 128.842 42.4949C128.78 42.7721 128.688 43.0338 128.564 43.2802C128.534 43.311 128.518 43.3418 128.518 43.3726C128.518 43.4034 128.487 43.4496 128.426 43.5111C128.149 43.7883 127.918 44.0962 127.733 44.435C127.579 44.7737 127.394 45.1124 127.179 45.4512C127.148 45.482 127.132 45.5282 127.132 45.5898C127.132 45.6205 127.102 45.6513 127.04 45.6821C126.732 45.8977 126.47 46.1286 126.255 46.375C126.07 46.6214 125.854 46.8677 125.608 47.1141C125.485 47.2372 125.331 47.345 125.146 47.4374C124.961 47.5298 124.792 47.6376 124.638 47.7607L123.668 48.2227C123.36 48.2534 123.037 48.2996 122.698 48.3612C122.39 48.4228 122.067 48.5306 121.728 48.6846C121.513 48.8077 121.266 48.9001 120.989 48.9617C120.743 49.0233 120.496 49.0849 120.25 49.1465C120.127 49.1773 120.004 49.2081 119.88 49.2389C119.757 49.2697 119.634 49.3005 119.511 49.3312C119.111 49.0233 118.664 48.8693 118.171 48.8693C117.833 48.8693 117.54 48.8077 117.294 48.6846C116.924 48.5306 116.57 48.3612 116.231 48.1765C115.893 48.0225 115.585 47.8069 115.307 47.5298C115.123 47.3758 114.938 47.2372 114.753 47.1141C114.568 46.9909 114.399 46.8677 114.245 46.7445C114.122 46.6214 113.968 46.5444 113.783 46.5136C113.629 46.452 113.475 46.3904 113.321 46.3288C113.106 46.1748 112.983 46.0055 112.952 45.8207C112.983 45.5744 113.075 45.3434 113.229 45.1278C113.414 44.9123 113.568 44.6813 113.691 44.435C113.691 44.2502 113.737 44.0192 113.829 43.7421C114.107 43.3726 114.399 43.003 114.707 42.6335C115.015 42.2332 115.323 41.8329 115.631 41.4325C115.754 41.3402 115.893 41.2478 116.047 41.1554C116.201 41.0322 116.37 40.909 116.555 40.7859C117.171 40.9398 117.756 41.1092 118.31 41.294C118.864 41.4787 119.434 41.6481 120.019 41.8021C120.142 41.7713 120.235 41.7405 120.296 41.7097C120.358 41.6481 120.404 41.6019 120.435 41.5711C120.527 41.5403 120.604 41.5095 120.666 41.4787C120.727 41.4479 120.773 41.4171 120.804 41.3863H121.636C121.666 41.3248 121.697 41.2786 121.728 41.2478C121.79 41.1862 121.836 41.1246 121.867 41.063C121.99 40.7551 122.113 40.4625 122.236 40.1854C122.359 39.9082 122.436 39.6003 122.467 39.2615C122.406 39.0152 122.329 38.7534 122.236 38.4763C122.175 38.1991 122.036 37.922 121.82 37.6449C121.697 37.5525 121.559 37.4447 121.405 37.3215C121.251 37.1983 121.097 37.0752 120.943 36.952C120.419 36.8904 119.88 36.7518 119.326 36.5363C118.803 36.3207 118.279 36.2129 117.756 36.2129C117.54 36.1513 117.371 36.0589 117.248 35.9358C117.124 35.7818 116.986 35.6432 116.832 35.5201C116.616 35.4585 116.385 35.4123 116.139 35.3815C115.893 35.3507 115.692 35.2275 115.538 35.0119C115.046 34.7348 114.63 34.5346 114.291 34.4115C114.137 34.2267 113.983 34.0419 113.829 33.8572C113.706 33.6724 113.568 33.503 113.414 33.3491C113.29 33.1951 113.167 33.0103 113.044 32.7948C112.952 32.5484 112.829 32.3175 112.675 32.1019C112.551 31.9479 112.444 31.7786 112.351 31.5938C112.259 31.3782 112.166 31.1627 112.074 30.9471C111.982 30.516 111.889 30.0541 111.797 29.5614C111.859 29.2226 111.905 28.8839 111.936 28.5452C111.997 28.1756 112.043 27.8061 112.074 27.4366L111.889 26.9747C112.013 26.9131 112.105 26.8207 112.166 26.6975C112.228 26.5743 112.29 26.4512 112.351 26.328C112.413 26.1432 112.49 25.9893 112.582 25.8661C112.675 25.7429 112.705 25.5735 112.675 25.358C112.675 24.7729 112.829 24.234 113.136 23.7413C113.198 23.6181 113.244 23.5103 113.275 23.4179C113.337 23.3256 113.383 23.2332 113.414 23.1408C113.568 23.0484 113.691 22.956 113.783 22.8636C113.906 22.7405 113.983 22.6635 114.014 22.6327C114.168 22.4787 114.23 22.3401 114.199 22.217C114.168 22.063 114.168 21.9244 114.199 21.8012C114.322 21.6165 114.461 21.4317 114.615 21.2469C114.769 21.0622 114.938 20.862 115.123 20.6465C115.338 20.4925 115.569 20.3693 115.816 20.2769C116.062 20.1538 116.293 19.9844 116.508 19.7688C116.57 19.6764 116.647 19.6149 116.739 19.5841C116.832 19.5225 116.94 19.4763 117.063 19.4455C117.217 19.3531 117.386 19.2761 117.571 19.2145C117.756 19.1529 117.94 19.076 118.125 18.9836C118.433 18.922 118.741 18.8758 119.049 18.845C119.388 18.8142 119.711 18.7834 120.019 18.7526C120.05 18.7526 120.081 18.7526 120.111 18.7526C120.173 18.7218 120.235 18.7218 120.296 18.7526C120.635 18.8758 120.974 18.8758 121.312 18.7526C121.682 18.6294 122.051 18.5832 122.421 18.614C122.76 18.614 123.083 18.6602 123.391 18.7526C123.73 18.845 124.053 18.922 124.361 18.9836C124.7 19.2299 125.038 19.4609 125.377 19.6764C125.716 19.8612 126.085 20.0152 126.486 20.1384C126.609 20.2615 126.717 20.4001 126.809 20.5541C126.932 20.6773 127.055 20.8158 127.179 20.9698C127.302 21.093 127.425 21.2008 127.548 21.2931C127.671 21.3855 127.779 21.4933 127.872 21.6165C128.118 22.0784 128.349 22.5403 128.564 23.0022C128.811 23.4333 129.042 23.8645 129.257 24.2956ZM159.288 22.8174C159.258 22.9406 159.242 23.0484 159.242 23.1408C159.242 23.2332 159.242 23.3256 159.242 23.4179C159.242 23.5103 159.242 23.6181 159.242 23.7413C159.273 23.8337 159.273 23.926 159.242 24.0184C159.211 24.2032 159.211 24.3726 159.242 24.5265C159.273 24.6805 159.258 24.8345 159.196 24.9884C159.165 25.05 159.134 25.1116 159.104 25.1732C159.073 25.204 159.057 25.2502 159.057 25.3118C159.119 25.8661 159.088 26.405 158.965 26.9285C158.842 27.452 158.734 27.9909 158.642 28.5452L158.965 29.5152C158.934 29.7 158.873 29.8847 158.78 30.0695C158.719 30.2542 158.657 30.4544 158.596 30.67C158.626 30.8547 158.642 31.0549 158.642 31.2705C158.673 31.4552 158.703 31.6554 158.734 31.8709C158.673 32.0557 158.626 32.2559 158.596 32.4714C158.565 32.687 158.58 32.9025 158.642 33.1181C158.765 33.4568 158.796 33.811 158.734 34.1805C158.703 34.5192 158.703 34.858 158.734 35.1967C158.734 35.2275 158.734 35.2737 158.734 35.3353C158.734 35.3969 158.719 35.4431 158.688 35.4739C158.596 35.6894 158.549 35.9358 158.549 36.2129C158.549 36.4593 158.565 36.7056 158.596 36.952C158.657 37.2599 158.688 37.5525 158.688 37.8296C158.719 38.1068 158.811 38.3839 158.965 38.6611C158.996 38.9074 159.011 39.1692 159.011 39.4463C159.011 39.7235 159.027 39.9852 159.057 40.2316C158.996 40.3547 158.919 40.4933 158.827 40.6473C158.734 40.7705 158.657 40.8936 158.596 41.0168C158.565 41.2632 158.549 41.5095 158.549 41.7559C158.549 41.9714 158.611 42.2024 158.734 42.4487C158.765 42.4795 158.78 42.6181 158.78 42.8645C158.811 43.08 158.842 43.311 158.873 43.5573C158.904 43.7729 158.919 43.8961 158.919 43.9269C159.165 44.2348 159.165 44.5581 158.919 44.8969C158.888 44.9585 158.842 45.0201 158.78 45.0816C158.75 45.1432 158.719 45.2202 158.688 45.3126C158.75 45.5282 158.811 45.7437 158.873 45.9593C158.934 46.144 158.98 46.3442 159.011 46.5598C159.073 46.8369 159.057 47.0371 158.965 47.1603C158.873 47.2834 158.734 47.422 158.549 47.576C158.519 47.6068 158.457 47.6222 158.365 47.6222C158.272 47.653 158.195 47.6992 158.134 47.7607C158.01 47.7607 157.918 47.7761 157.857 47.8069C157.733 47.8377 157.61 47.8531 157.487 47.8531C157.395 47.8839 157.271 47.9147 157.117 47.9455L156.609 47.6222C156.486 47.5914 156.301 47.6222 156.055 47.7146C155.839 47.8377 155.639 47.8223 155.455 47.6684C155.424 47.576 155.285 47.499 155.039 47.4374C154.792 47.345 154.685 47.345 154.716 47.4374V47.4836C154.716 47.4836 154.577 47.5298 154.3 47.6222C154.023 47.7453 153.807 47.8531 153.653 47.9455C153.407 47.9147 153.099 47.7915 152.729 47.576C152.391 47.3604 152.144 47.2526 151.99 47.2526C151.867 47.0987 151.79 46.9601 151.759 46.8369C151.759 46.7137 151.759 46.5752 151.759 46.4212C151.79 46.2672 151.821 46.1286 151.852 46.0055C151.882 45.8515 151.913 45.6975 151.944 45.5436C152.098 45.2356 152.098 44.8661 151.944 44.435C151.882 44.2194 151.805 44.0192 151.713 43.8345C151.651 43.6189 151.605 43.4034 151.574 43.1878C151.544 43.0954 151.528 42.9261 151.528 42.6797C151.528 42.4333 151.498 42.2794 151.436 42.2178C151.405 42.0022 151.39 41.7867 151.39 41.5711C151.421 41.3556 151.374 41.14 151.251 40.9244C151.159 40.6165 151.174 40.2932 151.297 39.9544C151.359 39.8312 151.39 39.7235 151.39 39.6311C151.421 39.5079 151.451 39.4155 151.482 39.3539C151.544 38.9844 151.513 38.7073 151.39 38.5225C151.082 37.999 150.758 37.6141 150.42 37.3677C150.204 37.3369 149.973 37.3061 149.727 37.2753C149.48 37.2445 149.234 37.2291 148.988 37.2291C148.957 37.2291 148.895 37.2291 148.803 37.2291C148.711 37.1983 148.603 37.1675 148.48 37.1367C148.018 37.0444 147.571 37.0444 147.14 37.1367C146.74 37.2291 146.278 37.2907 145.754 37.3215C145.416 37.3215 145.092 37.1983 144.784 36.952C144.754 36.9828 144.692 37.029 144.6 37.0906C144.507 37.1213 144.43 37.1675 144.369 37.2291C144.061 37.0444 143.707 36.9058 143.306 36.8134C143.121 36.7518 142.921 36.721 142.706 36.721C142.521 36.6902 142.305 36.6594 142.059 36.6286C141.813 36.6902 141.659 36.9058 141.597 37.2753V37.691C141.659 38.0914 141.674 38.4917 141.643 38.892C141.613 39.2923 141.52 39.6773 141.366 40.0468C141.366 40.1084 141.366 40.1854 141.366 40.2778C141.366 40.3701 141.351 40.4471 141.32 40.5087C141.412 40.6319 141.489 40.7705 141.551 40.9244C141.613 41.0476 141.674 41.1708 141.736 41.294C141.643 41.6019 141.505 41.9252 141.32 42.264C141.351 42.4795 141.366 42.6951 141.366 42.9107C141.397 43.1262 141.428 43.3418 141.459 43.5573C141.489 43.6189 141.52 43.6959 141.551 43.7883C141.582 43.8499 141.613 43.9115 141.643 43.9731C141.982 44.4966 141.936 44.9893 141.505 45.4512C141.474 45.482 141.459 45.5128 141.459 45.5436C141.459 45.5744 141.428 45.6205 141.366 45.6821C141.366 45.8053 141.366 45.9439 141.366 46.0979C141.366 46.2518 141.351 46.4212 141.32 46.606C141.32 46.7291 141.274 46.8831 141.181 47.0679C141.181 47.0987 141.151 47.1295 141.089 47.1603C141.058 47.191 141.012 47.2372 140.95 47.2988C140.519 47.4528 140.134 47.576 139.796 47.6684C139.303 47.7299 138.887 47.7146 138.549 47.6222C138.241 47.5606 137.84 47.4374 137.348 47.2526C137.009 47.3142 136.655 47.3604 136.285 47.3912C135.946 47.3912 135.577 47.3296 135.177 47.2064C135.023 47.1449 134.838 47.0525 134.622 46.9293C134.438 46.8061 134.237 46.6829 134.022 46.5598C133.806 46.4674 133.591 46.375 133.375 46.2826C133.19 46.1902 133.006 46.1133 132.821 46.0517C132.728 45.7745 132.713 45.5282 132.775 45.3126C132.836 45.1278 132.882 44.9277 132.913 44.7121C132.975 44.4966 133.036 44.2964 133.098 44.1116C133.252 43.7113 133.329 43.3264 133.329 42.9568C133.206 42.8029 133.221 42.6027 133.375 42.3564C133.498 42.11 133.529 41.8483 133.468 41.5711C133.437 41.294 133.437 41.0322 133.468 40.7859C133.344 40.3547 133.314 39.9236 133.375 39.4925C133.437 39.0306 133.498 38.5995 133.56 38.1991C133.591 37.9528 133.637 37.7372 133.698 37.5525C133.76 37.3677 133.76 37.1829 133.698 36.9982C133.76 36.7518 133.868 36.5671 134.022 36.4439C134.176 36.2899 134.253 36.1205 134.253 35.9358C134.284 35.6894 134.253 35.4893 134.16 35.3353C134.099 35.1505 134.053 34.9504 134.022 34.7348C134.022 34.6424 134.022 34.5346 134.022 34.4115C134.053 34.2575 134.068 34.1189 134.068 33.9957C134.068 33.8418 134.068 33.7032 134.068 33.58C134.068 33.4568 134.083 33.3491 134.114 33.2567C134.176 33.0103 134.16 32.764 134.068 32.5176C134.006 32.2713 133.991 32.0095 134.022 31.7324C134.022 31.6708 134.006 31.6092 133.976 31.5476C133.945 31.486 133.914 31.409 133.883 31.3166C133.852 31.0703 133.852 30.8085 133.883 30.5314C133.914 30.2542 133.929 29.9925 133.929 29.7461C133.929 29.469 133.914 29.2072 133.883 28.9609C133.852 28.7145 133.852 28.4836 133.883 28.268C133.883 28.2064 133.883 28.1756 133.883 28.1756C133.914 28.1448 133.929 28.114 133.929 28.0833C133.991 28.0525 134.053 28.0525 134.114 28.0833C134.207 28.114 134.268 28.114 134.299 28.0833C134.453 27.7445 134.484 27.4212 134.391 27.1132C134.299 26.7745 134.237 26.4512 134.207 26.1432C134.299 25.9893 134.345 25.8045 134.345 25.5889C134.345 25.3426 134.299 25.204 134.207 25.1732C134.207 24.9576 134.191 24.7421 134.16 24.5265C134.16 24.311 134.145 24.0954 134.114 23.8798C134.083 23.6335 134.037 23.4025 133.976 23.187C133.914 22.9714 133.899 22.7405 133.929 22.4941C133.991 22.3093 134.053 22.1246 134.114 21.9398C134.176 21.7551 134.268 21.5703 134.391 21.3855C134.515 21.3547 134.653 21.3239 134.807 21.2931C134.992 21.2623 135.161 21.2008 135.315 21.1084C135.469 21.0468 135.592 20.9698 135.685 20.8774C135.777 20.785 135.885 20.7234 136.008 20.6926C136.254 20.6619 136.47 20.6926 136.655 20.785C136.87 20.8774 137.07 20.939 137.255 20.9698C137.686 21.0006 138.025 20.9698 138.271 20.8774C138.518 20.785 138.826 20.6003 139.195 20.3231C139.349 20.4155 139.503 20.5079 139.657 20.6003C139.842 20.6926 139.996 20.785 140.119 20.8774C140.273 20.939 140.396 21.0006 140.489 21.0622C140.612 21.1238 140.735 21.1854 140.858 21.2469C141.104 21.4009 141.228 21.6319 141.228 21.9398C141.258 22.1554 141.274 22.3555 141.274 22.5403C141.274 22.7251 141.289 22.9098 141.32 23.0946C141.32 23.3409 141.32 23.5873 141.32 23.8337C141.351 24.08 141.412 24.3264 141.505 24.5727C141.536 24.6959 141.551 24.8191 141.551 24.9422C141.551 25.0654 141.566 25.1886 141.597 25.3118C141.628 25.7121 141.628 26.2664 141.597 26.9747C141.597 27.6521 141.52 28.1756 141.366 28.5452C141.335 28.6376 141.32 28.7453 141.32 28.8685C141.474 29.0841 141.643 29.1611 141.828 29.0995C142.044 29.0379 142.244 29.0071 142.429 29.0071C142.767 29.1611 143.029 29.3304 143.214 29.5152C143.399 29.7 143.66 29.8847 143.999 30.0695C144.338 29.9155 144.646 29.8539 144.923 29.8847C145.231 29.8847 145.57 29.8231 145.939 29.7H148.11C148.911 29.7 149.696 29.6076 150.466 29.4228C150.62 29.3612 150.758 29.3304 150.882 29.3304C151.036 29.2996 151.174 29.2688 151.297 29.238C151.359 29.2072 151.421 29.1764 151.482 29.1457C151.544 29.1149 151.59 29.0841 151.621 29.0533C151.682 28.8377 151.667 28.499 151.574 28.0371C151.482 27.5444 151.436 27.2056 151.436 27.0209C151.405 26.8669 151.359 26.6975 151.297 26.5128C151.267 26.328 151.251 26.1586 151.251 26.0046C151.313 25.6659 151.313 25.3426 151.251 25.0346C151.22 24.7267 151.205 24.4187 151.205 24.1108C151.205 23.9568 151.19 23.7875 151.159 23.6027C151.159 23.4179 151.143 23.2486 151.113 23.0946C150.928 22.4479 150.912 21.7551 151.066 21.016C151.559 20.5849 152.19 20.3231 152.96 20.2307C153.299 20.1384 153.622 20.1384 153.93 20.2307C154.269 20.2923 154.592 20.3539 154.9 20.4155C155.054 20.3539 155.224 20.2923 155.408 20.2307C155.593 20.1384 155.809 20.0306 156.055 19.9074C156.394 19.9074 156.625 19.9074 156.748 19.9074C156.902 19.9074 157.164 19.892 157.533 19.8612C157.78 19.8612 157.964 19.8458 158.087 19.815C158.211 19.7534 158.411 19.7072 158.688 19.6764C158.719 19.7072 158.78 19.8304 158.873 20.046C158.996 20.2615 159.057 20.4309 159.057 20.5541C159.027 20.5849 159.042 20.7542 159.104 21.0622C159.196 21.3393 159.227 21.5857 159.196 21.8012C159.196 21.986 159.211 22.1708 159.242 22.3555C159.273 22.5095 159.288 22.6635 159.288 22.8174Z" fill="#971E4C"/>
</svg>
