<svg width="269" height="301" viewBox="0 0 269 301" fill="none" xmlns="http://www.w3.org/2000/svg">
<path d="M13.9289 3.46527C17.0071 1.77267 20.2907 2.58865 23.5031 3.87045C24.5809 4.29822 25.6515 4.77786 26.7221 5.23544C28.4597 6.02679 30.2045 6.72623 32.2981 7.07593C35.0894 7.42566 37.8807 7.42566 40.6725 7.77536C52.1871 10.5736 62.6547 13.0226 74.1693 11.2741C76.2629 10.9238 78.0076 10.2239 80.1007 9.87469C98.9427 9.17474 117.436 9.52448 136.627 7.07593C144.303 6.02679 151.631 7.77536 159.307 8.47583C167.681 9.52499 176.055 8.82501 184.469 9.19064C185.763 9.22043 187.075 9.24872 188.384 9.28207C197.557 9.51471 206.691 9.97894 215.484 12.6735C217.578 13.3724 220.02 13.3724 222.113 13.0237C233.279 11.2751 244.794 6.0278 253.865 10.9249C255.959 11.974 257.006 18.9699 257.614 23.7607C257.737 24.9418 257.841 26.1188 257.951 27.2948C258.667 35.5262 259.651 43.6884 259.448 51.8505C259.098 77.3849 258.052 102.92 257.005 128.455C256.656 134.402 254.912 140.348 254.563 146.294C253.865 153.989 256.308 161.335 258.75 168.331C259.797 171.129 260.494 173.927 259.797 176.726C256.308 189.668 253.515 201.911 254.912 215.203C256.308 230.944 258.75 246.685 257.005 262.425C256.351 268.547 256.651 274.941 256.286 281.097C256.214 282.328 256.114 283.549 255.975 284.757C255.962 289.175 254.021 293.07 250.144 294.447C249.357 294.722 248.491 294.897 247.529 294.956C244.445 294.955 241.304 295.306 238.164 294.955C229.092 293.906 221.067 289.709 211.995 290.408C208.156 290.408 205.365 293.906 201.527 293.906C194.199 293.906 187.569 291.807 179.893 293.207C149.537 299.503 120.227 301.252 89.8711 293.906C72.4245 289.709 54.9784 296.355 37.183 296.355C32.9963 296.355 29.5073 293.207 25.6684 291.807C24.2725 291.108 22.5282 291.457 21.2184 291.556C20.2164 291.851 19.2349 292.267 18.2862 292.736C17.3375 293.207 16.4216 293.732 15.5492 294.256C15.4181 293.338 15.3366 292.414 15.2926 291.487C15.2526 290.559 15.2505 289.627 15.2756 288.688C15.5492 284.812 15.8986 281.314 15.5492 277.467C14.5027 269.771 13.1067 262.075 14.1533 254.38C15.898 239.339 15.898 224.997 16.5962 209.956C16.9451 202.96 19.0382 196.315 19.7364 189.318C20.0853 184.071 19.0387 179.174 18.3405 174.277C13.4556 139.298 17.294 105.368 16.1711 70.844C16.1685 70.0599 16.1685 69.2793 16.1685 68.5049C16.1685 64.6303 16.1685 60.8804 16.1685 57.2785C16.1685 55.8365 16.1685 54.4202 16.1685 53.026C16.5701 47.1095 16.3391 41.2537 15.8898 35.4215C15.8002 34.2542 15.7013 33.0885 15.6009 31.9186C14.5032 22.4686 14.5032 13.3729 13.8925 3.86121C13.9151 3.59726 13.9289 3.46527 13.9289 3.46527Z" fill="#F9EEB9"/>
<path d="M8.64127 5.01651C11.8275 4.68835 14.9677 4.68835 18.1079 5.38882C16.0142 9.93564 14.6188 14.4835 15.3165 19.7298C16.0142 24.6268 18.1079 28.825 18.4567 33.3723C18.6391 44.6994 18.8214 56.0269 18.9536 67.3549C18.9685 68.6131 18.9833 69.8717 18.9961 71.1304C19.5038 83.3931 18.8055 94.9353 17.0618 107.178C16.0147 112.775 16.7124 118.021 18.4572 123.269C19.5043 127.116 18.8061 130.964 18.8097 134.765C18.8025 135.981 18.7938 137.212 18.781 138.442C18.7436 142.134 18.679 145.816 18.5689 149.485C18.5504 150.598 18.5545 151.708 18.5771 152.819C18.6719 157.44 19.0909 162.056 19.5647 166.671C19.66 167.595 19.7568 168.519 19.8536 169.441C21.2495 190.079 19.5048 210.366 17.8097 231.019C17.7283 232.115 17.655 233.211 17.5905 234.305C17.447 236.77 17.3471 239.235 17.2939 241.7C17.2672 242.932 17.2519 244.166 17.2488 245.407C16.2832 253.247 19.0284 263.288 19.6154 272.375C19.6989 273.673 19.7389 274.952 19.7174 276.202C19.5048 283.123 21.5984 293.967 12.8751 296.415C12.5258 288.02 9.38558 280.325 10.9126 271.929C10.8906 270.88 10.8148 269.831 10.7216 268.781C10.6288 267.732 10.5202 266.683 10.4327 265.633C9.38559 257.938 7.98967 250.592 8.3165 242.887C8.32674 241.831 8.34314 240.777 8.36465 239.723C8.43022 236.565 8.54292 233.405 8.67509 230.243C8.71914 229.189 8.76524 228.134 8.81288 227.081C9.03725 209.317 11.1303 191.478 10.7292 173.749C10.6545 172.541 10.5571 171.339 10.4327 170.14C9.96752 165.71 9.34717 161.123 9.01522 156.436C8.93275 155.263 8.86769 154.081 8.82876 152.885C8.93326 148.774 9.03008 144.673 9.11665 140.575C9.14534 139.21 9.17249 137.845 9.19913 136.48C9.73495 132.012 9.73495 127.465 9.03725 122.918C7.29249 106.827 10.4332 91.4361 9.35793 75.7255C9.36715 74.433 9.37637 73.1404 9.3861 71.8489C9.4737 60.2184 9.56078 48.5868 9.03725 36.869C9.03725 31.9729 7.99019 27.4246 7.29249 22.528C6.59479 16.5808 7.29249 10.9843 8.57673 5.52441C8.61976 5.19113 8.64127 5.01651 8.64127 5.01651Z" fill="#BCB937"/>
<path d="M12.507 4.45425C14.5381 4.45425 16.3951 4.64835 18.1839 5.04633L18.6065 5.14084L18.4247 5.53473C16.6435 9.40472 14.9213 14.1118 15.6621 19.6836C15.9822 21.9298 16.6072 24.0517 17.2111 26.1059C17.9329 28.557 18.6147 30.8725 18.8043 33.3446C18.9846 44.5043 19.1695 56.0223 19.3022 67.3514C19.317 68.6095 19.3314 69.8682 19.3447 71.1279C19.837 83.0178 19.2207 94.4927 17.4063 107.228C16.4438 112.375 16.8833 117.433 18.7868 123.159C19.5552 125.979 19.4097 128.792 19.2689 131.513C19.2136 132.583 19.1557 133.688 19.1567 134.766C19.15 135.984 19.1408 137.215 19.128 138.446C19.0875 142.476 19.0179 146.09 18.9164 149.497C18.8985 150.556 18.9006 151.673 18.9241 152.813C19.0133 157.187 19.3826 161.503 19.9102 166.637C19.9937 167.448 20.0783 168.259 20.1638 169.069L20.1986 169.405C21.5633 189.58 19.9676 208.991 18.2787 229.541L18.1552 231.048C18.0738 232.142 18 233.245 17.937 234.327C17.7936 236.788 17.6932 239.272 17.6404 241.709C17.6133 242.95 17.5989 244.196 17.5953 245.409L17.5928 245.451C16.9934 250.317 17.8243 255.949 18.7039 261.912C19.2136 265.371 19.7412 268.946 19.9609 272.353C20.0516 273.748 20.0849 275.01 20.0644 276.209C20.0281 277.397 20.0593 278.692 20.0926 280.061C20.2514 286.563 20.4476 294.654 12.967 296.753L12.5429 296.872L12.5245 296.431C12.3933 293.279 11.8575 290.176 11.3386 287.176C10.4892 282.258 9.61072 277.172 10.561 271.904C10.5364 270.781 10.4467 269.664 10.3724 268.814C10.333 268.366 10.2905 267.917 10.2475 267.468C10.1906 266.867 10.1332 266.265 10.0835 265.664C9.89297 264.268 9.68909 262.866 9.48572 261.471C8.56673 255.158 7.69896 249.195 7.96636 242.874C7.9766 241.828 7.99248 240.772 8.01451 239.717C8.07239 236.925 8.17126 233.911 8.32545 230.229C8.3695 229.175 8.41612 228.12 8.46376 227.067C8.55904 219.459 9.00624 211.702 9.43807 204.202C10.0133 194.209 10.6086 183.877 10.3796 173.76C10.3043 172.544 10.2044 171.333 10.0851 170.178C9.93907 168.79 9.77771 167.386 9.61532 165.968C9.26084 162.88 8.89457 159.687 8.66661 156.462C8.5785 155.21 8.51704 154.044 8.47964 152.898C8.58978 148.539 8.68403 144.513 8.76701 140.57C8.79621 139.205 8.82286 137.84 8.84949 136.475L8.85205 136.44C9.40683 131.813 9.35305 127.283 8.69172 122.973C7.74865 114.277 8.23068 105.693 8.69633 97.3921C9.09384 90.3135 9.50518 82.9926 9.0088 75.7507L9.03698 71.8479C9.12304 60.4156 9.21166 48.5951 8.68813 36.887C8.68762 33.32 8.14001 29.9954 7.55962 26.4772C7.35113 25.2103 7.13495 23.9002 6.94695 22.5789C6.32405 17.2757 6.73488 11.8337 8.23683 5.44586C8.27474 5.15009 8.29574 4.97702 8.29574 4.97546L8.32903 4.69919L8.60617 4.67044C10.0067 4.5246 11.2822 4.45425 12.507 4.45425ZM17.6092 5.63947C15.0099 5.11258 12.2832 5.01401 8.95194 5.33701C8.94272 5.40326 8.93299 5.48184 8.92121 5.57117C7.43207 11.9102 7.02687 17.2746 7.63799 22.4875C7.82394 23.7919 8.03961 25.0978 8.24759 26.3616C8.83259 29.9096 9.3848 33.2614 9.3848 36.869C9.90884 48.5807 9.81971 60.4109 9.73416 71.851L9.70548 75.7281C10.2039 82.9864 9.79103 90.3289 9.39249 97.4301C8.92838 105.703 8.44788 114.257 9.38327 122.881C10.0513 127.234 10.1066 131.822 9.54668 136.505C9.51953 137.864 9.4934 139.224 9.46471 140.583C9.38121 144.528 9.28696 148.554 9.17682 152.894C9.21422 154.011 9.27517 155.168 9.36277 156.412C9.5897 159.621 9.95495 162.807 10.3089 165.887C10.4718 167.307 10.6332 168.713 10.7787 170.104C10.8996 171.27 11.0005 172.489 11.0768 173.729C11.3068 183.889 10.7116 194.235 10.1348 204.241C9.70343 211.735 9.25674 219.483 9.16146 227.086C9.1133 228.15 9.0672 229.204 9.02314 230.258C8.86947 233.935 8.77163 236.944 8.71323 239.73C8.6912 240.784 8.67532 241.837 8.66456 242.891C8.39921 249.157 9.26289 255.089 10.1773 261.369C10.3806 262.766 10.5845 264.17 10.7776 265.587C10.8294 266.204 10.8862 266.802 10.9431 267.401C10.9856 267.851 11.0286 268.301 11.0681 268.751C11.1449 269.621 11.2361 270.767 11.2602 271.923L11.2612 271.958L11.2546 271.993C10.3161 277.152 11.1475 281.962 12.0281 287.055C12.525 289.935 13.0393 292.909 13.2011 295.951C19.7299 293.818 19.5532 286.526 19.3959 280.077C19.3626 278.697 19.3309 277.393 19.3677 276.191C19.3882 275.016 19.3549 273.774 19.2663 272.398C19.0476 269.02 18.5225 265.458 18.0149 262.014C17.1292 256.011 16.2931 250.34 16.8986 245.385C16.9022 244.174 16.9171 242.932 16.9437 241.693C16.9965 239.247 17.0974 236.754 17.2419 234.285C17.3054 233.2 17.3791 232.093 17.4606 230.993L17.5846 229.483C19.2709 208.959 20.8646 189.573 19.5045 169.465L19.4707 169.14C19.3852 168.33 19.3006 167.518 19.2171 166.707C18.6885 161.556 18.3176 157.224 18.2275 152.826C18.2044 151.678 18.2018 150.551 18.2198 149.478C18.3217 146.072 18.3909 142.462 18.4313 138.438C18.4436 137.208 18.4534 135.977 18.46 134.762C18.459 133.669 18.5169 132.554 18.5727 131.476C18.711 128.811 18.8534 126.053 18.1204 123.36C16.183 117.536 15.7358 112.367 16.7188 107.113C18.5246 94.4362 19.1393 83.0023 18.6485 71.1448C18.6347 69.8759 18.6203 68.6167 18.6055 67.3591C18.4728 56.0315 18.2879 44.5145 18.1086 33.3765C17.9257 30.9998 17.2541 28.7182 16.5431 26.3026C15.9315 24.2258 15.2994 22.0772 14.9715 19.7786C14.2318 14.2186 15.8536 9.52539 17.6092 5.63947Z" fill="#603813"/>
<path d="M18.5582 261.928L18.82 262.577C18.2181 262.82 16.2495 263.537 14.3182 264.08C10.9143 265.036 10.2319 264.738 10.0024 264.273L10.6279 263.963C11.1791 264.408 16.1757 262.893 18.5582 261.928Z" fill="#603813"/>
<path d="M18.2207 260.503L18.2279 261.203C16.8571 261.216 15.7434 261.598 14.5652 262.001C13.2861 262.44 11.9629 262.893 10.3032 262.835L10.3278 262.136C11.8559 262.193 13.0643 261.777 14.3393 261.34C15.5181 260.935 16.7377 260.517 18.2207 260.503Z" fill="#603813"/>
<path d="M18.1485 228.797L18.2997 229.48C15.9074 230.01 13.3512 229.987 10.8811 229.963C10.3801 229.959 9.88066 229.954 9.38428 229.954V229.255C9.88271 229.255 10.3842 229.26 10.8878 229.265C13.3184 229.287 15.8352 229.309 18.1485 228.797Z" fill="#603813"/>
<path d="M16.846 226.625C17.327 226.625 17.7993 226.645 18.2593 226.692L18.1891 227.388C16.594 227.226 14.7913 227.409 13.0491 227.588C11.7572 227.719 10.4212 227.856 9.15234 227.856V227.156C10.3859 227.156 11.7044 227.022 12.9789 226.892C14.2652 226.76 15.5833 226.625 16.846 226.625Z" fill="#603813"/>
<path d="M10.4544 194.304C13.5382 195.643 16.4735 195.565 20.5003 194.979L20.6008 195.671C17.1466 196.174 13.7498 196.497 10.1768 194.946L10.4544 194.304Z" fill="#603813"/>
<path d="M10.7111 192.217C12.713 193.28 17.4724 193.813 19.9646 192.897L20.2053 193.553C17.5103 194.544 12.5532 193.986 10.3843 192.835L10.7111 192.217Z" fill="#603813"/>
<path d="M9.34303 156.555C11.6042 158.034 14.8954 157.972 17.7989 157.916C18.343 157.906 18.8757 157.896 19.3874 157.896V158.595C18.8798 158.595 18.3522 158.606 17.8123 158.616C14.8084 158.673 11.4033 158.737 8.96191 157.14L9.34303 156.555Z" fill="#603813"/>
<path d="M9.26594 154.397C10.5609 154.397 11.8293 154.861 13.0562 155.309C14.9177 155.99 16.6778 156.632 18.5517 155.826L18.8273 156.469C16.6968 157.385 14.7246 156.664 12.8174 155.967C11.5568 155.506 10.3591 155.075 9.1599 155.098L9.14453 154.4C9.185 154.398 9.22547 154.397 9.26594 154.397Z" fill="#603813"/>
<path d="M8.7985 122.003C13.8125 123.698 17.1473 123.952 18.7112 122.757L19.1339 123.312C17.3512 124.676 13.8965 124.464 8.57617 122.666L8.7985 122.003Z" fill="#603813"/>
<path d="M9.3661 120.192C11.4935 121.829 14.0743 121.797 16.8077 121.762C17.2016 121.757 17.5966 121.752 17.9926 121.752V122.452C17.6002 122.452 17.2073 122.457 16.8164 122.463C14.0845 122.496 11.2609 122.533 8.94092 120.747L9.3661 120.192Z" fill="#603813"/>
<path d="M18.7457 93.1165L19.0986 93.7209C16.8892 95.0192 11.8722 94.8826 9.52344 94.2216L9.71194 93.5484C11.972 94.1836 16.7622 94.2828 18.7457 93.1165Z" fill="#603813"/>
<path d="M9.87911 90.9713C10.8181 91.0473 11.7955 91.3261 12.7406 91.5963C14.6559 92.1421 16.6368 92.7055 18.5281 91.7103L18.8529 92.3291C16.7157 93.4558 14.5975 92.8519 12.5495 92.269C11.5952 91.9973 10.6931 91.7406 9.82275 91.6682L9.87911 90.9713Z" fill="#603813"/>
<path d="M9.62891 55.1587C11.7307 57.2421 16.8846 56.2058 19.0852 55.7647L19.2225 56.4508C16.9133 56.915 11.5048 58.0022 9.13867 55.6563L9.62891 55.1587Z" fill="#603813"/>
<path d="M18.6547 53.7826L19.1874 54.2345C17.6803 56.0201 11.7724 55.5563 9.72852 54.8025L9.96928 54.1457C11.9671 54.8821 17.4703 55.1861 18.6547 53.7826Z" fill="#603813"/>
<path d="M15.3014 14.7409L15.5642 15.3885C13.5679 16.205 9.73825 16.9999 7.37109 15.8465L7.6764 15.2169C9.82226 16.263 13.4911 15.4799 15.3014 14.7409Z" fill="#603813"/>
<path d="M15.7821 12.8685L16.0127 13.5289C13.7259 14.33 11.4274 14.2961 8.99314 14.2617C8.50649 14.255 8.01677 14.2489 7.52295 14.2489V13.5489C8.01984 13.5489 8.51315 13.5567 9.00338 13.5628C11.3726 13.5972 13.6122 13.6296 15.7821 12.8685Z" fill="#603813"/>
<path d="M6.55252 299.021C6.25746 295.827 6.25746 292.678 6.88549 289.531C10.9687 291.629 15.0509 293.028 19.7622 292.329C24.1584 291.629 27.9271 289.531 32.0093 289.18C42.1792 288.998 52.3492 288.815 62.5196 288.682C63.6491 288.667 64.7792 288.652 65.9092 288.64C76.9182 288.131 87.2818 288.831 98.2733 290.579C103.298 291.629 108.009 290.929 112.719 289.18C116.173 288.131 119.628 288.83 123.04 288.827C124.132 288.834 125.237 288.843 126.342 288.856C129.655 288.893 132.962 288.958 136.256 289.068C137.255 289.087 138.253 289.083 139.249 289.06C143.398 288.965 147.542 288.545 151.687 288.07C152.515 287.975 153.344 287.878 154.173 287.78C172.702 286.381 190.916 288.131 209.458 289.83C210.442 289.912 211.426 289.985 212.409 290.049C214.622 290.194 216.835 290.294 219.048 290.347C220.154 290.374 221.263 290.389 222.376 290.392C229.415 291.36 238.429 288.608 246.588 288.02C247.754 287.936 248.902 287.896 250.023 287.917C256.238 288.131 265.974 286.032 268.172 294.776C260.635 295.127 253.726 298.275 246.189 296.744C245.246 296.766 244.305 296.842 243.362 296.935C242.419 297.028 241.478 297.138 240.536 297.225C233.628 298.274 227.032 299.673 220.115 299.346C219.166 299.336 218.22 299.319 217.273 299.298C214.438 299.232 211.602 299.119 208.763 298.987C207.815 298.942 206.869 298.896 205.923 298.848C189.975 298.624 173.959 296.525 158.042 296.927C156.957 297.002 155.878 297.1 154.802 297.225C150.824 297.691 146.706 298.313 142.498 298.645C141.445 298.729 140.383 298.793 139.309 298.833C135.62 298.728 131.937 298.631 128.259 298.544C127.033 298.515 125.807 298.488 124.582 298.461C120.571 297.924 116.488 297.924 112.406 298.624C97.9598 300.372 84.1416 297.224 70.036 298.302C68.8752 298.293 67.7154 298.283 66.5552 298.274C56.1127 298.186 45.6708 298.098 35.1505 298.624C30.7543 298.624 26.6716 299.673 22.2743 300.372C16.9355 301.072 11.9113 300.372 7.00895 299.085C6.70927 299.042 6.55252 299.021 6.55252 299.021Z" fill="#BCB937"/>
<path d="M168.315 286.922C181.593 286.922 195.085 288.161 208.135 289.358L209.489 289.483C210.47 289.564 211.46 289.637 212.431 289.7C214.641 289.845 216.87 289.945 219.056 289.998C220.171 290.025 221.288 290.04 222.377 290.043L222.423 290.046C223.407 290.182 224.448 290.248 225.604 290.248C229.201 290.248 233.077 289.609 237.183 288.933C240.289 288.421 243.501 287.893 246.563 287.671C247.817 287.581 248.935 287.548 250.031 287.568C251.109 287.605 252.25 287.574 253.486 287.539C254.37 287.515 255.283 287.491 256.2 287.491C261.392 287.491 266.915 288.346 268.51 294.691L268.614 295.107L268.188 295.126C265.362 295.257 262.579 295.795 259.888 296.314C256.835 296.902 253.679 297.512 250.502 297.512C248.972 297.512 247.551 297.375 246.159 297.096C245.154 297.12 244.157 297.21 243.396 297.284C242.993 297.324 242.59 297.366 242.188 297.41C241.647 297.467 241.109 297.524 240.568 297.574C239.319 297.764 238.061 297.969 236.808 298.172C231.833 298.981 227.133 299.745 222.198 299.745C221.489 299.745 220.783 299.729 220.097 299.696C219.161 299.686 218.213 299.67 217.265 299.648C214.758 299.59 212.051 299.49 208.745 299.337C207.799 299.292 206.852 299.245 205.906 299.198C199.077 299.102 192.112 298.654 185.377 298.222C177.771 297.733 169.907 297.226 162.199 297.226C160.784 297.226 159.389 297.243 158.051 297.278C156.963 297.352 155.878 297.452 154.841 297.572C153.595 297.719 152.335 297.881 151.062 298.043C148.289 298.398 145.421 298.765 142.524 298.994C141.4 299.083 140.352 299.145 139.321 299.183C135.401 299.072 131.787 298.978 128.25 298.894C127.024 298.865 125.798 298.838 124.573 298.812L124.534 298.808C120.392 298.253 116.323 298.307 112.464 298.969C109.428 299.337 106.235 299.515 102.685 299.515C98.2492 299.515 93.7926 299.236 89.4819 298.966C85.2214 298.699 80.816 298.423 76.4797 298.423C74.1832 298.423 72.084 298.498 70.0621 298.652L66.5521 298.625C62.6722 298.593 58.6602 298.559 54.7106 298.559C47.0611 298.559 40.8514 298.691 35.1684 298.974C31.9693 298.975 28.9885 299.523 25.8314 300.105C24.6932 300.314 23.517 300.53 22.3291 300.719C20.9045 300.906 19.4486 301 17.9943 301C14.5847 301 10.9682 300.487 6.93872 299.43C6.65595 299.388 6.50791 299.367 6.50586 299.367L6.23078 299.33L6.20567 299.053C5.86553 295.371 5.97311 292.323 6.54377 289.462L6.63495 289.008L7.04527 289.219C9.71005 290.588 13.2856 292.161 17.3151 292.161C18.1091 292.161 18.9154 292.101 19.7114 291.982C21.7221 291.663 23.6256 291.037 25.4667 290.432C27.6709 289.708 29.7528 289.023 31.9806 288.832C42.0009 288.651 52.3373 288.465 62.5154 288.333C63.6455 288.318 64.7755 288.303 65.9056 288.29C68.2266 288.182 70.5789 288.128 72.8846 288.128C81.0972 288.128 89.4199 288.817 98.3281 290.235C99.888 290.56 101.46 290.723 103.019 290.723C106.075 290.723 109.208 290.111 112.598 288.853C113.951 288.441 115.395 288.252 117.161 288.252C118.154 288.252 119.156 288.31 120.125 288.366C121.076 288.421 122.06 288.478 123.019 288.478C124.135 288.485 125.241 288.494 126.346 288.507C129.965 288.548 133.211 288.617 136.268 288.72C137.25 288.738 138.251 288.734 139.242 288.712C143.165 288.622 147.039 288.252 151.648 287.723C152.37 287.641 153.092 287.556 153.815 287.472L154.133 287.435C158.693 287.09 163.327 286.922 168.315 286.922ZM222.352 290.743C221.266 290.74 220.151 290.724 219.039 290.698C216.844 290.644 214.605 290.544 212.386 290.399C211.412 290.336 210.416 290.262 209.429 290.18L208.072 290.055C194.439 288.804 181.561 287.622 168.316 287.622C163.346 287.622 158.729 287.789 154.2 288.131L153.896 288.166C153.173 288.251 152.45 288.335 151.727 288.418C147.099 288.949 143.208 289.321 139.258 289.411C138.256 289.433 137.255 289.438 136.25 289.419C133.194 289.317 129.953 289.247 126.339 289.206C125.235 289.194 124.13 289.185 123.039 289.178C122.041 289.178 121.046 289.121 120.085 289.065C119.126 289.009 118.135 288.952 117.162 288.952C115.466 288.952 114.086 289.131 112.82 289.516C109.371 290.797 106.16 291.423 103.019 291.423C101.412 291.423 99.7916 291.254 98.2021 290.922C89.3472 289.514 81.0603 288.827 72.8846 288.827C70.5892 288.827 68.2476 288.882 65.9256 288.989C64.7842 289.003 63.6537 289.017 62.5242 289.032C52.3481 289.165 42.0117 289.351 32.0154 289.53C29.8926 289.713 27.8477 290.385 25.6834 291.097C23.8162 291.71 21.886 292.345 19.817 292.674C18.9835 292.798 18.1424 292.86 17.3146 292.86C13.3435 292.86 9.82838 291.403 7.14209 290.052C6.67388 292.644 6.58885 295.417 6.87572 298.713C6.9295 298.721 6.99148 298.73 7.06064 298.74L7.09701 298.748C11.0763 299.793 14.64 300.301 17.9938 300.301C19.4179 300.301 20.8425 300.208 22.2287 300.027C23.3987 299.841 24.5713 299.626 25.7054 299.417C28.8937 298.83 31.9053 298.275 35.1505 298.275C40.8284 297.992 47.0493 297.859 54.7106 297.859C58.6632 297.859 62.6768 297.893 66.5582 297.926L70.039 297.954C72.0491 297.799 74.1658 297.723 76.4802 297.723C80.838 297.723 85.2547 298 89.5265 298.268C93.8259 298.538 98.2713 298.816 102.686 298.816C106.207 298.816 109.373 298.64 112.365 298.278C116.257 297.61 120.403 297.552 124.609 298.114C125.827 298.14 127.047 298.168 128.267 298.196C131.805 298.279 135.42 298.374 139.319 298.484C140.317 298.447 141.356 298.386 142.471 298.298C145.351 298.072 148.21 297.705 150.975 297.351C152.25 297.187 153.512 297.025 154.762 296.879C155.809 296.757 156.906 296.656 158.019 296.58C159.377 296.545 160.779 296.528 162.199 296.528C169.93 296.528 177.805 297.034 185.422 297.524C192.149 297.957 199.104 298.404 205.929 298.499C206.886 298.548 207.833 298.594 208.779 298.638C212.078 298.792 214.78 298.891 217.281 298.949C218.227 298.97 219.171 298.987 220.119 298.997C220.805 299.029 221.501 299.046 222.199 299.046C227.076 299.046 231.75 298.286 236.697 297.482C237.951 297.278 239.213 297.073 240.485 296.88C241.041 296.827 241.578 296.77 242.115 296.714C242.52 296.671 242.924 296.628 243.329 296.588C244.11 296.511 245.142 296.42 246.181 296.395L246.22 296.394L246.258 296.402C247.617 296.678 249.006 296.812 250.502 296.812C253.613 296.812 256.597 296.237 259.756 295.627C262.336 295.13 264.998 294.615 267.723 294.451C266.122 288.96 261.248 288.191 256.201 288.191C255.294 288.191 254.385 288.215 253.506 288.239C252.258 288.273 251.093 288.305 250.013 288.268C248.967 288.247 247.847 288.281 246.614 288.37C243.584 288.589 240.388 289.114 237.297 289.623C233.345 290.275 229.258 290.947 225.606 290.947C224.425 290.947 223.361 290.88 222.352 290.743Z" fill="#603813"/>
<path d="M237.827 288.828C237.856 288.908 240.71 296.896 239.343 297.649L239.007 297.036C238.987 297.047 238.979 297.058 238.979 297.058C239.399 296.475 238.039 291.457 237.172 289.067L237.827 288.828Z" fill="#603813"/>
<path d="M236.593 289.411C236.603 290.79 236.947 291.908 237.311 293.092C237.703 294.372 238.109 295.695 238.058 297.353L237.361 297.332C237.408 295.79 237.037 294.58 236.644 293.298C236.282 292.118 235.907 290.898 235.896 289.416L236.593 289.411Z" fill="#603813"/>
<path d="M208.113 289.346C208.587 291.74 208.567 294.299 208.546 296.774C208.542 297.277 208.538 297.778 208.538 298.276H207.841C207.841 297.776 207.845 297.272 207.849 296.768C207.869 294.328 207.889 291.805 207.429 289.482L208.113 289.346Z" fill="#603813"/>
<path d="M205.539 289.382L206.234 289.445C206.087 291.049 206.252 292.857 206.412 294.606C206.531 295.9 206.653 297.238 206.653 298.508H205.956C205.956 297.27 205.835 295.948 205.718 294.67C205.555 292.889 205.386 291.049 205.539 289.382Z" fill="#603813"/>
<path d="M177.757 287.036C178.208 290.493 178.498 293.893 177.108 297.469L176.458 297.215C177.662 294.116 177.592 291.17 177.065 287.127L177.757 287.036Z" fill="#603813"/>
<path d="M175.858 287.438C176.744 290.132 176.245 295.09 175.213 297.26L174.583 296.959C175.539 294.946 176.019 290.163 175.194 287.657L175.858 287.438Z" fill="#603813"/>
<path d="M143.774 288.247H144.472C144.472 288.756 144.481 289.285 144.489 289.827C144.541 292.834 144.599 296.242 143.167 298.685L142.565 298.33C143.897 296.058 143.841 292.755 143.791 289.839C143.783 289.293 143.774 288.76 143.774 288.247Z" fill="#603813"/>
<path d="M142.564 288.822C143.382 290.946 142.737 292.917 142.112 294.824C141.698 296.091 141.306 297.287 141.331 298.501L140.634 298.516C140.606 297.181 141.035 295.872 141.45 294.606C142.063 292.733 142.642 290.965 141.914 289.074L142.564 288.822Z" fill="#603813"/>
<path d="M112.795 288.516C114.016 290.298 113.826 293.752 112.214 299.076L111.546 298.873C113.071 293.836 113.297 290.485 112.22 288.912L112.795 288.516Z" fill="#603813"/>
<path d="M111.323 289.646H112.02C112.02 290.04 112.024 290.433 112.028 290.826C112.06 293.559 112.093 296.385 110.492 298.707L109.918 298.309C111.392 296.17 111.362 293.578 111.331 290.833C111.327 290.439 111.323 290.043 111.323 289.646Z" fill="#603813"/>
<path d="M86.2291 288.55C87.3919 290.76 87.269 295.777 86.6773 298.127L86.0007 297.956C86.5728 295.684 86.661 290.87 85.6113 288.876L86.2291 288.55Z" fill="#603813"/>
<path d="M84.9794 288.797C85.986 290.93 85.4461 293.047 84.9236 295.094C84.6792 296.053 84.4482 296.958 84.3836 297.834L83.688 297.783C83.7566 296.844 84.0066 295.867 84.2479 294.92C84.7397 292.993 85.2478 291.001 84.3488 289.097L84.9794 288.797Z" fill="#603813"/>
<path d="M52.7652 288.419C53.1807 290.73 54.155 296.141 52.0542 298.508L51.5327 298.043C53.4076 295.931 52.4763 290.754 52.0783 288.544L52.7652 288.419Z" fill="#603813"/>
<path d="M50.7773 288.46C52.4585 290.045 51.8684 296.159 51.2875 297.919L50.6251 297.7C51.287 295.693 51.5621 290.16 50.2988 288.97L50.7773 288.46Z" fill="#603813"/>
<path d="M15.9008 292.092C16.6318 294.089 17.3438 297.917 16.3121 300.281L15.6728 300.001C16.6159 297.84 15.9115 294.151 15.2461 292.332L15.9008 292.092Z" fill="#603813"/>
<path d="M14.2319 291.641C14.949 293.928 14.9198 296.23 14.8886 298.667C14.8819 299.155 14.8763 299.646 14.8763 300.141H14.1786C14.1786 299.644 14.1852 299.149 14.1909 298.658C14.2216 296.279 14.2503 294.031 13.5659 291.851L14.2319 291.641Z" fill="#603813"/>
<path d="M259.989 296.203C256.802 296.531 253.662 296.531 250.522 295.831C252.615 291.285 254.011 286.737 253.313 281.49C252.615 276.593 250.522 272.395 250.173 267.848C249.991 256.52 249.808 245.193 249.676 233.865C249.661 232.607 249.646 231.348 249.634 230.089C249.126 217.828 249.824 206.284 251.568 194.042C252.615 188.445 251.918 183.199 250.172 177.951C249.126 174.104 249.823 170.256 249.82 166.454C249.827 165.239 249.836 164.008 249.849 162.778C249.886 159.087 249.95 155.404 250.061 151.735C250.079 150.622 250.075 149.511 250.053 148.4C249.958 143.78 249.539 139.163 249.064 134.548C248.97 133.625 248.873 132.701 248.776 131.778C247.38 111.141 249.125 90.8533 250.82 70.2005C250.902 69.1046 250.975 68.0087 251.039 66.9138C251.183 64.4494 251.283 61.9839 251.335 59.5195C251.362 58.287 251.377 57.053 251.381 55.8123C252.346 47.9726 249.601 37.9315 249.014 28.8451C248.93 27.5463 248.89 26.2671 248.912 25.0177C249.125 18.0958 247.031 7.25198 255.755 4.80447C256.104 13.1992 259.244 20.8951 257.717 29.2898C257.739 30.3389 257.815 31.3886 257.908 32.4377C258.001 33.4869 258.111 34.537 258.197 35.5862C259.244 43.2815 260.64 50.6271 260.313 58.3322C260.303 59.389 260.286 60.4423 260.265 61.4966C260.199 64.6543 260.087 67.8146 259.955 70.9764C259.91 72.0312 259.864 73.086 259.817 74.1383C259.592 91.9029 257.5 109.743 257.9 127.47C257.975 128.679 258.072 129.88 258.197 131.08C258.662 135.51 259.283 140.097 259.614 144.784C259.697 145.955 259.762 147.139 259.801 148.335C259.697 152.446 259.6 156.547 259.513 160.644C259.484 162.009 259.457 163.375 259.431 164.74C258.895 169.207 258.895 173.754 259.592 178.301C261.337 194.392 258.197 209.783 259.272 225.494C259.264 226.787 259.253 228.078 259.243 229.371C259.156 241.001 259.069 252.632 259.592 264.35C259.592 269.247 260.639 273.795 261.337 278.692C262.034 284.638 261.337 290.234 260.052 295.695C260.01 296.029 259.989 296.203 259.989 296.203Z" fill="#BCB937"/>
<path d="M256.085 4.34756L256.103 4.78918C256.234 7.94177 256.771 11.0441 257.289 14.0441C258.139 18.9627 259.017 24.0488 258.068 29.3166C258.093 30.4387 258.182 31.5562 258.257 32.4071C258.297 32.8554 258.339 33.3052 258.382 33.7545C258.439 34.3554 258.496 34.9562 258.545 35.556C258.736 36.9518 258.94 38.3543 259.143 39.7491C260.061 46.063 260.93 52.0251 260.662 58.3472C260.653 59.3928 260.636 60.4491 260.614 61.5034C260.557 64.2944 260.457 67.3094 260.304 70.9904C260.26 72.0457 260.213 73.1 260.165 74.1533C260.069 81.7618 259.623 89.5177 259.191 97.0189C258.616 107.011 258.021 117.343 258.25 127.461C258.325 128.677 258.425 129.887 258.545 131.043C258.69 132.431 258.852 133.835 259.014 135.253C259.368 138.341 259.734 141.533 259.963 144.759C260.052 146.012 260.113 147.177 260.15 148.322C260.04 152.681 259.946 156.707 259.862 160.65C259.834 162.016 259.806 163.381 259.78 164.746L259.778 164.78C259.223 169.406 259.277 173.938 259.939 178.247C260.881 186.944 260.4 195.527 259.933 203.829C259.536 210.908 259.125 218.228 259.621 225.47L259.593 229.374C259.507 240.805 259.419 252.626 259.943 264.334C259.943 267.901 260.49 271.225 261.07 274.744C261.279 276.011 261.495 277.321 261.683 278.642C262.306 283.946 261.895 289.388 260.393 295.776C260.356 296.071 260.335 296.244 260.335 296.245L260.301 296.522L260.025 296.551C258.623 296.695 257.347 296.766 256.123 296.766C254.092 296.766 252.235 296.572 250.446 296.174L250.024 296.079L250.205 295.685C251.987 291.815 253.709 287.108 252.968 281.536C252.648 279.291 252.023 277.168 251.418 275.115C250.697 272.663 250.016 270.348 249.825 267.875C249.645 256.716 249.46 245.198 249.327 233.869C249.313 232.61 249.298 231.352 249.285 230.092C248.793 218.202 249.409 206.727 251.223 193.991C252.186 188.845 251.746 183.787 249.842 178.061C249.074 175.241 249.22 172.427 249.36 169.706C249.416 168.637 249.474 167.532 249.473 166.454C249.48 165.236 249.488 164.004 249.502 162.773C249.542 158.744 249.612 155.129 249.714 151.723C249.732 150.663 249.729 149.547 249.706 148.407C249.616 144.032 249.246 139.717 248.719 134.583C248.636 133.771 248.551 132.961 248.466 132.15L248.431 131.814C247.066 111.64 248.662 92.2286 250.351 71.6775L250.474 70.1708C250.556 69.077 250.629 67.9734 250.693 66.8919C250.836 64.4315 250.937 61.9471 250.989 59.5103C251.016 58.2681 251.031 57.0238 251.034 55.8098L251.037 55.7682C251.636 50.902 250.805 45.269 249.926 39.3059C249.416 35.8482 248.889 32.2725 248.668 28.8658C248.578 27.471 248.545 26.2092 248.565 25.0101C248.601 23.8223 248.57 22.5277 248.537 21.157C248.379 14.6562 248.182 6.565 255.663 4.46567L256.085 4.34756ZM259.083 164.715C259.109 163.356 259.136 161.996 259.165 160.637C259.248 156.692 259.342 152.666 259.452 148.327C259.416 147.21 259.355 146.053 259.267 144.809C259.041 141.599 258.674 138.414 258.321 135.333C258.158 133.913 257.997 132.507 257.851 131.116C257.73 129.951 257.629 128.732 257.552 127.491C257.322 117.331 257.919 106.984 258.495 96.9793C258.926 89.4864 259.372 81.7377 259.468 74.1343C259.516 73.0697 259.563 72.0154 259.606 70.9616C259.76 67.2858 259.858 64.2755 259.917 61.49C259.939 60.4368 259.954 59.3835 259.965 58.3287C260.231 52.0621 259.367 46.1308 258.453 39.8507C258.25 38.4539 258.045 37.0504 257.852 35.6341C257.8 35.0179 257.743 34.4196 257.687 33.8219C257.644 33.371 257.602 32.9201 257.562 32.4692C257.485 31.5998 257.394 30.452 257.37 29.2976L257.369 29.2622L257.376 29.2273C258.313 24.0688 257.483 19.2585 256.602 14.1653C256.105 11.2844 255.59 8.311 255.429 5.26984C248.899 7.40256 249.078 14.6942 249.233 21.1427C249.267 22.5231 249.298 23.8264 249.261 25.0291C249.242 26.2046 249.275 27.4468 249.363 28.8231C249.582 32.2006 250.107 35.7625 250.615 39.2063C251.501 45.21 252.337 50.8799 251.731 55.8355C251.728 57.0469 251.713 58.2892 251.686 59.5278C251.633 61.9738 251.532 64.466 251.388 66.9355C251.324 68.0206 251.251 69.1283 251.169 70.2278L251.045 71.7366C249.358 92.2605 247.766 111.647 249.125 131.755L249.159 132.079C249.244 132.891 249.329 133.701 249.412 134.513C249.941 139.664 250.312 143.996 250.402 148.394C250.426 149.543 250.428 150.669 250.41 151.741C250.308 155.147 250.239 158.757 250.198 162.782C250.186 164.011 250.176 165.242 250.17 166.457C250.171 167.551 250.113 168.666 250.058 169.744C249.919 172.409 249.776 175.166 250.509 177.859C252.447 183.684 252.894 188.853 251.91 194.107C250.105 206.784 249.491 218.218 249.981 230.076C249.995 231.345 250.009 232.603 250.024 233.861C250.156 245.189 250.341 256.705 250.522 267.843C250.703 270.221 251.376 272.502 252.087 274.917C252.698 276.994 253.33 279.142 253.658 281.441C254.397 287.001 252.776 291.696 251.02 295.58C253.619 296.108 256.346 296.206 259.677 295.883C259.687 295.816 259.696 295.739 259.709 295.649C261.197 289.309 261.603 283.945 260.991 278.733C260.805 277.428 260.59 276.122 260.382 274.858C259.796 271.31 259.244 267.958 259.244 264.35C258.721 252.639 258.81 240.809 258.896 229.369L258.924 225.492C258.425 218.233 258.838 210.891 259.237 203.79C259.701 195.517 260.181 186.963 259.247 178.339C258.578 173.987 258.523 169.398 259.083 164.715Z" fill="#603813"/>
<path d="M257.591 36.5094C258.268 36.5094 258.508 36.7051 258.627 36.947L258.002 37.2571C257.447 36.8129 252.454 38.3258 250.071 39.2917L249.81 38.6432C250.411 38.3997 252.38 37.6823 254.311 37.14C255.951 36.6789 256.961 36.5094 257.591 36.5094Z" fill="#603813"/>
<path d="M258.04 38.3795C258.134 38.3795 258.23 38.3821 258.327 38.3851L258.302 39.084C256.774 39.0311 255.566 39.443 254.291 39.881C253.111 40.2842 251.892 40.7032 250.409 40.7161L250.402 40.0171C251.773 40.0053 252.886 39.6227 254.065 39.2186C255.269 38.8062 256.512 38.3795 258.04 38.3795Z" fill="#603813"/>
<path d="M256.236 71.2466C256.743 71.2466 257.248 71.2517 257.749 71.2558C258.25 71.2599 258.749 71.2651 259.245 71.2651V71.965C258.747 71.965 258.246 71.9599 257.742 71.9558C255.311 71.9327 252.795 71.9106 250.481 72.4231L250.33 71.7401C252.237 71.3174 254.248 71.2466 256.236 71.2466Z" fill="#603813"/>
<path d="M259.478 73.3636V74.0625C258.245 74.0625 256.926 74.1981 255.652 74.328C253.874 74.5098 252.036 74.6973 250.371 74.5273L250.44 73.832C252.036 73.9942 253.839 73.8099 255.581 73.6317C256.873 73.5007 258.208 73.3636 259.478 73.3636Z" fill="#603813"/>
<path d="M252.667 105.134C254.569 105.134 256.483 105.42 258.453 106.274L258.176 106.916C255.091 105.578 252.156 105.655 248.129 106.242L248.029 105.549C249.579 105.323 251.119 105.134 252.667 105.134Z" fill="#603813"/>
<path d="M251.976 107.153C254.325 107.153 256.856 107.647 258.245 108.385L257.919 109.003C255.917 107.939 251.157 107.406 248.664 108.322L248.424 107.666C249.394 107.309 250.655 107.153 251.976 107.153Z" fill="#603813"/>
<path d="M252.557 142.582C255.075 142.582 257.689 142.784 259.668 144.08L259.287 144.666C257.024 143.185 253.734 143.246 250.831 143.304C250.286 143.313 249.754 143.323 249.242 143.323V142.624C249.749 142.624 250.277 142.613 250.817 142.604C251.386 142.593 251.968 142.582 252.557 142.582Z" fill="#603813"/>
<path d="M251.908 144.319C253.256 144.319 254.548 144.79 255.812 145.252C257.073 145.713 258.265 146.139 259.469 146.121L259.484 146.82C258.15 146.855 256.839 146.373 255.573 145.909C253.711 145.228 251.951 144.587 250.077 145.393L249.802 144.75C250.52 144.44 251.222 144.319 251.908 144.319Z" fill="#603813"/>
<path d="M252.76 177.023C254.613 177.023 257.032 177.532 260.053 178.553L259.83 179.216C254.817 177.521 251.481 177.268 249.918 178.463L249.495 177.907C250.266 177.318 251.349 177.023 252.76 177.023Z" fill="#603813"/>
<path d="M252.958 178.749C255.321 178.749 257.692 178.936 259.69 180.473L259.265 181.028C257.136 179.39 254.554 179.421 251.822 179.457C251.429 179.463 251.034 179.468 250.637 179.468V178.769C251.031 178.769 251.423 178.763 251.814 178.758C252.194 178.753 252.575 178.749 252.958 178.749Z" fill="#603813"/>
<path d="M254.786 206.508C256.434 206.508 258.044 206.7 259.106 206.998L258.917 207.672C256.658 207.037 251.868 206.938 249.884 208.103L249.53 207.5C250.74 206.788 252.792 206.508 254.786 206.508Z" fill="#603813"/>
<path d="M252.399 208.258C253.644 208.258 254.873 208.608 256.08 208.952C257.035 209.223 257.937 209.48 258.807 209.552L258.751 210.25C257.812 210.172 256.835 209.894 255.889 209.625C253.974 209.079 251.993 208.515 250.102 209.511L249.778 208.891C250.655 208.428 251.531 208.258 252.399 208.258Z" fill="#603813"/>
<path d="M254.72 244.11C256.558 244.11 258.367 244.45 259.491 245.563L259.001 246.061C256.899 243.977 251.745 245.013 249.544 245.455L249.407 244.77C250.621 244.526 252.688 244.11 254.72 244.11Z" fill="#603813"/>
<path d="M254.088 245.749C255.972 245.749 257.899 246.049 258.9 246.417L258.659 247.073C256.662 246.338 251.159 246.034 249.974 247.437L249.441 246.985C250.21 246.074 252.125 245.749 254.088 245.749Z" fill="#603813"/>
<path d="M258.285 284.796C259.364 284.796 260.406 284.958 261.259 285.374L260.953 286.003C258.807 284.958 255.138 285.74 253.328 286.479L253.064 285.831C254.343 285.309 256.371 284.796 258.285 284.796Z" fill="#603813"/>
<path d="M258.176 286.943C258.658 286.943 259.145 286.95 259.636 286.957C260.123 286.964 260.614 286.97 261.107 286.97V287.67C260.609 287.67 260.117 287.663 259.627 287.656C257.258 287.622 255.018 287.59 252.848 288.35L252.618 287.69C254.441 287.051 256.274 286.943 258.176 286.943Z" fill="#603813"/>
<path d="M262.061 1.97948C262.356 5.17366 262.356 8.32164 261.728 11.4701C257.645 9.37181 253.563 7.97139 248.852 8.67185C244.455 9.37179 240.687 11.4701 236.604 11.8198C226.434 12.0031 216.264 12.1855 206.095 12.3185C204.964 12.3328 203.835 12.3482 202.704 12.3601C191.695 12.869 181.332 12.1701 170.34 10.4215C165.316 9.37233 160.605 10.0712 155.895 11.8203C152.44 12.8695 148.986 12.1706 145.573 12.1732C144.481 12.1665 143.376 12.1577 142.272 12.1444C138.958 12.1074 135.652 12.0427 132.358 11.9323C131.358 11.9133 130.361 11.9174 129.364 11.9405C125.215 12.035 121.071 12.4551 116.927 12.9306C116.098 13.0256 115.269 13.1232 114.44 13.2197C95.9119 14.6191 77.697 12.8695 59.1557 11.1702C58.1721 11.0881 57.1886 11.0151 56.2051 10.9509C53.9916 10.8071 51.7786 10.7065 49.5657 10.6526C48.4592 10.6264 47.3517 10.612 46.2375 10.6079C39.1985 9.64038 30.1843 12.3919 22.0255 12.9804C20.8601 13.0646 19.7121 13.1047 18.5903 13.0826C12.3755 12.8695 2.64001 14.9688 0.441895 6.22435C7.97879 5.87412 14.8877 2.72617 22.4245 4.2565C23.3671 4.23442 24.3097 4.15841 25.2512 4.06546C26.1938 3.972 27.1358 3.86313 28.0779 3.77531C34.9867 2.72616 41.5816 1.32679 48.4996 1.65391C49.4478 1.6647 50.3935 1.68112 51.3406 1.70269C54.1755 1.7679 57.0114 1.88142 59.8508 2.01339C60.798 2.05859 61.7447 2.10428 62.6903 2.15153C78.639 2.37645 94.6549 4.47474 110.571 4.07264C111.656 3.99766 112.735 3.90062 113.812 3.77531C117.79 3.30903 121.907 2.68664 126.115 2.35438C127.168 2.2717 128.23 2.20646 129.305 2.16692C132.994 2.27168 136.677 2.36977 140.355 2.45656C141.581 2.48532 142.807 2.51202 144.032 2.53821C148.042 3.0764 152.125 3.0764 156.208 2.37645C170.653 0.627351 184.472 3.77582 198.577 2.69791C199.738 2.70715 200.898 2.71641 202.058 2.72668C212.5 2.8145 222.943 2.90128 233.463 2.37645C237.859 2.37645 241.943 1.3273 246.339 0.627348C251.678 -0.0715714 256.703 0.627346 261.605 1.91529C261.905 1.95791 262.061 1.97948 262.061 1.97948Z" fill="#BCB937"/>
<path d="M250.621 0.000101089C254.03 0.000101089 257.646 0.513651 261.675 1.56948C261.958 1.6121 262.107 1.63263 262.109 1.63263L262.383 1.67012L262.409 1.94642C262.749 5.62897 262.641 8.67677 262.071 11.5387L261.979 11.9921L261.569 11.7816C258.905 10.412 255.329 8.83907 251.299 8.83907C250.505 8.83907 249.699 8.89966 248.902 9.01829C246.892 9.33771 244.988 9.96318 243.148 10.5686C240.943 11.2927 238.862 11.9783 236.633 12.1683C226.614 12.3491 216.277 12.5355 206.099 12.6674C204.968 12.6828 203.839 12.6972 202.708 12.7101C200.387 12.8184 198.035 12.8734 195.73 12.8734C187.517 12.8734 179.194 12.1827 170.286 10.7664C168.726 10.4408 167.154 10.278 165.595 10.278C162.539 10.278 159.406 10.8896 156.016 12.1483C154.663 12.5601 153.219 12.7481 151.453 12.7481C150.46 12.7481 149.458 12.6911 148.49 12.6351C147.538 12.5796 146.554 12.5226 145.596 12.5226C144.48 12.516 143.374 12.5072 142.268 12.4939C138.65 12.4538 135.404 12.384 132.347 12.2818C131.364 12.2628 130.364 12.2659 129.373 12.29C125.45 12.3794 121.576 12.7496 116.967 13.2775C116.245 13.3602 115.522 13.445 114.8 13.5302L114.482 13.5667C109.921 13.9118 105.287 14.0781 100.3 14.0781C87.0214 14.0781 73.5274 12.8395 60.4775 11.6414L59.1252 11.5187C58.1447 11.4365 57.154 11.3626 56.1833 11.2999C53.9734 11.1556 51.7445 11.0555 49.5582 11.0021C48.4435 10.9759 47.3263 10.9605 46.2377 10.9569L46.1916 10.9538C45.207 10.8182 44.1661 10.753 43.01 10.753C39.4144 10.753 35.5371 11.3913 31.4318 12.0677C28.3255 12.5791 25.1136 13.1076 22.0518 13.3284C20.7978 13.4193 19.68 13.4537 18.5843 13.4321C17.5055 13.3956 16.3652 13.427 15.1281 13.4609C14.2444 13.485 13.3321 13.5096 12.4152 13.5096C7.22237 13.5096 1.69917 12.6546 0.104506 6.30889L0 5.89342L0.426717 5.8734C3.25235 5.74244 6.03546 5.20529 8.72739 4.6856C11.7794 4.09709 14.935 3.48802 18.1125 3.48802C19.6416 3.48802 21.0637 3.62514 22.456 3.90502C23.4585 3.88037 24.4574 3.79052 25.2181 3.71554C25.6207 3.67652 26.0239 3.63389 26.427 3.59127C26.9664 3.53375 27.5059 3.47621 28.0463 3.4264C29.2952 3.23639 30.5538 3.03099 31.8048 2.82814C36.7814 2.01933 41.4819 1.25519 46.415 1.25519C47.1239 1.25519 47.8308 1.27162 48.5162 1.30346C49.4532 1.31425 50.4008 1.33067 51.349 1.35223C53.8555 1.41026 56.5628 1.50887 59.8679 1.66345C60.8156 1.70761 61.7623 1.75435 62.7079 1.80211C69.5374 1.89814 76.5026 2.34542 83.2373 2.77884C90.8428 3.26824 98.7071 3.77406 106.415 3.77406C107.829 3.77406 109.225 3.75714 110.562 3.72222C111.651 3.64673 112.735 3.5476 113.772 3.42743C115.018 3.28159 116.278 3.11982 117.551 2.95703C120.324 2.60166 123.193 2.235 126.089 2.00493C127.214 1.91661 128.261 1.85499 129.292 1.8175C133.213 1.92842 136.827 2.02189 140.364 2.10611C141.589 2.13487 142.815 2.16156 144.04 2.18826L144.079 2.19137C148.221 2.7465 152.291 2.69155 156.149 2.03064C159.185 1.66243 162.379 1.48472 165.928 1.48472C170.365 1.48472 174.822 1.76462 179.133 2.03474C183.393 2.30229 187.798 2.57855 192.134 2.57855C194.431 2.57855 196.53 2.50308 198.552 2.34902L202.062 2.37623C205.942 2.40858 209.954 2.44249 213.904 2.44249C221.553 2.44249 227.763 2.30998 233.447 2.026C236.645 2.026 239.626 1.47807 242.784 0.896749C243.921 0.68774 245.098 0.470516 246.285 0.281536C247.71 0.0930691 249.166 0.000101089 250.621 0.000101089ZM261.738 2.28637C261.684 2.27918 261.623 2.26941 261.554 2.25863L261.517 2.25092C257.538 1.2069 253.974 0.699033 250.621 0.699033C249.197 0.699033 247.771 0.791479 246.386 0.972757C245.215 1.15866 244.043 1.37485 242.909 1.58283C239.721 2.1698 236.709 2.72493 233.464 2.72493C227.786 3.0084 221.565 3.14036 213.904 3.14036C209.952 3.14036 205.938 3.107 202.056 3.07516L198.576 3.04589C196.565 3.20097 194.449 3.27645 192.134 3.27645C187.777 3.27645 183.36 2.99914 179.089 2.73211C174.789 2.4625 170.343 2.18366 165.928 2.18366C162.407 2.18366 159.241 2.36032 156.25 2.72236C152.358 3.39047 148.212 3.44848 144.006 2.88616C142.787 2.85946 141.567 2.83277 140.348 2.80401C136.81 2.72082 133.194 2.62632 129.296 2.5154C128.297 2.55288 127.259 2.61348 126.144 2.7013C123.264 2.92879 120.405 3.29547 117.64 3.64878C116.365 3.8126 115.102 3.97435 113.854 4.12122C112.806 4.24242 111.709 4.34357 110.596 4.42009C109.238 4.45449 107.836 4.47196 106.416 4.47196C98.6855 4.47196 90.81 3.96562 83.1932 3.47674C76.4667 3.04383 69.5113 2.59603 62.6869 2.50051C61.7295 2.45224 60.7828 2.40602 59.8362 2.36134C56.5367 2.20831 53.8345 2.10919 51.3337 2.05117C50.388 2.02908 49.4434 2.01317 48.4968 2.0029C47.8093 1.97054 47.1137 1.95409 46.4155 1.95409C41.5382 1.95409 36.8644 2.71414 31.9169 3.51833C30.6624 3.72169 29.4017 3.9266 28.1303 4.11969C27.5735 4.17207 27.0366 4.22906 26.5003 4.28606C26.0951 4.32868 25.6904 4.37234 25.2857 4.41137C24.5035 4.4884 23.4723 4.58033 22.4335 4.60498L22.394 4.60599L22.3561 4.59727C20.9971 4.32202 19.6088 4.18645 18.1125 4.18645C15.0021 4.18645 12.0182 4.76264 8.85904 5.37271C6.27981 5.87033 3.61759 6.38335 0.892877 6.54819C2.49318 12.0384 7.36683 12.8092 12.4152 12.8092C13.3224 12.8092 14.2306 12.7845 15.1097 12.7604C16.3575 12.727 17.5234 12.6947 18.6028 12.7316C19.6473 12.7506 20.7686 12.7188 22.0011 12.6295C25.0311 12.4112 28.2276 11.8853 31.3181 11.3764C35.2707 10.7253 39.357 10.052 43.0094 10.052C44.1892 10.052 45.2531 10.1193 46.2628 10.2564C47.3488 10.26 48.463 10.2744 49.5751 10.3016C51.7701 10.355 54.0092 10.4551 56.2283 10.6C57.2026 10.6631 58.198 10.7381 59.1851 10.8198L60.5405 10.9445C74.1749 12.1955 87.0531 13.3767 100.299 13.3767C105.268 13.3767 109.885 13.2113 114.415 12.8688L114.718 12.8338C115.441 12.7486 116.164 12.6639 116.887 12.5812C121.514 12.0512 125.406 11.6789 129.357 11.5885C130.357 11.5654 131.359 11.5623 132.364 11.5803C135.421 11.6825 138.661 11.7523 142.275 11.7924C143.379 11.8052 144.485 11.8145 145.575 11.8212C146.573 11.8212 147.568 11.8787 148.529 11.9352C149.487 11.9901 150.479 12.0471 151.452 12.0471C153.148 12.0471 154.528 11.8679 155.793 11.4848C159.241 10.2025 162.454 9.57649 165.595 9.57649C167.201 9.57649 168.822 9.74495 170.411 10.0772C179.266 11.4853 187.553 12.1724 195.729 12.1724C198.023 12.1724 200.365 12.1175 202.688 12.0101C203.83 11.9973 204.96 11.9824 206.09 11.9675C216.266 11.8345 226.602 11.6486 236.599 11.4694C238.722 11.2861 240.766 10.6143 242.931 9.90259C244.797 9.28892 246.727 8.65418 248.796 8.325C249.631 8.20124 250.472 8.1391 251.299 8.1391C255.271 8.1391 258.786 9.59652 261.472 10.9471C261.94 8.35582 262.025 5.58326 261.738 2.28637Z" fill="#603813"/>
<path d="M29.2721 3.35061L29.6076 3.96429C29.627 3.9535 29.6358 3.94119 29.6358 3.94119C29.2162 4.52405 30.5752 9.54231 31.4425 11.9328L30.7873 12.1721C30.7576 12.092 27.9048 4.10396 29.2721 3.35061Z" fill="#603813"/>
<path d="M30.5557 3.64653L31.2534 3.6686C31.2053 5.21023 31.5767 6.42062 31.9706 7.70086C32.3328 8.88097 32.7072 10.1017 32.7195 11.5837L32.0218 11.5894C32.0101 10.2105 31.6673 9.09152 31.3036 7.90679C30.9102 6.62861 30.504 5.30474 30.5557 3.64653Z" fill="#603813"/>
<path d="M60.0764 2.72369H60.7741C60.7741 3.22387 60.77 3.72714 60.7659 4.23194C60.7459 6.67123 60.7255 9.19473 61.1855 11.518L60.5011 11.6541C60.0267 9.26098 60.0477 6.70101 60.0677 4.2268C60.0723 3.72405 60.0764 3.22233 60.0764 2.72369Z" fill="#603813"/>
<path d="M61.9604 2.49137H62.6581C62.6581 3.72951 62.779 5.05184 62.8963 6.33003C63.0587 8.10994 63.2273 9.95047 63.0756 11.6179L62.3805 11.5553C62.5265 9.95098 62.3616 8.14334 62.2012 6.39475C62.0834 5.10013 61.9604 3.76186 61.9604 2.49137Z" fill="#603813"/>
<path d="M91.5051 3.53088L92.1546 3.78507C90.9508 6.88374 91.0199 9.83042 91.5476 13.873L90.856 13.9644C90.4052 10.5062 90.1148 7.1061 91.5051 3.53088Z" fill="#603813"/>
<path d="M93.3993 3.74092L94.0294 4.04084C93.0725 6.05441 92.5925 10.8369 93.4178 13.3425L92.7554 13.5623C91.8677 10.8683 92.3682 5.91008 93.3993 3.74092Z" fill="#603813"/>
<path d="M125.447 2.31485L126.048 2.66969C124.716 4.9426 124.772 8.24513 124.821 11.1605C124.831 11.7069 124.84 12.2404 124.84 12.7524H124.142C124.142 12.2435 124.133 11.7146 124.124 11.1723C124.073 8.16503 124.015 4.75671 125.447 2.31485Z" fill="#603813"/>
<path d="M127.98 2.48426C128.008 3.81894 127.579 5.12845 127.164 6.39482C126.551 8.26717 125.972 10.0363 126.701 11.9271L126.05 12.1782C125.231 10.0548 125.877 8.08228 126.501 6.17604C126.916 4.90967 127.307 3.71313 127.282 2.49862L127.98 2.48426Z" fill="#603813"/>
<path d="M156.4 1.92458L157.068 2.12744C155.543 7.16366 155.317 10.515 156.394 12.0884L155.819 12.4844C154.598 10.7019 154.788 7.24787 156.4 1.92458Z" fill="#603813"/>
<path d="M158.121 2.29322L158.694 2.69018C157.221 4.82854 157.25 7.42137 157.282 10.1672C157.287 10.5616 157.291 10.957 157.291 11.354H156.594C156.594 10.9596 156.589 10.5662 156.584 10.1744C156.553 7.4419 156.52 4.61439 158.121 2.29322Z" fill="#603813"/>
<path d="M181.936 2.87253L182.612 3.04404C182.041 5.31591 181.952 10.1293 183.002 12.1228L182.384 12.45C181.222 10.2412 181.345 5.22297 181.936 2.87253Z" fill="#603813"/>
<path d="M184.229 3.16646L184.925 3.2183C184.856 4.15602 184.607 5.13481 184.365 6.08023C183.873 8.00701 183.365 10.0001 184.264 11.9048L183.633 12.2036C182.626 10.0704 183.166 7.95413 183.689 5.90718C183.934 4.94738 184.165 4.04255 184.229 3.16646Z" fill="#603813"/>
<path d="M216.56 2.49139L217.082 2.95615C215.207 5.06883 216.138 10.2452 216.536 12.456L215.849 12.5808C215.433 10.2699 214.459 4.85878 216.56 2.49139Z" fill="#603813"/>
<path d="M217.326 3.08124L217.988 3.30102C217.327 5.30842 217.052 10.8407 218.314 12.0316L217.837 12.5405C216.155 10.9563 216.746 4.84163 217.326 3.08124Z" fill="#603813"/>
<path d="M252.303 0.71862L252.941 0.997986C251.999 3.15842 252.703 6.8487 253.368 8.66661L252.714 8.90796C251.983 6.91185 251.27 3.08344 252.303 0.71862Z" fill="#603813"/>
<path d="M253.739 0.858368H254.436C254.436 1.35598 254.43 1.85155 254.424 2.34249C254.393 4.72067 254.364 6.96841 255.049 9.14939L254.383 9.35889C253.666 7.07161 253.695 4.76945 253.726 2.33324C253.733 1.84487 253.739 1.35393 253.739 0.858368Z" fill="#603813"/>
</svg>
