<svg width="705" height="790" viewBox="0 0 705 790" fill="none" xmlns="http://www.w3.org/2000/svg">
<path d="M36.5575 9.09375C44.6365 4.65131 53.2545 6.79303 61.6857 10.1572C64.5145 11.2799 67.3244 12.5388 70.1344 13.7397C74.6948 15.8167 79.2741 17.6523 84.769 18.5702C92.095 19.4881 99.421 19.4881 106.748 20.4059C136.969 27.7502 164.442 34.1779 194.664 29.5886C200.158 28.6694 204.738 26.8323 210.231 25.9158C259.684 24.0787 308.22 24.9966 358.588 18.5702C378.737 15.8167 397.968 20.4059 418.115 22.2444C440.093 24.998 462.073 23.1608 484.155 24.1205C487.55 24.1987 490.993 24.2728 494.431 24.3605C518.505 24.971 542.477 26.1895 565.557 33.2614C571.053 35.0958 577.462 35.0958 582.955 34.1807C612.261 29.5914 642.482 15.8193 666.291 28.6721C671.787 31.4257 674.534 49.7869 676.13 62.3607C676.453 65.4607 676.726 68.5499 677.015 71.6364C678.894 93.2405 681.476 114.663 680.943 136.085C680.026 203.102 677.28 270.121 674.533 337.14C673.616 352.747 669.039 368.354 668.122 383.96C666.29 404.157 672.702 423.436 679.112 441.797C681.859 449.142 683.689 456.486 681.859 463.832C672.702 497.799 665.373 529.932 669.039 564.818C672.703 606.131 679.112 647.444 674.533 688.756C672.816 704.824 673.604 721.607 672.645 737.761C672.456 740.993 672.193 744.197 671.829 747.369C671.796 758.964 666.7 769.186 656.525 772.801C654.459 773.523 652.185 773.983 649.661 774.136C641.566 774.135 633.323 775.054 625.083 774.135C601.271 771.381 580.209 760.364 556.399 762.2C546.324 762.2 538.998 771.381 528.924 771.381C509.691 771.381 492.292 765.873 472.145 769.546C392.472 786.071 315.546 790.66 235.874 771.381C190.084 760.364 144.296 777.808 97.5899 777.808C86.6015 777.808 77.4443 769.546 67.3688 765.873C63.7052 764.037 59.1272 764.954 55.6894 765.214C53.0596 765.987 50.4836 767.078 47.9936 768.311C45.5037 769.546 43.0998 770.923 40.8101 772.299C40.4659 769.889 40.2522 767.466 40.1365 765.03C40.0317 762.595 40.0263 760.149 40.0921 757.686C40.8101 747.513 41.7271 738.333 40.8101 728.234C38.0634 708.035 34.3997 687.838 37.1464 667.641C41.7257 628.164 41.7257 590.523 43.5582 551.047C44.4738 532.686 49.9673 515.244 51.7998 496.881C52.7154 483.109 49.9686 470.257 48.1361 457.405C35.3152 365.599 45.3894 276.547 42.4423 185.935C42.4356 183.877 42.4356 181.828 42.4356 179.796C42.4356 169.627 42.4356 159.785 42.4356 150.331C42.4356 146.547 42.4356 142.829 42.4356 139.17C43.4896 123.642 42.8833 108.273 41.7042 92.9656C41.4689 89.902 41.2094 86.8424 40.9459 83.7721C38.0647 58.9696 38.0647 35.0971 36.4621 10.1329C36.5212 9.44012 36.5575 9.09375 36.5575 9.09375Z" fill="#F9EEB9"/>
<path d="M22.6806 13.1655C31.0432 12.3043 39.2848 12.3042 47.5265 14.1426C42.0316 26.0762 38.3693 38.0125 40.2004 51.7817C42.0316 64.6345 47.5265 75.653 48.4421 87.5878C48.9207 117.317 49.3993 147.047 49.7462 176.778C49.7852 180.08 49.8241 183.384 49.8578 186.687C51.1901 218.872 49.3576 249.165 44.781 281.297C42.0329 295.987 43.8641 309.756 48.4434 323.528C51.1915 333.626 49.359 343.725 49.3684 353.702C49.3496 356.893 49.3267 360.125 49.2931 363.352C49.195 373.041 49.0255 382.705 48.7365 392.337C48.6881 395.256 48.6988 398.17 48.758 401.087C49.0067 413.214 50.1065 425.33 51.3501 437.443C51.6002 439.867 51.8543 442.291 52.1084 444.711C55.7721 498.877 51.1928 552.124 46.744 606.328C46.5302 609.204 46.3379 612.08 46.1685 614.954C45.7921 621.423 45.5299 627.893 45.3901 634.361C45.3202 637.596 45.2799 640.835 45.2718 644.091C42.7375 664.667 49.9425 691.021 51.4832 714.87C51.7024 718.277 51.8073 721.635 51.7508 724.914C51.1928 743.081 56.6877 771.542 33.7927 777.967C32.8757 755.933 24.6341 735.736 28.642 713.702C28.5842 710.948 28.3852 708.193 28.1405 705.439C27.8972 702.685 27.6121 699.931 27.3822 697.176C24.6341 676.979 20.9704 657.7 21.8282 637.476C21.8551 634.705 21.8981 631.939 21.9546 629.172C22.1267 620.884 22.4225 612.591 22.7693 604.291C22.885 601.524 23.006 598.757 23.131 595.993C23.7199 549.369 29.2134 502.549 28.1606 456.018C27.9644 452.848 27.7089 449.693 27.3822 446.546C26.1614 434.918 24.5333 422.881 23.6621 410.578C23.4456 407.501 23.2748 404.397 23.1727 401.258C23.4469 390.47 23.7011 379.705 23.9283 368.951C24.0036 365.367 24.0748 361.784 24.1447 358.203C25.551 346.477 25.551 334.542 23.7199 322.608C19.1406 280.376 27.3836 239.981 24.5615 198.747C24.5857 195.355 24.6099 191.963 24.6355 188.573C24.8654 158.047 25.0939 127.519 23.7199 96.765C23.7199 83.9149 20.9718 71.9774 19.1406 59.1259C17.3094 43.5169 19.1406 28.8284 22.5112 14.4985C22.6241 13.6238 22.6806 13.1655 22.6806 13.1655Z" fill="#BCB937"/>
<path d="M32.8252 11.6898C38.1561 11.6898 43.0298 12.1992 47.7247 13.2437L48.8339 13.4918L48.3566 14.5256C43.6819 24.6827 39.1618 37.0367 41.1059 51.6605C41.9462 57.5559 43.5864 63.125 45.1716 68.5163C47.0659 74.9494 48.8554 81.0267 49.3528 87.5151C49.8261 116.804 50.3115 147.035 50.6597 176.769C50.6987 180.071 50.7363 183.374 50.7713 186.681C52.0633 217.887 50.4459 248.003 45.6838 281.428C43.1576 294.937 44.3111 308.212 49.3071 323.24C51.3238 330.642 50.942 338.024 50.5723 345.166C50.4271 347.974 50.2752 350.874 50.2779 353.703C50.2604 356.901 50.2362 360.132 50.2026 363.363C50.0964 373.939 49.9135 383.425 49.6473 392.366C49.6003 395.146 49.6056 398.077 49.6675 401.069C49.9014 412.55 50.8708 423.877 52.2556 437.352C52.4747 439.481 52.6966 441.609 52.9211 443.736L53.0125 444.617C56.5942 497.569 52.4061 548.515 47.9734 602.45L47.6494 606.405C47.4356 609.276 47.242 612.172 47.0767 615.011C46.7002 621.469 46.4367 627.989 46.2982 634.385C46.227 637.643 46.1893 640.912 46.1799 644.096L46.1732 644.207C44.6001 656.977 46.7809 671.759 49.0894 687.411C50.4271 696.487 51.8119 705.872 52.3887 714.814C52.6267 718.476 52.7141 721.786 52.6603 724.933C52.5648 728.052 52.6468 731.45 52.7342 735.044C53.151 752.108 53.6659 773.344 34.0326 778.854L32.9194 779.166L32.871 778.009C32.5268 769.734 31.1205 761.591 29.7585 753.717C27.5294 740.809 25.2236 727.461 27.7176 713.634C27.6531 710.687 27.4178 707.756 27.2228 705.524C27.1193 704.348 27.0077 703.17 26.8948 701.992C26.7456 700.413 26.595 698.835 26.4646 697.257C25.9644 693.594 25.4293 689.914 24.8956 686.252C22.4836 669.683 20.206 654.033 20.9079 637.442C20.9347 634.697 20.9764 631.927 21.0342 629.157C21.1862 621.831 21.4456 613.919 21.8503 604.256C21.9659 601.489 22.0883 598.721 22.2133 595.955C22.4634 575.989 23.6371 555.63 24.7705 535.945C26.2803 509.718 27.8426 482.601 27.2417 456.047C27.044 452.855 26.7818 449.678 26.4686 446.646C26.0854 443.002 25.6619 439.319 25.2357 435.598C24.3053 427.492 23.344 419.111 22.7457 410.647C22.5145 407.361 22.3532 404.301 22.255 401.293C22.5441 389.853 22.7914 379.287 23.0092 368.936C23.0859 365.354 23.1558 361.771 23.2257 358.19L23.2324 358.098C24.6885 345.954 24.5473 334.064 22.8116 322.752C20.3365 299.928 21.6016 277.401 22.8237 255.613C23.867 237.035 24.9466 217.82 23.6438 198.814L23.7178 188.57C23.9437 158.565 24.1763 127.541 22.8022 96.8123C22.8009 87.4504 21.3636 78.7247 19.8403 69.4908C19.2931 66.1657 18.7258 62.7275 18.2323 59.2595C16.5975 45.3406 17.6757 31.0578 21.6177 14.2924C21.7172 13.516 21.7723 13.0618 21.7723 13.0577L21.8597 12.3326L22.5871 12.2571C26.2629 11.8743 29.6106 11.6898 32.8252 11.6898ZM46.2162 14.8005C39.3944 13.4176 32.2377 13.1589 23.4946 14.0067C23.4704 14.1805 23.4449 14.3867 23.4139 14.6212C19.5056 31.2587 18.4421 45.3379 20.046 59.0195C20.5341 62.443 21.1001 65.8705 21.646 69.1875C23.1814 78.4995 24.6307 87.2967 24.6307 96.7651C26.0061 127.503 25.7721 158.553 25.5476 188.578L25.4723 198.754C26.7805 217.804 25.6969 237.075 24.6509 255.713C23.4328 277.426 22.1716 299.877 24.6267 322.511C26.3798 333.935 26.5251 345.977 25.0555 358.269C24.9843 361.836 24.9157 365.403 24.8404 368.972C24.6213 379.326 24.3739 389.893 24.0848 401.282C24.183 404.215 24.343 407.252 24.5729 410.515C25.1685 418.939 26.1271 427.299 27.0561 435.385C27.4837 439.11 27.9072 442.8 28.289 446.452C28.6063 449.511 28.8712 452.711 29.0715 455.966C29.6751 482.631 28.1129 509.785 26.599 536.048C25.467 555.715 24.2946 576.051 24.0445 596.005C23.9181 598.798 23.7971 601.566 23.6815 604.332C23.2781 613.981 23.0214 621.88 22.8681 629.192C22.8103 631.957 22.7686 634.721 22.7404 637.487C22.0439 653.934 24.3107 669.503 26.7106 685.985C27.2444 689.653 27.7795 693.337 28.2863 697.055C28.4221 698.673 28.5714 700.245 28.7206 701.815C28.8322 702.997 28.9451 704.179 29.0486 705.36C29.2503 707.642 29.4896 710.652 29.5528 713.684L29.5555 713.777L29.538 713.867C27.075 727.408 29.257 740.033 31.5682 753.4C32.8723 760.96 34.2222 768.765 34.647 776.748C51.7823 771.151 51.3185 752.012 50.9057 735.086C50.8183 731.463 50.735 728.042 50.8318 724.887C50.8856 721.802 50.7982 718.542 50.5656 714.931C49.9915 706.065 48.6134 696.716 47.281 687.677C44.9564 671.922 42.7622 657.04 44.3514 644.034C44.3608 640.855 44.3998 637.595 44.4697 634.344C44.6082 627.923 44.8731 621.382 45.2522 614.9C45.4189 612.053 45.6125 609.146 45.8263 606.259L46.1517 602.298C50.5777 548.43 54.7603 497.551 51.1907 444.773L51.102 443.923C50.8775 441.795 50.6556 439.665 50.4365 437.537C49.049 424.017 48.0756 412.647 47.839 401.104C47.7785 398.091 47.7718 395.134 47.8188 392.318C48.0864 383.378 48.2679 373.904 48.3741 363.343C48.4063 360.113 48.4319 356.883 48.4494 353.695C48.4467 350.825 48.5986 347.898 48.7451 345.069C49.1082 338.074 49.4819 330.837 47.558 323.769C42.4732 308.483 41.2995 294.915 43.8795 281.126C48.6188 247.855 50.2322 217.846 48.9441 186.725C48.9078 183.395 48.8702 180.09 48.8312 176.789C48.483 147.059 47.9976 116.831 47.5271 87.5987C47.0471 81.361 45.2845 75.3726 43.4183 69.0325C41.813 63.5819 40.154 57.9427 39.2935 51.9099C37.3521 37.3171 41.6087 24.9994 46.2162 14.8005Z" fill="#603813"/>
<path d="M48.7073 687.452L49.3943 689.155C47.8146 689.794 42.6478 691.676 37.5791 693.1C28.6451 695.609 26.8543 694.827 26.252 693.607L27.8935 692.794C29.3402 693.96 42.4542 689.984 48.7073 687.452Z" fill="#603813"/>
<path d="M47.8217 683.713L47.8405 685.548C44.2427 685.582 41.3198 686.585 38.2275 687.644C34.8704 688.795 31.3976 689.984 27.0415 689.833L27.106 687.997C31.1166 688.148 34.2883 687.055 37.6346 685.908C40.7283 684.846 43.9295 683.749 47.8217 683.713Z" fill="#603813"/>
<path d="M47.6324 600.497L48.0291 602.29C41.7504 603.679 35.0415 603.619 28.5584 603.558C27.2435 603.546 25.9327 603.534 24.6299 603.534V601.7C25.9381 601.7 27.2543 601.712 28.5759 601.724C34.9554 601.783 41.5608 601.841 47.6324 600.497Z" fill="#603813"/>
<path d="M44.2131 594.797C45.4756 594.797 46.7152 594.849 47.9225 594.971L47.7383 596.799C43.5517 596.373 38.8205 596.854 34.2479 597.323C30.8571 597.668 27.3508 598.027 24.0205 598.027V596.191C27.258 596.191 30.7187 595.838 34.0637 595.497C37.4397 595.152 40.899 594.797 44.2131 594.797Z" fill="#603813"/>
<path d="M27.4377 509.967C35.5314 513.481 43.2352 513.276 53.8041 511.738L54.0677 513.555C45.0019 514.876 36.0867 515.722 26.709 511.652L27.4377 509.967Z" fill="#603813"/>
<path d="M28.1127 504.488C33.3669 507.278 45.8584 508.679 52.3992 506.274L53.0311 507.997C45.9578 510.597 32.9474 509.133 27.2549 506.111L28.1127 504.488Z" fill="#603813"/>
<path d="M24.5213 410.891C30.4558 414.774 39.094 414.611 46.7145 414.465C48.1423 414.438 49.5406 414.411 50.8837 414.411V416.247C49.5513 416.247 48.1665 416.274 46.7495 416.301C38.8655 416.451 29.9288 416.618 23.521 412.426L24.5213 410.891Z" fill="#603813"/>
<path d="M24.3191 405.229C27.718 405.229 31.0469 406.446 34.2669 407.622C39.1527 409.409 43.7723 411.094 48.6904 408.978L49.4137 410.666C43.822 413.069 38.6458 411.176 33.6404 409.347C30.3316 408.138 27.1882 407.008 24.0408 407.068L24.0005 405.235C24.1067 405.23 24.2129 405.229 24.3191 405.229Z" fill="#603813"/>
<path d="M23.0923 320.207C36.252 324.655 45.0045 325.321 49.1092 322.184L50.2184 323.643C45.5396 327.221 36.4725 326.666 22.5088 321.947L23.0923 320.207Z" fill="#603813"/>
<path d="M24.5812 315.453C30.1648 319.75 36.9383 319.665 44.1124 319.575C45.1463 319.56 46.1829 319.548 47.2222 319.548V321.385C46.1923 321.385 45.1611 321.397 44.1353 321.413C36.9652 321.5 29.5545 321.598 23.4653 316.909L24.5812 315.453Z" fill="#603813"/>
<path d="M49.1997 244.391L50.126 245.978C44.3273 249.385 31.1595 249.026 24.9951 247.292L25.4899 245.525C31.4217 247.192 43.9939 247.452 49.1997 244.391Z" fill="#603813"/>
<path d="M25.9282 238.761C28.3926 238.961 30.9579 239.693 33.4384 240.402C38.4654 241.834 43.6644 243.313 48.6282 240.701L49.4806 242.325C43.8715 245.282 38.3121 243.697 32.9369 242.167C30.4321 241.454 28.0645 240.781 25.7803 240.59L25.9282 238.761Z" fill="#603813"/>
<path d="M25.2725 144.768C30.7889 150.236 44.3156 147.516 50.0915 146.358L50.4518 148.159C44.3909 149.377 30.196 152.23 23.9858 146.074L25.2725 144.768Z" fill="#603813"/>
<path d="M48.9621 141.157L50.3604 142.343C46.4049 147.029 30.8991 145.812 25.5347 143.833L26.1666 142.11C31.41 144.042 45.8537 144.84 48.9621 141.157Z" fill="#603813"/>
<path d="M40.159 38.6877L40.8487 40.3873C35.6093 42.5303 25.558 44.6167 19.3452 41.5895L20.1465 39.9371C25.7785 42.6826 35.4076 40.6272 40.159 38.6877Z" fill="#603813"/>
<path d="M41.4221 33.7737L42.0271 35.507C36.0254 37.6095 29.9927 37.5206 23.6037 37.4303C22.3265 37.4128 21.0412 37.3966 19.7451 37.3966V35.5595C21.0493 35.5595 22.344 35.5798 23.6306 35.596C29.8488 35.6863 35.7269 35.7712 41.4221 33.7737Z" fill="#603813"/>
<path d="M17.1971 784.806C16.4227 776.422 16.4227 768.159 18.071 759.898C28.7878 765.406 39.5019 769.078 51.8671 767.242C63.4053 765.406 73.2966 759.898 84.0107 758.979C110.703 758.5 137.394 758.02 164.088 757.671C167.052 757.632 170.018 757.593 172.984 757.559C201.878 756.225 229.078 758.061 257.926 762.65C271.114 765.405 283.478 763.569 295.841 758.977C304.906 756.224 313.973 758.06 322.929 758.05C325.794 758.069 328.695 758.093 331.594 758.127C340.291 758.224 348.969 758.395 357.615 758.684C360.237 758.733 362.856 758.723 365.471 758.663C376.361 758.414 387.236 757.311 398.115 756.063C400.289 755.815 402.464 755.559 404.641 755.305C453.27 751.632 501.076 756.224 549.739 760.684C552.323 760.898 554.904 761.091 557.486 761.259C563.294 761.638 569.101 761.901 574.909 762.041C577.813 762.111 580.722 762.151 583.645 762.16C602.118 764.699 625.778 757.477 647.19 755.933C650.252 755.713 653.265 755.607 656.208 755.663C672.518 756.224 698.071 750.715 703.84 773.666C684.059 774.585 665.924 782.847 646.143 778.829C643.669 778.887 641.198 779.088 638.724 779.332C636.25 779.576 633.779 779.863 631.307 780.092C613.175 782.846 595.865 786.519 577.709 785.659C575.219 785.632 572.736 785.589 570.252 785.532C562.81 785.36 555.368 785.063 547.916 784.717C545.429 784.599 542.945 784.478 540.463 784.353C498.606 783.764 456.57 778.255 414.796 779.311C411.948 779.507 409.115 779.763 406.29 780.092C395.849 781.315 385.042 782.948 373.999 783.82C371.235 784.039 368.447 784.208 365.628 784.312C355.945 784.037 346.278 783.783 336.625 783.553C333.408 783.478 330.19 783.408 326.976 783.338C316.449 781.928 305.733 781.928 295.018 783.764C257.104 788.353 220.836 780.091 183.815 782.919C180.768 782.896 177.725 782.87 174.679 782.844C147.272 782.615 119.866 782.385 92.255 783.764C80.7167 783.764 70.0013 786.517 58.4603 788.353C44.4482 790.189 31.2617 788.353 18.395 784.974C17.6085 784.861 17.1971 784.806 17.1971 784.806Z" fill="#BCB937"/>
<path d="M441.757 753.051C476.605 753.051 512.018 756.302 546.267 759.445L549.822 759.771C552.395 759.984 554.996 760.177 557.542 760.343C563.342 760.723 569.193 760.984 574.932 761.124C577.857 761.195 580.788 761.234 583.646 761.242L583.767 761.25C586.351 761.606 589.082 761.78 592.118 761.78C601.556 761.78 611.731 760.103 622.506 758.329C630.66 756.985 639.088 755.598 647.124 755.018C650.417 754.78 653.351 754.693 656.226 754.747C659.057 754.844 662.051 754.761 665.296 754.671C667.615 754.608 670.013 754.543 672.418 754.543C686.044 754.543 700.542 756.787 704.727 773.441L705 774.533L703.881 774.584C696.465 774.927 689.161 776.337 682.097 777.7C674.085 779.244 665.803 780.844 657.463 780.844C653.449 780.844 649.719 780.486 646.065 779.753C643.428 779.817 640.811 780.052 638.814 780.247C637.756 780.351 636.698 780.463 635.643 780.576C634.224 780.726 632.81 780.877 631.391 781.007C628.113 781.507 624.81 782.044 621.523 782.578C608.464 784.7 596.13 786.706 583.178 786.706C581.316 786.706 579.462 786.663 577.663 786.577C575.206 786.55 572.719 786.508 570.23 786.45C563.651 786.298 556.546 786.037 547.87 785.634C545.385 785.517 542.899 785.395 540.417 785.271C522.493 785.017 504.214 783.843 486.536 782.707C466.575 781.424 445.935 780.095 425.704 780.095C421.992 780.095 418.329 780.139 414.818 780.23C411.962 780.425 409.115 780.688 406.394 781.003C403.123 781.388 399.817 781.812 396.475 782.238C389.197 783.171 381.67 784.134 374.067 784.735C371.116 784.969 368.365 785.13 365.66 785.23C355.371 784.939 345.886 784.692 336.602 784.471C333.385 784.396 330.167 784.326 326.953 784.256L326.851 784.248C315.978 782.791 305.3 782.932 295.171 784.669C287.202 785.636 278.822 786.102 269.506 786.102C257.863 786.102 246.166 785.369 234.852 784.661C223.67 783.961 212.108 783.235 200.727 783.235C194.7 783.235 189.19 783.432 183.883 783.838L174.671 783.766C164.488 783.682 153.958 783.593 143.592 783.593C123.515 783.593 107.218 783.939 92.3019 784.683C83.9057 784.684 76.0822 786.124 67.7962 787.649C64.8088 788.198 61.7219 788.767 58.6041 789.263C54.8651 789.753 51.0441 790 47.2271 790C38.2783 790 28.7863 788.652 18.2107 785.878C17.4685 785.768 17.08 785.714 17.0746 785.714L16.3526 785.617L16.2868 784.889C15.394 775.225 15.6764 767.226 17.1741 759.716L17.4134 758.525L18.4904 759.078C25.4843 762.673 34.8687 766.8 45.4444 766.8C47.5283 766.8 49.6445 766.642 51.7338 766.331C57.0109 765.493 62.0069 763.85 66.839 762.263C72.6242 760.362 78.0882 758.565 83.9353 758.064C110.235 757.589 137.363 757.101 164.077 756.754C167.043 756.714 170.008 756.675 172.974 756.64C179.066 756.359 185.24 756.216 191.291 756.216C212.846 756.216 234.69 758.025 258.07 761.744C262.164 762.599 266.29 763.028 270.381 763.028C278.403 763.028 286.625 761.421 295.522 758.118C299.074 757.037 302.863 756.542 307.5 756.542C310.105 756.542 312.735 756.694 315.277 756.841C317.774 756.984 320.355 757.135 322.872 757.135C325.803 757.154 328.705 757.177 331.606 757.21C341.103 757.317 349.623 757.5 357.647 757.768C360.225 757.817 362.85 757.806 365.452 757.748C375.748 757.512 385.916 756.541 398.012 755.154C399.907 754.937 401.804 754.714 403.701 754.493L404.534 754.396C416.504 753.49 428.666 753.051 441.757 753.051ZM583.582 763.079C580.73 763.071 577.805 763.03 574.887 762.96C569.126 762.82 563.249 762.557 557.425 762.177C554.868 762.01 552.254 761.816 549.663 761.6L546.103 761.274C510.32 757.991 476.521 754.888 441.759 754.888C428.715 754.888 416.597 755.325 404.71 756.222L403.913 756.315C402.016 756.538 400.118 756.76 398.221 756.977C386.075 758.37 375.861 759.347 365.493 759.583C362.865 759.642 360.237 759.653 357.6 759.604C349.578 759.336 341.072 759.153 331.587 759.046C328.689 759.014 325.789 758.99 322.926 758.971C320.306 758.971 317.696 758.821 315.173 758.674C312.656 758.529 310.054 758.378 307.501 758.378C303.049 758.378 299.429 758.848 296.107 759.858C287.054 763.22 278.624 764.863 270.381 764.863C266.165 764.863 261.911 764.421 257.739 763.549C234.499 759.852 212.749 758.051 191.291 758.051C185.267 758.051 179.121 758.194 173.027 758.476C170.031 758.511 167.064 758.549 164.099 758.589C137.392 758.937 110.263 759.425 84.0267 759.897C78.4552 760.375 73.0881 762.139 67.4077 764.007C62.5071 765.618 57.4411 767.284 52.0108 768.148C49.8233 768.473 47.6157 768.636 45.443 768.636C35.0206 768.636 25.7949 764.812 18.7445 761.266C17.5156 768.067 17.2924 775.345 18.0453 783.997C18.1865 784.018 18.3492 784.041 18.5307 784.068L18.6261 784.09C29.07 786.831 38.4235 788.164 47.2258 788.164C50.9634 788.164 54.7024 787.922 58.3406 787.446C61.4113 786.958 64.4888 786.392 67.4655 785.843C75.8335 784.303 83.7376 782.849 92.2549 782.849C107.157 782.105 123.484 781.757 143.592 781.757C153.966 781.757 164.5 781.844 174.687 781.931L183.823 782.005C189.099 781.599 194.654 781.4 200.728 781.4C212.166 781.4 223.758 782.126 234.969 782.83C246.254 783.537 257.921 784.268 269.509 784.268C278.749 784.268 287.058 783.806 294.91 782.855C305.125 781.102 316.007 780.949 327.046 782.425C330.244 782.494 333.445 782.566 336.648 782.64C345.933 782.858 355.422 783.106 365.653 783.397C368.274 783.3 371 783.14 373.926 782.908C381.485 782.313 388.988 781.351 396.247 780.421C399.592 779.993 402.906 779.568 406.185 779.184C408.935 778.864 411.812 778.599 414.735 778.399C418.299 778.308 421.978 778.262 425.706 778.262C445.995 778.262 466.665 779.591 486.656 780.875C504.31 782.012 522.566 783.186 540.477 783.436C542.99 783.563 545.474 783.684 547.957 783.8C556.617 784.204 563.708 784.463 570.273 784.616C572.755 784.672 575.233 784.715 577.72 784.742C579.521 784.827 581.349 784.87 583.18 784.87C595.981 784.87 608.247 782.877 621.232 780.765C624.522 780.231 627.834 779.692 631.172 779.185C632.632 779.048 634.043 778.898 635.45 778.75C636.514 778.637 637.575 778.523 638.638 778.42C640.688 778.217 643.396 777.978 646.124 777.913L646.226 777.91L646.326 777.932C649.891 778.656 653.536 779.009 657.465 779.009C665.628 779.009 673.461 777.498 681.753 775.898C688.522 774.592 695.509 773.243 702.66 772.811C698.459 758.399 685.668 756.38 672.421 756.38C670.039 756.38 667.654 756.445 665.349 756.508C662.073 756.596 659.015 756.681 656.179 756.582C653.435 756.528 650.496 756.617 647.259 756.851C639.307 757.425 630.918 758.805 622.805 760.141C612.433 761.85 601.707 763.614 592.122 763.614C589.023 763.614 586.229 763.439 583.582 763.079Z" fill="#603813"/>
<path d="M624.197 758.053C624.273 758.264 631.762 779.23 628.175 781.206L627.293 779.596C627.24 779.625 627.219 779.654 627.219 779.654C628.321 778.125 624.753 764.955 622.477 758.681L624.197 758.053Z" fill="#603813"/>
<path d="M620.957 759.584C620.985 763.204 621.886 766.138 622.842 769.246C623.872 772.605 624.938 776.077 624.803 780.429L622.973 780.373C623.097 776.325 622.122 773.15 621.091 769.787C620.141 766.69 619.158 763.486 619.127 759.597L620.957 759.584Z" fill="#603813"/>
<path d="M546.208 759.411C547.453 765.695 547.4 772.412 547.345 778.908C547.335 780.227 547.324 781.543 547.324 782.85H545.494C545.494 781.537 545.505 780.216 545.516 778.893C545.568 772.489 545.62 765.867 544.413 759.77L546.208 759.411Z" fill="#603813"/>
<path d="M539.454 759.507L541.278 759.674C540.892 763.882 541.325 768.628 541.746 773.218C542.058 776.615 542.379 780.126 542.379 783.461H540.55C540.55 780.211 540.232 776.742 539.924 773.386C539.496 768.713 539.055 763.882 539.454 759.507Z" fill="#603813"/>
<path d="M466.539 753.352C467.723 762.425 468.483 771.348 464.835 780.732L463.129 780.065C466.288 771.934 466.106 764.2 464.722 753.589L466.539 753.352Z" fill="#603813"/>
<path d="M461.555 754.406C463.881 761.475 462.571 774.488 459.862 780.183L458.209 779.393C460.72 774.109 461.979 761.557 459.813 754.981L461.555 754.406Z" fill="#603813"/>
<path d="M377.346 756.53H379.178C379.178 757.865 379.202 759.254 379.223 760.677C379.359 768.568 379.511 777.514 375.753 783.924L374.173 782.994C377.67 777.03 377.522 768.36 377.392 760.708C377.371 759.275 377.346 757.876 377.346 756.53Z" fill="#603813"/>
<path d="M374.172 758.037C376.319 763.611 374.625 768.785 372.986 773.79C371.897 777.115 370.87 780.254 370.935 783.442L369.104 783.479C369.033 779.978 370.158 776.541 371.246 773.217C372.855 768.303 374.375 763.661 372.464 758.698L374.172 758.037Z" fill="#603813"/>
<path d="M296.041 757.233C299.245 761.912 298.746 770.977 294.515 784.95L292.762 784.416C296.765 771.198 297.359 762.402 294.532 758.272L296.041 757.233Z" fill="#603813"/>
<path d="M292.175 760.201H294.005C294.005 761.235 294.017 762.266 294.028 763.296C294.112 770.469 294.198 777.887 289.996 783.982L288.49 782.938C292.358 777.324 292.279 770.52 292.198 763.316C292.188 762.281 292.175 761.242 292.175 760.201Z" fill="#603813"/>
<path d="M226.315 757.325C229.367 763.123 229.045 776.291 227.492 782.459L225.716 782.01C227.217 776.048 227.449 763.414 224.694 758.181L226.315 757.325Z" fill="#603813"/>
<path d="M223.034 757.973C225.676 763.571 224.259 769.126 222.888 774.499C222.247 777.015 221.64 779.391 221.471 781.691L219.645 781.556C219.825 779.094 220.481 776.527 221.115 774.043C222.405 768.986 223.739 763.757 221.379 758.759L223.034 757.973Z" fill="#603813"/>
<path d="M138.486 756.981C139.577 763.047 142.134 777.248 136.62 783.459L135.251 782.239C140.172 776.696 137.728 763.109 136.683 757.308L138.486 756.981Z" fill="#603813"/>
<path d="M133.268 757.088C137.68 761.248 136.132 777.293 134.607 781.914L132.869 781.338C134.606 776.07 135.328 761.55 132.012 758.425L133.268 757.088Z" fill="#603813"/>
<path d="M41.7324 766.621C43.6509 771.861 45.5198 781.909 42.812 788.114L41.1341 787.379C43.6093 781.708 41.7606 772.024 40.0142 767.252L41.7324 766.621Z" fill="#603813"/>
<path d="M37.3518 765.437C39.2341 771.439 39.1574 777.482 39.0754 783.877C39.058 785.159 39.0431 786.447 39.0431 787.747H37.212C37.212 786.44 37.2295 785.141 37.2443 783.853C37.3249 777.608 37.4002 771.71 35.604 765.989L37.3518 765.437Z" fill="#603813"/>
<path d="M682.364 777.41C674 778.271 665.757 778.271 657.518 776.434C663.012 764.501 666.674 752.564 664.842 738.794C663.012 725.941 657.518 714.924 656.601 702.989C656.124 673.259 655.643 643.529 655.296 613.799C655.257 610.495 655.219 607.192 655.186 603.888C653.854 571.707 655.684 541.41 660.264 509.278C663.01 494.59 661.181 480.819 656.6 467.047C653.853 456.95 655.683 446.85 655.675 436.872C655.694 433.684 655.717 430.452 655.752 427.224C655.848 417.535 656.016 407.87 656.308 398.24C656.355 395.319 656.344 392.403 656.287 389.489C656.038 377.361 654.937 365.246 653.692 353.131C653.444 350.709 653.19 348.285 652.935 345.863C649.271 291.699 653.852 238.451 658.299 184.246C658.514 181.37 658.707 178.494 658.875 175.62C659.253 169.152 659.513 162.681 659.652 156.213C659.723 152.978 659.762 149.739 659.773 146.483C662.305 125.907 655.101 99.5536 653.56 75.7054C653.34 72.2968 653.235 68.9393 653.293 65.6601C653.852 47.4929 648.356 19.0325 671.252 12.6088C672.169 34.6415 680.408 54.8399 676.401 76.8726C676.459 79.6262 676.658 82.3812 676.903 85.1348C677.148 87.8883 677.434 90.6445 677.661 93.3981C680.408 113.595 684.072 132.874 683.215 153.097C683.19 155.871 683.144 158.635 683.089 161.402C682.915 169.69 682.621 177.984 682.275 186.283C682.157 189.051 682.036 191.82 681.912 194.581C681.323 241.206 675.831 288.028 676.881 334.555C677.078 337.727 677.333 340.88 677.661 344.03C678.882 355.657 680.51 367.695 681.38 379.997C681.598 383.07 681.768 386.177 681.871 389.318C681.598 400.105 681.342 410.87 681.114 421.623C681.04 425.206 680.967 428.79 680.899 432.372C679.494 444.097 679.494 456.032 681.323 467.967C685.903 510.198 677.66 550.592 680.483 591.828C680.46 595.221 680.433 598.61 680.407 602.003C680.178 632.528 679.949 663.053 681.323 693.808C681.323 706.662 684.07 718.597 685.903 731.45C687.733 747.056 685.903 761.744 682.531 776.076C682.419 776.953 682.364 777.41 682.364 777.41Z" fill="#BCB937"/>
<path d="M672.118 11.4094L672.165 12.5685C672.51 20.8427 673.917 28.9849 675.278 36.8588C677.51 49.7682 679.813 63.1169 677.322 76.9428C677.387 79.8878 677.621 82.8206 677.818 85.054C677.923 86.2306 678.033 87.4113 678.146 88.5906C678.295 90.1675 678.446 91.7444 678.573 93.3187C679.075 96.9821 679.61 100.663 680.144 104.324C682.554 120.895 684.833 136.543 684.13 153.136C684.106 155.88 684.061 158.653 684.004 161.42C683.854 168.745 683.594 176.658 683.19 186.319C683.075 189.089 682.951 191.856 682.827 194.62C682.574 214.59 681.403 234.946 680.27 254.633C678.76 280.858 677.198 307.976 677.799 334.532C677.998 337.723 678.259 340.899 678.573 343.933C678.954 347.576 679.38 351.259 679.805 354.981C680.734 363.086 681.695 371.465 682.295 379.931C682.529 383.219 682.689 386.278 682.786 389.284C682.499 400.723 682.25 411.29 682.031 421.64C681.957 425.223 681.885 428.806 681.816 432.388L681.811 432.479C680.353 444.62 680.496 456.513 682.232 467.824C684.705 490.649 683.442 513.176 682.218 534.965C681.176 553.545 680.097 572.758 681.399 591.765L681.325 602.01C681.1 632.013 680.868 663.037 682.242 693.767C682.242 703.128 683.678 711.852 685.202 721.089C685.75 724.414 686.317 727.852 686.811 731.32C688.444 745.24 687.367 759.522 683.425 776.287C683.326 777.064 683.271 777.517 683.271 777.521L683.182 778.247L682.457 778.323C678.779 778.701 675.43 778.886 672.217 778.886C666.886 778.886 662.012 778.378 657.317 777.332L656.209 777.084L656.685 776.05C661.361 765.893 665.881 753.538 663.936 738.915C663.096 733.021 661.457 727.449 659.869 722.061C657.976 715.628 656.188 709.55 655.689 703.059C655.216 673.771 654.73 643.541 654.381 613.808C654.345 610.505 654.304 607.201 654.271 603.896C652.978 572.689 654.596 542.572 659.357 509.145C661.886 495.639 660.729 482.364 655.733 467.336C653.717 459.935 654.1 452.548 654.468 445.407C654.615 442.601 654.765 439.7 654.763 436.873C654.781 433.674 654.804 430.441 654.839 427.211C654.944 416.635 655.128 407.148 655.396 398.208C655.443 395.427 655.435 392.497 655.374 389.506C655.14 378.024 654.168 366.699 652.785 353.223C652.567 351.094 652.344 348.967 652.121 346.839L652.029 345.956C648.448 293.007 652.636 242.061 657.068 188.123L657.391 184.168C657.606 181.297 657.798 178.401 657.967 175.562C658.342 169.105 658.605 162.584 658.744 156.189C658.815 152.928 658.854 149.663 658.862 146.477L658.87 146.367C660.44 133.595 658.261 118.811 655.953 103.16C654.613 94.0856 653.23 84.7008 652.652 75.7595C652.415 72.0988 652.329 68.7871 652.382 65.64C652.476 62.5225 652.395 59.1246 652.308 55.5273C651.892 38.4653 651.376 17.2292 671.009 11.7193L672.118 11.4094ZM679.986 432.308C680.055 428.74 680.126 425.172 680.201 421.605C680.419 411.251 680.667 400.684 680.956 389.296C680.859 386.363 680.699 383.327 680.47 380.062C679.875 371.638 678.913 363.278 677.986 355.192C677.558 351.466 677.135 347.774 676.751 344.124C676.434 341.067 676.171 337.866 675.969 334.61C675.365 307.945 676.93 280.788 678.443 254.529C679.575 234.864 680.746 214.526 680.997 194.571C681.124 191.777 681.245 189.01 681.359 186.244C681.764 176.596 682.02 168.695 682.174 161.385C682.232 158.62 682.273 155.856 682.3 153.088C682.998 136.64 680.732 121.073 678.333 104.591C677.8 100.924 677.261 97.2409 676.754 93.5236C676.62 91.9062 676.47 90.3361 676.321 88.7672C676.208 87.5838 676.098 86.4004 675.993 85.217C675.792 82.9352 675.552 79.9227 675.489 76.8929L675.486 76.7999L675.505 76.7083C677.966 63.1695 675.786 50.5445 673.475 37.1768C672.169 29.6156 670.82 21.8117 670.395 13.83C653.258 19.4274 653.726 38.5651 654.135 55.4896C654.224 59.1125 654.306 62.5333 654.209 65.6899C654.156 68.775 654.245 72.0354 654.476 75.6476C655.049 84.5121 656.427 93.8606 657.761 102.899C660.085 118.656 662.28 133.537 660.689 146.544C660.681 149.723 660.642 152.984 660.571 156.235C660.432 162.654 660.169 169.195 659.791 175.677C659.623 178.525 659.431 181.432 659.216 184.318L658.89 188.278C654.463 242.144 650.283 293.026 653.851 345.802L653.94 346.651C654.163 348.782 654.386 350.909 654.604 353.04C655.993 366.558 656.965 377.93 657.201 389.473C657.265 392.488 657.27 395.443 657.223 398.256C656.956 407.196 656.774 416.67 656.666 427.233C656.636 430.461 656.609 433.692 656.593 436.881C656.595 439.752 656.443 442.678 656.298 445.507C655.934 452.502 655.56 459.738 657.483 466.806C662.569 482.094 663.742 495.659 661.161 509.448C656.422 542.721 654.811 572.731 656.098 603.852C656.134 607.184 656.172 610.486 656.211 613.788C656.557 643.518 657.043 673.743 657.516 702.976C657.993 709.217 659.759 715.203 661.623 721.542C663.227 726.994 664.888 732.63 665.748 738.664C667.688 753.259 663.432 765.579 658.824 775.775C665.646 777.159 672.801 777.418 681.546 776.569C681.57 776.394 681.596 776.19 681.628 775.954C685.535 759.314 686.601 745.236 684.994 731.557C684.506 728.133 683.942 724.704 683.395 721.388C681.858 712.076 680.408 703.279 680.408 693.809C679.036 663.071 679.268 632.023 679.494 601.997L679.568 591.823C678.26 572.771 679.342 553.5 680.39 534.864C681.608 513.151 682.869 490.699 680.417 468.065C678.661 456.642 678.515 444.598 679.986 432.308Z" fill="#603813"/>
<path d="M676.069 95.8214C677.846 95.8214 678.477 96.335 678.788 96.9698L677.147 97.7838C675.692 96.618 662.586 100.589 656.332 103.124L655.646 101.422C657.224 100.783 662.393 98.8998 667.46 97.4766C671.765 96.2662 674.415 95.8214 676.069 95.8214Z" fill="#603813"/>
<path d="M677.248 100.729C677.495 100.729 677.747 100.736 678.002 100.744L677.936 102.578C673.926 102.439 670.757 103.52 667.409 104.67C664.313 105.728 661.111 106.828 657.221 106.862L657.202 105.027C660.799 104.996 663.722 103.992 666.815 102.931C669.977 101.849 673.239 100.729 677.248 100.729Z" fill="#603813"/>
<path d="M672.514 186.992C673.842 186.992 675.169 187.005 676.484 187.016C677.798 187.027 679.107 187.04 680.41 187.04V188.877C679.102 188.877 677.787 188.864 676.465 188.853C670.085 188.792 663.481 188.734 657.409 190.08L657.012 188.287C662.018 187.178 667.296 186.992 672.514 186.992Z" fill="#603813"/>
<path d="M681.022 192.549V194.383C677.785 194.383 674.324 194.739 670.98 195.08C666.314 195.557 661.49 196.049 657.12 195.603L657.302 193.778C661.49 194.204 666.222 193.72 670.793 193.252C674.184 192.909 677.689 192.549 681.022 192.549Z" fill="#603813"/>
<path d="M663.147 275.931C668.14 275.931 673.162 276.682 678.333 278.924L677.606 280.608C669.509 277.096 661.806 277.298 651.237 278.839L650.975 277.022C655.043 276.427 659.084 275.931 663.147 275.931Z" fill="#603813"/>
<path d="M661.332 281.232C667.498 281.232 674.141 282.529 677.786 284.464L676.93 286.089C671.675 283.296 659.184 281.895 652.64 284.3L652.01 282.577C654.555 281.641 657.866 281.232 661.332 281.232Z" fill="#603813"/>
<path d="M662.858 374.217C669.467 374.217 676.327 374.749 681.52 378.148L680.52 379.686C674.583 375.8 665.946 375.961 658.328 376.112C656.898 376.137 655.501 376.163 654.158 376.163V374.327C655.489 374.327 656.875 374.3 658.291 374.275C659.786 374.246 661.313 374.217 662.858 374.217Z" fill="#603813"/>
<path d="M661.156 378.776C664.693 378.776 668.085 380.015 671.402 381.227C674.711 382.436 677.841 383.556 681 383.507L681.039 385.342C677.538 385.435 674.096 384.168 670.774 382.952C665.887 381.165 661.269 379.481 656.349 381.596L655.627 379.908C657.514 379.096 659.354 378.776 661.156 378.776Z" fill="#603813"/>
<path d="M663.391 464.612C668.253 464.612 674.603 465.949 682.533 468.628L681.947 470.368C668.789 465.919 660.033 465.255 655.931 468.393L654.821 466.932C656.844 465.386 659.688 464.612 663.391 464.612Z" fill="#603813"/>
<path d="M663.911 469.141C670.113 469.141 676.334 469.633 681.578 473.667L680.462 475.122C674.875 470.823 668.1 470.906 660.929 471.001C659.896 471.014 658.859 471.029 657.819 471.029V469.193C658.851 469.193 659.88 469.178 660.907 469.165C661.905 469.153 662.905 469.141 663.911 469.141Z" fill="#603813"/>
<path d="M668.708 541.998C673.033 541.998 677.257 542.501 680.047 543.284L679.551 545.054C673.622 543.385 661.048 543.125 655.841 546.184L654.914 544.601C658.089 542.733 663.475 541.998 668.708 541.998Z" fill="#603813"/>
<path d="M662.443 546.589C665.71 546.589 668.937 547.508 672.104 548.411C674.609 549.124 676.978 549.798 679.262 549.986L679.113 551.817C676.65 551.615 674.084 550.884 671.603 550.177C666.577 548.745 661.378 547.264 656.414 549.877L655.563 548.252C657.866 547.036 660.164 546.589 662.443 546.589Z" fill="#603813"/>
<path d="M668.535 640.688C673.359 640.688 678.106 641.579 681.056 644.501L679.769 645.807C674.253 640.339 660.726 643.057 654.949 644.218L654.588 642.418C657.775 641.779 663.2 640.688 668.535 640.688Z" fill="#603813"/>
<path d="M666.877 644.989C671.822 644.989 676.879 645.776 679.506 646.742L678.873 648.465C673.633 646.536 659.188 645.738 656.08 649.42L654.68 648.234C656.7 645.842 661.725 644.989 666.877 644.989Z" fill="#603813"/>
<path d="M677.893 747.471C680.723 747.471 683.458 747.897 685.698 748.987L684.894 750.64C679.262 747.896 669.632 749.95 664.882 751.889L664.19 750.188C667.545 748.819 672.868 747.471 677.893 747.471Z" fill="#603813"/>
<path d="M677.605 753.106C678.871 753.106 680.148 753.125 681.437 753.143C682.716 753.16 684.003 753.178 685.297 753.178V755.015C683.992 755.015 682.7 754.996 681.413 754.977C675.195 754.889 669.316 754.804 663.62 756.799L663.017 755.067C667.803 753.389 672.613 753.106 677.605 753.106Z" fill="#603813"/>
<path d="M687.802 5.19459C688.577 13.578 688.577 21.8401 686.928 30.1036C676.211 24.5964 665.497 20.9209 653.132 22.7593C641.594 24.5964 631.703 30.1035 620.989 31.0214C594.297 31.5026 567.604 31.981 540.913 32.3301C537.946 32.3679 534.981 32.4083 532.014 32.4393C503.121 33.775 475.921 31.9407 447.073 27.3513C433.885 24.5978 421.521 26.4321 409.159 31.0228C400.092 33.7764 391.026 31.942 382.069 31.9488C379.204 31.9312 376.304 31.9083 373.405 31.8732C364.708 31.7762 356.029 31.6064 347.384 31.3166C344.761 31.2668 342.144 31.2775 339.527 31.3382C328.638 31.5862 317.76 32.6887 306.885 33.9367C304.709 34.1861 302.534 34.4422 300.359 34.6956C251.729 38.3683 203.922 33.7764 155.259 29.3165C152.678 29.1008 150.096 28.9094 147.515 28.741C141.706 28.3636 135.897 28.0994 130.089 27.9579C127.185 27.8891 124.278 27.8514 121.354 27.8406C102.88 25.3013 79.2211 32.5229 57.8077 34.0675C54.749 34.2885 51.736 34.3937 48.7916 34.3357C32.4805 33.7764 6.9288 39.2862 1.15967 16.3356C20.9409 15.4164 39.0738 7.15434 58.855 11.1708C61.3289 11.1129 63.8027 10.9134 66.2738 10.6694C68.7476 10.4241 71.2201 10.1384 73.6926 9.90791C91.8255 7.15432 109.134 3.48155 127.291 4.34011C129.78 4.36841 132.262 4.4115 134.748 4.46811C142.188 4.63928 149.631 4.93721 157.084 5.28359C159.57 5.4022 162.054 5.52213 164.536 5.64613C206.395 6.23647 248.43 11.7436 290.203 10.6883C293.05 10.4915 295.883 10.2368 298.709 9.90791C309.15 8.68409 319.956 7.05058 331.001 6.17854C333.763 5.96155 336.551 5.79031 339.371 5.68652C349.054 5.96148 358.72 6.21895 368.373 6.44673C371.59 6.5222 374.809 6.59229 378.023 6.66102C388.549 8.07353 399.265 8.07353 409.98 6.23646C447.894 1.6458 484.162 9.90922 521.183 7.08016C524.23 7.10442 527.275 7.12872 530.319 7.15568C557.726 7.38615 585.133 7.61393 612.744 6.23646C624.283 6.23646 634.999 3.48287 646.538 1.64579C660.55 -0.18858 673.74 1.64579 686.604 5.02611C687.392 5.13798 687.802 5.19459 687.802 5.19459Z" fill="#BCB937"/>
<path d="M657.776 -1.52588e-05C666.724 -1.52588e-05 676.215 1.34784 686.789 4.11895C687.533 4.23082 687.921 4.28471 687.927 4.28471L688.646 4.38309L688.715 5.10825C689.607 14.7734 689.324 22.7727 687.827 30.284L687.588 31.4741L686.511 30.9216C679.518 27.3269 670.133 23.1986 659.556 23.1986C657.473 23.1986 655.357 23.3577 653.266 23.669C647.99 24.5073 642.993 26.149 638.162 27.738C632.377 29.6384 626.913 31.4378 621.065 31.9365C594.768 32.4109 567.638 32.9001 540.925 33.2465C537.957 33.2869 534.993 33.3247 532.026 33.3584C525.934 33.6428 519.76 33.787 513.71 33.787C492.154 33.787 470.309 31.9742 446.93 28.257C442.837 27.4024 438.71 26.9752 434.618 26.9752C426.597 26.9752 418.375 28.5804 409.478 31.8839C405.927 32.9648 402.137 33.4582 397.5 33.4582C394.895 33.4582 392.266 33.3085 389.725 33.1616C387.227 33.0161 384.644 32.8665 382.13 32.8665C379.199 32.8489 376.297 32.8261 373.395 32.791C363.898 32.6859 355.379 32.5026 347.355 32.2343C344.777 32.1845 342.152 32.1925 339.551 32.2559C329.253 32.4904 319.087 33.4622 306.989 34.8478C305.095 35.0648 303.198 35.2872 301.302 35.5109L300.468 35.6066C288.498 36.5123 276.334 36.949 263.245 36.949C228.395 36.949 192.979 33.6981 158.729 30.5536L155.179 30.2315C152.606 30.0158 150.006 29.8218 147.458 29.6573C141.658 29.2786 135.808 29.0158 130.07 28.8756C127.144 28.8068 124.212 28.7664 121.355 28.757L121.234 28.7489C118.65 28.3931 115.918 28.2219 112.883 28.2219C103.446 28.2219 93.2701 29.8972 82.4955 31.6723C74.3426 33.0147 65.9128 34.4017 57.8769 34.9812C54.5856 35.2198 51.652 35.31 48.7762 35.2534C45.9447 35.1577 42.9519 35.24 39.705 35.3289C37.3858 35.3923 34.9913 35.457 32.5847 35.457C18.9557 35.457 4.45963 33.2129 0.274286 16.5579L0 15.4675L1.11996 15.415C8.53607 15.0713 15.8406 13.6615 22.9058 12.2975C30.9162 10.7529 39.1981 9.15433 47.5379 9.15433C51.5512 9.15433 55.2834 9.51421 58.9377 10.2488C61.5688 10.1841 64.1906 9.94827 66.1871 9.75149C67.2439 9.64905 68.3019 9.53718 69.36 9.42531C70.7758 9.27435 72.1915 9.12334 73.6099 8.9926C76.8878 8.49391 80.1911 7.95481 83.4743 7.42242C96.5359 5.29962 108.873 3.29408 121.82 3.29408C123.681 3.29408 125.536 3.33721 127.335 3.42077C129.794 3.44907 132.281 3.49216 134.77 3.54877C141.349 3.70108 148.454 3.95988 157.129 4.36557C159.616 4.48149 162.1 4.60416 164.582 4.72951C182.507 4.98155 200.788 6.15547 218.463 7.29302C238.425 8.57749 259.065 9.90507 279.294 9.90507C283.008 9.90507 286.67 9.86066 290.18 9.76901C293.037 9.57088 295.884 9.3107 298.605 8.99531C301.876 8.61253 305.182 8.18795 308.523 7.76069C315.802 6.82801 323.33 5.86566 330.933 5.26184C333.884 5.03002 336.633 4.86829 339.338 4.7699C349.629 5.06103 359.114 5.30635 368.398 5.52739C371.614 5.60287 374.831 5.67292 378.046 5.743L378.148 5.75115C389.019 7.20814 399.7 7.06393 409.828 5.3293C417.795 4.36292 426.177 3.8965 435.492 3.8965C447.138 3.8965 458.835 4.63112 470.149 5.34007C481.331 6.04229 492.893 6.76736 504.272 6.76736C510.3 6.76736 515.81 6.56928 521.116 6.16494L530.329 6.23634C540.512 6.32125 551.042 6.41025 561.409 6.41025C581.485 6.41025 597.784 6.06246 612.701 5.31712C621.096 5.31712 628.92 3.87904 637.206 2.35331C640.192 1.80475 643.281 1.23463 646.397 0.738632C650.136 0.243984 653.957 -1.52588e-05 657.776 -1.52588e-05ZM686.955 6.00049C686.813 5.98162 686.652 5.95599 686.472 5.92769L686.375 5.90745C675.931 3.16734 666.578 1.83439 657.777 1.83439C654.038 1.83439 650.298 2.07702 646.661 2.5528C643.589 3.04071 640.511 3.60813 637.536 4.15399C629.169 5.69454 621.264 7.15153 612.746 7.15153C597.844 7.89552 581.517 8.24186 561.409 8.24186C551.036 8.24186 540.501 8.15431 530.313 8.07075L521.18 7.99391C515.901 8.40095 510.347 8.59905 504.272 8.59905C492.838 8.59905 481.245 7.87123 470.035 7.17037C458.749 6.46276 447.08 5.73091 435.492 5.73091C426.25 5.73091 417.942 6.19457 410.093 7.14478C399.876 8.89829 388.995 9.05055 377.957 7.5747C374.757 7.50461 371.556 7.43456 368.355 7.35908C359.068 7.14074 349.579 6.89272 339.348 6.60159C336.727 6.69998 334.002 6.85903 331.077 7.0895C323.518 7.68658 316.013 8.64897 308.756 9.57626C305.411 10.0062 302.096 10.4308 298.819 10.8162C296.068 11.1343 293.191 11.3998 290.269 11.6006C286.704 11.6909 283.025 11.7368 279.297 11.7368C259.009 11.7368 238.339 10.4078 218.348 9.12472C200.694 7.98851 182.438 6.81321 164.527 6.56252C162.014 6.43582 159.53 6.31453 157.045 6.19727C148.385 5.79562 141.293 5.53548 134.73 5.38318C132.248 5.32522 129.769 5.28345 127.284 5.25649C125.48 5.17158 123.654 5.12841 121.821 5.12841C109.021 5.12841 96.7537 7.1232 83.7688 9.23388C80.4762 9.76761 77.1674 10.3054 73.8304 10.8122C72.369 10.9497 70.96 11.0992 69.5523 11.2489C68.4888 11.3607 67.4267 11.4753 66.3646 11.5777C64.3115 11.7799 61.6051 12.0212 58.8785 12.0859L58.775 12.0885L58.6755 12.0657C55.1086 11.3432 51.4651 10.9874 47.5379 10.9874C39.3743 10.9874 31.5427 12.4997 23.2513 14.1009C16.4819 15.4069 9.49469 16.7534 2.34343 17.186C6.54357 31.5955 19.3349 33.6185 32.5847 33.6185C34.9657 33.6185 37.3495 33.5539 39.6566 33.4905C42.9317 33.4029 45.9918 33.3179 48.8246 33.415C51.566 33.4649 54.509 33.3813 57.7438 33.1468C65.6964 32.574 74.0859 31.1938 82.1971 29.8581C92.571 28.1491 103.296 26.3822 112.882 26.3822C115.978 26.3822 118.771 26.5587 121.421 26.9186C124.271 26.928 127.195 26.9657 130.114 27.0371C135.875 27.1773 141.752 27.4401 147.576 27.8202C150.133 27.986 152.746 28.1828 155.336 28.3971L158.894 28.7246C194.678 32.0079 228.478 35.1079 263.242 35.1079C276.284 35.1079 288.402 34.6739 300.291 33.7749L301.088 33.6833C302.984 33.4595 304.882 33.2371 306.781 33.0201C318.925 31.6292 329.139 30.652 339.508 30.4148C342.134 30.3542 344.763 30.346 347.401 30.3932C355.424 30.6614 363.927 30.8447 373.414 30.9499C376.311 30.9836 379.213 31.0079 382.074 31.0254C384.694 31.0254 387.305 31.1763 389.827 31.3246C392.343 31.4688 394.946 31.6184 397.498 31.6184C401.949 31.6184 405.571 31.148 408.892 30.1425C417.943 26.777 426.376 25.134 434.617 25.134C438.835 25.134 443.087 25.5762 447.259 26.4482C470.498 30.1439 492.249 31.9472 513.708 31.9472C519.729 31.9472 525.875 31.803 531.972 31.5214C534.969 31.4877 537.935 31.4486 540.9 31.4095C567.608 31.0604 594.737 30.5725 620.973 30.1021C626.546 29.621 631.91 27.858 637.592 25.9899C642.492 24.3793 647.558 22.7134 652.988 21.8494C655.178 21.5246 657.384 21.3615 659.556 21.3615C669.981 21.3615 679.205 25.1866 686.255 28.7314C687.484 21.9303 687.708 14.6535 686.955 6.00049Z" fill="#603813"/>
<path d="M76.8259 8.79314L77.7065 10.4038C77.7576 10.3755 77.7805 10.3432 77.7805 10.3432C76.6794 11.8729 80.2463 25.0438 82.5225 31.3179L80.8028 31.946C80.7249 31.7357 73.2375 10.7704 76.8259 8.79314Z" fill="#603813"/>
<path d="M80.1963 9.56964L82.0275 9.62755C81.9011 13.6737 82.8758 16.8505 83.9097 20.2106C84.8603 23.3079 85.8431 26.5117 85.8754 30.4015L84.0442 30.4163C84.0133 26.7974 83.1138 23.8605 82.1592 20.7511C81.1267 17.3963 80.0605 13.9217 80.1963 9.56964Z" fill="#603813"/>
<path d="M157.676 7.14892H159.507C159.507 8.46169 159.496 9.78256 159.486 11.1075C159.433 17.5096 159.38 24.1327 160.587 30.2302L158.791 30.5874C157.546 24.3066 157.601 17.5877 157.653 11.094C157.665 9.77446 157.676 8.45764 157.676 7.14892Z" fill="#603813"/>
<path d="M162.621 6.53829H164.452C164.452 9.78787 164.77 13.2585 165.077 16.6132C165.504 21.2847 165.946 26.1153 165.548 30.4917L163.724 30.3273C164.107 26.1167 163.674 21.3724 163.253 16.783C162.944 13.3852 162.621 9.87279 162.621 6.53829Z" fill="#603813"/>
<path d="M240.163 9.2663L241.868 9.93346C238.709 18.0662 238.89 25.8 240.275 36.41L238.46 36.6499C237.277 27.5737 236.514 18.6498 240.163 9.2663Z" fill="#603813"/>
<path d="M245.135 9.8175L246.788 10.6047C244.277 15.8895 243.017 28.4416 245.183 35.0176L243.445 35.5945C241.115 28.5238 242.428 15.5107 245.135 9.8175Z" fill="#603813"/>
<path d="M329.245 6.07464L330.823 7.00596C327.327 12.9714 327.474 21.6392 327.603 29.2907C327.629 30.7248 327.651 32.1252 327.651 33.469H325.82C325.82 32.1333 325.796 30.745 325.773 29.3217C325.64 21.4289 325.487 12.4835 329.245 6.07464Z" fill="#603813"/>
<path d="M335.895 6.51943C335.967 10.0224 334.842 13.4593 333.753 16.783C332.144 21.6972 330.625 26.3404 332.536 31.303L330.828 31.9621C328.679 26.3889 330.373 21.2119 332.012 16.2088C333.101 12.8851 334.128 9.74469 334.062 6.55711L335.895 6.51943Z" fill="#603813"/>
<path d="M410.482 5.05037L412.236 5.58279C408.233 18.8008 407.64 27.5966 410.468 31.7263L408.958 32.7655C405.754 28.0872 406.253 19.0218 410.482 5.05037Z" fill="#603813"/>
<path d="M415.001 6.01813L416.507 7.06001C412.639 12.6723 412.717 19.4774 412.799 26.6842C412.812 27.7193 412.825 28.7571 412.825 29.799H410.993C410.993 28.7638 410.981 27.7314 410.969 26.703C410.887 19.5313 410.801 12.1103 415.001 6.01813Z" fill="#603813"/>
<path d="M477.507 7.53839L479.283 7.98854C477.782 13.9513 477.55 26.5844 480.304 31.8166L478.684 32.6752C475.632 26.8782 475.955 13.7073 477.507 7.53839Z" fill="#603813"/>
<path d="M483.527 8.30941L485.353 8.44547C485.173 10.9066 484.518 13.4755 483.883 15.9568C482.593 21.0138 481.259 26.2448 483.62 31.2438L481.962 32.0282C479.32 26.4294 480.737 20.8751 482.109 15.5027C482.751 12.9836 483.358 10.6088 483.527 8.30941Z" fill="#603813"/>
<path d="M568.38 6.53827L569.749 7.75808C564.828 13.303 567.272 26.8889 568.316 32.6913L566.514 33.0188C565.421 26.9537 562.866 12.7517 568.38 6.53827Z" fill="#603813"/>
<path d="M570.39 8.08563L572.129 8.66247C570.393 13.9311 569.671 28.4511 572.985 31.5767L571.732 32.9124C567.318 28.7543 568.868 12.7059 570.39 8.08563Z" fill="#603813"/>
<path d="M662.189 1.88564L663.864 2.61886C661.391 8.28912 663.239 17.9746 664.986 22.7458L663.269 23.3793C661.349 18.1403 659.479 8.09233 662.189 1.88564Z" fill="#603813"/>
<path d="M665.959 2.25227H667.788C667.788 3.55831 667.772 4.85897 667.757 6.14748C667.677 12.3892 667.6 18.2886 669.396 24.0128L667.65 24.5626C665.768 18.5595 665.843 12.5172 665.925 6.12321C665.942 4.84144 665.959 3.55291 665.959 2.25227Z" fill="#603813"/>
</svg>
