<svg width="314" height="335" viewBox="0 0 314 335" fill="none" xmlns="http://www.w3.org/2000/svg">
<path d="M131.968 9.65285C133.374 7.75535 138.07 2.37429 135.985 0.146099C129.935 -1.30796 120.917 8.46622 117.728 12.8442C116.189 10.7329 110.965 5.27347 108.065 7.29679C107.108 9.50091 108.762 12.2963 109.579 15.0064C109.157 14.9528 108.734 14.9088 108.309 14.8744C105.871 14.6819 96.791 15.0745 96.8082 18.3009C98.3407 20.318 102.431 20.5264 105.746 21.9289L106.299 22.1654C102.557 24.9195 98.9031 27.5347 95.6546 30.8849C72.9912 54.2613 82.8135 85.4463 97.3143 109.697C88.6552 108.541 78.8948 107.598 70.1037 107.728C69.3041 107.717 68.7837 110.22 68.3217 110.202C52.5793 109.573 41.5065 115.039 27.8156 121.523C25.0773 121.172 22.8078 120.85 20.0049 121.027C12.9044 121.478 6.11809 127.032 7.12047 134.666C7.78871 139.756 10.4163 142.534 14.2292 145.625C-8.18193 148.667 -2.09 177.55 18.4154 173.996C25.4602 172.774 26.8228 168.258 32.2919 165.746C38.3171 162.976 45.4238 160.739 51.7323 158.534L50.741 162.343C50.0748 166.03 49.2202 170.332 49.1315 174.036C47.0821 178.96 50.0411 206.178 52.4363 211.207C54.6501 211.177 56.0691 211.073 58.2718 210.824C61.787 224.076 67.7414 231.807 81.0102 236.203C82.0407 240.348 85.9746 258.398 87.8199 260.564C90.2048 261.279 95.5075 260.018 98.1757 259.532C100.763 269.748 99.3493 273.426 97.2421 283.623C95.9255 289.695 94.7189 295.79 93.6231 301.906C88.5431 307.011 87.6253 315.869 86.9117 322.747C86.7006 324.784 86.9495 326.528 88.0351 328.273C94.7072 332.799 127.826 332.798 136.969 334.298C139.219 334.666 144.946 334.954 146.139 332.255C152.688 317.448 132.423 310.002 123.168 304.029C125.927 295.792 128.381 287.511 130.9 279.227C134.437 267.599 134.765 261.826 131.703 250.209C133.794 249.483 136.347 248.879 137.619 247.104C137.772 244.757 133.231 231.726 132.218 228.611C135.796 227.633 139.921 226.633 143.307 225.23C145.06 221.448 145.21 217.052 145.456 212.963C146.834 212.525 148.224 212.124 149.624 211.76C157.487 209.777 161.754 212.336 168.473 215.979C172.223 218.012 175.954 220.097 179.629 222.273C181.8 227.779 185.891 231.606 190.561 235.088C192.816 236.769 197.765 240.433 200.715 239.437C204.234 238.25 230.099 201.396 232.202 196.537C232.715 195.351 232.596 193.932 232.11 192.758C231.17 190.491 229.006 189.125 226.784 188.3C216.063 184.32 204.554 193.611 195.451 197.932C180.187 187.81 165.612 172.394 145.308 177.842C144.079 178.171 139.552 178.971 138.484 178.914C137.888 178.158 137.714 177.756 137.265 176.908C135.012 175.655 129.546 178.069 125.943 178.215L125.193 177.505C124.851 175.759 124.729 175.477 123.876 173.897L123.664 173.511C130.296 161.213 132.433 151.962 131.115 138.018C153.451 147.705 170.8 143.134 182.866 121.491C192.101 120.439 193.296 113.08 187.594 106.537C192.052 94.5247 193.315 89.2777 194.69 76.3823C213.489 76.5177 231.402 57.0374 233.586 38.9431C233.741 37.6602 233.216 36.5506 232.343 35.6541C230.706 35.102 225.569 37.0071 223.81 37.6252C218.359 39.5412 213.553 40.2535 207.795 40.5718C210.31 36.444 212.977 31.8089 214.088 27.1401C214.863 23.8793 218.303 10.8869 210.942 13.5152C208.328 14.4489 205.501 15.7352 202.817 16.5705C194.161 18.5326 182.812 18.6756 174.193 16.8063L173.725 16.7025C175.922 13.5709 180.016 5.62824 176.901 2.2643C174.515 1.07837 171.068 3.88197 167.809 4.83072C155.181 8.5061 144.795 6.33979 131.968 9.65285Z" fill="#151413"/>
<path d="M98.8501 112.206C90.0233 111.792 80.4175 110.528 71.1177 110.035C70.3463 113.531 69.907 116.299 69.4031 119.814C71.6292 119.623 74.5717 119.49 76.7765 119.063C80.3722 118.366 90.5066 112.979 93.4787 114.64L93.4127 115.334C92.0473 116.541 88.2412 117.203 85.9374 118.388L85.602 118.566C88.3987 118.745 91.3742 118.881 94.1421 119.222C95.2744 120.019 94.9389 119.508 95.3067 120.723L94.8963 121.299C93.2937 121.762 91.1356 121.5 89.4623 121.395C81.2679 120.879 72.6783 121.867 64.5851 122.969C64.8243 125.988 65.3269 129.501 65.6844 132.545L66.2199 136.057L66.9515 140.105L67.5434 142.954C68.8373 148.319 69.8005 152.219 71.9379 157.383C77.7088 155.852 88.8188 152.528 95.1493 150.81C95.3851 150.918 95.6202 151.027 95.856 151.135L96.1537 151.972C94.6804 154.339 79.4708 158.122 75.9453 158.939C74.1812 159.336 72.4102 159.699 70.6323 160.028C69.5901 157.885 68.8937 156.216 68.0233 153.993C63.6006 154.983 58.7159 156.46 54.3578 157.821C53.9515 159.611 53.4874 161.986 53.0103 163.708C52.857 162.714 52.9931 162.328 52.4246 161.77L50.7409 162.343C50.0747 166.03 49.2202 170.332 49.1315 174.036L49.4464 174.392C50.0314 172.825 50.2156 173.061 51.6924 173.263C50.5835 186.003 51.5301 196.391 54.1509 208.741C63.1324 207.832 69.984 206.149 77.8085 201.455C87.166 195.87 95.3631 188.437 105.271 183.748C110.703 181.177 116.469 180.534 122.156 178.954C122.837 178.765 122.704 178.549 122.932 177.896C122.578 176.278 121.838 175.491 120.871 174.139C122.11 171.05 123.624 168.269 124.898 165.168C127.272 159.395 128.243 154.146 129.227 148.073C114.544 149.048 109.18 134.239 107.677 122.237C105.9 119.881 100.996 114.657 98.8501 112.206Z" fill="#EF8B32"/>
<path d="M67.5444 142.954C72.1397 141.007 102.28 136.55 104.852 133.086C104.68 131.748 104.938 132.313 104.105 131.306C103.42 131.096 102.418 130.918 101.714 131.178C90.6836 135.247 77.9243 136.365 66.9525 140.105L67.5444 142.954Z" fill="#E24240"/>
<path d="M66.2212 136.057C67.1796 134.714 99.5403 129.6 101.531 126.667C101.333 125.513 101.541 126.064 100.682 125.05C97.6558 124.851 71.1692 131.424 65.6857 132.545L66.2212 136.057Z" fill="#E24240"/>
<path d="M53.0117 163.708C52.8584 162.714 52.9945 162.328 52.426 161.771L50.7423 162.343C50.0761 166.03 49.2216 170.332 49.1329 174.036L49.4477 174.392C50.0328 172.826 50.217 173.061 51.6938 173.263C52.0203 170.119 52.615 166.876 53.0117 163.708Z" fill="#151413"/>
<path d="M115.288 176.438C110.546 176.211 104.062 176.644 99.0376 178.228C94.0236 179.809 83.7036 184.147 80.3651 188.724C80.0976 189.09 80.4607 189.49 80.7295 190.046C88.7918 184.579 96.3288 180.329 106.14 178.941C108.517 178.606 114.887 179.236 115.762 177.434L115.288 176.438Z" fill="#151413"/>
<path d="M133.398 2.99023C126.12 5.29336 121.646 11.8473 117.347 17.5254C115.2 13.6864 114.401 12.0996 110.707 9.66241C111.464 12.1305 112.629 14.7733 112.055 17.2002C110.676 18.373 104.204 17.5095 101.586 17.6738C104.68 18.6405 113.141 21.4015 107.176 25.1236C79.5307 42.3716 81.0225 72.075 94.0452 98.4166C98.7504 96.594 100.624 95.1214 104.263 91.6385C88.0515 70.1033 122.287 46.4072 129.499 75.1578C130.16 77.7895 128.972 84.536 130.259 86.0003C130.83 86.1365 132.443 86.4589 132.731 86.0884C138.779 78.3107 143.359 56.6922 152.353 51.7738C157.595 50.7873 163.3 56.0838 167.324 59.1672C173.407 63.8278 178.962 66.8597 185.656 70.4388C196.707 76.3472 205.681 72.7935 215.021 65.7095C223.613 59.0009 229.674 48.9757 230.891 37.8836C224.363 40.5635 217.753 42.8852 210.604 43.033C208.316 43.0804 205.734 43.6435 203.745 42.3173C202.971 40.503 205.221 39.3727 206.5 37.4773C211.403 30.2194 212.783 24.137 212.556 15.7234C199.48 21.9047 186.743 21.4235 172.694 19.3417C171.526 19.1685 170.146 18.9285 169.443 17.9351C169.926 16.017 171.726 15.445 172.578 14.0411C174.327 11.1591 175.092 7.48235 175.667 4.29029C171.718 6.1706 168.125 7.77041 163.837 8.61604C152.529 10.8477 140.73 9.10553 129.791 13.2766C129.037 13.564 128.384 13.5117 127.731 13.0834C127.599 11.0113 132.025 5.0273 133.398 2.99023Z" fill="#57BF6B"/>
<path d="M192.047 75.6618C177.314 70.5557 168.666 63.0558 156.269 54.7563C148.193 49.3491 139.375 84.3724 134.737 87.7968C131.962 89.8456 130.019 89.0646 127.243 87.1856C127.314 81.1879 127.854 71.3491 122.736 67.1326C112.956 59.0779 101.458 70.7771 102.426 81.8809C103.326 92.2065 112.794 92.2189 114.997 95.1627C114.302 97.327 110.678 95.8702 109.286 95.2315C108.13 94.7014 107.009 94.0957 105.931 93.4192C101.977 97.2809 100.202 98.4634 95.2173 100.863C100.146 109.64 104.299 115.51 111.834 122.287C129.291 137.988 158.395 150.588 175.755 127.653C177.292 125.622 180.579 119.691 182.483 118.809C187.397 119.616 190.763 113.692 186.461 109.254C185.956 108.599 184.863 107.358 185.126 106.583C188.719 95.9905 191.464 87.1533 192.047 75.6618Z" fill="#EFB088"/>
<path d="M182.485 118.809C187.398 119.616 190.764 113.692 186.463 109.254C184.538 110.147 178.856 109.222 179.23 113.683C179.436 116.132 181.813 117.21 182.485 118.809Z" fill="#E98E79"/>
<path d="M149.721 93.2681C137.609 93.7356 145.509 107.755 155.003 110.878C166.907 110.701 159.971 95.6207 149.721 93.2681Z" fill="#E98E79"/>
<path d="M173.021 107.252C176.368 106.494 177.825 104.41 179.127 101.319L180.018 99.2018C180.583 99.0884 181.06 99.0849 181.635 99.1124L181.934 98.5136C181.315 96.1576 169.328 87.9873 166.677 88.5036C166.344 89.6071 166.375 89.022 166.898 90.3124C165.284 94.874 164.204 98.8608 166.246 103.564C167.445 106.326 170.142 107.587 173.021 107.252Z" fill="#151413"/>
<path d="M166.896 90.3125C165.281 94.8741 164.202 98.8609 166.243 103.564C167.443 106.326 170.139 107.587 173.018 107.252C169.493 102.838 172.282 99.2418 175.199 95.3196C172.478 93.6393 169.685 91.858 166.896 90.3125Z" fill="#FEFEFD"/>
<path d="M171.73 76.6458C170.521 76.8211 170.604 76.819 169.568 77.4859C169.195 78.2291 168.836 78.8024 169.202 79.745C170.77 83.7847 179.793 93.3307 183.416 95.198C184.98 94.9113 185.649 94.8068 186.486 93.3266C187.108 88.3594 176.261 78.5543 171.73 76.6458Z" fill="#151413"/>
<path d="M115.792 69.8442C114.232 69.7452 112.158 69.7349 111.34 71.2838C111.847 72.2312 111.51 71.8159 112.508 72.4656C119.652 70.6231 120.201 80.2344 120.06 85.0214C119.78 86.2926 120.054 86.5889 121.011 87.2372C123.466 86.4335 122.824 80.3512 122.246 78.4152C120.976 74.1644 119.592 72.0146 115.792 69.8442Z" fill="#151413"/>
<path d="M161.937 124.181C160.417 124.029 158.08 123.541 157.452 125.177C158.76 126.757 164.086 126.753 167.677 128.635L168.085 128.854C169.473 129.761 169.294 129.954 170.703 130.02L171.035 129.446C170.004 126.139 164.929 124.868 161.937 124.181Z" fill="#151413"/>
<path d="M135.525 178.816C122.489 181.561 106.57 183.92 95.9789 192.274C94.5159 193.232 93.2296 194.036 91.8683 195.145C90.3531 196.176 89.1589 197.028 87.7021 198.151C86.5347 198.953 85.3983 199.718 84.2735 200.581C76.3219 206.002 70.243 208.509 60.9563 210.632C61.1673 211.563 61.4038 212.488 61.6651 213.407C63.8238 220.815 69.099 227.579 75.9101 231.251C80.0097 233.413 84.5554 234.592 89.1892 234.695C101.055 235.066 128.518 227.189 140.684 223.569C138.163 213.806 138.662 207.095 137.041 198.801L136.858 195.92C136.744 194.469 136.662 192.642 136.353 191.255L136.149 188.693C135.925 185.455 135.633 182.046 135.525 178.816Z" fill="#845498"/>
<path d="M135.527 178.816C122.491 181.561 106.572 183.92 95.9806 192.274C94.5176 193.232 93.2313 194.036 91.87 195.145C90.3548 196.176 89.1606 197.028 87.7038 198.151C99.4504 203.492 124.227 198.366 136.859 195.92C136.745 194.469 136.664 192.642 136.355 191.255L136.151 188.693C135.926 185.455 135.635 182.046 135.527 178.816Z" fill="#845498"/>
<path d="M135.525 178.816C122.489 181.561 106.569 183.92 95.9785 192.274C105.713 194.93 125.939 189.143 136.148 188.693C135.924 185.455 135.633 182.046 135.525 178.816Z" fill="#845498"/>
<path d="M136.151 188.693C125.942 189.143 105.716 194.93 95.9813 192.274C94.5183 193.232 93.232 194.036 91.8708 195.145C99.0366 198.3 127.635 194.155 135.953 191.968L136.355 191.255L136.151 188.693Z" fill="#FEFEFD"/>
<path d="M136.859 195.92C124.227 198.366 99.4505 203.492 87.7038 198.151C86.5365 198.952 85.4 199.718 84.2753 200.581C99.0607 207.695 119.299 202.42 134.831 199.969C136.107 199.767 136.404 199.817 137.043 198.801L136.859 195.92Z" fill="#FEFEFD"/>
<path d="M62.5966 126.851C52.1054 129.597 44.1537 132.504 34.746 138.363C32.4044 139.399 21.9207 147.595 20.1978 147.664C10.4504 148.053 0.916885 150.069 2.87076 162.812C3.33963 165.87 5.6565 168.487 8.84031 170.397C12.7432 172.078 15.2265 172.073 19.3316 171.132C23.7006 170.131 27.2151 165.108 30.5206 163.695C42.3387 158.642 54.8093 154.861 67.1953 151.656C64.8124 143.568 63.2717 135.256 62.5966 126.851Z" fill="#EFB088"/>
<path d="M156.152 179.264C151.048 178.906 143.269 180.726 138.197 181.815C138.946 191.764 139.859 201.7 140.934 211.619C146.376 209.976 151.143 208.324 156.871 208.32C159.798 208.926 161.255 209.629 163.939 210.849C168.182 203.489 172.015 195.386 176.445 187.661C170.05 183.284 163.878 180.024 156.152 179.264Z" fill="#EFB088"/>
<path d="M129.817 229.165C116.295 233.315 97.6686 238.668 83.7054 236.766C85.6559 243.494 87.2529 250.857 89.0088 257.726L89.4536 258.169C92.3315 258.104 95.7016 257.308 98.5657 256.791C111.318 254.492 122.949 250.55 135.102 246.156L129.817 229.165Z" fill="#845498"/>
<path d="M67.9648 112.758C56.058 112.567 44.8456 115.755 34.3186 121.189C32.2341 122.265 30.0643 123.286 27.9042 124.198C22.9721 123.224 17.9114 122.777 13.563 125.848C7.66903 130.011 8.85564 135.949 12.6878 141.053C15.1669 143.349 16.4512 144.037 19.4954 145.284C21.8962 144.115 25.2374 141.537 27.5618 140C32.3922 136.805 37.2405 133.624 42.4765 131.112C45.6754 129.587 48.9726 128.277 52.3462 127.19C54.2375 126.588 60.6478 124.947 62.0145 124.088C62.9399 120.731 63.4198 120.901 66.6675 120.318L67.9648 112.758Z" fill="#EFB088"/>
<path d="M129.352 251.027C117.915 254.975 112.351 256.642 100.568 259.109C103.182 267.727 102.2 271.815 100.365 280.425C101.703 280.72 103.16 280.96 104.515 281.211C111.867 282.519 119.257 283.596 126.676 284.442C131.247 271.512 132.686 264.066 129.352 251.027Z" fill="#EFB088"/>
<path d="M125.011 319.875C123.687 318.937 122.557 318.219 121.12 317.464C113.984 313.716 121.955 310.763 123.308 307.413L123.088 306.728C118.706 304.602 109.832 318.141 94.2038 304.531C90.9822 309.875 90.5924 314.42 89.4683 320.526C98.5096 322.808 112.551 323.803 122.182 324.623C129.546 325.362 137.642 325.775 145.078 326.313C142.908 319.666 140.042 317.251 134.508 313.665C132.093 316.02 130.075 319.321 127.242 320.64C125.858 320.602 126.324 320.647 125.011 319.875Z" fill="#E24240"/>
<path d="M225.414 190.24C218.899 189.651 216.007 190.243 210.115 193.121C210.777 195.336 212.727 200.83 212.201 202.799C210.36 204.477 206.689 206.433 204.34 207.255C200.877 208.468 199.612 200.728 199.14 198.735C198.701 198.946 197.319 199.76 197.242 200.017C195.923 204.431 196.799 208.442 194.818 212.98C192.121 219.155 188.309 220.501 182.756 222.931L182.725 223.631C185.497 228.182 190.194 231.819 194.448 234.879C202.479 225.532 209.857 214.093 216.998 204.026C218.41 202.035 225.25 192.729 225.953 190.971L225.414 190.24Z" fill="#E24240"/>
<path d="M126.195 286.818C116.712 285.539 109.61 284.823 99.9438 283.016L99.0638 286.669L98.2395 290.347C97.5149 294.345 96.8047 298.815 95.968 302.753C104.782 310.094 111.445 308.968 120.849 303.58C121.634 301.014 122.725 297.005 123.653 294.605L124.923 290.792L126.195 286.818Z" fill="#FEFEFD"/>
<path d="M126.195 286.818C116.712 285.539 109.61 284.823 99.9438 283.016L99.0638 286.669L98.2395 290.347C108.625 292.825 113.587 293.141 123.653 294.605L124.923 290.792L126.195 286.818Z" fill="#FEFEFD"/>
<path d="M124.922 290.792C116.202 290.139 107.552 288.759 99.0622 286.669L98.2379 290.347C108.623 292.825 113.586 293.141 123.651 294.605L124.922 290.792Z" fill="#E24240"/>
<path d="M182.165 191.33L178.585 188.891C174.276 196.057 169.925 204.513 166.095 211.968L169.173 213.602C170.291 214.161 171.391 214.751 172.547 215.214L181.688 220.594C192.484 216.565 194 210.658 194.402 200.134C191.931 198.695 187.906 195.421 185.392 193.565L182.165 191.33Z" fill="#FEFEFD"/>
<path d="M182.163 191.33L178.584 188.891C174.275 196.057 169.924 204.513 166.094 211.968L169.172 213.602C170.29 214.161 171.39 214.751 172.546 215.214C175.541 210.062 182.179 197.916 185.391 193.565L182.163 191.33Z" fill="#FEFEFD"/>
<path d="M182.163 191.33C177.92 198.805 173.59 206.23 169.172 213.603C170.29 214.161 171.39 214.751 172.546 215.214C175.541 210.063 182.179 197.916 185.391 193.565L182.163 191.33Z" fill="#E24240"/>
<path d="M228.554 191.767C227.012 193.242 222.12 200.501 220.526 202.766C215.192 210.224 209.921 217.728 204.716 225.276C202.92 227.909 197.51 233.802 196.808 235.595C197.229 236.41 198.054 236.637 198.932 237.055C200.89 237.316 203.436 233.928 204.301 232.507C207.83 226.71 229.678 199.143 230.371 194.428C230.113 193.188 229.44 192.696 228.554 191.767Z" fill="#FEFEFD"/>
<path d="M91.2091 323.282C89.9331 323.092 90.4397 322.914 89.5446 323.489C89.5144 323.65 89.4752 323.809 89.4546 323.97C89.3748 324.597 89.3803 326.084 89.8946 326.55C92.89 329.267 136.609 331.87 143.058 332.123C144.218 331.384 145.137 330.185 144.716 328.787C141.573 327.712 122.529 326.798 117.52 326.388C108.712 325.704 99.9348 324.668 91.2091 323.282Z" fill="#FEFEFD"/>
<path d="M110.711 124.759L110.375 125.192C111.067 133.026 116.862 143.477 124.909 145.673C126.249 146.039 127.901 145.843 129.283 145.715C129.322 144.658 129.507 142.071 128.834 141.412L127.46 141.733C120.423 143.444 116.448 133.332 114.635 128.202L110.711 124.759Z" fill="#E24240"/>
<path d="M118.539 131.006C118.475 134.827 123.599 139.878 127.925 139.522C128.355 138.616 128.506 138.552 128.437 137.586C127.434 136.042 120.735 132.482 118.539 131.006Z" fill="#EFB088"/>
<path d="M130.403 311.053C128.597 312.253 126.222 314.576 125.282 316.642C125.422 317.843 125.534 317.574 126.684 318.664C128.225 317.12 132.205 314.056 131.91 311.964L130.403 311.053Z" fill="#FEFEFD"/>
<path d="M207.899 193.769C207.378 194.17 206.49 194.703 206.282 195.229C205.46 197.31 207.154 200.833 207.959 202.886C209.484 202.323 209.261 202.681 209.847 201.579C209.868 198.888 208.761 196.383 207.899 193.769Z" fill="#FEFEFD"/>
<path d="M203.55 196.455C203.027 196.82 202.107 197.306 201.928 197.806C201.186 199.881 202.594 203.222 203.526 205.094C204.245 204.958 204.34 204.886 205.032 204.624C205.988 202.761 204.247 198.839 203.55 196.455Z" fill="#FEFEFD"/>
<path d="M127.196 308.856C124.779 309.119 121.532 311.832 120.986 314.272C120.885 314.717 121.651 315.412 121.958 315.781C123.253 315.172 127.12 311.048 127.727 309.766L127.196 308.856Z" fill="#FEFEFD"/>
<path d="M143.238 213.467L141.916 213.976C141.011 215.459 141.858 217.822 142.262 219.571L142.33 219.684L142.611 219.749C143.079 217.778 143.123 215.508 143.238 213.467Z" fill="#604F74"/>
<path d="M239.926 221.604C239.005 221.974 227.936 234.311 225.656 236.665C217.251 245.343 206.818 250.212 197.883 257.323L197.592 257.56C207.29 255.955 237.784 231.13 239.926 221.604Z" fill="#151413"/>
<path d="M199.43 132.434L199.212 132.745C199.914 133.496 209.284 137.998 210.997 138.86C222.698 144.749 232.18 151.994 241.859 160.747L242.277 160.271C242.152 158.986 238.632 155.631 237.601 154.688C226.51 144.536 213.659 137.245 199.43 132.434Z" fill="#151413"/>
<path d="M215.333 131.055L215.149 131.359C215.353 131.626 223.599 136.881 224.869 137.716C233.833 143.604 240.64 150.014 248.053 157.76L248.465 157.085C248.411 156.781 248.298 156.145 248.127 155.89C241.725 146.364 225.445 135.058 215.333 131.055Z" fill="#151413"/>
<path d="M244.855 225.708C243.307 226.193 238.035 233.585 236.357 235.532C229.645 243.322 221.208 249.085 213.943 255.891C214.718 255.711 215.002 255.629 215.701 255.228C224.664 250.083 241.896 235.094 244.855 225.708Z" fill="#151413"/>
<path d="M289.028 154.696L288.392 154.906C288.34 155.657 289.519 156.019 290.282 156.457C299.219 161.587 303.884 168.354 307.958 177.539L308.249 177.604L308.617 177.221C307.165 167.679 298.344 157.353 289.028 154.696Z" fill="#151413"/>
<path d="M216.36 150.918L215.56 150.965C215.653 151.561 215.586 151.264 216.389 151.734C224.029 156.205 230.381 160.085 237 166.109C237.68 165.827 237.401 166.061 237.789 165.347C235.029 159.624 222.164 153.327 216.36 150.918Z" fill="#151413"/>
<path d="M251.137 229.196C249.783 229.92 246.951 234.164 245.671 235.711C242.645 239.367 239.43 242.484 236.193 245.924C240.966 244.528 250.791 234.326 251.137 229.196Z" fill="#151413"/>
<path d="M301.904 153.929L301.461 154.099C301.679 155.003 303.234 156.589 303.96 157.361C308.174 161.836 310.771 166.689 313.038 172.41L313.462 172.433C313.636 171.646 313.673 171.888 313.504 171.143C311.887 164.025 308.019 157.894 301.904 153.929Z" fill="#151413"/>
<path d="M235.078 217.123C233.306 217.519 225.083 227.098 224.132 228.93C227.81 227.369 234.204 221.092 235.078 217.123Z" fill="#151413"/>
</svg>
