<svg width="177" height="342" viewBox="0 0 177 342" fill="none" xmlns="http://www.w3.org/2000/svg">
<path d="M147.732 1.31793e-05C149.287 -0.00342432 150.504 0.665498 151.116 2.09894C154.553 10.1551 153.161 20.449 150.691 28.4213C154.604 27.3164 159.847 24.8181 163.345 22.7329C168.477 19.6728 175.458 10.4679 176.131 22.8346C177.153 41.6295 167.043 61.2336 148.967 68.1251C152.148 80.7943 151.963 88.4881 151.319 101.12C159.011 106.147 159.878 112.944 150.875 116.959C145.702 141.454 129.415 149.725 105.542 147.509C114.127 171.285 106.244 193.523 99.2518 216.116C100.24 218.822 100.078 218.991 98.994 221.756C100.657 226.218 103.818 228.027 98.62 231.332C100.936 234.097 114.6 249.488 115.511 251.381C115.462 252.887 115.197 252.774 114.318 254.279C125.723 270.289 125.532 273.529 119.168 292.106L113.819 307.614C122.928 312.714 137.848 315.943 139.334 328.583C139.706 331.748 138.551 335.542 134.821 335.786C126.921 336.303 118.872 336.261 110.939 336.346C110.132 338.413 109.269 341.006 106.68 341.185C102.647 341.463 98.3155 341.122 94.2702 340.916C83.7838 340.372 73.3118 339.571 62.8638 338.514C60.7071 338.282 51.5613 337.171 50.4792 335.26C48.6319 331.999 50.8003 321.6 51.6878 317.793C52.5204 314.223 53.971 310.743 57.1308 308.892L59.2331 301.114C60.7305 296.132 64.7476 285.338 65.4626 280.768C64.377 278.944 63.189 277.738 61.7851 276.159C59.2668 277.891 55.346 280.407 52.638 281.639C48.7178 278.884 42.2954 270.441 38.8202 266.558C29.0097 255.594 22.9151 247.039 23.3453 231.809C20.4672 230.906 19.9599 231.274 18.7574 228.434C17.1779 228.401 16.1025 229.085 14.6415 229.639C9.19669 231.703 3.17054 228.251 1.00464 223.139C-0.374894 219.84 -0.332061 216.117 1.1231 212.85C3.12242 208.452 6.57718 207.391 10.7585 209.487C10.7856 198.553 11.9366 187.622 16.0679 177.405C19.689 168.45 26.2377 162.856 33.8311 157.358L32.2822 154.083C38.6913 147.029 61.6036 137.405 71.1881 134.938C70.3569 134.366 69.5305 133.789 68.7083 133.204C53.6101 122.446 36.5705 100.346 33.976 81.8819C31.4271 63.7416 36.6615 53.3129 46.6732 39.4625C44.06 39.1249 42.1294 39.0472 39.4903 39.2624C38.0132 39.3834 35.9413 39.0548 36.2424 37.1518C38.9034 33.8064 44.0043 32.3785 48.031 31.7096C47.5367 31.0118 47.0479 30.3105 46.5646 29.6058C45.3615 27.8472 44.3474 26.4021 44.7661 24.1698C47.0658 21.461 52.9013 25.2753 55.0586 27.0188C55.8912 24.3739 57.0201 21.8323 58.424 19.4411C60.3063 16.2786 64.3117 11.0069 67.9891 10.0636C71.5635 10.8886 68.5165 18.1754 67.7471 20.6484C77.6568 14.0339 90.8169 12.8734 100.753 6.02525C103.041 4.44812 105.779 1.2705 108.396 0.878628C112.88 2.33544 110.715 12.7593 109.805 16.1837C126.979 12.8899 134.301 11.3802 147.732 1.31793e-05Z" fill="#151413"/>
<path d="M148.421 2.87109C154.347 14.8494 146.634 28.3051 147.515 31.1198C149.468 32.2768 151.783 30.9341 153.8 30.2308C161.214 27.6472 166.774 23.8495 172.763 18.9435C172.966 19.7657 173.146 20.5935 173.302 21.4253C176.159 37.0089 163.677 62.3948 147.235 65.3552C138.91 66.8546 122.545 61.6771 114.25 58.6101C107.275 56.0313 100.452 52.3766 97.2487 61.9796C93.5115 73.1845 94.388 85.301 91.1279 96.3924C90.8997 97.1686 89.7158 97.1562 89.1452 97.2016C87.1459 96.2969 87.0256 93.2031 86.4337 91.0973C84.4777 84.1384 78.394 76.3868 70.3826 77.4697C56.9853 79.2792 52.9119 97.3487 61.2877 106.685C62.6338 108.192 63.7352 109.02 65.304 110.213C64.0762 112.45 63.4773 113.37 61.9408 115.409C60.7473 116.777 58.8154 118.304 57.3964 119.513C51.4867 113.135 46.45 106.002 42.4179 98.2982C33.1302 80.2279 33.852 62.1879 45.6649 45.3985C47.0523 43.426 48.8893 41.82 49.6421 39.4454C48.8989 36.2568 43.403 36.5304 40.7236 36.4328C44.391 34.9952 46.439 34.7381 50.1825 33.8485C50.8755 33.6841 50.8782 33.0757 51.0068 32.5422C50.3578 30.1263 48.5634 27.685 47.1974 25.5256C51.7507 27.2347 52.8995 28.697 56.4174 32.0795C58.7013 23.241 60.4895 19.2632 67.2847 13.0392C66.6103 15.4977 63.5468 22.9846 64.7382 25.1227C64.9513 25.177 65.1652 25.232 65.3783 25.2863C76.0146 17.0687 91.2214 15.9645 101.88 8.28241C105.943 5.35435 106.441 4.49222 107.831 4.21997C110.636 8.21572 105.582 16.9043 106.529 18.8995C110.635 18.9139 113.795 18.2106 117.744 17.431C130.436 14.925 138.711 11.3212 148.421 2.87109Z" fill="#57BF6B"/>
<path d="M35.1247 154.684C44.275 148.734 52.3593 144.161 62.6636 140.297C65.8742 139.092 71.9937 137.894 74.1002 136.908C76.1929 137.936 78.0663 138.86 80.0883 140.018C84.9771 151.467 91.3516 163.984 106.226 160.934C106.9 175.705 105.595 187.281 101.3 201.449C100.004 205.723 97.5267 211.572 97.0303 215.734C96.314 221.74 97.3727 223.228 99.1877 228.138C81.1855 238.088 53.1438 238.584 33.7979 232.782C29.5953 231.521 25.5824 230.132 21.4531 228.639C24.0876 219.298 33.8989 197.67 40.0547 189.705C41.5884 187.721 47.4932 184.332 49.9833 182.838C50.82 183.922 51.2566 184.742 52.5051 185.259C54.9725 185.475 71.8287 173.843 74.0218 171.63C74.0933 170.609 74.2067 171.08 73.6003 170.189C71.7647 169.925 69.0656 172.477 67.3682 173.534C62.5536 176.532 57.8779 179.915 53.0015 182.814C50.347 179.402 46.7287 174.759 44.482 171.07L42.8292 168.552C42.2917 167.842 41.064 165.723 40.5339 164.867C40.0094 164.055 39.5458 163.156 39.0807 162.304C37.6701 160.079 36.1874 157.126 35.1247 154.684Z" fill="#EF8B32"/>
<path d="M42.8281 168.552C53.5944 160.764 65.0949 153.506 76.0571 145.952C76.7116 145.501 77.3757 145.222 78.1725 145.339C79.0126 146.172 78.75 145.683 78.9576 146.876C77.9731 149.483 69.3918 154.377 66.6101 156.276L53.9739 164.935C51.4494 166.679 47.1353 169.833 44.4809 171.07L42.8281 168.552Z" fill="#E24240"/>
<path d="M39.082 162.304C46.3994 157.308 53.7494 152.358 61.1304 147.456C64.4896 145.227 67.9429 142.918 71.4154 140.873C72.3711 140.31 73.2387 140.438 74.0877 141.121C74.0974 142.04 73.9124 142.359 73.2634 143.025C71.39 144.946 43.3716 163.531 40.5353 164.867C40.0107 164.055 39.5471 163.156 39.082 162.304Z" fill="#E24240"/>
<path d="M91.5807 221.815C92.5315 221.905 92.6037 222.129 92.9138 222.854L92.5742 223.394C85.5486 227.65 77.1659 229.177 69.0479 228.54C67.985 228.314 67.4515 228.287 66.9414 227.363C67.6337 226.187 69.4467 226.544 71.0245 226.627C78.8262 227.04 84.5565 224.787 91.5807 221.815Z" fill="#151413"/>
<path d="M90.7318 216.756L91.5135 216.782L91.8999 217.385L91.6153 218.15C88.5373 219.956 83.6128 220.545 80.1251 221.018L79.309 220.727L79.043 220.157C80.3121 218.525 88.1798 217.286 90.7318 216.756Z" fill="#151413"/>
<path d="M67.6839 111.292C70.2118 112.041 73.6768 112.533 76.1999 111.51L76.4227 110.936C76.312 110.798 76.2082 110.655 76.0899 110.524C74.9563 109.262 72.7838 109.658 71.2094 109.522C68.0586 109.248 64.6479 106.794 62.7435 104.378C60.0684 100.983 59.1389 96.6625 59.6539 92.4179C60.1482 88.3438 62.2616 84.2937 65.6248 81.8228C68.0345 80.0518 70.9 79.6345 73.7971 80.223C79.9207 81.4674 82.626 87.6652 84.243 93.036C84.7662 94.7726 85.2316 97.1995 86.4169 98.6157C87.0893 99.4194 88.2883 99.5816 89.2755 99.5995C90.7605 99.6263 92.2558 99.3568 93.186 98.1028C97.2024 92.6895 95.9566 64.5755 101.813 59.2983C102.931 58.2911 103.84 58.3626 105.241 58.6218C109.35 59.3815 113.369 61.2329 117.321 62.5825C126.566 65.7395 136.552 68.1828 146.357 68.2069C149.692 79.6215 149.366 89.6871 148.973 101.239C148.928 102.565 150.302 103.399 151.32 104.206C156.347 107.354 155.103 113.702 149.837 114.398C148.315 115.743 148.307 116.542 147.84 118.535C137.713 161.81 80.1675 145.314 59.1953 121.261C63.5926 117.961 65.1188 116.075 67.6839 111.292Z" fill="#EFB088"/>
<path d="M151.319 104.206C156.346 107.354 155.102 113.702 149.836 114.398C147.953 113.661 145.82 112.529 145.072 110.605C143.63 106.888 148.973 105.306 150.741 104.481L151.319 104.206Z" fill="#E98E79"/>
<path d="M127.743 87.1071C126.09 85.9315 121.803 82.9154 123.376 80.5779C125.847 79.6635 129.342 80.4858 131.39 81.6532C134.412 83.376 144.069 87.7712 145.706 90.2765C145.904 91.7924 146.056 91.3393 145.488 92.5658C144.098 93.4424 142.732 93.5909 141.742 94.825C140.304 98.8063 143.191 104.188 136.693 107.16L136.755 107.445L136.145 107.978C131.152 108.893 127.048 105.41 125.864 100.74C124.763 96.3945 125.643 91.0183 127.743 87.1071Z" fill="#151413"/>
<path d="M127.746 87.1069C131.074 88.9859 134.434 90.8084 137.823 92.5732C134.625 96.4164 132.274 103.359 136.696 107.16L136.758 107.445L136.148 107.977C131.155 108.893 127.051 105.41 125.868 100.74C124.766 96.3944 125.646 91.0181 127.746 87.1069Z" fill="#FEFEFD"/>
<path d="M109.746 98.813C116.011 98.4129 121.721 101.653 124.811 107.028C126.967 110.777 124.141 113.081 121.071 114.452C111.922 115.343 98.1908 104.117 109.746 98.813Z" fill="#E98E79"/>
<path d="M68.8412 85.7458C71.3258 85.7843 71.662 85.9218 73.9039 87.0349C77.3167 88.7296 82.6187 97.7867 80.1815 101.424C79.3187 101.417 79.7518 101.488 78.8807 100.779C77.998 96.5018 75.8592 88.72 70.3915 88.1349C68.8597 87.9713 68.5524 89.5484 66.6095 88.7083L66.4961 88.0717C67.2908 86.7104 67.4923 86.6643 68.8412 85.7458Z" fill="#151413"/>
<path d="M133.431 126.774C135.857 126.884 139.657 127.372 140.381 130.262L139.987 130.788C138.693 130.922 137.376 129.879 136.185 129.17C132.312 128.772 129.634 130.464 127.656 129.357L127.841 128.708C129.724 126.887 130.774 127.067 133.431 126.774Z" fill="#151413"/>
<path d="M50.8043 238.819C67.2026 239.94 80.7924 238.51 96.2625 232.484C101.688 239.014 107.237 245.44 112.908 251.758C107.381 255.764 101.911 259.845 96.4983 264.002C95.5956 262.716 92.4572 258.594 92.2888 257.274C92.6532 256.805 93.6521 255.76 93.5593 255.399C92.8085 252.483 88.3405 247.998 86.5915 245.519C87.9451 243.766 89.6316 242.051 89.4508 239.808C87.7671 239.553 85.9266 242.411 85.1023 243.693C83.8717 242.241 82.8838 240.842 81.273 239.869L80.5896 240.062C80.087 242.316 89.0053 252.574 90.8457 254.9C83.9618 258.974 77.1349 263.145 70.3671 267.411L67.3043 269.413C66.1005 270.17 64.7441 271.07 63.5258 271.767L60.8205 273.586C58.9003 275.063 55.2923 277.25 53.0408 278.836C49.6631 275.472 45.4852 270.478 42.3469 266.74C32.1136 254.557 26.4405 248.973 25.4961 232.73C29.5517 234.448 33.1226 235.366 37.3416 236.507C38.4253 236.775 39.9692 237.104 40.996 237.421C42.3284 237.603 45.4425 237.945 46.5955 238.299L50.8043 238.819Z" fill="#845498"/>
<path d="M25.4961 232.73C29.5517 234.448 33.1226 235.366 37.3416 236.507C38.4253 236.775 39.9692 237.104 40.996 237.421C42.3284 237.603 45.4425 237.945 46.5955 238.299L50.8043 238.819C56.5333 249.42 63.6881 257.685 70.3671 267.411L67.3043 269.413C66.1005 270.17 64.7441 271.07 63.5258 271.767L60.8205 273.586C58.9003 275.063 55.2923 277.25 53.0408 278.836C49.6631 275.472 45.4852 270.478 42.3469 266.74C32.1136 254.557 26.4405 248.973 25.4961 232.73Z" fill="#845498"/>
<path d="M40.9961 237.421C42.3285 237.603 45.4426 237.945 46.5956 238.299L50.8045 238.819C56.5334 249.42 63.6882 257.685 70.3673 267.411L67.3044 269.414C66.1006 270.17 64.7442 271.07 63.526 271.767C55.5276 259.849 46.8149 250.921 40.9961 237.421Z" fill="#845498"/>
<path d="M46.5938 238.299L50.8026 238.819C56.5316 249.42 63.6864 257.685 70.3654 267.411L67.3026 269.413C63.0332 262.498 48.4892 245.308 46.5938 238.299Z" fill="#FEFEFD"/>
<path d="M37.3398 236.507C38.4235 236.775 39.9674 237.104 40.9942 237.421C46.813 250.921 55.5257 259.849 63.524 271.767L60.8187 273.586C58.7989 271.392 56.3541 268.168 54.6436 265.693C48.2244 256.399 40.0192 247.698 37.3398 236.507Z" fill="#FEFEFD"/>
<path d="M34.5371 159.943C35.2228 160.477 37.8714 165.23 38.6048 166.482C41.6209 171.631 44.8023 176.015 48.3786 180.777C45.8191 182.267 40.0694 185.56 38.1213 187.931C32.385 195.027 28.5713 204.113 25.0888 212.485C21.756 220.497 19.6783 229.659 8.60187 227.195C-0.0589757 223.438 1.15467 210.084 8.00437 210.858C10.202 213.053 7.30442 216.484 8.74164 218.459L9.47864 218.298C10.3476 217.079 11.8988 213.421 13.1806 211.34C13.492 193.879 15.1437 175.403 29.5695 163.915C31.2292 162.594 32.8669 161.253 34.5371 159.943Z" fill="#EFB088"/>
<path d="M89.5989 258.613L89.9275 258.697C91.6009 260.482 94.1096 264.817 95.1972 267.084C99.4611 275.976 94.7613 285.124 91.3465 293.719C85.6162 292.829 79.9162 291.75 74.2567 290.486C71.5294 289.789 68.813 289.048 66.1098 288.263C68.5559 281.375 69.0757 280.141 64.0273 274.709C72.4245 269.145 80.9508 263.778 89.5989 258.613Z" fill="#EFB088"/>
<path d="M57.2312 311.42C72.2104 326.398 81.7261 311.441 86.7029 313.635C87.3388 315.816 82.3345 317.664 82.0829 320.777C81.7921 324.368 88.0153 327.062 90.7 327.454C91.4748 327.566 96.5871 321.466 97.5833 320.43C100.025 321.987 101.307 322.849 103.509 324.699C106.511 327.795 106.999 328.918 108.631 332.864C92.898 332.983 67.4302 330.398 52.332 327.9C53.135 322.296 54.0645 316.185 57.2312 311.42Z" fill="#E24240"/>
<path d="M111.78 255.789C113.39 256.743 117.674 263.694 118.692 265.669C123.078 274.17 120.151 281.144 117.342 289.501C113.641 289.183 109.942 288.839 106.245 288.469C102.934 288.075 99.9678 287.711 96.6719 287.121C99.5477 278.807 100.763 274.665 97.6069 266.303C102.307 262.765 107.031 259.261 111.78 255.789Z" fill="#EFB088"/>
<path d="M65.2632 290.739C74.0247 293.24 81.4662 294.907 90.5302 295.991C90.0386 297.208 89.448 298.812 88.8911 299.963L87.2803 303.781C86.2821 305.971 85.4207 308.419 84.5723 310.689C75.542 315.481 67.5855 318.649 59.3555 309.906C60.5765 306.046 61.6923 302.011 62.8225 298.112L63.9775 294.528C64.3797 293.336 64.8218 291.891 65.2632 290.739Z" fill="#FEFEFD"/>
<path d="M65.2609 290.739C74.0224 293.24 81.4639 294.907 90.5279 295.991C90.0364 297.208 89.4458 298.812 88.8889 299.963L87.2781 303.781C85.8956 303.287 83.6014 302.935 82.1109 302.694C75.5088 301.626 69.2643 299.899 62.8203 298.112L63.9753 294.528C64.3775 293.336 64.8196 291.891 65.2609 290.739Z" fill="#FEFEFD"/>
<path d="M63.9753 294.528C73.3391 297.331 79.2846 298.509 88.8889 299.963L87.2781 303.781C85.8956 303.287 83.6014 302.935 82.1109 302.694C75.5088 301.626 69.2643 299.899 62.8203 298.112L63.9753 294.528Z" fill="#E24240"/>
<path d="M95.8061 289.609C102.695 290.619 109.616 291.396 116.558 291.94L115.262 295.651L114.096 299.289C113.101 301.485 112.127 304.682 111.544 307.029C103.162 312.66 97.3096 315.553 88.1562 308.705L92.9296 296.907C93.4369 295.675 93.8969 294.35 94.3589 293.094L95.8061 289.609Z" fill="#FEFEFD"/>
<path d="M95.8066 289.609C102.695 290.619 109.616 291.396 116.558 291.94L115.262 295.651C111.697 295.415 97.0929 294.245 94.3594 293.094L95.8066 289.609Z" fill="#FEFEFD"/>
<path d="M94.359 293.094C97.0925 294.245 111.697 295.415 115.262 295.651L114.096 299.29C106.854 298.896 100.092 297.898 92.9297 296.907C93.4371 295.675 93.897 294.35 94.359 293.094Z" fill="#E24240"/>
<path d="M94.6032 314.832L95.0789 314.92C98.8822 315.588 100.524 315.32 104.212 314.149C107.921 312.971 110.72 308.396 113.765 310.441L113.82 311.086C105.867 320.037 110.272 319.406 119.116 323.875C121.018 321.344 123.244 318.26 125.305 315.922C131.452 319.43 133.996 320.815 136.92 327.557C127.768 328.034 118.304 327.621 109.301 328.076C104.53 321.183 101.407 319.628 94.168 315.441L94.6032 314.832Z" fill="#E24240"/>
<path d="M52.3071 330.045C67.9037 333.079 84.2703 333.9 100.117 334.735C102.1 334.839 106.61 334.81 108.238 335.494C108.575 336.462 108.234 337.14 107.944 338.156C104.521 340.08 56.0113 336.29 52.6618 333.839C52.0259 332.57 52.2417 331.498 52.3071 330.045Z" fill="#FEFEFD"/>
<path d="M82.9688 141.103C84.5005 141.602 86.2866 142.364 87.8108 142.965C90.2315 147.252 92.7381 152.018 97.2956 154.476C100.857 156.397 101.918 155.431 104.943 154.558C105.625 155.638 105.705 157.202 105.895 158.511C94.1344 161.789 86.8545 150.348 82.9688 141.103Z" fill="#E24240"/>
<path d="M122.728 329.978C125.013 329.902 135.705 329.114 136.948 330.461C136.722 334.828 128.2 333.749 124.609 333.823C120.079 333.894 115.471 333.864 110.935 333.875L110.16 330.146L122.728 329.978Z" fill="#FEFEFD"/>
<path d="M91.168 144.191C95.6257 145.391 98.6253 146.176 103.141 147.087C103.549 148.783 104.05 150.94 103.769 152.64C98.186 154.712 93.6038 148.42 91.168 144.191Z" fill="#EFB088"/>
<path d="M93.352 318.016C94.3145 318.284 94.2506 318.289 95.0288 318.935C94.9896 320.729 91.6112 323.817 90.1386 325.503C89.1713 325.026 89.1631 325.107 88.6172 324.201C88.6749 322.206 91.8223 319.549 93.352 318.016Z" fill="#FEFEFD"/>
<path d="M120.755 313.714C121.493 313.991 121.699 314.134 122.395 314.517C122.593 316.484 119.717 319.284 118.252 321.204C114.431 319.249 118.794 315.899 120.755 313.714Z" fill="#FEFEFD"/>
<path d="M116.433 311.807L117.826 312.424L117.988 313.064C117.179 314.913 115.131 317.17 113.786 318.954C112.346 318.282 112.784 318.782 112.09 317.679C112.247 315.495 114.826 313.431 116.433 311.807Z" fill="#FEFEFD"/>
<path d="M89.2659 315.908L90.5776 316.427L90.7901 316.963C89.985 318.731 87.7555 320.792 86.3282 322.337C85.0412 322.642 85.6063 322.732 84.5524 322.341L84.3867 321.57C85.1347 319.284 87.4805 317.42 89.2659 315.908Z" fill="#FEFEFD"/>
<path d="M94.1667 315.441C90.9726 314.372 88.6715 313.164 86.2969 310.753C89.0001 312.328 91.6848 313.705 94.6019 314.832L94.1667 315.441Z" fill="#732C26"/>
</svg>
