<svg width="74" height="74" viewBox="0 0 74 74" fill="none" xmlns="http://www.w3.org/2000/svg">
<g clip-path="url(#clip0_2415_337)">
<mask id="mask0_2415_337" style="mask-type:luminance" maskUnits="userSpaceOnUse" x="0" y="0" width="74" height="74">
<path d="M74 0H0V74H74V0Z" fill="white"/>
</mask>
<g mask="url(#mask0_2415_337)">
<path d="M16.6956 53.3945C16.8334 52.1465 17.9689 51.2441 19.2295 51.3805L51.2156 54.8416C52.4763 54.978 53.3879 56.102 53.2501 57.3499C53.1123 58.5979 51.9769 59.5004 50.7163 59.364L18.7302 55.9029C17.4695 55.7665 16.5578 54.6425 16.6956 53.3945Z" fill="#252525"/>
<path d="M26.1359 22.3789L26.5781 18.3738L51.3583 21.0552L50.9161 25.0602C50.6882 27.1247 47.8578 31.2843 42.4275 37.5392L42.5451 37.7559C46.3621 44.8296 48.1812 49.4013 47.9991 51.4781L47.9924 51.5389L47.5502 55.5439L22.7699 52.8626L23.2122 48.8575C23.4264 46.9169 26.0064 42.9342 30.9517 36.9119L31.4162 36.3477L31.0858 35.6975C27.5715 28.7598 25.9216 24.3195 26.1359 22.3789Z" stroke="#252525" stroke-width="2.9319" stroke-linejoin="round"/>
<path d="M30.6189 50.517L40.1329 51.5564C41.7497 51.7314 42.7521 50.1356 42.8575 48.865C42.8537 47.149 41.9769 46.3852 39.9372 43.6891C39.2523 42.8207 37.9568 41.2809 36.0104 41.1062C34.0978 40.9213 32.4476 42.3118 31.7764 42.8969C31.7764 42.8969 28.1747 45.9169 27.9781 47.2032L27.9735 47.2445C27.7936 48.8742 28.9775 50.3394 30.6189 50.517Z" fill="#8E51FF"/>
<path d="M20.7503 16.6501C20.8881 15.4022 22.0235 14.4997 23.2842 14.6361L55.2703 18.0972C56.531 18.2336 57.4426 19.3576 57.3048 20.6055C57.167 21.8535 56.0316 22.756 54.771 22.6196L22.7848 19.1585C21.5242 19.0221 20.6125 17.8981 20.7503 16.6501Z" fill="#252525"/>
</g>
</g>
<defs>
<clipPath id="clip0_2415_337">
<rect width="74" height="74" fill="white"/>
</clipPath>
</defs>
</svg>
